STARTFONT 2.1
COMMENT 
COMMENT This file has been produced by ttf2bdf written by Subhabrata Biswas
COMMENT 
COMMENT For comments, questions, bug reports, send a mail to
COMMENT                                           subhabrata.biswas@usa.net
COMMENT 
FONT -*-Figtree SemiBold-Medium-R-Normal--16-120-96-96-c-8--fontspecific
SIZE 12 96 96
FONTBOUNDINGBOX 20 20 -3 -4
STARTPROPERTIES 15
FOUNDRY "Misc"
FAMILY_NAME "Figtree SemiBold"
WEIGHT_NAME "Medium"
SLANT "R"
SETWIDTH_NAME "Normal"
PIXEL_SIZE 11
POINT_SIZE 120
RESOLUTION_X 96
RESOLUTION_Y 96
SPACING "C"
CHARSET_ENCODING "fontspecific"
FONT_ASCENT 16
FONT_DESCENT 4
DEFAULT_CHAR 12
COPYRIGHT "You may wish to put your copyright here"
ENDPROPERTIES
CHARS 245
STARTCHAR C0011
ENCODING 11
SWIDTH 687 0
DWIDTH 11 0
BBX 8 16 2 -3
BITMAP
FF
81
81
81
81
81
81
81
81
81
81
81
81
81
81
FF
ENDCHAR
STARTCHAR C0012
ENCODING 12
SWIDTH 687 0
DWIDTH 11 0
BBX 8 16 2 -3
BITMAP
FF
81
81
81
81
81
81
81
81
81
81
81
81
81
81
FF
ENDCHAR
STARTCHAR C0013
ENCODING 13
SWIDTH 625 0
DWIDTH 10 0
BBX 1 1 0 -1
BITMAP
00
ENDCHAR
STARTCHAR C0014
ENCODING 14
SWIDTH 687 0
DWIDTH 11 0
BBX 8 16 2 -3
BITMAP
FF
81
81
81
81
81
81
81
81
81
81
81
81
81
81
FF
ENDCHAR
STARTCHAR C0015
ENCODING 15
SWIDTH 687 0
DWIDTH 11 0
BBX 8 16 2 -3
BITMAP
FF
81
81
81
81
81
81
81
81
81
81
81
81
81
81
FF
ENDCHAR
STARTCHAR C0016
ENCODING 16
SWIDTH 687 0
DWIDTH 11 0
BBX 8 16 2 -3
BITMAP
FF
81
81
81
81
81
81
81
81
81
81
81
81
81
81
FF
ENDCHAR
STARTCHAR C0017
ENCODING 17
SWIDTH 687 0
DWIDTH 11 0
BBX 8 16 2 -3
BITMAP
FF
81
81
81
81
81
81
81
81
81
81
81
81
81
81
FF
ENDCHAR
STARTCHAR C0018
ENCODING 18
SWIDTH 687 0
DWIDTH 11 0
BBX 8 16 2 -3
BITMAP
FF
81
81
81
81
81
81
81
81
81
81
81
81
81
81
FF
ENDCHAR
STARTCHAR C0019
ENCODING 19
SWIDTH 687 0
DWIDTH 11 0
BBX 8 16 2 -3
BITMAP
FF
81
81
81
81
81
81
81
81
81
81
81
81
81
81
FF
ENDCHAR
STARTCHAR C0020
ENCODING 20
SWIDTH 687 0
DWIDTH 11 0
BBX 8 16 2 -3
BITMAP
FF
81
81
81
81
81
81
81
81
81
81
81
81
81
81
FF
ENDCHAR
STARTCHAR C0021
ENCODING 21
SWIDTH 687 0
DWIDTH 11 0
BBX 8 16 2 -3
BITMAP
FF
81
81
81
81
81
81
81
81
81
81
81
81
81
81
FF
ENDCHAR
STARTCHAR C0022
ENCODING 22
SWIDTH 687 0
DWIDTH 11 0
BBX 8 16 2 -3
BITMAP
FF
81
81
81
81
81
81
81
81
81
81
81
81
81
81
FF
ENDCHAR
STARTCHAR C0023
ENCODING 23
SWIDTH 687 0
DWIDTH 11 0
BBX 8 16 2 -3
BITMAP
FF
81
81
81
81
81
81
81
81
81
81
81
81
81
81
FF
ENDCHAR
STARTCHAR C0024
ENCODING 24
SWIDTH 687 0
DWIDTH 11 0
BBX 8 16 2 -3
BITMAP
FF
81
81
81
81
81
81
81
81
81
81
81
81
81
81
FF
ENDCHAR
STARTCHAR C0025
ENCODING 25
SWIDTH 687 0
DWIDTH 11 0
BBX 8 16 2 -3
BITMAP
FF
81
81
81
81
81
81
81
81
81
81
81
81
81
81
FF
ENDCHAR
STARTCHAR C0026
ENCODING 26
SWIDTH 687 0
DWIDTH 11 0
BBX 8 16 2 -3
BITMAP
FF
81
81
81
81
81
81
81
81
81
81
81
81
81
81
FF
ENDCHAR
STARTCHAR C0027
ENCODING 27
SWIDTH 687 0
DWIDTH 11 0
BBX 8 16 2 -3
BITMAP
FF
81
81
81
81
81
81
81
81
81
81
81
81
81
81
FF
ENDCHAR
STARTCHAR C0028
ENCODING 28
SWIDTH 687 0
DWIDTH 11 0
BBX 8 16 2 -3
BITMAP
FF
81
81
81
81
81
81
81
81
81
81
81
81
81
81
FF
ENDCHAR
STARTCHAR C0029
ENCODING 29
SWIDTH 687 0
DWIDTH 11 0
BBX 8 16 2 -3
BITMAP
FF
81
81
81
81
81
81
81
81
81
81
81
81
81
81
FF
ENDCHAR
STARTCHAR C0030
ENCODING 30
SWIDTH 687 0
DWIDTH 11 0
BBX 8 16 2 -3
BITMAP
FF
81
81
81
81
81
81
81
81
81
81
81
81
81
81
FF
ENDCHAR
STARTCHAR C0031
ENCODING 31
SWIDTH 687 0
DWIDTH 11 0
BBX 8 16 2 -3
BITMAP
FF
81
81
81
81
81
81
81
81
81
81
81
81
81
81
FF
ENDCHAR
STARTCHAR C0032- 
ENCODING 32
SWIDTH 250 0
DWIDTH 4 0
BBX 1 1 0 -1
BITMAP
00
ENDCHAR
STARTCHAR C0033-!
ENCODING 33
SWIDTH 312 0
DWIDTH 5 0
BBX 3 11 1 0
BITMAP
C0
C0
40
40
40
40
40
40
00
40
E0
ENDCHAR
STARTCHAR C0034-"
ENCODING 34
SWIDTH 375 0
DWIDTH 6 0
BBX 4 4 1 7
BITMAP
F0
F0
F0
F0
ENDCHAR
STARTCHAR C0035-#
ENCODING 35
SWIDTH 625 0
DWIDTH 10 0
BBX 10 11 0 0
BITMAP
1900
1900
1100
7FC0
1300
1200
3200
FF80
2200
2200
2600
ENDCHAR
STARTCHAR C0036-$
ENCODING 36
SWIDTH 562 0
DWIDTH 9 0
BBX 7 14 1 -2
BITMAP
10
38
FE
D6
D0
F0
7C
1E
16
D6
FE
38
10
10
ENDCHAR
STARTCHAR C0037-%
ENCODING 37
SWIDTH 812 0
DWIDTH 13 0
BBX 11 11 1 0
BITMAP
F0C0
9980
9900
DB00
7600
0C00
0DC0
1B60
3220
2320
E1C0
ENDCHAR
STARTCHAR C0038-&
ENCODING 38
SWIDTH 625 0
DWIDTH 10 0
BBX 9 11 1 0
BITMAP
7C00
6600
4600
6C00
3800
7800
FD80
CD80
C700
CF00
7D80
ENDCHAR
STARTCHAR C0039-'
ENCODING 39
SWIDTH 250 0
DWIDTH 4 0
BBX 2 4 1 7
BITMAP
C0
C0
C0
C0
ENDCHAR
STARTCHAR C0040-(
ENCODING 40
SWIDTH 375 0
DWIDTH 6 0
BBX 4 15 1 -2
BITMAP
30
20
60
40
C0
C0
C0
C0
C0
C0
C0
40
60
30
30
ENDCHAR
STARTCHAR C0041-)
ENCODING 41
SWIDTH 375 0
DWIDTH 6 0
BBX 4 15 1 -2
BITMAP
C0
40
60
20
30
30
30
30
30
30
30
60
60
C0
C0
ENDCHAR
STARTCHAR C0042-*
ENCODING 42
SWIDTH 500 0
DWIDTH 8 0
BBX 6 5 1 6
BITMAP
30
EC
78
70
48
ENDCHAR
STARTCHAR C0043-+
ENCODING 43
SWIDTH 625 0
DWIDTH 10 0
BBX 8 7 1 1
BITMAP
18
18
FF
FF
18
18
18
ENDCHAR
STARTCHAR C0044-,
ENCODING 44
SWIDTH 250 0
DWIDTH 4 0
BBX 2 4 1 -2
BITMAP
C0
C0
80
80
ENDCHAR
STARTCHAR C0045--
ENCODING 45
SWIDTH 437 0
DWIDTH 7 0
BBX 5 2 1 4
BITMAP
F8
F8
ENDCHAR
STARTCHAR C0046-.
ENCODING 46
SWIDTH 250 0
DWIDTH 4 0
BBX 2 2 1 0
BITMAP
C0
C0
ENDCHAR
STARTCHAR C0047-/
ENCODING 47
SWIDTH 437 0
DWIDTH 7 0
BBX 6 13 0 -1
BITMAP
04
0C
0C
08
18
18
10
30
30
20
60
60
C0
ENDCHAR
STARTCHAR C0048-0
ENCODING 48
SWIDTH 625 0
DWIDTH 10 0
BBX 9 11 1 0
BITMAP
3E00
6700
C300
C100
C180
8180
C180
C100
C300
7E00
3C00
ENDCHAR
STARTCHAR C0049-1
ENCODING 49
SWIDTH 437 0
DWIDTH 7 0
BBX 4 11 1 0
BITMAP
30
F0
F0
30
30
30
30
30
30
30
30
ENDCHAR
STARTCHAR C0050-2
ENCODING 50
SWIDTH 562 0
DWIDTH 9 0
BBX 8 11 0 0
BITMAP
3E
67
C3
03
03
0E
1C
38
60
7F
7F
ENDCHAR
STARTCHAR C0051-3
ENCODING 51
SWIDTH 562 0
DWIDTH 9 0
BBX 7 11 1 0
BITMAP
7C
CE
06
06
3C
3C
06
06
46
EE
7C
ENDCHAR
STARTCHAR C0052-4
ENCODING 52
SWIDTH 625 0
DWIDTH 10 0
BBX 9 11 1 0
BITMAP
0C00
1C00
1C00
3400
6400
6400
C400
FF80
FF80
0400
0400
ENDCHAR
STARTCHAR C0053-5
ENCODING 53
SWIDTH 562 0
DWIDTH 9 0
BBX 8 11 1 0
BITMAP
7E
40
40
C0
FC
EE
06
03
46
EE
7C
ENDCHAR
STARTCHAR C0054-6
ENCODING 54
SWIDTH 562 0
DWIDTH 9 0
BBX 8 11 1 0
BITMAP
3E
62
C0
C0
BC
EE
C3
C3
C3
6E
7C
ENDCHAR
STARTCHAR C0055-7
ENCODING 55
SWIDTH 562 0
DWIDTH 9 0
BBX 7 11 1 0
BITMAP
FE
FE
06
0C
0C
18
18
30
30
60
E0
ENDCHAR
STARTCHAR C0056-8
ENCODING 56
SWIDTH 625 0
DWIDTH 10 0
BBX 8 11 1 0
BITMAP
7E
E6
C3
C3
7E
7E
C7
C3
C3
E7
7E
ENDCHAR
STARTCHAR C0057-9
ENCODING 57
SWIDTH 562 0
DWIDTH 9 0
BBX 9 11 0 0
BITMAP
3E00
6300
4300
C300
6380
7F80
3D00
0100
0300
6600
7C00
ENDCHAR
STARTCHAR C0058-:
ENCODING 58
SWIDTH 312 0
DWIDTH 5 0
BBX 2 8 1 0
BITMAP
C0
C0
00
00
00
00
C0
C0
ENDCHAR
STARTCHAR C0059-;
ENCODING 59
SWIDTH 312 0
DWIDTH 5 0
BBX 2 10 1 -2
BITMAP
C0
C0
00
00
00
00
C0
C0
C0
80
ENDCHAR
STARTCHAR C0060-<
ENCODING 60
SWIDTH 625 0
DWIDTH 10 0
BBX 6 7 2 1
BITMAP
0C
3C
F0
C0
78
1C
04
ENDCHAR
STARTCHAR C0061-=
ENCODING 61
SWIDTH 625 0
DWIDTH 10 0
BBX 6 5 2 2
BITMAP
FC
00
00
FC
FC
ENDCHAR
STARTCHAR C0062->
ENCODING 62
SWIDTH 625 0
DWIDTH 10 0
BBX 6 7 2 1
BITMAP
C0
F0
1C
0C
78
E0
80
ENDCHAR
STARTCHAR C0063-?
ENCODING 63
SWIDTH 500 0
DWIDTH 8 0
BBX 8 11 0 0
BITMAP
7C
E6
02
03
06
1C
10
10
00
18
38
ENDCHAR
STARTCHAR C0064-@
ENCODING 64
SWIDTH 1000 0
DWIDTH 16 0
BBX 14 14 1 -3
BITMAP
1FE0
3030
6018
C74C
8FCC
9844
9844
9844
98C4
CFCC
C778
6000
3840
1FC0
ENDCHAR
STARTCHAR C0065-A
ENCODING 65
SWIDTH 687 0
DWIDTH 11 0
BBX 11 11 0 0
BITMAP
0E00
0E00
0B00
1B00
1900
3180
3180
3FC0
60C0
6040
C060
ENDCHAR
STARTCHAR C0066-B
ENCODING 66
SWIDTH 625 0
DWIDTH 10 0
BBX 8 11 1 0
BITMAP
FE
C6
C3
C3
FE
FE
C3
C3
C3
FF
FE
ENDCHAR
STARTCHAR C0067-C
ENCODING 67
SWIDTH 750 0
DWIDTH 12 0
BBX 10 11 1 0
BITMAP
3F00
7380
E0C0
C000
C000
C000
C000
C080
E0C0
7B80
3F00
ENDCHAR
STARTCHAR C0068-D
ENCODING 68
SWIDTH 687 0
DWIDTH 11 0
BBX 10 11 1 0
BITMAP
FE00
FF00
C380
C180
C080
C0C0
C180
C180
C380
FF00
FC00
ENDCHAR
STARTCHAR C0069-E
ENCODING 69
SWIDTH 562 0
DWIDTH 9 0
BBX 7 11 1 0
BITMAP
FE
FE
C0
C0
FE
FE
C0
C0
C0
FE
FE
ENDCHAR
STARTCHAR C0070-F
ENCODING 70
SWIDTH 562 0
DWIDTH 9 0
BBX 7 11 1 0
BITMAP
FE
FE
C0
C0
C0
FE
C0
C0
C0
C0
C0
ENDCHAR
STARTCHAR C0071-G
ENCODING 71
SWIDTH 750 0
DWIDTH 12 0
BBX 11 11 1 0
BITMAP
3F80
71C0
E080
C000
C000
C3E0
C3E0
C040
E0C0
7B80
1F00
ENDCHAR
STARTCHAR C0072-H
ENCODING 72
SWIDTH 750 0
DWIDTH 12 0
BBX 10 11 1 0
BITMAP
C0C0
C0C0
C0C0
C0C0
FFC0
FFC0
C0C0
C0C0
C0C0
C0C0
C0C0
ENDCHAR
STARTCHAR C0073-I
ENCODING 73
SWIDTH 312 0
DWIDTH 5 0
BBX 2 11 1 0
BITMAP
C0
C0
C0
C0
C0
C0
C0
C0
C0
C0
C0
ENDCHAR
STARTCHAR C0074-J
ENCODING 74
SWIDTH 562 0
DWIDTH 9 0
BBX 7 11 0 0
BITMAP
02
02
02
02
02
02
02
02
46
EE
7C
ENDCHAR
STARTCHAR C0075-K
ENCODING 75
SWIDTH 625 0
DWIDTH 10 0
BBX 9 11 1 0
BITMAP
C380
C600
CC00
DC00
F800
F800
FC00
CC00
C600
C300
C180
ENDCHAR
STARTCHAR C0076-L
ENCODING 76
SWIDTH 500 0
DWIDTH 8 0
BBX 7 11 1 0
BITMAP
C0
C0
C0
C0
C0
C0
C0
C0
C0
FE
FE
ENDCHAR
STARTCHAR C0077-M
ENCODING 77
SWIDTH 875 0
DWIDTH 14 0
BBX 11 11 1 0
BITMAP
E060
E0E0
F1E0
D9E0
DB60
CF60
C660
C460
C060
C060
C060
ENDCHAR
STARTCHAR C0078-N
ENCODING 78
SWIDTH 750 0
DWIDTH 12 0
BBX 10 11 1 0
BITMAP
E0C0
F0C0
F0C0
D8C0
DCC0
CCC0
C6C0
C3C0
C3C0
C1C0
C0C0
ENDCHAR
STARTCHAR C0079-O
ENCODING 79
SWIDTH 812 0
DWIDTH 13 0
BBX 11 11 1 0
BITMAP
3F00
71C0
E0C0
C060
C060
C060
C060
C060
E0C0
7F80
3F00
ENDCHAR
STARTCHAR C0080-P
ENCODING 80
SWIDTH 625 0
DWIDTH 10 0
BBX 8 11 1 0
BITMAP
FE
CF
C3
C3
C3
FF
FE
C0
C0
C0
C0
ENDCHAR
STARTCHAR C0081-Q
ENCODING 81
SWIDTH 812 0
DWIDTH 13 0
BBX 11 12 1 -1
BITMAP
3F00
71C0
E0C0
C060
C060
C060
C260
C360
E1C0
7FC0
3F60
0040
ENDCHAR
STARTCHAR C0082-R
ENCODING 82
SWIDTH 625 0
DWIDTH 10 0
BBX 9 11 1 0
BITMAP
FE00
FF00
C300
C300
C300
FE00
FC00
C600
C600
C300
C380
ENDCHAR
STARTCHAR C0083-S
ENCODING 83
SWIDTH 625 0
DWIDTH 10 0
BBX 8 11 1 0
BITMAP
7E
E7
C2
C0
70
3E
07
03
C3
E7
7E
ENDCHAR
STARTCHAR C0084-T
ENCODING 84
SWIDTH 562 0
DWIDTH 9 0
BBX 9 11 0 0
BITMAP
FF80
FF80
0C00
0C00
0C00
0C00
0C00
0C00
0C00
0C00
0C00
ENDCHAR
STARTCHAR C0085-U
ENCODING 85
SWIDTH 687 0
DWIDTH 11 0
BBX 9 11 1 0
BITMAP
C180
C180
C180
C180
C180
C180
C180
C180
E180
7700
3E00
ENDCHAR
STARTCHAR C0086-V
ENCODING 86
SWIDTH 687 0
DWIDTH 11 0
BBX 11 11 0 0
BITMAP
C060
6060
60C0
30C0
3180
3180
1980
1B00
0F00
0E00
0E00
ENDCHAR
STARTCHAR C0087-W
ENCODING 87
SWIDTH 1000 0
DWIDTH 16 0
BBX 15 11 0 0
BITMAP
C186
6386
6386
63CC
22CC
364C
3668
3478
1C78
1C38
1C30
ENDCHAR
STARTCHAR C0088-X
ENCODING 88
SWIDTH 625 0
DWIDTH 10 0
BBX 10 11 0 0
BITMAP
E0C0
7180
3300
1F00
0E00
0C00
1E00
1B00
3380
6180
E0C0
ENDCHAR
STARTCHAR C0089-Y
ENCODING 89
SWIDTH 625 0
DWIDTH 10 0
BBX 10 11 0 0
BITMAP
E1C0
6180
3300
3300
1E00
0C00
0C00
0C00
0C00
0C00
0C00
ENDCHAR
STARTCHAR C0090-Z
ENCODING 90
SWIDTH 625 0
DWIDTH 10 0
BBX 9 11 1 0
BITMAP
FF80
FF80
0700
0E00
0C00
1800
3000
7000
E000
FF00
FF00
ENDCHAR
STARTCHAR C0091-[
ENCODING 91
SWIDTH 312 0
DWIDTH 5 0
BBX 3 15 1 -2
BITMAP
E0
E0
C0
C0
C0
C0
C0
C0
C0
C0
C0
C0
C0
E0
E0
ENDCHAR
STARTCHAR C0092-\
ENCODING 92
SWIDTH 437 0
DWIDTH 7 0
BBX 6 13 0 -1
BITMAP
C0
40
60
60
20
30
30
10
18
18
08
0C
0C
ENDCHAR
STARTCHAR C0093-]
ENCODING 93
SWIDTH 312 0
DWIDTH 5 0
BBX 3 15 1 -2
BITMAP
E0
E0
60
60
60
60
60
60
60
60
60
60
60
E0
E0
ENDCHAR
STARTCHAR C0094-^
ENCODING 94
SWIDTH 562 0
DWIDTH 9 0
BBX 7 5 1 6
BITMAP
38
38
6C
64
C6
ENDCHAR
STARTCHAR C0095-_
ENCODING 95
SWIDTH 437 0
DWIDTH 7 0
BBX 7 2 0 -2
BITMAP
FE
FE
ENDCHAR
STARTCHAR C0096-`
ENCODING 96
SWIDTH 250 0
DWIDTH 4 0
BBX 4 2 0 9
BITMAP
C0
70
ENDCHAR
STARTCHAR C0097-a
ENCODING 97
SWIDTH 500 0
DWIDTH 8 0
BBX 7 8 1 0
BITMAP
78
CC
04
7E
FE
86
CE
F6
ENDCHAR
STARTCHAR C0098-b
ENCODING 98
SWIDTH 562 0
DWIDTH 9 0
BBX 8 11 1 0
BITMAP
C0
C0
C0
FC
EE
C3
C3
C3
C3
EE
FC
ENDCHAR
STARTCHAR C0099-c
ENCODING 99
SWIDTH 562 0
DWIDTH 9 0
BBX 7 8 1 0
BITMAP
7C
EE
C4
80
80
C4
EE
7C
ENDCHAR
STARTCHAR C0100-d
ENCODING 100
SWIDTH 562 0
DWIDTH 9 0
BBX 7 11 1 0
BITMAP
02
02
02
7A
EE
C6
82
82
C6
EE
7A
ENDCHAR
STARTCHAR C0101-e
ENCODING 101
SWIDTH 562 0
DWIDTH 9 0
BBX 7 8 1 0
BITMAP
7C
EE
C6
FE
80
C4
EE
7C
ENDCHAR
STARTCHAR C0102-f
ENCODING 102
SWIDTH 375 0
DWIDTH 6 0
BBX 6 11 0 0
BITMAP
3C
30
30
FC
30
30
30
30
30
30
30
ENDCHAR
STARTCHAR C0103-g
ENCODING 103
SWIDTH 625 0
DWIDTH 10 0
BBX 8 11 1 -3
BITMAP
7B
EF
C7
83
C3
C7
FF
3B
02
46
FC
ENDCHAR
STARTCHAR C0104-h
ENCODING 104
SWIDTH 562 0
DWIDTH 9 0
BBX 7 11 1 0
BITMAP
C0
C0
C0
FC
EE
C6
C6
C6
C6
C6
C6
ENDCHAR
STARTCHAR C0105-i
ENCODING 105
SWIDTH 250 0
DWIDTH 4 0
BBX 2 12 1 0
BITMAP
40
C0
00
00
C0
C0
C0
C0
C0
C0
C0
C0
ENDCHAR
STARTCHAR C0106-j
ENCODING 106
SWIDTH 312 0
DWIDTH 5 0
BBX 5 15 -1 -3
BITMAP
10
38
10
00
10
10
10
10
10
10
10
10
10
B0
F0
ENDCHAR
STARTCHAR C0107-k
ENCODING 107
SWIDTH 500 0
DWIDTH 8 0
BBX 7 11 1 0
BITMAP
C0
C0
C0
CE
DC
F8
F0
F8
D8
CC
C6
ENDCHAR
STARTCHAR C0108-l
ENCODING 108
SWIDTH 250 0
DWIDTH 4 0
BBX 2 11 1 0
BITMAP
C0
C0
C0
C0
C0
C0
C0
C0
C0
C0
C0
ENDCHAR
STARTCHAR C0109-m
ENCODING 109
SWIDTH 875 0
DWIDTH 14 0
BBX 12 8 1 0
BITMAP
FDE0
EF70
C630
C630
C630
C630
C630
C630
ENDCHAR
STARTCHAR C0110-n
ENCODING 110
SWIDTH 562 0
DWIDTH 9 0
BBX 7 8 1 0
BITMAP
FC
EE
C6
C6
C6
C6
C6
C6
ENDCHAR
STARTCHAR C0111-o
ENCODING 111
SWIDTH 562 0
DWIDTH 9 0
BBX 8 8 1 0
BITMAP
7C
EE
C3
83
83
C3
EE
7C
ENDCHAR
STARTCHAR C0112-p
ENCODING 112
SWIDTH 625 0
DWIDTH 10 0
BBX 8 11 1 -3
BITMAP
FE
EE
C3
C3
C3
C3
EE
FE
C0
C0
C0
ENDCHAR
STARTCHAR C0113-q
ENCODING 113
SWIDTH 562 0
DWIDTH 9 0
BBX 7 11 1 -3
BITMAP
7A
EE
C6
82
82
C6
EE
7A
02
02
02
ENDCHAR
STARTCHAR C0114-r
ENCODING 114
SWIDTH 375 0
DWIDTH 6 0
BBX 5 8 1 0
BITMAP
D8
F8
C0
C0
C0
C0
C0
C0
ENDCHAR
STARTCHAR C0115-s
ENCODING 115
SWIDTH 437 0
DWIDTH 7 0
BBX 6 8 1 0
BITMAP
78
CC
C0
F0
3C
0C
CC
78
ENDCHAR
STARTCHAR C0116-t
ENCODING 116
SWIDTH 375 0
DWIDTH 6 0
BBX 6 11 0 0
BITMAP
20
20
20
FC
FC
20
20
20
20
34
3C
ENDCHAR
STARTCHAR C0117-u
ENCODING 117
SWIDTH 562 0
DWIDTH 9 0
BBX 7 8 1 0
BITMAP
C6
C6
C6
C6
C6
C6
EE
7E
ENDCHAR
STARTCHAR C0118-v
ENCODING 118
SWIDTH 562 0
DWIDTH 9 0
BBX 9 8 0 0
BITMAP
C380
6300
6300
2600
3600
3400
1C00
1800
ENDCHAR
STARTCHAR C0119-w
ENCODING 119
SWIDTH 812 0
DWIDTH 13 0
BBX 13 8 0 0
BITMAP
C718
4710
6530
65B0
2DA0
38E0
38E0
18C0
ENDCHAR
STARTCHAR C0120-x
ENCODING 120
SWIDTH 500 0
DWIDTH 8 0
BBX 8 8 0 0
BITMAP
E7
66
3C
18
1C
3C
66
E3
ENDCHAR
STARTCHAR C0121-y
ENCODING 121
SWIDTH 562 0
DWIDTH 9 0
BBX 9 11 0 -3
BITMAP
C180
6300
6300
2600
3600
1600
1C00
1C00
1800
5800
F000
ENDCHAR
STARTCHAR C0122-z
ENCODING 122
SWIDTH 500 0
DWIDTH 8 0
BBX 6 8 1 0
BITMAP
FC
0C
18
30
60
60
C0
FC
ENDCHAR
STARTCHAR C0123-{
ENCODING 123
SWIDTH 375 0
DWIDTH 6 0
BBX 4 15 1 -2
BITMAP
10
30
20
60
60
60
60
C0
60
60
60
60
20
30
10
ENDCHAR
STARTCHAR C0124-|
ENCODING 124
SWIDTH 250 0
DWIDTH 4 0
BBX 2 17 1 -4
BITMAP
C0
C0
C0
C0
C0
C0
C0
C0
C0
C0
C0
C0
C0
C0
C0
C0
C0
ENDCHAR
STARTCHAR C0125-}
ENCODING 125
SWIDTH 375 0
DWIDTH 6 0
BBX 4 15 1 -2
BITMAP
C0
C0
60
60
60
60
60
30
60
60
60
60
60
C0
80
ENDCHAR
STARTCHAR C0126-~
ENCODING 126
SWIDTH 625 0
DWIDTH 10 0
BBX 8 4 1 3
BITMAP
70
F9
9F
0E
ENDCHAR
STARTCHAR C0127
ENCODING 127
SWIDTH 687 0
DWIDTH 11 0
BBX 8 16 2 -3
BITMAP
FF
81
81
81
81
81
81
81
81
81
81
81
81
81
81
FF
ENDCHAR
STARTCHAR C0128
ENCODING 128
SWIDTH 687 0
DWIDTH 11 0
BBX 10 11 0 0
BITMAP
0F80
19C0
30C0
3000
FE00
6000
FE00
3080
30C0
1FC0
0F80
ENDCHAR
STARTCHAR C0129
ENCODING 129
SWIDTH 687 0
DWIDTH 11 0
BBX 8 16 2 -3
BITMAP
FF
81
81
81
81
81
81
81
81
81
81
81
81
81
81
FF
ENDCHAR
STARTCHAR C0130
ENCODING 130
SWIDTH 250 0
DWIDTH 4 0
BBX 2 4 1 -2
BITMAP
C0
C0
80
80
ENDCHAR
STARTCHAR C0131
ENCODING 131
SWIDTH 687 0
DWIDTH 11 0
BBX 8 16 2 -3
BITMAP
FF
81
81
81
81
81
81
81
81
81
81
81
81
81
81
FF
ENDCHAR
STARTCHAR C0132
ENCODING 132
SWIDTH 375 0
DWIDTH 6 0
BBX 4 4 1 -2
BITMAP
F0
F0
A0
A0
ENDCHAR
STARTCHAR C0133
ENCODING 133
SWIDTH 687 0
DWIDTH 11 0
BBX 9 2 1 0
BITMAP
CD80
CD80
ENDCHAR
STARTCHAR C0134
ENCODING 134
SWIDTH 500 0
DWIDTH 8 0
BBX 7 11 0 0
BITMAP
18
18
18
FE
92
18
18
18
18
18
18
ENDCHAR
STARTCHAR C0135
ENCODING 135
SWIDTH 500 0
DWIDTH 8 0
BBX 7 14 0 -3
BITMAP
18
18
18
FE
92
18
18
18
18
92
FE
18
18
18
ENDCHAR
STARTCHAR C0136
ENCODING 136
SWIDTH 375 0
DWIDTH 6 0
BBX 6 2 0 9
BITMAP
78
CC
ENDCHAR
STARTCHAR C0137
ENCODING 137
SWIDTH 687 0
DWIDTH 11 0
BBX 8 16 2 -3
BITMAP
FF
81
81
81
81
81
81
81
81
81
81
81
81
81
81
FF
ENDCHAR
STARTCHAR C0138
ENCODING 138
SWIDTH 625 0
DWIDTH 10 0
BBX 8 14 1 0
BITMAP
6E
18
00
7E
E7
C2
C0
70
3E
07
03
C3
E7
7E
ENDCHAR
STARTCHAR C0139
ENCODING 139
SWIDTH 375 0
DWIDTH 6 0
BBX 4 6 1 2
BITMAP
30
60
C0
C0
60
70
ENDCHAR
STARTCHAR C0140
ENCODING 140
SWIDTH 1125 0
DWIDTH 18 0
BBX 16 11 1 0
BITMAP
3F7F
73FF
E0E0
C060
C07E
C07E
C060
C0E0
E0E0
7FFF
3F7F
ENDCHAR
STARTCHAR C0141
ENCODING 141
SWIDTH 687 0
DWIDTH 11 0
BBX 8 16 2 -3
BITMAP
FF
81
81
81
81
81
81
81
81
81
81
81
81
81
81
FF
ENDCHAR
STARTCHAR C0142
ENCODING 142
SWIDTH 625 0
DWIDTH 10 0
BBX 9 14 1 0
BITMAP
6E00
1800
0000
FF80
FF80
0700
0E00
0C00
1800
3000
7000
E000
FF00
FF00
ENDCHAR
STARTCHAR C0143
ENCODING 143
SWIDTH 687 0
DWIDTH 11 0
BBX 8 16 2 -3
BITMAP
FF
81
81
81
81
81
81
81
81
81
81
81
81
81
81
FF
ENDCHAR
STARTCHAR C0144
ENCODING 144
SWIDTH 687 0
DWIDTH 11 0
BBX 8 16 2 -3
BITMAP
FF
81
81
81
81
81
81
81
81
81
81
81
81
81
81
FF
ENDCHAR
STARTCHAR C0145
ENCODING 145
SWIDTH 187 0
DWIDTH 3 0
BBX 3 3 0 8
BITMAP
60
60
C0
ENDCHAR
STARTCHAR C0146
ENCODING 146
SWIDTH 187 0
DWIDTH 3 0
BBX 2 4 1 7
BITMAP
C0
C0
80
80
ENDCHAR
STARTCHAR C0147
ENCODING 147
SWIDTH 375 0
DWIDTH 6 0
BBX 6 3 0 8
BITMAP
6C
68
D8
ENDCHAR
STARTCHAR C0148
ENCODING 148
SWIDTH 375 0
DWIDTH 6 0
BBX 5 4 1 7
BITMAP
D8
D8
90
90
ENDCHAR
STARTCHAR C0149
ENCODING 149
SWIDTH 500 0
DWIDTH 8 0
BBX 4 3 2 3
BITMAP
E0
F0
E0
ENDCHAR
STARTCHAR C0150
ENCODING 150
SWIDTH 562 0
DWIDTH 9 0
BBX 9 2 0 4
BITMAP
FF80
FF80
ENDCHAR
STARTCHAR C0151
ENCODING 151
SWIDTH 1125 0
DWIDTH 18 0
BBX 18 2 0 4
BITMAP
FFFFC0
FFFFC0
ENDCHAR
STARTCHAR C0152
ENCODING 152
SWIDTH 375 0
DWIDTH 6 0
BBX 5 2 1 9
BITMAP
E8
B8
ENDCHAR
STARTCHAR C0153
ENCODING 153
SWIDTH 875 0
DWIDTH 14 0
BBX 13 7 0 4
BITMAP
FF18
3398
33E8
3368
3348
3308
3308
ENDCHAR
STARTCHAR C0154
ENCODING 154
SWIDTH 500 0
DWIDTH 8 0
BBX 6 11 1 0
BITMAP
DC
30
00
78
CC
C0
F0
3C
0C
CC
78
ENDCHAR
STARTCHAR C0155
ENCODING 155
SWIDTH 375 0
DWIDTH 6 0
BBX 4 6 1 2
BITMAP
C0
60
30
30
60
E0
ENDCHAR
STARTCHAR C0156
ENCODING 156
SWIDTH 1000 0
DWIDTH 16 0
BBX 14 8 1 0
BITMAP
7CF8
EFDC
C38C
83FC
8300
C388
EFDC
7CF8
ENDCHAR
STARTCHAR C0157
ENCODING 157
SWIDTH 687 0
DWIDTH 11 0
BBX 8 16 2 -3
BITMAP
FF
81
81
81
81
81
81
81
81
81
81
81
81
81
81
FF
ENDCHAR
STARTCHAR C0158
ENCODING 158
SWIDTH 500 0
DWIDTH 8 0
BBX 6 11 1 0
BITMAP
DC
30
00
FC
0C
18
30
60
60
C0
FC
ENDCHAR
STARTCHAR C0159
ENCODING 159
SWIDTH 625 0
DWIDTH 10 0
BBX 10 15 0 0
BITMAP
1100
3300
0000
0000
E1C0
6180
3300
3300
1E00
0C00
0C00
0C00
0C00
0C00
0C00
ENDCHAR
STARTCHAR C0160
ENCODING 160
SWIDTH 250 0
DWIDTH 4 0
BBX 1 1 0 -1
BITMAP
00
ENDCHAR
STARTCHAR C0161
ENCODING 161
SWIDTH 312 0
DWIDTH 5 0
BBX 3 11 1 -3
BITMAP
E0
C0
00
00
40
40
40
40
40
C0
C0
ENDCHAR
STARTCHAR C0162
ENCODING 162
SWIDTH 562 0
DWIDTH 9 0
BBX 7 11 1 0
BITMAP
10
3C
FE
D6
90
90
D4
F6
7C
10
10
ENDCHAR
STARTCHAR C0163
ENCODING 163
SWIDTH 562 0
DWIDTH 9 0
BBX 8 11 1 0
BITMAP
3E
67
63
60
60
FC
60
60
60
FF
FF
ENDCHAR
STARTCHAR C0164
ENCODING 164
SWIDTH 562 0
DWIDTH 9 0
BBX 7 7 1 2
BITMAP
D6
7E
66
46
66
FE
42
ENDCHAR
STARTCHAR C0165
ENCODING 165
SWIDTH 562 0
DWIDTH 9 0
BBX 9 11 0 0
BITMAP
E180
6300
3300
3600
1C00
7F00
0C00
7F00
0C00
0C00
0C00
ENDCHAR
STARTCHAR C0166
ENCODING 166
SWIDTH 312 0
DWIDTH 5 0
BBX 1 17 2 -4
BITMAP
80
80
80
80
80
80
80
00
00
80
80
80
80
80
80
80
80
ENDCHAR
STARTCHAR C0167
ENCODING 167
SWIDTH 562 0
DWIDTH 9 0
BBX 7 12 1 -1
BITMAP
7C
C6
C0
70
7C
C4
C6
7C
1C
06
C4
7C
ENDCHAR
STARTCHAR C0168
ENCODING 168
SWIDTH 437 0
DWIDTH 7 0
BBX 6 2 1 10
BITMAP
44
CC
ENDCHAR
STARTCHAR C0169
ENCODING 169
SWIDTH 812 0
DWIDTH 13 0
BBX 11 11 1 0
BITMAP
3F80
60C0
CE40
9F60
9120
B020
9120
9F60
C440
61C0
1F00
ENDCHAR
STARTCHAR C0170
ENCODING 170
SWIDTH 312 0
DWIDTH 5 0
BBX 5 5 0 6
BITMAP
F0
18
78
D8
78
ENDCHAR
STARTCHAR C0171
ENCODING 171
SWIDTH 625 0
DWIDTH 10 0
BBX 7 6 1 2
BITMAP
36
6C
D8
D8
6C
7E
ENDCHAR
STARTCHAR C0172
ENCODING 172
SWIDTH 625 0
DWIDTH 10 0
BBX 6 3 2 3
BITMAP
FC
0C
0C
ENDCHAR
STARTCHAR C0173
ENCODING 173
SWIDTH 687 0
DWIDTH 11 0
BBX 8 16 2 -3
BITMAP
FF
81
81
81
81
81
81
81
81
81
81
81
81
81
81
FF
ENDCHAR
STARTCHAR C0174
ENCODING 174
SWIDTH 625 0
DWIDTH 10 0
BBX 8 8 1 3
BITMAP
7E
C3
BD
A5
B9
AD
C3
7E
ENDCHAR
STARTCHAR C0175
ENCODING 175
SWIDTH 312 0
DWIDTH 5 0
BBX 5 2 0 9
BITMAP
F8
F8
ENDCHAR
STARTCHAR C0176
ENCODING 176
SWIDTH 375 0
DWIDTH 6 0
BBX 4 4 1 7
BITMAP
F0
90
90
F0
ENDCHAR
STARTCHAR C0177
ENCODING 177
SWIDTH 625 0
DWIDTH 10 0
BBX 8 9 1 0
BITMAP
18
18
FF
FF
18
18
18
80
FF
ENDCHAR
STARTCHAR C0178
ENCODING 178
SWIDTH 375 0
DWIDTH 6 0
BBX 5 7 0 6
BITMAP
78
C8
18
30
60
78
78
ENDCHAR
STARTCHAR C0179
ENCODING 179
SWIDTH 375 0
DWIDTH 6 0
BBX 4 7 1 6
BITMAP
F0
90
70
70
10
F0
60
ENDCHAR
STARTCHAR C0180
ENCODING 180
SWIDTH 250 0
DWIDTH 4 0
BBX 4 2 0 9
BITMAP
70
C0
ENDCHAR
STARTCHAR C0181
ENCODING 181
SWIDTH 562 0
DWIDTH 9 0
BBX 7 11 1 -3
BITMAP
C6
C6
C6
C6
C6
C6
EE
BE
80
80
80
ENDCHAR
STARTCHAR C0182
ENCODING 182
SWIDTH 562 0
DWIDTH 9 0
BBX 8 12 0 -1
BITMAP
3F
7F
FF
FF
FF
7F
3F
0F
0F
0F
0F
0F
ENDCHAR
STARTCHAR C0183
ENCODING 183
SWIDTH 250 0
DWIDTH 4 0
BBX 2 2 1 4
BITMAP
C0
C0
ENDCHAR
STARTCHAR C0184
ENCODING 184
SWIDTH 250 0
DWIDTH 4 0
BBX 3 3 0 -3
BITMAP
40
20
E0
ENDCHAR
STARTCHAR C0185
ENCODING 185
SWIDTH 250 0
DWIDTH 4 0
BBX 2 7 1 6
BITMAP
C0
C0
40
40
40
40
40
ENDCHAR
STARTCHAR C0186
ENCODING 186
SWIDTH 375 0
DWIDTH 6 0
BBX 5 5 0 6
BITMAP
78
C8
C8
78
30
ENDCHAR
STARTCHAR C0187
ENCODING 187
SWIDTH 625 0
DWIDTH 10 0
BBX 8 6 1 2
BITMAP
DC
6E
36
33
66
FC
ENDCHAR
STARTCHAR C0188
ENCODING 188
SWIDTH 812 0
DWIDTH 13 0
BBX 12 11 1 0
BITMAP
C0C0
C080
4180
4300
4260
44E0
4DE0
0960
13F0
3060
6060
ENDCHAR
STARTCHAR C0189
ENCODING 189
SWIDTH 875 0
DWIDTH 14 0
BBX 12 11 1 0
BITMAP
C0C0
C080
4180
4300
42F0
4590
4C30
0860
10C0
30F0
60F0
ENDCHAR
STARTCHAR C0190
ENCODING 190
SWIDTH 937 0
DWIDTH 15 0
BBX 13 11 1 0
BITMAP
F060
9040
70C0
7180
1130
F270
66F0
04B0
09F8
1830
3030
ENDCHAR
STARTCHAR C0191
ENCODING 191
SWIDTH 437 0
DWIDTH 7 0
BBX 7 11 0 -3
BITMAP
18
18
00
18
18
78
60
C0
C0
66
7C
ENDCHAR
STARTCHAR C0192
ENCODING 192
SWIDTH 687 0
DWIDTH 11 0
BBX 11 14 0 0
BITMAP
0C00
0700
0000
0E00
0E00
0B00
1B00
1900
3180
3180
3FC0
60C0
6040
C060
ENDCHAR
STARTCHAR C0193
ENCODING 193
SWIDTH 687 0
DWIDTH 11 0
BBX 11 14 0 0
BITMAP
0300
0600
0800
0E00
0E00
0B00
1B00
1900
3180
3180
3FC0
60C0
6040
C060
ENDCHAR
STARTCHAR C0194
ENCODING 194
SWIDTH 687 0
DWIDTH 11 0
BBX 11 14 0 0
BITMAP
0F00
1980
0000
0E00
0E00
0B00
1B00
1900
3180
3180
3FC0
60C0
6040
C060
ENDCHAR
STARTCHAR C0195
ENCODING 195
SWIDTH 687 0
DWIDTH 11 0
BBX 11 14 0 0
BITMAP
1D00
1700
0000
0E00
0E00
0B00
1B00
1900
3180
3180
3FC0
60C0
6040
C060
ENDCHAR
STARTCHAR C0196
ENCODING 196
SWIDTH 687 0
DWIDTH 11 0
BBX 11 15 0 0
BITMAP
1100
3300
0000
0000
0E00
0E00
0B00
1B00
1900
3180
3180
3FC0
60C0
6040
C060
ENDCHAR
STARTCHAR C0197
ENCODING 197
SWIDTH 687 0
DWIDTH 11 0
BBX 11 15 0 0
BITMAP
0E00
0A00
0E00
0000
0E00
0E00
0B00
1B00
1900
3180
3180
3FC0
60C0
6040
C060
ENDCHAR
STARTCHAR C0198
ENCODING 198
SWIDTH 1000 0
DWIDTH 16 0
BBX 15 11 0 0
BITMAP
03FE
03FE
06C0
06C0
0CFC
18FC
18C0
3FC0
30C0
60FE
E0FE
ENDCHAR
STARTCHAR C0199
ENCODING 199
SWIDTH 750 0
DWIDTH 12 0
BBX 10 14 1 -3
BITMAP
3F00
7380
E0C0
C000
C000
C000
C000
C080
E0C0
7B80
3F00
0800
0400
1C00
ENDCHAR
STARTCHAR C0200
ENCODING 200
SWIDTH 562 0
DWIDTH 9 0
BBX 7 14 1 0
BITMAP
30
1C
00
FE
FE
C0
C0
FE
FE
C0
C0
C0
FE
FE
ENDCHAR
STARTCHAR C0201
ENCODING 201
SWIDTH 562 0
DWIDTH 9 0
BBX 7 14 1 0
BITMAP
0C
18
00
FE
FE
C0
C0
FE
FE
C0
C0
C0
FE
FE
ENDCHAR
STARTCHAR C0202
ENCODING 202
SWIDTH 562 0
DWIDTH 9 0
BBX 7 14 1 0
BITMAP
3C
66
00
FE
FE
C0
C0
FE
FE
C0
C0
C0
FE
FE
ENDCHAR
STARTCHAR C0203
ENCODING 203
SWIDTH 562 0
DWIDTH 9 0
BBX 7 15 1 0
BITMAP
22
66
00
00
FE
FE
C0
C0
FE
FE
C0
C0
C0
FE
FE
ENDCHAR
STARTCHAR C0204
ENCODING 204
SWIDTH 312 0
DWIDTH 5 0
BBX 4 14 0 0
BITMAP
C0
70
00
60
60
60
60
60
60
60
60
60
60
60
ENDCHAR
STARTCHAR C0205
ENCODING 205
SWIDTH 312 0
DWIDTH 5 0
BBX 4 14 1 0
BITMAP
70
C0
00
C0
C0
C0
C0
C0
C0
C0
C0
C0
C0
C0
ENDCHAR
STARTCHAR C0206
ENCODING 206
SWIDTH 312 0
DWIDTH 5 0
BBX 6 14 -1 0
BITMAP
78
CC
00
30
30
30
30
30
30
30
30
30
30
30
ENDCHAR
STARTCHAR C0207
ENCODING 207
SWIDTH 312 0
DWIDTH 5 0
BBX 5 15 0 0
BITMAP
50
D8
00
00
60
60
60
60
60
60
60
60
60
60
60
ENDCHAR
STARTCHAR C0208
ENCODING 208
SWIDTH 750 0
DWIDTH 12 0
BBX 10 11 1 0
BITMAP
7F00
7F80
61C0
60C0
60C0
F8C0
60C0
60C0
61C0
7F80
7E00
ENDCHAR
STARTCHAR C0209
ENCODING 209
SWIDTH 750 0
DWIDTH 12 0
BBX 10 14 1 0
BITMAP
1D00
1700
0000
E0C0
F0C0
F0C0
D8C0
DCC0
CCC0
C6C0
C3C0
C3C0
C1C0
C0C0
ENDCHAR
STARTCHAR C0210
ENCODING 210
SWIDTH 812 0
DWIDTH 13 0
BBX 11 14 1 0
BITMAP
1800
0E00
0000
3F00
71C0
E0C0
C060
C060
C060
C060
C060
E0C0
7F80
3F00
ENDCHAR
STARTCHAR C0211
ENCODING 211
SWIDTH 812 0
DWIDTH 13 0
BBX 11 14 1 0
BITMAP
0700
0C00
0000
3F00
71C0
E0C0
C060
C060
C060
C060
C060
E0C0
7F80
3F00
ENDCHAR
STARTCHAR C0212
ENCODING 212
SWIDTH 812 0
DWIDTH 13 0
BBX 11 14 1 0
BITMAP
1E00
3300
0000
3F00
71C0
E0C0
C060
C060
C060
C060
C060
E0C0
7F80
3F00
ENDCHAR
STARTCHAR C0213
ENCODING 213
SWIDTH 812 0
DWIDTH 13 0
BBX 11 14 1 0
BITMAP
1D00
1700
0000
3F00
71C0
E0C0
C060
C060
C060
C060
C060
E0C0
7F80
3F00
ENDCHAR
STARTCHAR C0214
ENCODING 214
SWIDTH 812 0
DWIDTH 13 0
BBX 11 15 1 0
BITMAP
1100
3300
0000
0000
3F00
71C0
E0C0
C060
C060
C060
C060
C060
E0C0
7F80
3F00
ENDCHAR
STARTCHAR C0215
ENCODING 215
SWIDTH 625 0
DWIDTH 10 0
BBX 6 6 2 2
BITMAP
84
CC
78
30
78
CC
ENDCHAR
STARTCHAR C0216
ENCODING 216
SWIDTH 812 0
DWIDTH 13 0
BBX 11 11 1 0
BITMAP
3F60
71C0
E1C0
C360
C660
CC60
D860
D060
E0C0
7F80
FF00
ENDCHAR
STARTCHAR C0217
ENCODING 217
SWIDTH 687 0
DWIDTH 11 0
BBX 9 14 1 0
BITMAP
1800
0E00
0000
C180
C180
C180
C180
C180
C180
C180
C180
E180
7700
3E00
ENDCHAR
STARTCHAR C0218
ENCODING 218
SWIDTH 687 0
DWIDTH 11 0
BBX 9 14 1 0
BITMAP
0700
0C00
0000
C180
C180
C180
C180
C180
C180
C180
C180
E180
7700
3E00
ENDCHAR
STARTCHAR C0219
ENCODING 219
SWIDTH 687 0
DWIDTH 11 0
BBX 9 14 1 0
BITMAP
1E00
3300
0000
C180
C180
C180
C180
C180
C180
C180
C180
E180
7700
3E00
ENDCHAR
STARTCHAR C0220
ENCODING 220
SWIDTH 687 0
DWIDTH 11 0
BBX 9 15 1 0
BITMAP
1100
3300
0000
0000
C180
C180
C180
C180
C180
C180
C180
C180
E180
7700
3E00
ENDCHAR
STARTCHAR C0221
ENCODING 221
SWIDTH 625 0
DWIDTH 10 0
BBX 10 14 0 0
BITMAP
0700
0C00
0000
E1C0
6180
3300
3300
1E00
0C00
0C00
0C00
0C00
0C00
0C00
ENDCHAR
STARTCHAR C0222
ENCODING 222
SWIDTH 625 0
DWIDTH 10 0
BBX 8 11 1 0
BITMAP
C0
C0
FE
C7
C3
C3
C3
FF
FC
C0
C0
ENDCHAR
STARTCHAR C0223
ENCODING 223
SWIDTH 562 0
DWIDTH 9 0
BBX 8 11 1 0
BITMAP
7C
E6
C6
C6
DE
DE
C6
C3
C3
DE
DC
ENDCHAR
STARTCHAR C0224
ENCODING 224
SWIDTH 500 0
DWIDTH 8 0
BBX 7 11 1 0
BITMAP
60
38
00
78
CC
04
7E
FE
86
CE
F6
ENDCHAR
STARTCHAR C0225
ENCODING 225
SWIDTH 500 0
DWIDTH 8 0
BBX 7 11 1 0
BITMAP
1C
30
00
78
CC
04
7E
FE
86
CE
F6
ENDCHAR
STARTCHAR C0226
ENCODING 226
SWIDTH 500 0
DWIDTH 8 0
BBX 7 11 1 0
BITMAP
78
CC
00
78
CC
04
7E
FE
86
CE
F6
ENDCHAR
STARTCHAR C0227
ENCODING 227
SWIDTH 500 0
DWIDTH 8 0
BBX 7 11 1 0
BITMAP
74
5C
00
78
CC
04
7E
FE
86
CE
F6
ENDCHAR
STARTCHAR C0228
ENCODING 228
SWIDTH 500 0
DWIDTH 8 0
BBX 7 12 1 0
BITMAP
44
CC
00
00
78
CC
04
7E
FE
86
CE
F6
ENDCHAR
STARTCHAR C0229
ENCODING 229
SWIDTH 500 0
DWIDTH 8 0
BBX 7 12 1 0
BITMAP
38
28
38
00
78
CC
04
7E
FE
86
CE
F6
ENDCHAR
STARTCHAR C0230
ENCODING 230
SWIDTH 875 0
DWIDTH 14 0
BBX 13 8 1 0
BITMAP
7BE0
CF30
0610
7FF8
E600
8620
CF30
FBE0
ENDCHAR
STARTCHAR C0231
ENCODING 231
SWIDTH 562 0
DWIDTH 9 0
BBX 7 11 1 -3
BITMAP
7C
EE
C4
80
80
C4
EE
7C
10
08
38
ENDCHAR
STARTCHAR C0232
ENCODING 232
SWIDTH 562 0
DWIDTH 9 0
BBX 7 11 1 0
BITMAP
30
1C
00
7C
EE
C6
FE
80
C4
EE
7C
ENDCHAR
STARTCHAR C0233
ENCODING 233
SWIDTH 562 0
DWIDTH 9 0
BBX 7 11 1 0
BITMAP
0E
18
00
7C
EE
C6
FE
80
C4
EE
7C
ENDCHAR
STARTCHAR C0234
ENCODING 234
SWIDTH 562 0
DWIDTH 9 0
BBX 7 11 1 0
BITMAP
3C
66
00
7C
EE
C6
FE
80
C4
EE
7C
ENDCHAR
STARTCHAR C0235
ENCODING 235
SWIDTH 562 0
DWIDTH 9 0
BBX 7 12 1 0
BITMAP
44
CC
00
00
7C
EE
C6
FE
80
C4
EE
7C
ENDCHAR
STARTCHAR C0236
ENCODING 236
SWIDTH 250 0
DWIDTH 4 0
BBX 4 11 0 0
BITMAP
C0
70
00
60
60
60
60
60
60
60
60
ENDCHAR
STARTCHAR C0237
ENCODING 237
SWIDTH 250 0
DWIDTH 4 0
BBX 4 11 1 0
BITMAP
70
C0
00
C0
C0
C0
C0
C0
C0
C0
C0
ENDCHAR
STARTCHAR C0238
ENCODING 238
SWIDTH 250 0
DWIDTH 4 0
BBX 6 11 -1 0
BITMAP
78
CC
00
30
30
30
30
30
30
30
30
ENDCHAR
STARTCHAR C0239
ENCODING 239
SWIDTH 250 0
DWIDTH 4 0
BBX 4 12 0 0
BITMAP
90
F0
00
00
60
60
60
60
60
60
60
60
ENDCHAR
STARTCHAR C0240
ENCODING 240
SWIDTH 562 0
DWIDTH 9 0
BBX 8 12 1 0
BITMAP
20
7E
1C
16
3E
7E
C6
83
83
C6
EE
7C
ENDCHAR
STARTCHAR C0241
ENCODING 241
SWIDTH 562 0
DWIDTH 9 0
BBX 7 11 1 0
BITMAP
74
5C
00
FC
EE
C6
C6
C6
C6
C6
C6
ENDCHAR
STARTCHAR C0242
ENCODING 242
SWIDTH 562 0
DWIDTH 9 0
BBX 8 11 1 0
BITMAP
30
1C
00
7C
EE
C3
83
83
C3
EE
7C
ENDCHAR
STARTCHAR C0243
ENCODING 243
SWIDTH 562 0
DWIDTH 9 0
BBX 8 11 1 0
BITMAP
0E
18
00
7C
EE
C3
83
83
C3
EE
7C
ENDCHAR
STARTCHAR C0244
ENCODING 244
SWIDTH 562 0
DWIDTH 9 0
BBX 8 11 1 0
BITMAP
3C
66
00
7C
EE
C3
83
83
C3
EE
7C
ENDCHAR
STARTCHAR C0245
ENCODING 245
SWIDTH 562 0
DWIDTH 9 0
BBX 8 11 1 0
BITMAP
3A
2E
00
7C
EE
C3
83
83
C3
EE
7C
ENDCHAR
STARTCHAR C0246
ENCODING 246
SWIDTH 562 0
DWIDTH 9 0
BBX 8 12 1 0
BITMAP
44
CC
00
00
7C
EE
C3
83
83
C3
EE
7C
ENDCHAR
STARTCHAR C0247
ENCODING 247
SWIDTH 625 0
DWIDTH 10 0
BBX 6 7 2 1
BITMAP
30
10
FC
FC
00
30
10
ENDCHAR
STARTCHAR C0248
ENCODING 248
SWIDTH 562 0
DWIDTH 9 0
BBX 9 8 0 0
BITMAP
3F80
7700
6700
4D80
5980
7300
7700
FE00
ENDCHAR
STARTCHAR C0249
ENCODING 249
SWIDTH 562 0
DWIDTH 9 0
BBX 7 11 1 0
BITMAP
30
1C
00
C6
C6
C6
C6
C6
C6
EE
7E
ENDCHAR
STARTCHAR C0250
ENCODING 250
SWIDTH 562 0
DWIDTH 9 0
BBX 7 11 1 0
BITMAP
1C
30
00
C6
C6
C6
C6
C6
C6
EE
7E
ENDCHAR
STARTCHAR C0251
ENCODING 251
SWIDTH 562 0
DWIDTH 9 0
BBX 7 11 1 0
BITMAP
78
CC
00
C6
C6
C6
C6
C6
C6
EE
7E
ENDCHAR
STARTCHAR C0252
ENCODING 252
SWIDTH 562 0
DWIDTH 9 0
BBX 7 12 1 0
BITMAP
44
CC
00
00
C6
C6
C6
C6
C6
C6
EE
7E
ENDCHAR
STARTCHAR C0253
ENCODING 253
SWIDTH 562 0
DWIDTH 9 0
BBX 9 14 0 -3
BITMAP
0E00
1800
0000
C180
6300
6300
2600
3600
1600
1C00
1C00
1800
5800
F000
ENDCHAR
STARTCHAR C0254
ENCODING 254
SWIDTH 562 0
DWIDTH 9 0
BBX 8 14 1 -3
BITMAP
C0
C0
C0
FC
EE
C3
C3
C3
C3
EE
FC
C0
C0
C0
ENDCHAR
STARTCHAR C0255
ENCODING 255
SWIDTH 562 0
DWIDTH 9 0
BBX 9 15 0 -3
BITMAP
2200
6600
0000
0000
C180
6300
6300
2600
3600
1600
1C00
1C00
1800
5800
F000
ENDCHAR
ENDFONT

