STARTFONT 2.1
COMMENT 
COMMENT This file has been produced by ttf2bdf written by Subhabrata Biswas
COMMENT 
COMMENT For comments, questions, bug reports, send a mail to
COMMENT                                           subhabrata.biswas@usa.net
COMMENT 
FONT -*-Figtree Medium-Medium-R-Normal--21-160-96-96-c-11--fontspecific
SIZE 16 96 96
FONTBOUNDINGBOX 27 26 -4 -5
STARTPROPERTIES 15
FOUNDRY "Misc"
FAMILY_NAME "Figtree Medium"
WEIGHT_NAME "Medium"
SLANT "R"
SETWIDTH_NAME "Normal"
PIXEL_SIZE 15
POINT_SIZE 160
RESOLUTION_X 96
RESOLUTION_Y 96
SPACING "C"
CHARSET_ENCODING "fontspecific"
FONT_ASCENT 21
FONT_DESCENT 5
DEFAULT_CHAR 12
COPYRIGHT "You may wish to put your copyright here"
ENDPROPERTIES
CHARS 245
STARTCHAR C0011
ENCODING 11
SWIDTH 703 0
DWIDTH 15 0
BBX 11 21 2 -4
BITMAP
FFE0
FFE0
8020
8020
8020
8020
8020
8020
8020
8020
8020
8020
8020
8020
8020
8020
8020
8020
8020
FFE0
FFE0
ENDCHAR
STARTCHAR C0012
ENCODING 12
SWIDTH 703 0
DWIDTH 15 0
BBX 11 21 2 -4
BITMAP
FFE0
FFE0
8020
8020
8020
8020
8020
8020
8020
8020
8020
8020
8020
8020
8020
8020
8020
8020
8020
FFE0
FFE0
ENDCHAR
STARTCHAR C0013
ENCODING 13
SWIDTH 609 0
DWIDTH 13 0
BBX 1 1 0 -1
BITMAP
00
ENDCHAR
STARTCHAR C0014
ENCODING 14
SWIDTH 703 0
DWIDTH 15 0
BBX 11 21 2 -4
BITMAP
FFE0
FFE0
8020
8020
8020
8020
8020
8020
8020
8020
8020
8020
8020
8020
8020
8020
8020
8020
8020
FFE0
FFE0
ENDCHAR
STARTCHAR C0015
ENCODING 15
SWIDTH 703 0
DWIDTH 15 0
BBX 11 21 2 -4
BITMAP
FFE0
FFE0
8020
8020
8020
8020
8020
8020
8020
8020
8020
8020
8020
8020
8020
8020
8020
8020
8020
FFE0
FFE0
ENDCHAR
STARTCHAR C0016
ENCODING 16
SWIDTH 703 0
DWIDTH 15 0
BBX 11 21 2 -4
BITMAP
FFE0
FFE0
8020
8020
8020
8020
8020
8020
8020
8020
8020
8020
8020
8020
8020
8020
8020
8020
8020
FFE0
FFE0
ENDCHAR
STARTCHAR C0017
ENCODING 17
SWIDTH 703 0
DWIDTH 15 0
BBX 11 21 2 -4
BITMAP
FFE0
FFE0
8020
8020
8020
8020
8020
8020
8020
8020
8020
8020
8020
8020
8020
8020
8020
8020
8020
FFE0
FFE0
ENDCHAR
STARTCHAR C0018
ENCODING 18
SWIDTH 703 0
DWIDTH 15 0
BBX 11 21 2 -4
BITMAP
FFE0
FFE0
8020
8020
8020
8020
8020
8020
8020
8020
8020
8020
8020
8020
8020
8020
8020
8020
8020
FFE0
FFE0
ENDCHAR
STARTCHAR C0019
ENCODING 19
SWIDTH 703 0
DWIDTH 15 0
BBX 11 21 2 -4
BITMAP
FFE0
FFE0
8020
8020
8020
8020
8020
8020
8020
8020
8020
8020
8020
8020
8020
8020
8020
8020
8020
FFE0
FFE0
ENDCHAR
STARTCHAR C0020
ENCODING 20
SWIDTH 703 0
DWIDTH 15 0
BBX 11 21 2 -4
BITMAP
FFE0
FFE0
8020
8020
8020
8020
8020
8020
8020
8020
8020
8020
8020
8020
8020
8020
8020
8020
8020
FFE0
FFE0
ENDCHAR
STARTCHAR C0021
ENCODING 21
SWIDTH 703 0
DWIDTH 15 0
BBX 11 21 2 -4
BITMAP
FFE0
FFE0
8020
8020
8020
8020
8020
8020
8020
8020
8020
8020
8020
8020
8020
8020
8020
8020
8020
FFE0
FFE0
ENDCHAR
STARTCHAR C0022
ENCODING 22
SWIDTH 703 0
DWIDTH 15 0
BBX 11 21 2 -4
BITMAP
FFE0
FFE0
8020
8020
8020
8020
8020
8020
8020
8020
8020
8020
8020
8020
8020
8020
8020
8020
8020
FFE0
FFE0
ENDCHAR
STARTCHAR C0023
ENCODING 23
SWIDTH 703 0
DWIDTH 15 0
BBX 11 21 2 -4
BITMAP
FFE0
FFE0
8020
8020
8020
8020
8020
8020
8020
8020
8020
8020
8020
8020
8020
8020
8020
8020
8020
FFE0
FFE0
ENDCHAR
STARTCHAR C0024
ENCODING 24
SWIDTH 703 0
DWIDTH 15 0
BBX 11 21 2 -4
BITMAP
FFE0
FFE0
8020
8020
8020
8020
8020
8020
8020
8020
8020
8020
8020
8020
8020
8020
8020
8020
8020
FFE0
FFE0
ENDCHAR
STARTCHAR C0025
ENCODING 25
SWIDTH 703 0
DWIDTH 15 0
BBX 11 21 2 -4
BITMAP
FFE0
FFE0
8020
8020
8020
8020
8020
8020
8020
8020
8020
8020
8020
8020
8020
8020
8020
8020
8020
FFE0
FFE0
ENDCHAR
STARTCHAR C0026
ENCODING 26
SWIDTH 703 0
DWIDTH 15 0
BBX 11 21 2 -4
BITMAP
FFE0
FFE0
8020
8020
8020
8020
8020
8020
8020
8020
8020
8020
8020
8020
8020
8020
8020
8020
8020
FFE0
FFE0
ENDCHAR
STARTCHAR C0027
ENCODING 27
SWIDTH 703 0
DWIDTH 15 0
BBX 11 21 2 -4
BITMAP
FFE0
FFE0
8020
8020
8020
8020
8020
8020
8020
8020
8020
8020
8020
8020
8020
8020
8020
8020
8020
FFE0
FFE0
ENDCHAR
STARTCHAR C0028
ENCODING 28
SWIDTH 703 0
DWIDTH 15 0
BBX 11 21 2 -4
BITMAP
FFE0
FFE0
8020
8020
8020
8020
8020
8020
8020
8020
8020
8020
8020
8020
8020
8020
8020
8020
8020
FFE0
FFE0
ENDCHAR
STARTCHAR C0029
ENCODING 29
SWIDTH 703 0
DWIDTH 15 0
BBX 11 21 2 -4
BITMAP
FFE0
FFE0
8020
8020
8020
8020
8020
8020
8020
8020
8020
8020
8020
8020
8020
8020
8020
8020
8020
FFE0
FFE0
ENDCHAR
STARTCHAR C0030
ENCODING 30
SWIDTH 703 0
DWIDTH 15 0
BBX 11 21 2 -4
BITMAP
FFE0
FFE0
8020
8020
8020
8020
8020
8020
8020
8020
8020
8020
8020
8020
8020
8020
8020
8020
8020
FFE0
FFE0
ENDCHAR
STARTCHAR C0031
ENCODING 31
SWIDTH 703 0
DWIDTH 15 0
BBX 11 21 2 -4
BITMAP
FFE0
FFE0
8020
8020
8020
8020
8020
8020
8020
8020
8020
8020
8020
8020
8020
8020
8020
8020
8020
FFE0
FFE0
ENDCHAR
STARTCHAR C0032- 
ENCODING 32
SWIDTH 234 0
DWIDTH 5 0
BBX 1 1 0 -1
BITMAP
00
ENDCHAR
STARTCHAR C0033-!
ENCODING 33
SWIDTH 281 0
DWIDTH 6 0
BBX 2 15 2 0
BITMAP
C0
C0
C0
C0
C0
C0
C0
C0
C0
C0
C0
00
00
C0
C0
ENDCHAR
STARTCHAR C0034-"
ENCODING 34
SWIDTH 328 0
DWIDTH 7 0
BBX 5 5 1 10
BITMAP
D8
D8
D8
D8
D8
ENDCHAR
STARTCHAR C0035-#
ENCODING 35
SWIDTH 609 0
DWIDTH 13 0
BBX 13 15 0 0
BITMAP
0460
0C60
0C60
0C40
7FF8
7FF8
08C0
08C0
18C0
1880
FFF0
1080
1180
1180
3180
ENDCHAR
STARTCHAR C0036-$
ENCODING 36
SWIDTH 562 0
DWIDTH 12 0
BBX 10 18 1 -2
BITMAP
0C00
0C00
3F00
7F80
6DC0
CC00
6C00
7C00
3F00
0F80
0DC0
0CC0
CCC0
EF80
7F00
0C00
0C00
0C00
ENDCHAR
STARTCHAR C0037-%
ENCODING 37
SWIDTH 796 0
DWIDTH 17 0
BBX 15 15 1 0
BITMAP
781C
EC18
C430
C660
C4E0
6CC0
7980
0300
0338
067C
0CC4
1CC6
18C6
30CC
607C
ENDCHAR
STARTCHAR C0038-&
ENCODING 38
SWIDTH 656 0
DWIDTH 14 0
BBX 12 15 1 0
BITMAP
1E00
3F00
7180
6180
3380
3F00
1E00
1C00
7610
6720
C3E0
C1E0
C0C0
77E0
3F30
ENDCHAR
STARTCHAR C0039-'
ENCODING 39
SWIDTH 187 0
DWIDTH 4 0
BBX 2 5 1 10
BITMAP
C0
C0
C0
C0
C0
ENDCHAR
STARTCHAR C0040-(
ENCODING 40
SWIDTH 375 0
DWIDTH 8 0
BBX 6 19 1 -2
BITMAP
1C
18
30
30
60
60
60
C0
C0
C0
C0
C0
C0
60
60
70
30
18
1C
ENDCHAR
STARTCHAR C0041-)
ENCODING 41
SWIDTH 375 0
DWIDTH 8 0
BBX 5 19 1 -2
BITMAP
C0
60
60
30
30
18
18
18
18
18
18
18
18
18
38
30
30
60
C0
ENDCHAR
STARTCHAR C0042-*
ENCODING 42
SWIDTH 468 0
DWIDTH 10 0
BBX 8 7 1 8
BITMAP
18
18
FF
7E
1C
34
66
ENDCHAR
STARTCHAR C0043-+
ENCODING 43
SWIDTH 609 0
DWIDTH 13 0
BBX 9 10 2 1
BITMAP
0800
0800
0800
0800
FF80
FF80
0800
0800
0800
0800
ENDCHAR
STARTCHAR C0044-,
ENCODING 44
SWIDTH 234 0
DWIDTH 5 0
BBX 3 4 1 -2
BITMAP
60
60
C0
C0
ENDCHAR
STARTCHAR C0045--
ENCODING 45
SWIDTH 421 0
DWIDTH 9 0
BBX 7 2 1 5
BITMAP
FE
FE
ENDCHAR
STARTCHAR C0046-.
ENCODING 46
SWIDTH 234 0
DWIDTH 5 0
BBX 3 2 1 0
BITMAP
E0
E0
ENDCHAR
STARTCHAR C0047-/
ENCODING 47
SWIDTH 375 0
DWIDTH 8 0
BBX 8 18 0 -2
BITMAP
03
03
06
06
06
0C
0C
0C
18
18
18
30
30
30
60
60
60
C0
ENDCHAR
STARTCHAR C0048-0
ENCODING 48
SWIDTH 656 0
DWIDTH 14 0
BBX 12 15 1 0
BITMAP
0F00
3F80
70C0
6060
C060
C060
C030
C030
C030
C060
C060
6060
70C0
3FC0
1F00
ENDCHAR
STARTCHAR C0049-1
ENCODING 49
SWIDTH 421 0
DWIDTH 9 0
BBX 5 15 1 0
BITMAP
18
38
F8
F8
18
18
18
18
18
18
18
18
18
18
18
ENDCHAR
STARTCHAR C0050-2
ENCODING 50
SWIDTH 562 0
DWIDTH 12 0
BBX 10 15 1 0
BITMAP
3E00
7F00
E380
C180
01C0
0180
0380
0700
0E00
3C00
7000
6000
E000
FFC0
FFC0
ENDCHAR
STARTCHAR C0051-3
ENCODING 51
SWIDTH 515 0
DWIDTH 11 0
BBX 10 15 1 0
BITMAP
3E00
7F00
E380
0180
0180
0180
1F00
1F00
0380
0180
01C0
01C0
C180
7F80
3F00
ENDCHAR
STARTCHAR C0052-4
ENCODING 52
SWIDTH 609 0
DWIDTH 13 0
BBX 11 15 1 0
BITMAP
0380
0380
0780
0D80
0D80
1980
3180
3180
6180
C180
FFE0
FFE0
0180
0180
0180
ENDCHAR
STARTCHAR C0053-5
ENCODING 53
SWIDTH 562 0
DWIDTH 12 0
BBX 10 15 1 0
BITMAP
7F80
7F80
6000
6000
6000
6000
7F00
7380
21C0
00C0
00C0
00C0
E1C0
7F80
3F00
ENDCHAR
STARTCHAR C0054-6
ENCODING 54
SWIDTH 562 0
DWIDTH 12 0
BBX 10 15 1 0
BITMAP
1F00
3FC0
7080
6000
C000
C000
DF00
FB80
E0C0
C0C0
C0C0
C0C0
60C0
7F80
3F00
ENDCHAR
STARTCHAR C0055-7
ENCODING 55
SWIDTH 515 0
DWIDTH 11 0
BBX 10 15 1 0
BITMAP
FFC0
FFC0
0180
0180
0300
0300
0600
0600
0C00
0C00
1800
1800
3000
3000
6000
ENDCHAR
STARTCHAR C0056-8
ENCODING 56
SWIDTH 609 0
DWIDTH 13 0
BBX 11 15 1 0
BITMAP
1F00
3F80
61C0
60C0
60C0
60C0
3B80
3F80
71C0
E0C0
C060
C060
E0E0
7FC0
3F80
ENDCHAR
STARTCHAR C0057-9
ENCODING 57
SWIDTH 562 0
DWIDTH 12 0
BBX 10 15 1 0
BITMAP
3E00
7F00
E180
C1C0
C0C0
C0C0
C1C0
E3C0
7EC0
1CC0
00C0
0180
4180
FF00
7E00
ENDCHAR
STARTCHAR C0058-:
ENCODING 58
SWIDTH 281 0
DWIDTH 6 0
BBX 3 11 1 0
BITMAP
40
E0
60
00
00
00
00
00
40
E0
60
ENDCHAR
STARTCHAR C0059-;
ENCODING 59
SWIDTH 281 0
DWIDTH 6 0
BBX 3 13 1 -2
BITMAP
40
E0
60
00
00
00
00
00
00
60
60
C0
C0
ENDCHAR
STARTCHAR C0060-<
ENCODING 60
SWIDTH 609 0
DWIDTH 13 0
BBX 7 9 3 2
BITMAP
02
06
1E
78
C0
E0
3C
0E
02
ENDCHAR
STARTCHAR C0061-=
ENCODING 61
SWIDTH 609 0
DWIDTH 13 0
BBX 9 6 2 3
BITMAP
FF80
8000
0000
0000
FF80
FF80
ENDCHAR
STARTCHAR C0062->
ENCODING 62
SWIDTH 609 0
DWIDTH 13 0
BBX 7 9 3 2
BITMAP
80
C0
F0
1E
06
0E
78
E0
80
ENDCHAR
STARTCHAR C0063-?
ENCODING 63
SWIDTH 515 0
DWIDTH 11 0
BBX 9 15 1 0
BITMAP
3C00
FF00
C300
0180
0180
0180
0300
1E00
1C00
1800
1800
0000
0000
3800
3800
ENDCHAR
STARTCHAR C0064-@
ENCODING 64
SWIDTH 984 0
DWIDTH 21 0
BBX 19 19 1 -4
BITMAP
03F800
0FFE00
1C0700
300180
6000C0
63ECC0
C73C40
CE0C60
CC0C60
CC0C60
CC0C60
CE0C60
C61C40
43FCC0
61C780
300000
380000
0E0800
07FC00
ENDCHAR
STARTCHAR C0065-A
ENCODING 65
SWIDTH 656 0
DWIDTH 14 0
BBX 14 15 0 0
BITMAP
0300
0380
0780
07C0
0EC0
0CC0
0C60
1860
1870
3FF0
3FF0
3018
6018
601C
E00C
ENDCHAR
STARTCHAR C0066-B
ENCODING 66
SWIDTH 609 0
DWIDTH 13 0
BBX 10 15 2 0
BITMAP
FC00
FF00
C380
C180
C180
C180
C380
FF00
C380
C1C0
C0C0
C0C0
C1C0
FF80
FF00
ENDCHAR
STARTCHAR C0067-C
ENCODING 67
SWIDTH 703 0
DWIDTH 15 0
BBX 13 15 1 0
BITMAP
0FC0
1FE0
3870
6018
E010
C000
C000
C000
C000
C000
E010
6018
7038
3FF0
0FC0
ENDCHAR
STARTCHAR C0068-D
ENCODING 68
SWIDTH 703 0
DWIDTH 15 0
BBX 12 15 2 0
BITMAP
FC00
FF80
C3C0
C0C0
C060
C060
C070
C030
C070
C060
C060
C0E0
C1C0
FF80
FE00
ENDCHAR
STARTCHAR C0069-E
ENCODING 69
SWIDTH 562 0
DWIDTH 12 0
BBX 9 15 2 0
BITMAP
FF80
FF80
C000
C000
C000
C000
C000
FF00
C000
C000
C000
C000
C000
FF80
FF80
ENDCHAR
STARTCHAR C0070-F
ENCODING 70
SWIDTH 515 0
DWIDTH 11 0
BBX 9 15 2 0
BITMAP
FF80
FF80
C000
C000
C000
C000
C000
FF00
FF00
C000
C000
C000
C000
C000
C000
ENDCHAR
STARTCHAR C0071-G
ENCODING 71
SWIDTH 750 0
DWIDTH 16 0
BBX 14 15 1 0
BITMAP
07C0
1FF0
3838
7018
E000
C000
C000
C07C
C07C
C00C
E00C
601C
3038
3FF0
0FE0
ENDCHAR
STARTCHAR C0072-H
ENCODING 72
SWIDTH 750 0
DWIDTH 16 0
BBX 12 15 2 0
BITMAP
C030
C030
C030
C030
C030
C030
C030
FFF0
C030
C030
C030
C030
C030
C030
C030
ENDCHAR
STARTCHAR C0073-I
ENCODING 73
SWIDTH 281 0
DWIDTH 6 0
BBX 2 15 2 0
BITMAP
C0
C0
C0
C0
C0
C0
C0
C0
C0
C0
C0
C0
C0
C0
C0
ENDCHAR
STARTCHAR C0074-J
ENCODING 74
SWIDTH 515 0
DWIDTH 11 0
BBX 9 15 0 0
BITMAP
0180
0180
0180
0180
0180
0180
0180
0180
0180
0180
0180
0180
C380
7F00
3E00
ENDCHAR
STARTCHAR C0075-K
ENCODING 75
SWIDTH 609 0
DWIDTH 13 0
BBX 11 15 2 0
BITMAP
C0E0
C1C0
C380
C700
CE00
DC00
F800
F800
FC00
CE00
C600
C300
C380
C1C0
C0E0
ENDCHAR
STARTCHAR C0076-L
ENCODING 76
SWIDTH 515 0
DWIDTH 11 0
BBX 9 15 2 0
BITMAP
C000
C000
C000
C000
C000
C000
C000
C000
C000
C000
C000
C000
C000
FF80
FF80
ENDCHAR
STARTCHAR C0077-M
ENCODING 77
SWIDTH 843 0
DWIDTH 18 0
BBX 14 15 2 0
BITMAP
C00C
E01C
F03C
F03C
D86C
DCEC
CCCC
C78C
C78C
C30C
C20C
C00C
C00C
C00C
C00C
ENDCHAR
STARTCHAR C0078-N
ENCODING 78
SWIDTH 750 0
DWIDTH 16 0
BBX 12 15 2 0
BITMAP
C030
E030
F030
F030
D830
DC30
CE30
C630
C330
C3B0
C1F0
C0F0
C0F0
C070
C030
ENDCHAR
STARTCHAR C0079-O
ENCODING 79
SWIDTH 750 0
DWIDTH 16 0
BBX 14 15 1 0
BITMAP
0FC0
1FF0
3838
6018
E00C
C00C
C00C
C00C
C00C
C00C
E00C
601C
7038
3FF0
0FE0
ENDCHAR
STARTCHAR C0080-P
ENCODING 80
SWIDTH 562 0
DWIDTH 12 0
BBX 10 15 2 0
BITMAP
FC00
FF00
C380
C1C0
C0C0
C0C0
C1C0
C180
FF00
FE00
C000
C000
C000
C000
C000
ENDCHAR
STARTCHAR C0081-Q
ENCODING 81
SWIDTH 750 0
DWIDTH 16 0
BBX 14 16 1 -1
BITMAP
0FC0
1FF0
3838
6018
E00C
C00C
C00C
C00C
C00C
C04C
E0CC
607C
7038
3FF8
0FEC
0004
ENDCHAR
STARTCHAR C0082-R
ENCODING 82
SWIDTH 609 0
DWIDTH 13 0
BBX 10 15 2 0
BITMAP
FC00
FF00
C380
C1C0
C0C0
C0C0
C1C0
FF80
FF00
C600
C700
C300
C180
C1C0
C0C0
ENDCHAR
STARTCHAR C0083-S
ENCODING 83
SWIDTH 609 0
DWIDTH 13 0
BBX 11 15 1 0
BITMAP
1F00
3FC0
60C0
6060
6000
6000
7800
3F00
07C0
00C0
0060
4060
E0E0
7FC0
3F80
ENDCHAR
STARTCHAR C0084-T
ENCODING 84
SWIDTH 562 0
DWIDTH 12 0
BBX 12 15 0 0
BITMAP
FFF0
FFF0
0600
0600
0600
0600
0600
0600
0600
0600
0600
0600
0600
0600
0600
ENDCHAR
STARTCHAR C0085-U
ENCODING 85
SWIDTH 703 0
DWIDTH 15 0
BBX 11 15 2 0
BITMAP
C060
C060
C060
C060
C060
C060
C060
C060
C060
C060
C060
C060
E0E0
7FC0
3F80
ENDCHAR
STARTCHAR C0086-V
ENCODING 86
SWIDTH 703 0
DWIDTH 15 0
BBX 15 15 0 0
BITMAP
C00E
600C
601C
3018
3018
3030
1830
1870
0C60
0C60
0CC0
06C0
07C0
0380
0380
ENDCHAR
STARTCHAR C0087-W
ENCODING 87
SWIDTH 937 0
DWIDTH 20 0
BBX 20 15 0 0
BITMAP
C06030
607030
60F060
60F060
70F060
30D8C0
3198C0
3198C0
198CC0
1B0D80
1B0D80
0F0D80
0F0700
0E0700
0E0700
ENDCHAR
STARTCHAR C0088-X
ENCODING 88
SWIDTH 609 0
DWIDTH 13 0
BBX 13 15 0 0
BITMAP
E038
7030
3060
18E0
1CC0
0D80
0780
0700
0700
0D80
1CC0
18E0
3060
7030
E038
ENDCHAR
STARTCHAR C0089-Y
ENCODING 89
SWIDTH 609 0
DWIDTH 13 0
BBX 13 15 0 0
BITMAP
E038
6030
3060
38E0
18C0
1DC0
0D80
0700
0700
0700
0700
0700
0700
0700
0700
ENDCHAR
STARTCHAR C0090-Z
ENCODING 90
SWIDTH 609 0
DWIDTH 13 0
BBX 11 15 1 0
BITMAP
FFE0
FFE0
0060
00C0
01C0
0380
0700
0E00
0C00
1800
3800
7000
E000
FFE0
FFE0
ENDCHAR
STARTCHAR C0091-[
ENCODING 91
SWIDTH 328 0
DWIDTH 7 0
BBX 3 19 2 -2
BITMAP
E0
E0
C0
C0
C0
C0
C0
C0
C0
C0
C0
C0
C0
C0
C0
C0
C0
E0
E0
ENDCHAR
STARTCHAR C0092-\
ENCODING 92
SWIDTH 375 0
DWIDTH 8 0
BBX 8 18 0 -2
BITMAP
C0
60
60
60
30
30
30
18
18
18
0C
0C
0C
06
06
06
03
03
ENDCHAR
STARTCHAR C0093-]
ENCODING 93
SWIDTH 328 0
DWIDTH 7 0
BBX 4 19 1 -2
BITMAP
F0
F0
30
30
30
30
30
30
30
30
30
30
30
30
30
30
30
F0
F0
ENDCHAR
STARTCHAR C0094-^
ENCODING 94
SWIDTH 562 0
DWIDTH 12 0
BBX 8 7 2 8
BITMAP
18
38
3C
6C
66
C6
C3
ENDCHAR
STARTCHAR C0095-_
ENCODING 95
SWIDTH 421 0
DWIDTH 9 0
BBX 9 2 0 -2
BITMAP
FF80
FF80
ENDCHAR
STARTCHAR C0096-`
ENCODING 96
SWIDTH 234 0
DWIDTH 5 0
BBX 5 3 0 12
BITMAP
E0
30
18
ENDCHAR
STARTCHAR C0097-a
ENCODING 97
SWIDTH 515 0
DWIDTH 11 0
BBX 9 11 1 0
BITMAP
1C00
7F00
E300
0380
0180
7F80
E180
C180
C380
EF80
7D80
ENDCHAR
STARTCHAR C0098-b
ENCODING 98
SWIDTH 562 0
DWIDTH 12 0
BBX 11 15 1 0
BITMAP
C000
C000
C000
C000
CE00
DF80
F1C0
E0C0
E0C0
C060
C060
E0C0
E0C0
DF80
DF00
ENDCHAR
STARTCHAR C0099-c
ENCODING 99
SWIDTH 515 0
DWIDTH 11 0
BBX 10 11 1 0
BITMAP
1E00
3F80
61C0
C080
C000
C000
C000
C000
E1C0
7F80
3F00
ENDCHAR
STARTCHAR C0100-d
ENCODING 100
SWIDTH 562 0
DWIDTH 12 0
BBX 10 15 1 0
BITMAP
00C0
00C0
00C0
00C0
1CC0
7EC0
61C0
C1C0
C0C0
C0C0
C0C0
C0C0
E1C0
7FC0
3EC0
ENDCHAR
STARTCHAR C0101-e
ENCODING 101
SWIDTH 562 0
DWIDTH 12 0
BBX 10 11 1 0
BITMAP
1E00
3F00
6180
C0C0
C0C0
FFC0
C000
C000
E1C0
7F80
3F00
ENDCHAR
STARTCHAR C0102-f
ENCODING 102
SWIDTH 375 0
DWIDTH 8 0
BBX 7 15 1 0
BITMAP
1E
3C
70
60
FC
FC
60
60
60
60
60
60
60
60
60
ENDCHAR
STARTCHAR C0103-g
ENCODING 103
SWIDTH 562 0
DWIDTH 12 0
BBX 10 15 1 -4
BITMAP
1CC0
7EC0
61C0
C1C0
C0C0
C0C0
C0C0
C0C0
E1C0
7FC0
1CC0
00C0
01C0
6380
FF00
ENDCHAR
STARTCHAR C0104-h
ENCODING 104
SWIDTH 562 0
DWIDTH 12 0
BBX 10 15 1 0
BITMAP
C000
C000
C000
C000
CE00
DF80
F180
E1C0
C0C0
C0C0
C0C0
C0C0
C0C0
C0C0
C0C0
ENDCHAR
STARTCHAR C0105-i
ENCODING 105
SWIDTH 234 0
DWIDTH 5 0
BBX 3 15 1 0
BITMAP
C0
C0
00
00
60
60
60
60
60
60
60
60
60
60
60
ENDCHAR
STARTCHAR C0106-j
ENCODING 106
SWIDTH 281 0
DWIDTH 6 0
BBX 5 20 -1 -5
BITMAP
18
18
00
00
18
18
18
18
18
18
18
18
18
18
18
18
18
98
F8
40
ENDCHAR
STARTCHAR C0107-k
ENCODING 107
SWIDTH 468 0
DWIDTH 10 0
BBX 9 15 1 0
BITMAP
C000
C000
C000
C000
C180
C300
C600
CC00
D800
FC00
FC00
E600
C700
C300
C180
ENDCHAR
STARTCHAR C0108-l
ENCODING 108
SWIDTH 234 0
DWIDTH 5 0
BBX 2 15 1 0
BITMAP
C0
C0
C0
C0
C0
C0
C0
C0
C0
C0
C0
C0
C0
C0
C0
ENDCHAR
STARTCHAR C0109-m
ENCODING 109
SWIDTH 843 0
DWIDTH 18 0
BBX 16 11 1 0
BITMAP
CE1C
DF7E
E3C6
E183
C183
C183
C183
C183
C183
C183
C183
ENDCHAR
STARTCHAR C0110-n
ENCODING 110
SWIDTH 562 0
DWIDTH 12 0
BBX 10 11 1 0
BITMAP
CE00
DF80
F180
E1C0
C0C0
C0C0
C0C0
C0C0
C0C0
C0C0
C0C0
ENDCHAR
STARTCHAR C0111-o
ENCODING 111
SWIDTH 562 0
DWIDTH 12 0
BBX 10 11 1 0
BITMAP
1E00
3F80
6180
C0C0
C0C0
C0C0
C0C0
C0C0
E1C0
7F80
3F00
ENDCHAR
STARTCHAR C0112-p
ENCODING 112
SWIDTH 562 0
DWIDTH 12 0
BBX 11 15 1 -4
BITMAP
CF00
DF80
F1C0
E0C0
E0E0
C060
E060
E0C0
60C0
5FC0
4F00
4000
4000
4000
4000
ENDCHAR
STARTCHAR C0113-q
ENCODING 113
SWIDTH 562 0
DWIDTH 12 0
BBX 10 15 1 -4
BITMAP
1CC0
7EC0
61C0
C1C0
C0C0
C0C0
C0C0
C0C0
E1C0
7FC0
3EC0
00C0
00C0
00C0
00C0
ENDCHAR
STARTCHAR C0114-r
ENCODING 114
SWIDTH 328 0
DWIDTH 7 0
BBX 6 11 1 0
BITMAP
C4
DC
F8
E0
C0
C0
C0
C0
C0
C0
C0
ENDCHAR
STARTCHAR C0115-s
ENCODING 115
SWIDTH 468 0
DWIDTH 10 0
BBX 8 11 1 0
BITMAP
3C
7E
E3
C0
70
7E
0F
03
C3
FF
7E
ENDCHAR
STARTCHAR C0116-t
ENCODING 116
SWIDTH 375 0
DWIDTH 8 0
BBX 7 14 0 0
BITMAP
30
30
30
FE
FE
30
30
30
30
30
30
30
3E
1E
ENDCHAR
STARTCHAR C0117-u
ENCODING 117
SWIDTH 562 0
DWIDTH 12 0
BBX 9 11 1 0
BITMAP
C180
C180
C180
C180
C180
C180
C180
C180
E180
7F80
3F80
ENDCHAR
STARTCHAR C0118-v
ENCODING 118
SWIDTH 515 0
DWIDTH 11 0
BBX 11 11 0 0
BITMAP
C060
60E0
60C0
60C0
3180
3180
1B00
1B00
0B00
0E00
0E00
ENDCHAR
STARTCHAR C0119-w
ENCODING 119
SWIDTH 796 0
DWIDTH 17 0
BBX 17 11 0 0
BITMAP
C18180
61C300
61C300
634300
336600
336600
362600
1E3C00
1E3C00
1C1800
0C1800
ENDCHAR
STARTCHAR C0120-x
ENCODING 120
SWIDTH 468 0
DWIDTH 10 0
BBX 10 11 0 0
BITMAP
E0C0
7180
3300
1B00
1E00
0C00
1E00
1F00
3300
7180
E1C0
ENDCHAR
STARTCHAR C0121-y
ENCODING 121
SWIDTH 515 0
DWIDTH 11 0
BBX 11 15 0 -4
BITMAP
C060
6060
60C0
70C0
31C0
3180
1980
1B00
0F00
0E00
0600
0600
0C00
5C00
F800
ENDCHAR
STARTCHAR C0122-z
ENCODING 122
SWIDTH 468 0
DWIDTH 10 0
BBX 8 11 1 0
BITMAP
FF
FF
03
06
0C
18
38
70
60
FF
FF
ENDCHAR
STARTCHAR C0123-{
ENCODING 123
SWIDTH 375 0
DWIDTH 8 0
BBX 6 19 1 -2
BITMAP
0C
1C
18
30
30
30
30
30
30
E0
70
30
30
30
30
30
30
1C
0C
ENDCHAR
STARTCHAR C0124-|
ENCODING 124
SWIDTH 234 0
DWIDTH 5 0
BBX 2 22 2 -5
BITMAP
C0
C0
C0
C0
C0
C0
C0
C0
C0
C0
C0
C0
C0
C0
C0
C0
C0
C0
C0
C0
C0
C0
ENDCHAR
STARTCHAR C0125-}
ENCODING 125
SWIDTH 375 0
DWIDTH 8 0
BBX 6 19 1 -2
BITMAP
C0
E0
30
30
30
30
30
30
30
1C
18
30
30
30
30
30
30
E0
E0
ENDCHAR
STARTCHAR C0126-~
ENCODING 126
SWIDTH 562 0
DWIDTH 12 0
BBX 10 5 1 4
BITMAP
3800
7C40
CEC0
C780
0100
ENDCHAR
STARTCHAR C0127
ENCODING 127
SWIDTH 703 0
DWIDTH 15 0
BBX 11 21 2 -4
BITMAP
FFE0
FFE0
8020
8020
8020
8020
8020
8020
8020
8020
8020
8020
8020
8020
8020
8020
8020
8020
8020
FFE0
FFE0
ENDCHAR
STARTCHAR C0128
ENCODING 128
SWIDTH 656 0
DWIDTH 14 0
BBX 13 15 0 0
BITMAP
03C0
0FF0
1C38
1818
3810
3000
FFC0
3000
FFC0
FFC0
3810
1818
1C38
0FF0
07E0
ENDCHAR
STARTCHAR C0129
ENCODING 129
SWIDTH 703 0
DWIDTH 15 0
BBX 11 21 2 -4
BITMAP
FFE0
FFE0
8020
8020
8020
8020
8020
8020
8020
8020
8020
8020
8020
8020
8020
8020
8020
8020
8020
FFE0
FFE0
ENDCHAR
STARTCHAR C0130
ENCODING 130
SWIDTH 234 0
DWIDTH 5 0
BBX 3 4 1 -2
BITMAP
60
60
C0
C0
ENDCHAR
STARTCHAR C0131
ENCODING 131
SWIDTH 703 0
DWIDTH 15 0
BBX 11 21 2 -4
BITMAP
FFE0
FFE0
8020
8020
8020
8020
8020
8020
8020
8020
8020
8020
8020
8020
8020
8020
8020
8020
8020
FFE0
FFE0
ENDCHAR
STARTCHAR C0132
ENCODING 132
SWIDTH 328 0
DWIDTH 7 0
BBX 6 4 1 -2
BITMAP
6C
6C
D8
D8
ENDCHAR
STARTCHAR C0133
ENCODING 133
SWIDTH 609 0
DWIDTH 13 0
BBX 12 2 1 0
BITMAP
EE70
EE70
ENDCHAR
STARTCHAR C0134
ENCODING 134
SWIDTH 468 0
DWIDTH 10 0
BBX 9 15 1 0
BITMAP
1800
1800
1800
1800
9980
FF80
1800
1800
1800
1800
1800
1800
1800
1800
1800
ENDCHAR
STARTCHAR C0135
ENCODING 135
SWIDTH 468 0
DWIDTH 10 0
BBX 9 19 1 -4
BITMAP
1800
1800
1800
1800
9980
FF80
1800
1800
1800
1800
1800
1800
1800
FF80
FF80
1800
1800
1800
1800
ENDCHAR
STARTCHAR C0136
ENCODING 136
SWIDTH 375 0
DWIDTH 8 0
BBX 8 3 0 12
BITMAP
38
6C
C7
ENDCHAR
STARTCHAR C0137
ENCODING 137
SWIDTH 703 0
DWIDTH 15 0
BBX 11 21 2 -4
BITMAP
FFE0
FFE0
8020
8020
8020
8020
8020
8020
8020
8020
8020
8020
8020
8020
8020
8020
8020
8020
8020
FFE0
FFE0
ENDCHAR
STARTCHAR C0138
ENCODING 138
SWIDTH 609 0
DWIDTH 13 0
BBX 11 19 1 0
BITMAP
3180
1B00
0E00
0000
1F00
3FC0
60C0
6060
6000
6000
7800
3F00
07C0
00C0
0060
4060
E0E0
7FC0
3F80
ENDCHAR
STARTCHAR C0139
ENCODING 139
SWIDTH 375 0
DWIDTH 8 0
BBX 6 9 1 2
BITMAP
1C
38
30
60
E0
60
70
30
1C
ENDCHAR
STARTCHAR C0140
ENCODING 140
SWIDTH 1125 0
DWIDTH 24 0
BBX 21 15 1 0
BITMAP
0FCFF8
1FEFF8
383C00
601C00
E01C00
C00C00
C00C00
C00FF0
C00C00
C00C00
E00C00
601C00
703C00
3FFFF8
0FEFF8
ENDCHAR
STARTCHAR C0141
ENCODING 141
SWIDTH 703 0
DWIDTH 15 0
BBX 11 21 2 -4
BITMAP
FFE0
FFE0
8020
8020
8020
8020
8020
8020
8020
8020
8020
8020
8020
8020
8020
8020
8020
8020
8020
FFE0
FFE0
ENDCHAR
STARTCHAR C0142
ENCODING 142
SWIDTH 609 0
DWIDTH 13 0
BBX 11 19 1 0
BITMAP
3180
1B00
0E00
0000
FFE0
FFE0
0060
00C0
01C0
0380
0700
0E00
0C00
1800
3800
7000
E000
FFE0
FFE0
ENDCHAR
STARTCHAR C0143
ENCODING 143
SWIDTH 703 0
DWIDTH 15 0
BBX 11 21 2 -4
BITMAP
FFE0
FFE0
8020
8020
8020
8020
8020
8020
8020
8020
8020
8020
8020
8020
8020
8020
8020
8020
8020
FFE0
FFE0
ENDCHAR
STARTCHAR C0144
ENCODING 144
SWIDTH 703 0
DWIDTH 15 0
BBX 11 21 2 -4
BITMAP
FFE0
FFE0
8020
8020
8020
8020
8020
8020
8020
8020
8020
8020
8020
8020
8020
8020
8020
8020
8020
FFE0
FFE0
ENDCHAR
STARTCHAR C0145
ENCODING 145
SWIDTH 187 0
DWIDTH 4 0
BBX 4 5 0 10
BITMAP
30
20
60
60
E0
ENDCHAR
STARTCHAR C0146
ENCODING 146
SWIDTH 187 0
DWIDTH 4 0
BBX 3 4 1 11
BITMAP
60
60
C0
C0
ENDCHAR
STARTCHAR C0147
ENCODING 147
SWIDTH 328 0
DWIDTH 7 0
BBX 7 5 0 10
BITMAP
36
26
64
6C
EC
ENDCHAR
STARTCHAR C0148
ENCODING 148
SWIDTH 328 0
DWIDTH 7 0
BBX 6 4 1 11
BITMAP
6C
6C
D8
D8
ENDCHAR
STARTCHAR C0149
ENCODING 149
SWIDTH 468 0
DWIDTH 10 0
BBX 4 4 3 4
BITMAP
F0
F0
F0
F0
ENDCHAR
STARTCHAR C0150
ENCODING 150
SWIDTH 562 0
DWIDTH 12 0
BBX 12 2 0 5
BITMAP
FFF0
FFF0
ENDCHAR
STARTCHAR C0151
ENCODING 151
SWIDTH 1078 0
DWIDTH 23 0
BBX 23 2 0 5
BITMAP
FFFFFE
FFFFFE
ENDCHAR
STARTCHAR C0152
ENCODING 152
SWIDTH 328 0
DWIDTH 7 0
BBX 7 3 0 12
BITMAP
60
FA
1E
ENDCHAR
STARTCHAR C0153
ENCODING 153
SWIDTH 843 0
DWIDTH 18 0
BBX 17 9 0 6
BITMAP
FEC180
FEE180
18F380
18F780
18DD80
18CD80
18C980
18C180
18C180
ENDCHAR
STARTCHAR C0154
ENCODING 154
SWIDTH 468 0
DWIDTH 10 0
BBX 8 15 1 0
BITMAP
C6
6C
38
00
3C
7E
E3
C0
70
7E
0F
03
C3
FF
7E
ENDCHAR
STARTCHAR C0155
ENCODING 155
SWIDTH 375 0
DWIDTH 8 0
BBX 6 9 1 2
BITMAP
E0
60
30
38
1C
18
30
70
E0
ENDCHAR
STARTCHAR C0156
ENCODING 156
SWIDTH 984 0
DWIDTH 21 0
BBX 19 11 1 0
BITMAP
1E0F00
3F9F80
61B0C0
C0E060
C0E060
C0FFE0
C0E000
C0E000
E1F0E0
7FBFC0
3F1F80
ENDCHAR
STARTCHAR C0157
ENCODING 157
SWIDTH 703 0
DWIDTH 15 0
BBX 11 21 2 -4
BITMAP
FFE0
FFE0
8020
8020
8020
8020
8020
8020
8020
8020
8020
8020
8020
8020
8020
8020
8020
8020
8020
FFE0
FFE0
ENDCHAR
STARTCHAR C0158
ENCODING 158
SWIDTH 468 0
DWIDTH 10 0
BBX 8 15 1 0
BITMAP
C6
6C
38
00
FF
FF
03
06
0C
18
38
70
60
FF
FF
ENDCHAR
STARTCHAR C0159
ENCODING 159
SWIDTH 609 0
DWIDTH 13 0
BBX 13 19 0 0
BITMAP
18C0
18C0
0000
0000
E038
6030
3060
38E0
18C0
1DC0
0D80
0700
0700
0700
0700
0700
0700
0700
0700
ENDCHAR
STARTCHAR C0160
ENCODING 160
SWIDTH 234 0
DWIDTH 5 0
BBX 1 1 0 -1
BITMAP
00
ENDCHAR
STARTCHAR C0161
ENCODING 161
SWIDTH 281 0
DWIDTH 6 0
BBX 2 15 2 -4
BITMAP
C0
C0
C0
00
00
C0
C0
C0
C0
C0
C0
C0
C0
C0
C0
ENDCHAR
STARTCHAR C0162
ENCODING 162
SWIDTH 515 0
DWIDTH 11 0
BBX 10 15 1 0
BITMAP
0C00
0C00
1F00
7F80
6DC0
CC00
CC00
CC00
CC00
CC80
6DC0
7F80
1E00
0C00
0C00
ENDCHAR
STARTCHAR C0163
ENCODING 163
SWIDTH 562 0
DWIDTH 12 0
BBX 10 15 1 0
BITMAP
0F00
3F80
30C0
30C0
3000
3000
3000
FF00
FF00
3000
3000
3000
6000
FFC0
FFC0
ENDCHAR
STARTCHAR C0164
ENCODING 164
SWIDTH 562 0
DWIDTH 12 0
BBX 8 9 2 3
BITMAP
81
FF
7E
C3
C3
C3
66
FF
81
ENDCHAR
STARTCHAR C0165
ENCODING 165
SWIDTH 562 0
DWIDTH 12 0
BBX 12 15 0 0
BITMAP
E070
60E0
70C0
31C0
1980
1B80
0F00
0F00
3FC0
0600
3FC0
0600
0600
0600
0600
ENDCHAR
STARTCHAR C0166
ENCODING 166
SWIDTH 281 0
DWIDTH 6 0
BBX 2 22 2 -5
BITMAP
C0
C0
C0
C0
C0
C0
C0
C0
C0
C0
00
00
C0
C0
C0
C0
C0
C0
C0
C0
C0
C0
ENDCHAR
STARTCHAR C0167
ENCODING 167
SWIDTH 562 0
DWIDTH 12 0
BBX 8 17 2 -2
BITMAP
3C
7E
C3
C0
E0
7C
7E
C3
C3
C3
7E
3E
03
03
C3
FE
3C
ENDCHAR
STARTCHAR C0168
ENCODING 168
SWIDTH 421 0
DWIDTH 9 0
BBX 7 2 1 13
BITMAP
C6
C6
ENDCHAR
STARTCHAR C0169
ENCODING 169
SWIDTH 796 0
DWIDTH 17 0
BBX 15 15 1 0
BITMAP
07C0
1FF0
3018
610C
47C4
CC66
C846
C806
C806
CC66
C7C6
638C
3018
1C70
0FE0
ENDCHAR
STARTCHAR C0170
ENCODING 170
SWIDTH 328 0
DWIDTH 7 0
BBX 5 7 1 8
BITMAP
70
F8
08
F8
88
D8
68
ENDCHAR
STARTCHAR C0171
ENCODING 171
SWIDTH 562 0
DWIDTH 12 0
BBX 10 9 1 2
BITMAP
1DC0
3B80
3300
6600
EE00
6600
7700
3300
1DC0
ENDCHAR
STARTCHAR C0172
ENCODING 172
SWIDTH 609 0
DWIDTH 13 0
BBX 7 4 3 4
BITMAP
FE
FE
02
02
ENDCHAR
STARTCHAR C0173
ENCODING 173
SWIDTH 703 0
DWIDTH 15 0
BBX 11 21 2 -4
BITMAP
FFE0
FFE0
8020
8020
8020
8020
8020
8020
8020
8020
8020
8020
8020
8020
8020
8020
8020
8020
8020
FFE0
FFE0
ENDCHAR
STARTCHAR C0174
ENCODING 174
SWIDTH 609 0
DWIDTH 13 0
BBX 11 12 1 3
BITMAP
1F00
3180
4040
DE60
9920
9F20
9E20
9A20
D960
60C0
3F80
0400
ENDCHAR
STARTCHAR C0175
ENCODING 175
SWIDTH 281 0
DWIDTH 6 0
BBX 6 2 0 12
BITMAP
FC
FC
ENDCHAR
STARTCHAR C0176
ENCODING 176
SWIDTH 375 0
DWIDTH 8 0
BBX 6 6 1 9
BITMAP
78
FC
CC
CC
F8
30
ENDCHAR
STARTCHAR C0177
ENCODING 177
SWIDTH 609 0
DWIDTH 13 0
BBX 9 12 2 0
BITMAP
0800
0800
0800
0800
FF80
0800
0800
0800
0800
0000
FF80
FF80
ENDCHAR
STARTCHAR C0178
ENCODING 178
SWIDTH 375 0
DWIDTH 8 0
BBX 7 9 0 8
BITMAP
38
7C
C6
06
0C
38
70
60
7E
ENDCHAR
STARTCHAR C0179
ENCODING 179
SWIDTH 328 0
DWIDTH 7 0
BBX 6 9 1 8
BITMAP
70
F8
0C
08
30
08
0C
CC
78
ENDCHAR
STARTCHAR C0180
ENCODING 180
SWIDTH 234 0
DWIDTH 5 0
BBX 5 3 0 12
BITMAP
38
70
E0
ENDCHAR
STARTCHAR C0181
ENCODING 181
SWIDTH 562 0
DWIDTH 12 0
BBX 9 15 1 -4
BITMAP
C180
C180
C180
C180
C180
C180
C180
C180
E180
FF80
FF80
C000
C000
C000
C000
ENDCHAR
STARTCHAR C0182
ENCODING 182
SWIDTH 562 0
DWIDTH 12 0
BBX 10 17 0 -2
BITMAP
0FC0
3FC0
7EC0
7EC0
7EC0
FEC0
7EC0
7EC0
3EC0
1EC0
06C0
06C0
06C0
06C0
06C0
06C0
06C0
ENDCHAR
STARTCHAR C0183
ENCODING 183
SWIDTH 234 0
DWIDTH 5 0
BBX 3 2 1 6
BITMAP
E0
E0
ENDCHAR
STARTCHAR C0184
ENCODING 184
SWIDTH 234 0
DWIDTH 5 0
BBX 4 4 1 -4
BITMAP
60
70
30
F0
ENDCHAR
STARTCHAR C0185
ENCODING 185
SWIDTH 281 0
DWIDTH 6 0
BBX 3 9 1 8
BITMAP
20
E0
E0
20
20
20
20
20
20
ENDCHAR
STARTCHAR C0186
ENCODING 186
SWIDTH 375 0
DWIDTH 8 0
BBX 6 7 1 8
BITMAP
70
FC
8C
8C
8C
F8
70
ENDCHAR
STARTCHAR C0187
ENCODING 187
SWIDTH 562 0
DWIDTH 12 0
BBX 10 9 1 2
BITMAP
EE00
6700
3300
3980
1DC0
1980
3380
7300
EE00
ENDCHAR
STARTCHAR C0188
ENCODING 188
SWIDTH 796 0
DWIDTH 17 0
BBX 16 15 1 0
BITMAP
2018
E010
E030
2060
2040
20C0
218C
210C
231C
0634
0C24
0C64
187F
3004
6004
ENDCHAR
STARTCHAR C0189
ENCODING 189
SWIDTH 843 0
DWIDTH 18 0
BBX 17 15 1 0
BITMAP
201800
E01000
E03000
206000
204000
20C000
218E00
211F00
233180
060180
0C0300
0C0E00
181C00
301800
601F80
ENDCHAR
STARTCHAR C0190
ENCODING 190
SWIDTH 890 0
DWIDTH 19 0
BBX 18 15 1 0
BITMAP
700C00
F80800
0C1800
083000
302000
086000
0CC300
CC8300
798700
030D00
060900
061900
0C1FC0
180100
300100
ENDCHAR
STARTCHAR C0191
ENCODING 191
SWIDTH 468 0
DWIDTH 10 0
BBX 9 16 0 -5
BITMAP
0400
0E00
0400
0000
0000
0C00
0C00
3C00
7000
6000
C000
C000
6180
7380
3F00
0400
ENDCHAR
STARTCHAR C0192
ENCODING 192
SWIDTH 656 0
DWIDTH 14 0
BBX 14 19 0 0
BITMAP
0E00
0300
0180
0000
0300
0380
0780
07C0
0EC0
0CC0
0C60
1860
1870
3FF0
3FF0
3018
6018
601C
E00C
ENDCHAR
STARTCHAR C0193
ENCODING 193
SWIDTH 656 0
DWIDTH 14 0
BBX 14 18 0 0
BITMAP
01E0
0380
0000
0300
0380
0780
07C0
0EC0
0CC0
0C60
1860
1870
3FF0
3FF0
3018
6018
601C
E00C
ENDCHAR
STARTCHAR C0194
ENCODING 194
SWIDTH 656 0
DWIDTH 14 0
BBX 14 19 0 0
BITMAP
0700
0D80
18E0
0000
0300
0380
0780
07C0
0EC0
0CC0
0C60
1860
1870
3FF0
3FF0
3018
6018
601C
E00C
ENDCHAR
STARTCHAR C0195
ENCODING 195
SWIDTH 656 0
DWIDTH 14 0
BBX 14 19 0 0
BITMAP
0600
0FA0
01E0
0000
0300
0380
0780
07C0
0EC0
0CC0
0C60
1860
1870
3FF0
3FF0
3018
6018
601C
E00C
ENDCHAR
STARTCHAR C0196
ENCODING 196
SWIDTH 656 0
DWIDTH 14 0
BBX 14 19 0 0
BITMAP
0C60
0C60
0000
0000
0300
0380
0780
07C0
0EC0
0CC0
0C60
1860
1870
3FF0
3FF0
3018
6018
601C
E00C
ENDCHAR
STARTCHAR C0197
ENCODING 197
SWIDTH 656 0
DWIDTH 14 0
BBX 14 20 0 0
BITMAP
0300
0780
0480
0780
0000
0300
0380
0780
07C0
0EC0
0CC0
0C60
1860
1870
3FF0
3FF0
3018
6018
601C
E00C
ENDCHAR
STARTCHAR C0198
ENCODING 198
SWIDTH 984 0
DWIDTH 21 0
BBX 19 15 0 0
BITMAP
007FE0
00FFE0
00D800
019800
039800
031800
071800
061FE0
0C1800
1FF800
1FF800
381800
301800
601FE0
E01FE0
ENDCHAR
STARTCHAR C0199
ENCODING 199
SWIDTH 703 0
DWIDTH 15 0
BBX 13 19 1 -4
BITMAP
0FC0
1FE0
3870
6018
E010
C000
C000
C000
C000
C000
E010
6018
7038
3FF0
0FC0
0200
0380
0180
0780
ENDCHAR
STARTCHAR C0200
ENCODING 200
SWIDTH 562 0
DWIDTH 12 0
BBX 9 19 2 0
BITMAP
7000
1800
0C00
0000
FF80
FF80
C000
C000
C000
C000
C000
FF00
C000
C000
C000
C000
C000
FF80
FF80
ENDCHAR
STARTCHAR C0201
ENCODING 201
SWIDTH 562 0
DWIDTH 12 0
BBX 9 18 2 0
BITMAP
0700
0C00
1000
FF80
FF80
C000
C000
C000
C000
C000
FF00
C000
C000
C000
C000
C000
FF80
FF80
ENDCHAR
STARTCHAR C0202
ENCODING 202
SWIDTH 562 0
DWIDTH 12 0
BBX 9 19 2 0
BITMAP
1C00
3600
6380
0000
FF80
FF80
C000
C000
C000
C000
C000
FF00
C000
C000
C000
C000
C000
FF80
FF80
ENDCHAR
STARTCHAR C0203
ENCODING 203
SWIDTH 562 0
DWIDTH 12 0
BBX 9 19 2 0
BITMAP
6300
6300
0000
0000
FF80
FF80
C000
C000
C000
C000
C000
FF00
C000
C000
C000
C000
C000
FF80
FF80
ENDCHAR
STARTCHAR C0204
ENCODING 204
SWIDTH 281 0
DWIDTH 6 0
BBX 5 19 0 0
BITMAP
E0
30
18
00
30
30
30
30
30
30
30
30
30
30
30
30
30
30
30
ENDCHAR
STARTCHAR C0205
ENCODING 205
SWIDTH 281 0
DWIDTH 6 0
BBX 5 18 1 0
BITMAP
38
60
80
60
60
60
60
60
60
60
60
60
60
60
60
60
60
60
ENDCHAR
STARTCHAR C0206
ENCODING 206
SWIDTH 281 0
DWIDTH 6 0
BBX 8 19 -1 0
BITMAP
38
6C
C7
00
18
18
18
18
18
18
18
18
18
18
18
18
18
18
18
ENDCHAR
STARTCHAR C0207
ENCODING 207
SWIDTH 281 0
DWIDTH 6 0
BBX 6 19 0 0
BITMAP
48
FC
00
00
30
30
30
30
30
30
30
30
30
30
30
30
30
30
30
ENDCHAR
STARTCHAR C0208
ENCODING 208
SWIDTH 750 0
DWIDTH 16 0
BBX 14 15 1 0
BITMAP
3F00
3FE0
30F0
3038
3018
301C
300C
FE0C
300C
301C
3018
3038
3070
3FE0
3F80
ENDCHAR
STARTCHAR C0209
ENCODING 209
SWIDTH 750 0
DWIDTH 16 0
BBX 12 19 2 0
BITMAP
0C00
1F40
03C0
0000
C030
E030
F030
F030
D830
DC30
CE30
C630
C330
C3B0
C1F0
C0F0
C0F0
C070
C030
ENDCHAR
STARTCHAR C0210
ENCODING 210
SWIDTH 750 0
DWIDTH 16 0
BBX 14 19 1 0
BITMAP
0E00
0300
0180
0000
0FC0
1FF0
3838
6018
E00C
C00C
C00C
C00C
C00C
C00C
E00C
601C
7038
3FF0
0FE0
ENDCHAR
STARTCHAR C0211
ENCODING 211
SWIDTH 750 0
DWIDTH 16 0
BBX 14 18 1 0
BITMAP
01E0
0380
0000
0FC0
1FF0
3838
6018
E00C
C00C
C00C
C00C
C00C
C00C
E00C
601C
7038
3FF0
0FE0
ENDCHAR
STARTCHAR C0212
ENCODING 212
SWIDTH 750 0
DWIDTH 16 0
BBX 14 19 1 0
BITMAP
0700
0D80
18E0
0000
0FC0
1FF0
3838
6018
E00C
C00C
C00C
C00C
C00C
C00C
E00C
601C
7038
3FF0
0FE0
ENDCHAR
STARTCHAR C0213
ENCODING 213
SWIDTH 750 0
DWIDTH 16 0
BBX 14 19 1 0
BITMAP
0600
0FA0
01E0
0000
0FC0
1FF0
3838
6018
E00C
C00C
C00C
C00C
C00C
C00C
E00C
601C
7038
3FF0
0FE0
ENDCHAR
STARTCHAR C0214
ENCODING 214
SWIDTH 750 0
DWIDTH 16 0
BBX 14 19 1 0
BITMAP
18C0
18C0
0000
0000
0FC0
1FF0
3838
6018
E00C
C00C
C00C
C00C
C00C
C00C
E00C
601C
7038
3FF0
0FE0
ENDCHAR
STARTCHAR C0215
ENCODING 215
SWIDTH 609 0
DWIDTH 13 0
BBX 9 8 2 2
BITMAP
E180
7300
3E00
1C00
1C00
3600
E380
4100
ENDCHAR
STARTCHAR C0216
ENCODING 216
SWIDTH 750 0
DWIDTH 16 0
BBX 15 15 1 0
BITMAP
07CE
1FFC
3838
7038
606C
C0CC
C18C
C30E
C70C
C60C
EC0C
781C
7038
7FF0
CFE0
ENDCHAR
STARTCHAR C0217
ENCODING 217
SWIDTH 703 0
DWIDTH 15 0
BBX 11 19 2 0
BITMAP
3800
0C00
0600
0000
C060
C060
C060
C060
C060
C060
C060
C060
C060
C060
C060
C060
E0E0
7FC0
3F80
ENDCHAR
STARTCHAR C0218
ENCODING 218
SWIDTH 703 0
DWIDTH 15 0
BBX 11 19 2 0
BITMAP
0380
0700
0E00
0000
C060
C060
C060
C060
C060
C060
C060
C060
C060
C060
C060
C060
E0E0
7FC0
3F80
ENDCHAR
STARTCHAR C0219
ENCODING 219
SWIDTH 703 0
DWIDTH 15 0
BBX 11 19 2 0
BITMAP
0E00
1B00
31C0
0000
C060
C060
C060
C060
C060
C060
C060
C060
C060
C060
C060
C060
E0E0
7FC0
3F80
ENDCHAR
STARTCHAR C0220
ENCODING 220
SWIDTH 703 0
DWIDTH 15 0
BBX 11 19 2 0
BITMAP
3180
3180
0000
0000
C060
C060
C060
C060
C060
C060
C060
C060
C060
C060
C060
C060
E0E0
7FC0
3F80
ENDCHAR
STARTCHAR C0221
ENCODING 221
SWIDTH 609 0
DWIDTH 13 0
BBX 13 19 0 0
BITMAP
01C0
0380
0700
0000
E038
6030
3060
38E0
18C0
1DC0
0D80
0700
0700
0700
0700
0700
0700
0700
0700
ENDCHAR
STARTCHAR C0222
ENCODING 222
SWIDTH 562 0
DWIDTH 12 0
BBX 10 15 2 0
BITMAP
C000
C000
C000
FF00
FF80
C1C0
C0C0
C0C0
C0C0
C1C0
FF80
FF00
C000
C000
C000
ENDCHAR
STARTCHAR C0223
ENCODING 223
SWIDTH 562 0
DWIDTH 12 0
BBX 10 15 1 0
BITMAP
1E00
7F80
6180
E0C0
C0C0
C180
C380
CF00
CF80
C0C0
C0C0
C0C0
C1C0
CF80
CF00
ENDCHAR
STARTCHAR C0224
ENCODING 224
SWIDTH 515 0
DWIDTH 11 0
BBX 9 15 1 0
BITMAP
7000
1800
0C00
0000
1C00
7F00
E300
0380
0180
7F80
E180
C180
C380
EF80
7D80
ENDCHAR
STARTCHAR C0225
ENCODING 225
SWIDTH 515 0
DWIDTH 11 0
BBX 9 15 1 0
BITMAP
0700
0E00
1C00
0000
1C00
7F00
E300
0380
0180
7F80
E180
C180
C380
EF80
7D80
ENDCHAR
STARTCHAR C0226
ENCODING 226
SWIDTH 515 0
DWIDTH 11 0
BBX 9 15 1 0
BITMAP
3800
6C00
C700
0000
1C00
7F00
E300
0380
0180
7F80
E180
C180
C380
EF80
7D80
ENDCHAR
STARTCHAR C0227
ENCODING 227
SWIDTH 515 0
DWIDTH 11 0
BBX 9 15 1 0
BITMAP
3000
7D00
0F00
0000
1C00
7F00
E300
0380
0180
7F80
E180
C180
C380
EF80
7D80
ENDCHAR
STARTCHAR C0228
ENCODING 228
SWIDTH 515 0
DWIDTH 11 0
BBX 9 15 1 0
BITMAP
6300
6300
0000
0000
1C00
7F00
E300
0380
0180
7F80
E180
C180
C380
EF80
7D80
ENDCHAR
STARTCHAR C0229
ENCODING 229
SWIDTH 515 0
DWIDTH 11 0
BBX 9 16 1 0
BITMAP
1800
3C00
2400
3C00
0000
1C00
7F00
E300
0380
0180
7F80
E180
C180
C380
EF80
7D80
ENDCHAR
STARTCHAR C0230
ENCODING 230
SWIDTH 843 0
DWIDTH 18 0
BBX 17 11 1 0
BITMAP
3C3C00
7EFE00
C3C300
038100
018180
7FFF80
E18000
C18000
C3C380
E6E700
7C7E00
ENDCHAR
STARTCHAR C0231
ENCODING 231
SWIDTH 515 0
DWIDTH 11 0
BBX 10 15 1 -4
BITMAP
1E00
3F80
61C0
C080
C000
C000
C000
C000
E1C0
7F80
3F00
0800
0E00
0600
1E00
ENDCHAR
STARTCHAR C0232
ENCODING 232
SWIDTH 562 0
DWIDTH 12 0
BBX 10 15 1 0
BITMAP
3800
0C00
0600
0000
1E00
3F00
6180
C0C0
C0C0
FFC0
C000
C000
E1C0
7F80
3F00
ENDCHAR
STARTCHAR C0233
ENCODING 233
SWIDTH 562 0
DWIDTH 12 0
BBX 10 15 1 0
BITMAP
0380
0700
0E00
0000
1E00
3F00
6180
C0C0
C0C0
FFC0
C000
C000
E1C0
7F80
3F00
ENDCHAR
STARTCHAR C0234
ENCODING 234
SWIDTH 562 0
DWIDTH 12 0
BBX 10 15 1 0
BITMAP
1C00
3600
6380
0000
1E00
3F00
6180
C0C0
C0C0
FFC0
C000
C000
E1C0
7F80
3F00
ENDCHAR
STARTCHAR C0235
ENCODING 235
SWIDTH 562 0
DWIDTH 12 0
BBX 10 15 1 0
BITMAP
6300
6300
0000
0000
1E00
3F00
6180
C0C0
C0C0
FFC0
C000
C000
E1C0
7F80
3F00
ENDCHAR
STARTCHAR C0236
ENCODING 236
SWIDTH 234 0
DWIDTH 5 0
BBX 5 15 -1 0
BITMAP
E0
30
18
00
18
18
18
18
18
18
18
18
18
18
18
ENDCHAR
STARTCHAR C0237
ENCODING 237
SWIDTH 234 0
DWIDTH 5 0
BBX 5 15 1 0
BITMAP
38
70
E0
00
60
60
60
60
60
60
60
60
60
60
60
ENDCHAR
STARTCHAR C0238
ENCODING 238
SWIDTH 234 0
DWIDTH 5 0
BBX 8 15 -1 0
BITMAP
38
6C
C7
00
18
18
18
18
18
18
18
18
18
18
18
ENDCHAR
STARTCHAR C0239
ENCODING 239
SWIDTH 234 0
DWIDTH 5 0
BBX 5 15 0 0
BITMAP
D8
D8
00
00
30
30
30
30
30
30
30
30
30
30
30
ENDCHAR
STARTCHAR C0240
ENCODING 240
SWIDTH 562 0
DWIDTH 12 0
BBX 10 15 1 0
BITMAP
3880
1F80
0700
0F80
0180
3EC0
73C0
E1C0
C0C0
C0C0
C0C0
C0C0
E1C0
7F80
3F00
ENDCHAR
STARTCHAR C0241
ENCODING 241
SWIDTH 562 0
DWIDTH 12 0
BBX 10 15 1 0
BITMAP
1800
3E80
0780
0000
CE00
DF80
F180
E1C0
C0C0
C0C0
C0C0
C0C0
C0C0
C0C0
C0C0
ENDCHAR
STARTCHAR C0242
ENCODING 242
SWIDTH 562 0
DWIDTH 12 0
BBX 10 15 1 0
BITMAP
3800
0C00
0600
0000
1E00
3F80
6180
C0C0
C0C0
C0C0
C0C0
C0C0
E1C0
7F80
3F00
ENDCHAR
STARTCHAR C0243
ENCODING 243
SWIDTH 562 0
DWIDTH 12 0
BBX 10 15 1 0
BITMAP
0380
0700
0E00
0000
1E00
3F80
6180
C0C0
C0C0
C0C0
C0C0
C0C0
E1C0
7F80
3F00
ENDCHAR
STARTCHAR C0244
ENCODING 244
SWIDTH 562 0
DWIDTH 12 0
BBX 10 15 1 0
BITMAP
1C00
3600
6380
0000
1E00
3F80
6180
C0C0
C0C0
C0C0
C0C0
C0C0
E1C0
7F80
3F00
ENDCHAR
STARTCHAR C0245
ENCODING 245
SWIDTH 562 0
DWIDTH 12 0
BBX 10 15 1 0
BITMAP
1800
3E80
0780
0000
1E00
3F80
6180
C0C0
C0C0
C0C0
C0C0
C0C0
E1C0
7F80
3F00
ENDCHAR
STARTCHAR C0246
ENCODING 246
SWIDTH 562 0
DWIDTH 12 0
BBX 10 15 1 0
BITMAP
6300
6300
0000
0000
1E00
3F80
6180
C0C0
C0C0
C0C0
C0C0
C0C0
E1C0
7F80
3F00
ENDCHAR
STARTCHAR C0247
ENCODING 247
SWIDTH 609 0
DWIDTH 13 0
BBX 9 9 2 2
BITMAP
0800
0C00
0800
0000
FF80
FF80
0000
0800
0C00
ENDCHAR
STARTCHAR C0248
ENCODING 248
SWIDTH 562 0
DWIDTH 12 0
BBX 11 11 1 0
BITMAP
1E60
3FC0
6180
C3C0
C6C0
CCC0
D8C0
D8C0
F1C0
7F80
FF00
ENDCHAR
STARTCHAR C0249
ENCODING 249
SWIDTH 562 0
DWIDTH 12 0
BBX 9 15 1 0
BITMAP
3800
0C00
0600
0000
C180
C180
C180
C180
C180
C180
C180
C180
E180
7F80
3F80
ENDCHAR
STARTCHAR C0250
ENCODING 250
SWIDTH 562 0
DWIDTH 12 0
BBX 9 15 1 0
BITMAP
0700
0E00
1C00
0000
C180
C180
C180
C180
C180
C180
C180
C180
E180
7F80
3F80
ENDCHAR
STARTCHAR C0251
ENCODING 251
SWIDTH 562 0
DWIDTH 12 0
BBX 9 15 1 0
BITMAP
1C00
3600
6380
0000
C180
C180
C180
C180
C180
C180
C180
C180
E180
7F80
3F80
ENDCHAR
STARTCHAR C0252
ENCODING 252
SWIDTH 562 0
DWIDTH 12 0
BBX 9 15 1 0
BITMAP
6300
6300
0000
0000
C180
C180
C180
C180
C180
C180
C180
C180
E180
7F80
3F80
ENDCHAR
STARTCHAR C0253
ENCODING 253
SWIDTH 515 0
DWIDTH 11 0
BBX 11 19 0 -4
BITMAP
0380
0700
0E00
0000
C060
6060
60C0
70C0
31C0
3180
1980
1B00
0F00
0E00
0600
0600
0C00
5C00
F800
ENDCHAR
STARTCHAR C0254
ENCODING 254
SWIDTH 562 0
DWIDTH 12 0
BBX 11 19 1 -4
BITMAP
C000
C000
C000
C000
CE00
DF80
F1C0
E0C0
E0C0
C060
C060
E0C0
E0C0
DF80
DF00
C000
C000
C000
C000
ENDCHAR
STARTCHAR C0255
ENCODING 255
SWIDTH 515 0
DWIDTH 11 0
BBX 11 19 0 -4
BITMAP
3180
3180
0000
0000
C060
6060
60C0
70C0
31C0
3180
1980
1B00
0F00
0E00
0600
0600
0C00
5C00
F800
ENDCHAR
ENDFONT

