STARTFONT 2.1
COMMENT 
COMMENT This file has been produced by ttf2bdf written by Subhabrata Biswas
COMMENT 
COMMENT For comments, questions, bug reports, send a mail to
COMMENT                                           subhabrata.biswas@usa.net
COMMENT 
FONT -*-Figtree-Medium-R-Normal--13-100-96-96-c-7--fontspecific
SIZE 10 96 96
FONTBOUNDINGBOX 17 16 -2 -3
STARTPROPERTIES 15
FOUNDRY "Misc"
FAMILY_NAME "Figtree"
WEIGHT_NAME "Medium"
SLANT "R"
SETWIDTH_NAME "Normal"
PIXEL_SIZE 9
POINT_SIZE 100
RESOLUTION_X 96
RESOLUTION_Y 96
SPACING "C"
CHARSET_ENCODING "fontspecific"
FONT_ASCENT 13
FONT_DESCENT 3
DEFAULT_CHAR 12
COPYRIGHT "You may wish to put your copyright here"
ENDPROPERTIES
CHARS 245
STARTCHAR C0011
ENCODING 11
SWIDTH 675 0
DWIDTH 9 0
BBX 7 12 1 -2
BITMAP
FE
82
82
82
82
82
82
82
82
82
82
FE
ENDCHAR
STARTCHAR C0012
ENCODING 12
SWIDTH 675 0
DWIDTH 9 0
BBX 7 12 1 -2
BITMAP
FE
82
82
82
82
82
82
82
82
82
82
FE
ENDCHAR
STARTCHAR C0013
ENCODING 13
SWIDTH 600 0
DWIDTH 8 0
BBX 1 1 0 -1
BITMAP
00
ENDCHAR
STARTCHAR C0014
ENCODING 14
SWIDTH 675 0
DWIDTH 9 0
BBX 7 12 1 -2
BITMAP
FE
82
82
82
82
82
82
82
82
82
82
FE
ENDCHAR
STARTCHAR C0015
ENCODING 15
SWIDTH 675 0
DWIDTH 9 0
BBX 7 12 1 -2
BITMAP
FE
82
82
82
82
82
82
82
82
82
82
FE
ENDCHAR
STARTCHAR C0016
ENCODING 16
SWIDTH 675 0
DWIDTH 9 0
BBX 7 12 1 -2
BITMAP
FE
82
82
82
82
82
82
82
82
82
82
FE
ENDCHAR
STARTCHAR C0017
ENCODING 17
SWIDTH 675 0
DWIDTH 9 0
BBX 7 12 1 -2
BITMAP
FE
82
82
82
82
82
82
82
82
82
82
FE
ENDCHAR
STARTCHAR C0018
ENCODING 18
SWIDTH 675 0
DWIDTH 9 0
BBX 7 12 1 -2
BITMAP
FE
82
82
82
82
82
82
82
82
82
82
FE
ENDCHAR
STARTCHAR C0019
ENCODING 19
SWIDTH 675 0
DWIDTH 9 0
BBX 7 12 1 -2
BITMAP
FE
82
82
82
82
82
82
82
82
82
82
FE
ENDCHAR
STARTCHAR C0020
ENCODING 20
SWIDTH 675 0
DWIDTH 9 0
BBX 7 12 1 -2
BITMAP
FE
82
82
82
82
82
82
82
82
82
82
FE
ENDCHAR
STARTCHAR C0021
ENCODING 21
SWIDTH 675 0
DWIDTH 9 0
BBX 7 12 1 -2
BITMAP
FE
82
82
82
82
82
82
82
82
82
82
FE
ENDCHAR
STARTCHAR C0022
ENCODING 22
SWIDTH 675 0
DWIDTH 9 0
BBX 7 12 1 -2
BITMAP
FE
82
82
82
82
82
82
82
82
82
82
FE
ENDCHAR
STARTCHAR C0023
ENCODING 23
SWIDTH 675 0
DWIDTH 9 0
BBX 7 12 1 -2
BITMAP
FE
82
82
82
82
82
82
82
82
82
82
FE
ENDCHAR
STARTCHAR C0024
ENCODING 24
SWIDTH 675 0
DWIDTH 9 0
BBX 7 12 1 -2
BITMAP
FE
82
82
82
82
82
82
82
82
82
82
FE
ENDCHAR
STARTCHAR C0025
ENCODING 25
SWIDTH 675 0
DWIDTH 9 0
BBX 7 12 1 -2
BITMAP
FE
82
82
82
82
82
82
82
82
82
82
FE
ENDCHAR
STARTCHAR C0026
ENCODING 26
SWIDTH 675 0
DWIDTH 9 0
BBX 7 12 1 -2
BITMAP
FE
82
82
82
82
82
82
82
82
82
82
FE
ENDCHAR
STARTCHAR C0027
ENCODING 27
SWIDTH 675 0
DWIDTH 9 0
BBX 7 12 1 -2
BITMAP
FE
82
82
82
82
82
82
82
82
82
82
FE
ENDCHAR
STARTCHAR C0028
ENCODING 28
SWIDTH 675 0
DWIDTH 9 0
BBX 7 12 1 -2
BITMAP
FE
82
82
82
82
82
82
82
82
82
82
FE
ENDCHAR
STARTCHAR C0029
ENCODING 29
SWIDTH 675 0
DWIDTH 9 0
BBX 7 12 1 -2
BITMAP
FE
82
82
82
82
82
82
82
82
82
82
FE
ENDCHAR
STARTCHAR C0030
ENCODING 30
SWIDTH 675 0
DWIDTH 9 0
BBX 7 12 1 -2
BITMAP
FE
82
82
82
82
82
82
82
82
82
82
FE
ENDCHAR
STARTCHAR C0031
ENCODING 31
SWIDTH 675 0
DWIDTH 9 0
BBX 7 12 1 -2
BITMAP
FE
82
82
82
82
82
82
82
82
82
82
FE
ENDCHAR
STARTCHAR C0032- 
ENCODING 32
SWIDTH 225 0
DWIDTH 3 0
BBX 1 1 0 -1
BITMAP
00
ENDCHAR
STARTCHAR C0033-!
ENCODING 33
SWIDTH 300 0
DWIDTH 4 0
BBX 2 9 1 0
BITMAP
C0
80
80
80
80
80
00
00
C0
ENDCHAR
STARTCHAR C0034-"
ENCODING 34
SWIDTH 300 0
DWIDTH 4 0
BBX 3 3 1 6
BITMAP
A0
A0
A0
ENDCHAR
STARTCHAR C0035-#
ENCODING 35
SWIDTH 600 0
DWIDTH 8 0
BBX 8 9 0 0
BITMAP
12
12
7F
24
24
25
FE
24
48
ENDCHAR
STARTCHAR C0036-$
ENCODING 36
SWIDTH 525 0
DWIDTH 7 0
BBX 6 11 1 -1
BITMAP
20
70
AC
A0
E0
70
28
24
E8
70
20
ENDCHAR
STARTCHAR C0037-%
ENCODING 37
SWIDTH 750 0
DWIDTH 10 0
BBX 9 9 1 0
BITMAP
E300
9200
9400
E800
1800
1700
2480
6480
C700
ENDCHAR
STARTCHAR C0038-&
ENCODING 38
SWIDTH 600 0
DWIDTH 8 0
BBX 7 9 1 0
BITMAP
78
48
48
70
70
92
8C
84
FA
ENDCHAR
STARTCHAR C0039-'
ENCODING 39
SWIDTH 225 0
DWIDTH 3 0
BBX 1 3 1 6
BITMAP
80
80
80
ENDCHAR
STARTCHAR C0040-(
ENCODING 40
SWIDTH 375 0
DWIDTH 5 0
BBX 3 11 1 -1
BITMAP
60
40
80
80
80
80
80
80
80
40
60
ENDCHAR
STARTCHAR C0041-)
ENCODING 41
SWIDTH 375 0
DWIDTH 5 0
BBX 3 11 1 -1
BITMAP
80
40
40
20
20
20
20
60
40
40
80
ENDCHAR
STARTCHAR C0042-*
ENCODING 42
SWIDTH 450 0
DWIDTH 6 0
BBX 4 4 1 5
BITMAP
20
F0
60
D0
ENDCHAR
STARTCHAR C0043-+
ENCODING 43
SWIDTH 600 0
DWIDTH 8 0
BBX 6 6 1 1
BITMAP
10
10
10
FC
10
10
ENDCHAR
STARTCHAR C0044-,
ENCODING 44
SWIDTH 225 0
DWIDTH 3 0
BBX 1 3 1 -2
BITMAP
80
80
80
ENDCHAR
STARTCHAR C0045--
ENCODING 45
SWIDTH 375 0
DWIDTH 5 0
BBX 4 1 1 3
BITMAP
F0
ENDCHAR
STARTCHAR C0046-.
ENCODING 46
SWIDTH 225 0
DWIDTH 3 0
BBX 1 1 1 0
BITMAP
80
ENDCHAR
STARTCHAR C0047-/
ENCODING 47
SWIDTH 375 0
DWIDTH 5 0
BBX 5 11 0 -1
BITMAP
08
10
10
10
20
20
20
40
40
40
80
ENDCHAR
STARTCHAR C0048-0
ENCODING 48
SWIDTH 600 0
DWIDTH 8 0
BBX 7 9 1 0
BITMAP
78
C4
84
82
82
82
84
C4
78
ENDCHAR
STARTCHAR C0049-1
ENCODING 49
SWIDTH 375 0
DWIDTH 5 0
BBX 3 9 1 0
BITMAP
60
E0
20
20
20
20
20
20
20
ENDCHAR
STARTCHAR C0050-2
ENCODING 50
SWIDTH 525 0
DWIDTH 7 0
BBX 7 9 0 0
BITMAP
7C
C4
04
04
08
30
60
40
7E
ENDCHAR
STARTCHAR C0051-3
ENCODING 51
SWIDTH 525 0
DWIDTH 7 0
BBX 5 9 1 0
BITMAP
F8
88
08
18
70
08
08
88
F8
ENDCHAR
STARTCHAR C0052-4
ENCODING 52
SWIDTH 600 0
DWIDTH 8 0
BBX 7 9 1 0
BITMAP
18
18
28
48
48
88
FE
08
08
ENDCHAR
STARTCHAR C0053-5
ENCODING 53
SWIDTH 525 0
DWIDTH 7 0
BBX 6 9 1 0
BITMAP
78
80
80
B0
C8
04
04
8C
78
ENDCHAR
STARTCHAR C0054-6
ENCODING 54
SWIDTH 525 0
DWIDTH 7 0
BBX 6 9 1 0
BITMAP
7C
80
80
B0
C8
84
84
8C
78
ENDCHAR
STARTCHAR C0055-7
ENCODING 55
SWIDTH 525 0
DWIDTH 7 0
BBX 6 9 1 0
BITMAP
FC
08
08
10
30
20
60
40
C0
ENDCHAR
STARTCHAR C0056-8
ENCODING 56
SWIDTH 600 0
DWIDTH 8 0
BBX 6 9 1 0
BITMAP
78
84
84
CC
78
84
84
84
78
ENDCHAR
STARTCHAR C0057-9
ENCODING 57
SWIDTH 525 0
DWIDTH 7 0
BBX 7 9 0 0
BITMAP
7C
44
86
C6
6E
32
04
04
78
ENDCHAR
STARTCHAR C0058-:
ENCODING 58
SWIDTH 225 0
DWIDTH 3 0
BBX 1 7 1 0
BITMAP
80
80
00
00
00
00
80
ENDCHAR
STARTCHAR C0059-;
ENCODING 59
SWIDTH 225 0
DWIDTH 3 0
BBX 1 9 1 -2
BITMAP
80
80
00
00
00
00
80
80
80
ENDCHAR
STARTCHAR C0060-<
ENCODING 60
SWIDTH 600 0
DWIDTH 8 0
BBX 4 5 2 1
BITMAP
30
C0
C0
30
10
ENDCHAR
STARTCHAR C0061-=
ENCODING 61
SWIDTH 600 0
DWIDTH 8 0
BBX 6 4 1 2
BITMAP
FC
00
00
FC
ENDCHAR
STARTCHAR C0062->
ENCODING 62
SWIDTH 600 0
DWIDTH 8 0
BBX 4 5 2 1
BITMAP
C0
30
30
C0
80
ENDCHAR
STARTCHAR C0063-?
ENCODING 63
SWIDTH 525 0
DWIDTH 7 0
BBX 6 9 0 0
BITMAP
78
C4
04
04
38
20
20
00
30
ENDCHAR
STARTCHAR C0064-@
ENCODING 64
SWIDTH 975 0
DWIDTH 13 0
BBX 11 12 1 -3
BITMAP
1F80
60C0
C040
9F20
A120
A120
A120
9320
8DC0
4000
3100
0E00
ENDCHAR
STARTCHAR C0065-A
ENCODING 65
SWIDTH 675 0
DWIDTH 9 0
BBX 9 9 0 0
BITMAP
0800
1400
1400
2400
2200
3E00
4100
4100
8180
ENDCHAR
STARTCHAR C0066-B
ENCODING 66
SWIDTH 600 0
DWIDTH 8 0
BBX 6 9 1 0
BITMAP
F8
84
84
84
F8
84
84
84
F8
ENDCHAR
STARTCHAR C0067-C
ENCODING 67
SWIDTH 675 0
DWIDTH 9 0
BBX 8 9 1 0
BITMAP
7C
C3
82
80
80
80
81
42
3C
ENDCHAR
STARTCHAR C0068-D
ENCODING 68
SWIDTH 675 0
DWIDTH 9 0
BBX 7 9 1 0
BITMAP
F8
84
82
82
82
82
82
84
F8
ENDCHAR
STARTCHAR C0069-E
ENCODING 69
SWIDTH 600 0
DWIDTH 8 0
BBX 6 9 1 0
BITMAP
FC
80
80
80
F8
80
80
80
FC
ENDCHAR
STARTCHAR C0070-F
ENCODING 70
SWIDTH 525 0
DWIDTH 7 0
BBX 6 9 1 0
BITMAP
FC
80
80
80
F8
80
80
80
80
ENDCHAR
STARTCHAR C0071-G
ENCODING 71
SWIDTH 750 0
DWIDTH 10 0
BBX 8 9 1 0
BITMAP
3E
43
80
80
87
81
81
43
3E
ENDCHAR
STARTCHAR C0072-H
ENCODING 72
SWIDTH 750 0
DWIDTH 10 0
BBX 8 9 1 0
BITMAP
83
83
83
83
FF
83
83
83
83
ENDCHAR
STARTCHAR C0073-I
ENCODING 73
SWIDTH 300 0
DWIDTH 4 0
BBX 1 9 1 0
BITMAP
80
80
80
80
80
80
80
80
80
ENDCHAR
STARTCHAR C0074-J
ENCODING 74
SWIDTH 525 0
DWIDTH 7 0
BBX 6 9 0 0
BITMAP
04
04
04
04
04
04
0C
88
78
ENDCHAR
STARTCHAR C0075-K
ENCODING 75
SWIDTH 600 0
DWIDTH 8 0
BBX 7 9 1 0
BITMAP
86
88
90
A0
E0
90
98
8C
86
ENDCHAR
STARTCHAR C0076-L
ENCODING 76
SWIDTH 525 0
DWIDTH 7 0
BBX 6 9 1 0
BITMAP
80
80
80
80
80
80
80
80
FC
ENDCHAR
STARTCHAR C0077-M
ENCODING 77
SWIDTH 825 0
DWIDTH 11 0
BBX 9 9 1 0
BITMAP
C180
C180
A280
9480
9480
8880
8080
8080
8080
ENDCHAR
STARTCHAR C0078-N
ENCODING 78
SWIDTH 750 0
DWIDTH 10 0
BBX 8 9 1 0
BITMAP
C1
E1
A1
91
99
89
85
83
83
ENDCHAR
STARTCHAR C0079-O
ENCODING 79
SWIDTH 750 0
DWIDTH 10 0
BBX 8 9 1 0
BITMAP
7E
C3
81
81
81
81
81
43
3C
ENDCHAR
STARTCHAR C0080-P
ENCODING 80
SWIDTH 600 0
DWIDTH 8 0
BBX 6 9 1 0
BITMAP
F8
84
84
84
8C
F0
80
80
80
ENDCHAR
STARTCHAR C0081-Q
ENCODING 81
SWIDTH 750 0
DWIDTH 10 0
BBX 9 10 1 -1
BITMAP
3E00
C300
8100
8100
8100
8100
8500
4300
3D80
0100
ENDCHAR
STARTCHAR C0082-R
ENCODING 82
SWIDTH 600 0
DWIDTH 8 0
BBX 7 9 1 0
BITMAP
F8
84
84
84
F8
90
88
8C
86
ENDCHAR
STARTCHAR C0083-S
ENCODING 83
SWIDTH 600 0
DWIDTH 8 0
BBX 6 9 1 0
BITMAP
78
84
80
C0
38
0C
04
84
78
ENDCHAR
STARTCHAR C0084-T
ENCODING 84
SWIDTH 525 0
DWIDTH 7 0
BBX 7 9 0 0
BITMAP
FE
10
10
10
10
10
10
10
10
ENDCHAR
STARTCHAR C0085-U
ENCODING 85
SWIDTH 675 0
DWIDTH 9 0
BBX 7 9 1 0
BITMAP
82
82
82
82
82
82
82
46
7C
ENDCHAR
STARTCHAR C0086-V
ENCODING 86
SWIDTH 675 0
DWIDTH 9 0
BBX 9 9 0 0
BITMAP
C180
4100
4100
2200
2200
3600
1400
1400
0800
ENDCHAR
STARTCHAR C0087-W
ENCODING 87
SWIDTH 900 0
DWIDTH 12 0
BBX 12 9 0 0
BITMAP
8210
4610
4730
4520
2920
2920
28C0
38C0
10C0
ENDCHAR
STARTCHAR C0088-X
ENCODING 88
SWIDTH 600 0
DWIDTH 8 0
BBX 8 9 0 0
BITMAP
C3
66
24
18
18
18
24
42
C3
ENDCHAR
STARTCHAR C0089-Y
ENCODING 89
SWIDTH 600 0
DWIDTH 8 0
BBX 8 9 0 0
BITMAP
C3
42
24
3C
18
10
10
10
10
ENDCHAR
STARTCHAR C0090-Z
ENCODING 90
SWIDTH 600 0
DWIDTH 8 0
BBX 7 9 1 0
BITMAP
FE
04
08
18
30
20
40
80
FE
ENDCHAR
STARTCHAR C0091-[
ENCODING 91
SWIDTH 300 0
DWIDTH 4 0
BBX 2 11 1 -1
BITMAP
C0
80
80
80
80
80
80
80
80
80
C0
ENDCHAR
STARTCHAR C0092-\
ENCODING 92
SWIDTH 375 0
DWIDTH 5 0
BBX 5 11 0 -1
BITMAP
80
40
40
40
20
20
20
10
10
10
08
ENDCHAR
STARTCHAR C0093-]
ENCODING 93
SWIDTH 300 0
DWIDTH 4 0
BBX 2 11 1 -1
BITMAP
C0
40
40
40
40
40
40
40
40
40
C0
ENDCHAR
STARTCHAR C0094-^
ENCODING 94
SWIDTH 525 0
DWIDTH 7 0
BBX 5 4 1 5
BITMAP
20
50
50
88
ENDCHAR
STARTCHAR C0095-_
ENCODING 95
SWIDTH 450 0
DWIDTH 6 0
BBX 5 1 0 -1
BITMAP
F8
ENDCHAR
STARTCHAR C0096-`
ENCODING 96
SWIDTH 225 0
DWIDTH 3 0
BBX 3 2 0 7
BITMAP
C0
60
ENDCHAR
STARTCHAR C0097-a
ENCODING 97
SWIDTH 525 0
DWIDTH 7 0
BBX 5 7 1 0
BITMAP
60
90
08
F8
88
88
F8
ENDCHAR
STARTCHAR C0098-b
ENCODING 98
SWIDTH 600 0
DWIDTH 8 0
BBX 6 9 1 0
BITMAP
80
80
B0
C8
84
84
84
8C
F8
ENDCHAR
STARTCHAR C0099-c
ENCODING 99
SWIDTH 525 0
DWIDTH 7 0
BBX 6 7 1 0
BITMAP
30
CC
80
80
80
8C
78
ENDCHAR
STARTCHAR C0100-d
ENCODING 100
SWIDTH 600 0
DWIDTH 8 0
BBX 6 9 1 0
BITMAP
04
04
64
DC
8C
84
84
8C
74
ENDCHAR
STARTCHAR C0101-e
ENCODING 101
SWIDTH 525 0
DWIDTH 7 0
BBX 6 7 1 0
BITMAP
30
C8
88
FC
80
8C
78
ENDCHAR
STARTCHAR C0102-f
ENCODING 102
SWIDTH 375 0
DWIDTH 5 0
BBX 5 9 0 0
BITMAP
38
20
F0
20
20
20
20
20
20
ENDCHAR
STARTCHAR C0103-g
ENCODING 103
SWIDTH 600 0
DWIDTH 8 0
BBX 6 10 1 -3
BITMAP
74
CC
8C
84
84
8C
74
04
88
70
ENDCHAR
STARTCHAR C0104-h
ENCODING 104
SWIDTH 525 0
DWIDTH 7 0
BBX 6 9 1 0
BITMAP
80
80
B0
C8
88
8C
8C
8C
8C
ENDCHAR
STARTCHAR C0105-i
ENCODING 105
SWIDTH 225 0
DWIDTH 3 0
BBX 1 9 1 0
BITMAP
80
00
80
80
80
80
80
80
80
ENDCHAR
STARTCHAR C0106-j
ENCODING 106
SWIDTH 225 0
DWIDTH 3 0
BBX 4 12 -1 -3
BITMAP
30
00
30
30
30
30
30
30
30
30
20
E0
ENDCHAR
STARTCHAR C0107-k
ENCODING 107
SWIDTH 450 0
DWIDTH 6 0
BBX 5 9 1 0
BITMAP
80
80
88
90
A0
E0
B0
90
88
ENDCHAR
STARTCHAR C0108-l
ENCODING 108
SWIDTH 225 0
DWIDTH 3 0
BBX 1 9 1 0
BITMAP
80
80
80
80
80
80
80
80
80
ENDCHAR
STARTCHAR C0109-m
ENCODING 109
SWIDTH 825 0
DWIDTH 11 0
BBX 9 7 1 0
BITMAP
B300
DC80
8880
8880
8880
8880
8880
ENDCHAR
STARTCHAR C0110-n
ENCODING 110
SWIDTH 525 0
DWIDTH 7 0
BBX 6 7 1 0
BITMAP
B0
C8
88
8C
8C
8C
8C
ENDCHAR
STARTCHAR C0111-o
ENCODING 111
SWIDTH 600 0
DWIDTH 8 0
BBX 6 7 1 0
BITMAP
30
C8
84
84
84
8C
78
ENDCHAR
STARTCHAR C0112-p
ENCODING 112
SWIDTH 600 0
DWIDTH 8 0
BBX 6 10 1 -3
BITMAP
B0
CC
84
84
84
C4
B8
80
80
80
ENDCHAR
STARTCHAR C0113-q
ENCODING 113
SWIDTH 600 0
DWIDTH 8 0
BBX 6 10 1 -3
BITMAP
64
DC
8C
84
84
8C
74
04
04
04
ENDCHAR
STARTCHAR C0114-r
ENCODING 114
SWIDTH 300 0
DWIDTH 4 0
BBX 3 7 1 0
BITMAP
A0
E0
80
80
80
80
80
ENDCHAR
STARTCHAR C0115-s
ENCODING 115
SWIDTH 450 0
DWIDTH 6 0
BBX 5 7 1 0
BITMAP
60
98
80
E0
10
88
F0
ENDCHAR
STARTCHAR C0116-t
ENCODING 116
SWIDTH 375 0
DWIDTH 5 0
BBX 5 9 0 0
BITMAP
40
40
F0
40
40
40
40
40
38
ENDCHAR
STARTCHAR C0117-u
ENCODING 117
SWIDTH 525 0
DWIDTH 7 0
BBX 5 7 1 0
BITMAP
88
88
88
88
88
88
F8
ENDCHAR
STARTCHAR C0118-v
ENCODING 118
SWIDTH 525 0
DWIDTH 7 0
BBX 7 7 0 0
BITMAP
82
44
44
48
28
28
10
ENDCHAR
STARTCHAR C0119-w
ENCODING 119
SWIDTH 750 0
DWIDTH 10 0
BBX 10 7 0 0
BITMAP
8440
CC40
4C80
4A80
7280
3300
3100
ENDCHAR
STARTCHAR C0120-x
ENCODING 120
SWIDTH 450 0
DWIDTH 6 0
BBX 6 7 0 0
BITMAP
C4
48
30
30
30
48
CC
ENDCHAR
STARTCHAR C0121-y
ENCODING 121
SWIDTH 525 0
DWIDTH 7 0
BBX 7 10 0 -3
BITMAP
82
44
44
48
28
28
10
10
20
E0
ENDCHAR
STARTCHAR C0122-z
ENCODING 122
SWIDTH 450 0
DWIDTH 6 0
BBX 5 7 1 0
BITMAP
F8
18
10
20
40
80
F8
ENDCHAR
STARTCHAR C0123-{
ENCODING 123
SWIDTH 375 0
DWIDTH 5 0
BBX 3 11 1 -1
BITMAP
60
40
40
40
40
80
40
40
40
40
60
ENDCHAR
STARTCHAR C0124-|
ENCODING 124
SWIDTH 225 0
DWIDTH 3 0
BBX 1 13 1 -3
BITMAP
80
80
80
80
80
80
80
80
80
80
80
80
80
ENDCHAR
STARTCHAR C0125-}
ENCODING 125
SWIDTH 375 0
DWIDTH 5 0
BBX 3 11 1 -1
BITMAP
C0
40
40
40
40
20
40
40
40
40
C0
ENDCHAR
STARTCHAR C0126-~
ENCODING 126
SWIDTH 525 0
DWIDTH 7 0
BBX 6 2 1 3
BITMAP
E4
98
ENDCHAR
STARTCHAR C0127
ENCODING 127
SWIDTH 675 0
DWIDTH 9 0
BBX 7 12 1 -2
BITMAP
FE
82
82
82
82
82
82
82
82
82
82
FE
ENDCHAR
STARTCHAR C0128
ENCODING 128
SWIDTH 675 0
DWIDTH 9 0
BBX 8 9 0 0
BITMAP
1E
21
21
FC
40
FC
21
23
1E
ENDCHAR
STARTCHAR C0129
ENCODING 129
SWIDTH 675 0
DWIDTH 9 0
BBX 7 12 1 -2
BITMAP
FE
82
82
82
82
82
82
82
82
82
82
FE
ENDCHAR
STARTCHAR C0130
ENCODING 130
SWIDTH 225 0
DWIDTH 3 0
BBX 1 3 1 -2
BITMAP
80
80
80
ENDCHAR
STARTCHAR C0131
ENCODING 131
SWIDTH 675 0
DWIDTH 9 0
BBX 7 12 1 -2
BITMAP
FE
82
82
82
82
82
82
82
82
82
82
FE
ENDCHAR
STARTCHAR C0132
ENCODING 132
SWIDTH 300 0
DWIDTH 4 0
BBX 3 3 1 -2
BITMAP
A0
A0
C0
ENDCHAR
STARTCHAR C0133
ENCODING 133
SWIDTH 600 0
DWIDTH 8 0
BBX 6 1 1 0
BITMAP
94
ENDCHAR
STARTCHAR C0134
ENCODING 134
SWIDTH 450 0
DWIDTH 6 0
BBX 6 9 0 0
BITMAP
10
10
FC
10
10
10
10
10
10
ENDCHAR
STARTCHAR C0135
ENCODING 135
SWIDTH 450 0
DWIDTH 6 0
BBX 6 12 0 -3
BITMAP
10
10
FC
10
10
10
10
10
FC
10
10
10
ENDCHAR
STARTCHAR C0136
ENCODING 136
SWIDTH 375 0
DWIDTH 5 0
BBX 4 1 0 8
BITMAP
F0
ENDCHAR
STARTCHAR C0137
ENCODING 137
SWIDTH 675 0
DWIDTH 9 0
BBX 7 12 1 -2
BITMAP
FE
82
82
82
82
82
82
82
82
82
82
FE
ENDCHAR
STARTCHAR C0138
ENCODING 138
SWIDTH 600 0
DWIDTH 8 0
BBX 6 11 1 0
BITMAP
68
10
78
84
80
C0
38
0C
04
84
78
ENDCHAR
STARTCHAR C0139
ENCODING 139
SWIDTH 375 0
DWIDTH 5 0
BBX 3 6 1 1
BITMAP
20
40
80
80
40
60
ENDCHAR
STARTCHAR C0140
ENCODING 140
SWIDTH 1125 0
DWIDTH 15 0
BBX 13 9 1 0
BITMAP
7FF8
C300
8100
8100
81F0
8100
8100
4300
3DF8
ENDCHAR
STARTCHAR C0141
ENCODING 141
SWIDTH 675 0
DWIDTH 9 0
BBX 7 12 1 -2
BITMAP
FE
82
82
82
82
82
82
82
82
82
82
FE
ENDCHAR
STARTCHAR C0142
ENCODING 142
SWIDTH 600 0
DWIDTH 8 0
BBX 7 11 1 0
BITMAP
68
10
FE
04
08
18
30
20
40
80
FE
ENDCHAR
STARTCHAR C0143
ENCODING 143
SWIDTH 675 0
DWIDTH 9 0
BBX 7 12 1 -2
BITMAP
FE
82
82
82
82
82
82
82
82
82
82
FE
ENDCHAR
STARTCHAR C0144
ENCODING 144
SWIDTH 675 0
DWIDTH 9 0
BBX 7 12 1 -2
BITMAP
FE
82
82
82
82
82
82
82
82
82
82
FE
ENDCHAR
STARTCHAR C0145
ENCODING 145
SWIDTH 150 0
DWIDTH 2 0
BBX 2 3 0 6
BITMAP
40
40
80
ENDCHAR
STARTCHAR C0146
ENCODING 146
SWIDTH 150 0
DWIDTH 2 0
BBX 1 3 1 6
BITMAP
80
80
80
ENDCHAR
STARTCHAR C0147
ENCODING 147
SWIDTH 300 0
DWIDTH 4 0
BBX 4 3 0 6
BITMAP
50
50
A0
ENDCHAR
STARTCHAR C0148
ENCODING 148
SWIDTH 300 0
DWIDTH 4 0
BBX 3 3 1 6
BITMAP
A0
A0
C0
ENDCHAR
STARTCHAR C0149
ENCODING 149
SWIDTH 450 0
DWIDTH 6 0
BBX 3 3 2 2
BITMAP
C0
E0
C0
ENDCHAR
STARTCHAR C0150
ENCODING 150
SWIDTH 525 0
DWIDTH 7 0
BBX 7 1 0 3
BITMAP
FE
ENDCHAR
STARTCHAR C0151
ENCODING 151
SWIDTH 1050 0
DWIDTH 14 0
BBX 14 1 0 3
BITMAP
FFFC
ENDCHAR
STARTCHAR C0152
ENCODING 152
SWIDTH 300 0
DWIDTH 4 0
BBX 5 2 0 7
BITMAP
E8
10
ENDCHAR
STARTCHAR C0153
ENCODING 153
SWIDTH 825 0
DWIDTH 11 0
BBX 11 5 0 4
BITMAP
F660
26A0
25A0
2520
2420
ENDCHAR
STARTCHAR C0154
ENCODING 154
SWIDTH 450 0
DWIDTH 6 0
BBX 5 9 1 0
BITMAP
D0
20
60
98
80
E0
10
88
F0
ENDCHAR
STARTCHAR C0155
ENCODING 155
SWIDTH 375 0
DWIDTH 5 0
BBX 3 6 1 1
BITMAP
80
40
60
60
40
80
ENDCHAR
STARTCHAR C0156
ENCODING 156
SWIDTH 975 0
DWIDTH 13 0
BBX 12 7 1 0
BITMAP
30C0
CB20
8620
87F0
8600
8E30
79E0
ENDCHAR
STARTCHAR C0157
ENCODING 157
SWIDTH 675 0
DWIDTH 9 0
BBX 7 12 1 -2
BITMAP
FE
82
82
82
82
82
82
82
82
82
82
FE
ENDCHAR
STARTCHAR C0158
ENCODING 158
SWIDTH 450 0
DWIDTH 6 0
BBX 5 9 1 0
BITMAP
D0
20
F8
18
10
20
40
80
F8
ENDCHAR
STARTCHAR C0159
ENCODING 159
SWIDTH 600 0
DWIDTH 8 0
BBX 8 11 0 0
BITMAP
24
00
C3
42
24
3C
18
10
10
10
10
ENDCHAR
STARTCHAR C0160
ENCODING 160
SWIDTH 225 0
DWIDTH 3 0
BBX 1 1 0 -1
BITMAP
00
ENDCHAR
STARTCHAR C0161
ENCODING 161
SWIDTH 300 0
DWIDTH 4 0
BBX 2 10 1 -3
BITMAP
80
C0
00
80
80
80
80
80
80
C0
ENDCHAR
STARTCHAR C0162
ENCODING 162
SWIDTH 525 0
DWIDTH 7 0
BBX 6 9 1 0
BITMAP
20
78
AC
A0
A0
A0
EC
30
20
ENDCHAR
STARTCHAR C0163
ENCODING 163
SWIDTH 525 0
DWIDTH 7 0
BBX 6 9 1 0
BITMAP
78
44
40
40
F0
40
40
40
FC
ENDCHAR
STARTCHAR C0164
ENCODING 164
SWIDTH 525 0
DWIDTH 7 0
BBX 5 5 1 2
BITMAP
B8
48
88
58
B8
ENDCHAR
STARTCHAR C0165
ENCODING 165
SWIDTH 525 0
DWIDTH 7 0
BBX 7 9 0 0
BITMAP
C6
44
28
28
7C
10
7C
10
10
ENDCHAR
STARTCHAR C0166
ENCODING 166
SWIDTH 300 0
DWIDTH 4 0
BBX 1 13 1 -3
BITMAP
80
80
80
80
80
00
00
80
80
80
80
80
80
ENDCHAR
STARTCHAR C0167
ENCODING 167
SWIDTH 525 0
DWIDTH 7 0
BBX 5 10 1 -1
BITMAP
78
88
C0
70
88
C8
70
08
88
78
ENDCHAR
STARTCHAR C0168
ENCODING 168
SWIDTH 450 0
DWIDTH 6 0
BBX 4 1 1 8
BITMAP
90
ENDCHAR
STARTCHAR C0169
ENCODING 169
SWIDTH 825 0
DWIDTH 11 0
BBX 9 9 1 0
BITMAP
3E00
4100
9C80
A480
A080
A680
9C80
4100
3E00
ENDCHAR
STARTCHAR C0170
ENCODING 170
SWIDTH 300 0
DWIDTH 4 0
BBX 4 4 0 5
BITMAP
F0
70
90
70
ENDCHAR
STARTCHAR C0171
ENCODING 171
SWIDTH 525 0
DWIDTH 7 0
BBX 6 6 1 1
BITMAP
24
48
90
90
48
6C
ENDCHAR
STARTCHAR C0172
ENCODING 172
SWIDTH 600 0
DWIDTH 8 0
BBX 4 3 2 2
BITMAP
F0
10
10
ENDCHAR
STARTCHAR C0173
ENCODING 173
SWIDTH 675 0
DWIDTH 9 0
BBX 7 12 1 -2
BITMAP
FE
82
82
82
82
82
82
82
82
82
82
FE
ENDCHAR
STARTCHAR C0174
ENCODING 174
SWIDTH 600 0
DWIDTH 8 0
BBX 7 7 1 2
BITMAP
78
B4
AA
B2
B4
8C
70
ENDCHAR
STARTCHAR C0175
ENCODING 175
SWIDTH 300 0
DWIDTH 4 0
BBX 4 1 0 7
BITMAP
F0
ENDCHAR
STARTCHAR C0176
ENCODING 176
SWIDTH 375 0
DWIDTH 5 0
BBX 3 3 1 6
BITMAP
E0
A0
E0
ENDCHAR
STARTCHAR C0177
ENCODING 177
SWIDTH 600 0
DWIDTH 8 0
BBX 6 7 1 0
BITMAP
10
10
FC
10
10
00
FC
ENDCHAR
STARTCHAR C0178
ENCODING 178
SWIDTH 375 0
DWIDTH 5 0
BBX 4 5 0 5
BITMAP
F0
10
30
40
F0
ENDCHAR
STARTCHAR C0179
ENCODING 179
SWIDTH 375 0
DWIDTH 5 0
BBX 3 5 1 5
BITMAP
E0
20
40
20
E0
ENDCHAR
STARTCHAR C0180
ENCODING 180
SWIDTH 225 0
DWIDTH 3 0
BBX 3 2 0 7
BITMAP
60
80
ENDCHAR
STARTCHAR C0181
ENCODING 181
SWIDTH 525 0
DWIDTH 7 0
BBX 5 10 1 -3
BITMAP
88
88
88
88
88
88
F8
80
80
80
ENDCHAR
STARTCHAR C0182
ENCODING 182
SWIDTH 525 0
DWIDTH 7 0
BBX 6 10 0 -1
BITMAP
7C
74
F4
F4
74
34
14
14
14
14
ENDCHAR
STARTCHAR C0183
ENCODING 183
SWIDTH 225 0
DWIDTH 3 0
BBX 1 1 1 4
BITMAP
80
ENDCHAR
STARTCHAR C0184
ENCODING 184
SWIDTH 225 0
DWIDTH 3 0
BBX 3 3 0 -3
BITMAP
40
20
C0
ENDCHAR
STARTCHAR C0185
ENCODING 185
SWIDTH 300 0
DWIDTH 4 0
BBX 2 5 1 5
BITMAP
C0
C0
40
40
40
ENDCHAR
STARTCHAR C0186
ENCODING 186
SWIDTH 375 0
DWIDTH 5 0
BBX 4 4 0 5
BITMAP
70
90
90
70
ENDCHAR
STARTCHAR C0187
ENCODING 187
SWIDTH 525 0
DWIDTH 7 0
BBX 6 6 1 1
BITMAP
B0
D0
68
6C
50
B0
ENDCHAR
STARTCHAR C0188
ENCODING 188
SWIDTH 825 0
DWIDTH 11 0
BBX 10 9 1 0
BITMAP
C100
C200
4400
4400
4980
1180
3280
27C0
4080
ENDCHAR
STARTCHAR C0189
ENCODING 189
SWIDTH 825 0
DWIDTH 11 0
BBX 9 9 1 0
BITMAP
C100
C200
4400
4400
4F80
1080
3180
2200
4780
ENDCHAR
STARTCHAR C0190
ENCODING 190
SWIDTH 900 0
DWIDTH 12 0
BBX 11 9 1 0
BITMAP
E080
2100
4200
2200
A4C0
48C0
1940
13E0
2040
ENDCHAR
STARTCHAR C0191
ENCODING 191
SWIDTH 450 0
DWIDTH 6 0
BBX 6 10 0 -3
BITMAP
10
10
00
10
30
40
80
80
4C
30
ENDCHAR
STARTCHAR C0192
ENCODING 192
SWIDTH 675 0
DWIDTH 9 0
BBX 9 11 0 0
BITMAP
1800
0C00
0800
1400
1400
2400
2200
3E00
4100
4100
8180
ENDCHAR
STARTCHAR C0193
ENCODING 193
SWIDTH 675 0
DWIDTH 9 0
BBX 9 11 0 0
BITMAP
0C00
0000
0800
1400
1400
2400
2200
3E00
4100
4100
8180
ENDCHAR
STARTCHAR C0194
ENCODING 194
SWIDTH 675 0
DWIDTH 9 0
BBX 9 11 0 0
BITMAP
1C00
2000
0800
1400
1400
2400
2200
3E00
4100
4100
8180
ENDCHAR
STARTCHAR C0195
ENCODING 195
SWIDTH 675 0
DWIDTH 9 0
BBX 9 11 0 0
BITMAP
3A00
0400
0800
1400
1400
2400
2200
3E00
4100
4100
8180
ENDCHAR
STARTCHAR C0196
ENCODING 196
SWIDTH 675 0
DWIDTH 9 0
BBX 9 11 0 0
BITMAP
2400
0000
0800
1400
1400
2400
2200
3E00
4100
4100
8180
ENDCHAR
STARTCHAR C0197
ENCODING 197
SWIDTH 675 0
DWIDTH 9 0
BBX 9 12 0 0
BITMAP
0800
0C00
0C00
0800
1400
1400
2400
2200
3E00
4100
4100
8180
ENDCHAR
STARTCHAR C0198
ENCODING 198
SWIDTH 975 0
DWIDTH 13 0
BBX 12 9 0 0
BITMAP
07F0
0500
0900
1900
11F0
3F00
2100
4100
C1F0
ENDCHAR
STARTCHAR C0199
ENCODING 199
SWIDTH 675 0
DWIDTH 9 0
BBX 8 12 1 -3
BITMAP
7C
C3
82
80
80
80
81
42
3C
10
08
30
ENDCHAR
STARTCHAR C0200
ENCODING 200
SWIDTH 600 0
DWIDTH 8 0
BBX 6 11 1 0
BITMAP
30
10
FC
80
80
80
F8
80
80
80
FC
ENDCHAR
STARTCHAR C0201
ENCODING 201
SWIDTH 600 0
DWIDTH 8 0
BBX 6 11 1 0
BITMAP
18
20
FC
80
80
80
F8
80
80
80
FC
ENDCHAR
STARTCHAR C0202
ENCODING 202
SWIDTH 600 0
DWIDTH 8 0
BBX 6 11 1 0
BITMAP
38
40
FC
80
80
80
F8
80
80
80
FC
ENDCHAR
STARTCHAR C0203
ENCODING 203
SWIDTH 600 0
DWIDTH 8 0
BBX 6 11 1 0
BITMAP
48
00
FC
80
80
80
F8
80
80
80
FC
ENDCHAR
STARTCHAR C0204
ENCODING 204
SWIDTH 300 0
DWIDTH 4 0
BBX 3 11 1 0
BITMAP
C0
60
80
80
80
80
80
80
80
80
80
ENDCHAR
STARTCHAR C0205
ENCODING 205
SWIDTH 300 0
DWIDTH 4 0
BBX 3 11 1 0
BITMAP
60
80
80
80
80
80
80
80
80
80
80
ENDCHAR
STARTCHAR C0206
ENCODING 206
SWIDTH 300 0
DWIDTH 4 0
BBX 4 11 0 0
BITMAP
70
80
40
40
40
40
40
40
40
40
40
ENDCHAR
STARTCHAR C0207
ENCODING 207
SWIDTH 300 0
DWIDTH 4 0
BBX 3 12 0 0
BITMAP
A0
E0
00
40
40
40
40
40
40
40
40
40
ENDCHAR
STARTCHAR C0208
ENCODING 208
SWIDTH 750 0
DWIDTH 10 0
BBX 8 9 1 0
BITMAP
7C
42
41
41
F1
41
43
46
7C
ENDCHAR
STARTCHAR C0209
ENCODING 209
SWIDTH 750 0
DWIDTH 10 0
BBX 8 11 1 0
BITMAP
3A
04
C1
E1
A1
91
99
89
85
83
83
ENDCHAR
STARTCHAR C0210
ENCODING 210
SWIDTH 750 0
DWIDTH 10 0
BBX 8 11 1 0
BITMAP
18
08
7E
C3
81
81
81
81
81
43
3C
ENDCHAR
STARTCHAR C0211
ENCODING 211
SWIDTH 750 0
DWIDTH 10 0
BBX 8 11 1 0
BITMAP
0C
10
7E
C3
81
81
81
81
81
43
3C
ENDCHAR
STARTCHAR C0212
ENCODING 212
SWIDTH 750 0
DWIDTH 10 0
BBX 8 11 1 0
BITMAP
1C
20
7E
C3
81
81
81
81
81
43
3C
ENDCHAR
STARTCHAR C0213
ENCODING 213
SWIDTH 750 0
DWIDTH 10 0
BBX 8 11 1 0
BITMAP
3A
04
7E
C3
81
81
81
81
81
43
3C
ENDCHAR
STARTCHAR C0214
ENCODING 214
SWIDTH 750 0
DWIDTH 10 0
BBX 8 11 1 0
BITMAP
24
00
7E
C3
81
81
81
81
81
43
3C
ENDCHAR
STARTCHAR C0215
ENCODING 215
SWIDTH 600 0
DWIDTH 8 0
BBX 5 5 2 1
BITMAP
98
60
60
90
98
ENDCHAR
STARTCHAR C0216
ENCODING 216
SWIDTH 750 0
DWIDTH 10 0
BBX 9 9 1 0
BITMAP
3F80
4300
8500
8D00
9980
9100
A100
4300
BC00
ENDCHAR
STARTCHAR C0217
ENCODING 217
SWIDTH 675 0
DWIDTH 9 0
BBX 7 11 1 0
BITMAP
30
18
82
82
82
82
82
82
82
46
7C
ENDCHAR
STARTCHAR C0218
ENCODING 218
SWIDTH 675 0
DWIDTH 9 0
BBX 7 11 1 0
BITMAP
0C
10
82
82
82
82
82
82
82
46
7C
ENDCHAR
STARTCHAR C0219
ENCODING 219
SWIDTH 675 0
DWIDTH 9 0
BBX 7 11 1 0
BITMAP
38
40
82
82
82
82
82
82
82
46
7C
ENDCHAR
STARTCHAR C0220
ENCODING 220
SWIDTH 675 0
DWIDTH 9 0
BBX 7 11 1 0
BITMAP
24
00
82
82
82
82
82
82
82
46
7C
ENDCHAR
STARTCHAR C0221
ENCODING 221
SWIDTH 600 0
DWIDTH 8 0
BBX 8 11 0 0
BITMAP
0C
10
C3
42
24
3C
18
10
10
10
10
ENDCHAR
STARTCHAR C0222
ENCODING 222
SWIDTH 600 0
DWIDTH 8 0
BBX 6 9 1 0
BITMAP
80
F0
8C
84
84
84
F8
80
80
ENDCHAR
STARTCHAR C0223
ENCODING 223
SWIDTH 525 0
DWIDTH 7 0
BBX 6 9 1 0
BITMAP
78
88
88
88
B8
8C
84
8C
B8
ENDCHAR
STARTCHAR C0224
ENCODING 224
SWIDTH 525 0
DWIDTH 7 0
BBX 5 9 1 0
BITMAP
60
30
60
90
08
F8
88
88
F8
ENDCHAR
STARTCHAR C0225
ENCODING 225
SWIDTH 525 0
DWIDTH 7 0
BBX 5 9 1 0
BITMAP
30
40
60
90
08
F8
88
88
F8
ENDCHAR
STARTCHAR C0226
ENCODING 226
SWIDTH 525 0
DWIDTH 7 0
BBX 5 9 1 0
BITMAP
70
80
60
90
08
F8
88
88
F8
ENDCHAR
STARTCHAR C0227
ENCODING 227
SWIDTH 525 0
DWIDTH 7 0
BBX 5 9 1 0
BITMAP
E8
10
60
90
08
F8
88
88
F8
ENDCHAR
STARTCHAR C0228
ENCODING 228
SWIDTH 525 0
DWIDTH 7 0
BBX 5 9 1 0
BITMAP
90
00
60
90
08
F8
88
88
F8
ENDCHAR
STARTCHAR C0229
ENCODING 229
SWIDTH 525 0
DWIDTH 7 0
BBX 5 10 1 0
BITMAP
40
60
60
60
90
08
F8
88
88
F8
ENDCHAR
STARTCHAR C0230
ENCODING 230
SWIDTH 825 0
DWIDTH 11 0
BBX 10 7 1 0
BITMAP
6300
9480
0840
FFC0
8800
9840
F780
ENDCHAR
STARTCHAR C0231
ENCODING 231
SWIDTH 525 0
DWIDTH 7 0
BBX 6 10 1 -3
BITMAP
30
CC
80
80
80
8C
78
20
10
60
ENDCHAR
STARTCHAR C0232
ENCODING 232
SWIDTH 525 0
DWIDTH 7 0
BBX 6 9 1 0
BITMAP
30
18
30
C8
88
FC
80
8C
78
ENDCHAR
STARTCHAR C0233
ENCODING 233
SWIDTH 525 0
DWIDTH 7 0
BBX 6 9 1 0
BITMAP
18
20
30
C8
88
FC
80
8C
78
ENDCHAR
STARTCHAR C0234
ENCODING 234
SWIDTH 525 0
DWIDTH 7 0
BBX 6 9 1 0
BITMAP
70
80
30
C8
88
FC
80
8C
78
ENDCHAR
STARTCHAR C0235
ENCODING 235
SWIDTH 525 0
DWIDTH 7 0
BBX 6 9 1 0
BITMAP
48
00
30
C8
88
FC
80
8C
78
ENDCHAR
STARTCHAR C0236
ENCODING 236
SWIDTH 225 0
DWIDTH 3 0
BBX 3 9 0 0
BITMAP
C0
60
40
40
40
40
40
40
40
ENDCHAR
STARTCHAR C0237
ENCODING 237
SWIDTH 225 0
DWIDTH 3 0
BBX 3 9 1 0
BITMAP
60
80
80
80
80
80
80
80
80
ENDCHAR
STARTCHAR C0238
ENCODING 238
SWIDTH 225 0
DWIDTH 3 0
BBX 4 9 -1 0
BITMAP
70
80
20
20
20
20
20
20
20
ENDCHAR
STARTCHAR C0239
ENCODING 239
SWIDTH 225 0
DWIDTH 3 0
BBX 3 9 0 0
BITMAP
A0
00
40
40
40
40
40
40
40
ENDCHAR
STARTCHAR C0240
ENCODING 240
SWIDTH 600 0
DWIDTH 8 0
BBX 6 10 1 0
BITMAP
40
78
38
28
DC
84
84
84
8C
78
ENDCHAR
STARTCHAR C0241
ENCODING 241
SWIDTH 525 0
DWIDTH 7 0
BBX 6 9 1 0
BITMAP
E8
10
B0
C8
88
8C
8C
8C
8C
ENDCHAR
STARTCHAR C0242
ENCODING 242
SWIDTH 600 0
DWIDTH 8 0
BBX 6 9 1 0
BITMAP
30
18
30
C8
84
84
84
8C
78
ENDCHAR
STARTCHAR C0243
ENCODING 243
SWIDTH 600 0
DWIDTH 8 0
BBX 6 9 1 0
BITMAP
18
20
30
C8
84
84
84
8C
78
ENDCHAR
STARTCHAR C0244
ENCODING 244
SWIDTH 600 0
DWIDTH 8 0
BBX 6 9 1 0
BITMAP
38
40
30
C8
84
84
84
8C
78
ENDCHAR
STARTCHAR C0245
ENCODING 245
SWIDTH 600 0
DWIDTH 8 0
BBX 6 9 1 0
BITMAP
74
08
30
C8
84
84
84
8C
78
ENDCHAR
STARTCHAR C0246
ENCODING 246
SWIDTH 600 0
DWIDTH 8 0
BBX 6 9 1 0
BITMAP
48
00
30
C8
84
84
84
8C
78
ENDCHAR
STARTCHAR C0247
ENCODING 247
SWIDTH 600 0
DWIDTH 8 0
BBX 5 5 2 1
BITMAP
60
00
F8
00
60
ENDCHAR
STARTCHAR C0248
ENCODING 248
SWIDTH 600 0
DWIDTH 8 0
BBX 7 7 0 0
BITMAP
1A
64
4A
5A
52
66
FC
ENDCHAR
STARTCHAR C0249
ENCODING 249
SWIDTH 525 0
DWIDTH 7 0
BBX 5 9 1 0
BITMAP
60
30
88
88
88
88
88
88
F8
ENDCHAR
STARTCHAR C0250
ENCODING 250
SWIDTH 525 0
DWIDTH 7 0
BBX 5 9 1 0
BITMAP
18
20
88
88
88
88
88
88
F8
ENDCHAR
STARTCHAR C0251
ENCODING 251
SWIDTH 525 0
DWIDTH 7 0
BBX 5 9 1 0
BITMAP
70
80
88
88
88
88
88
88
F8
ENDCHAR
STARTCHAR C0252
ENCODING 252
SWIDTH 525 0
DWIDTH 7 0
BBX 5 9 1 0
BITMAP
48
00
88
88
88
88
88
88
F8
ENDCHAR
STARTCHAR C0253
ENCODING 253
SWIDTH 525 0
DWIDTH 7 0
BBX 7 12 0 -3
BITMAP
0C
10
82
44
44
48
28
28
10
10
20
E0
ENDCHAR
STARTCHAR C0254
ENCODING 254
SWIDTH 600 0
DWIDTH 8 0
BBX 6 12 1 -3
BITMAP
80
80
B0
C8
84
84
84
8C
F8
80
80
80
ENDCHAR
STARTCHAR C0255
ENCODING 255
SWIDTH 525 0
DWIDTH 7 0
BBX 7 12 0 -3
BITMAP
48
00
82
44
44
48
28
28
10
10
20
E0
ENDCHAR
ENDFONT

