STARTFONT 2.1
COMMENT 
COMMENT This file has been produced by ttf2bdf written by Subhabrata Biswas
COMMENT 
COMMENT For comments, questions, bug reports, send a mail to
COMMENT                                           subhabrata.biswas@usa.net
COMMENT 
FONT -*-Pixelify Sans Medium-Medium-R-Normal--16-120-96-96-c-9--fontspecific
SIZE 12 96 96
FONTBOUNDINGBOX 19 20 -1 -4
STARTPROPERTIES 15
FOUNDRY "Misc"
FAMILY_NAME "Pixelify Sans Medium"
WEIGHT_NAME "Medium"
SLANT "R"
SETWIDTH_NAME "Normal"
PIXEL_SIZE 11
POINT_SIZE 120
RESOLUTION_X 96
RESOLUTION_Y 96
SPACING "C"
CHARSET_ENCODING "fontspecific"
FONT_ASCENT 15
FONT_DESCENT 5
DEFAULT_CHAR 31
COPYRIGHT "You may wish to put your copyright here"
ENDPROPERTIES
CHARS 226
STARTCHAR C0030
ENCODING 30
SWIDTH 687 0
DWIDTH 11 0
BBX 8 13 2 -2
BITMAP
FF
FF
83
83
83
83
83
83
83
83
83
83
FF
ENDCHAR
STARTCHAR C0031
ENCODING 31
SWIDTH 687 0
DWIDTH 11 0
BBX 8 13 2 -2
BITMAP
FF
FF
83
83
83
83
83
83
83
83
83
83
FF
ENDCHAR
STARTCHAR C0032- 
ENCODING 32
SWIDTH 187 0
DWIDTH 3 0
BBX 1 1 0 -1
BITMAP
00
ENDCHAR
STARTCHAR C0033-!
ENCODING 33
SWIDTH 250 0
DWIDTH 4 0
BBX 2 10 1 0
BITMAP
C0
C0
C0
C0
C0
C0
C0
00
C0
C0
ENDCHAR
STARTCHAR C0034-"
ENCODING 34
SWIDTH 500 0
DWIDTH 8 0
BBX 6 3 1 7
BITMAP
D8
DC
48
ENDCHAR
STARTCHAR C0035-#
ENCODING 35
SWIDTH 687 0
DWIDTH 11 0
BBX 9 10 1 0
BITMAP
6300
6300
6300
FF80
FF80
6300
6300
FF80
FF80
6300
ENDCHAR
STARTCHAR C0036-$
ENCODING 36
SWIDTH 562 0
DWIDTH 9 0
BBX 8 14 1 -2
BITMAP
18
18
7C
FF
C3
C0
FC
7C
03
C3
FF
7C
18
18
ENDCHAR
STARTCHAR C0037-%
ENCODING 37
SWIDTH 875 0
DWIDTH 14 0
BBX 12 10 1 0
BITMAP
6060
F8E0
F8C0
6300
6700
0600
0860
31F0
71F0
6060
ENDCHAR
STARTCHAR C0038-&
ENCODING 38
SWIDTH 687 0
DWIDTH 11 0
BBX 9 10 1 0
BITMAP
7C00
FF00
C300
6C00
7C00
1800
6C00
C300
FF80
7D80
ENDCHAR
STARTCHAR C0039-'
ENCODING 39
SWIDTH 250 0
DWIDTH 4 0
BBX 2 3 1 7
BITMAP
C0
C0
40
ENDCHAR
STARTCHAR C0040-(
ENCODING 40
SWIDTH 375 0
DWIDTH 6 0
BBX 5 15 1 -3
BITMAP
18
18
18
60
60
60
C0
C0
E0
60
60
78
18
18
18
ENDCHAR
STARTCHAR C0041-)
ENCODING 41
SWIDTH 375 0
DWIDTH 6 0
BBX 5 15 0 -3
BITMAP
C0
C0
C0
30
30
30
18
18
38
30
30
F0
C0
C0
C0
ENDCHAR
STARTCHAR C0042-*
ENCODING 42
SWIDTH 250 0
DWIDTH 4 0
BBX 2 3 1 7
BITMAP
40
C0
C0
ENDCHAR
STARTCHAR C0043-+
ENCODING 43
SWIDTH 625 0
DWIDTH 10 0
BBX 8 8 1 1
BITMAP
18
18
18
FF
FF
18
18
18
ENDCHAR
STARTCHAR C0044-,
ENCODING 44
SWIDTH 250 0
DWIDTH 4 0
BBX 2 3 1 -1
BITMAP
C0
C0
40
ENDCHAR
STARTCHAR C0045--
ENCODING 45
SWIDTH 375 0
DWIDTH 6 0
BBX 5 2 0 3
BITMAP
F8
F8
ENDCHAR
STARTCHAR C0046-.
ENCODING 46
SWIDTH 250 0
DWIDTH 4 0
BBX 2 2 1 0
BITMAP
C0
C0
ENDCHAR
STARTCHAR C0047-/
ENCODING 47
SWIDTH 562 0
DWIDTH 9 0
BBX 7 10 1 0
BITMAP
06
0C
08
18
10
30
20
60
40
C0
ENDCHAR
STARTCHAR C0048-0
ENCODING 48
SWIDTH 562 0
DWIDTH 9 0
BBX 8 10 1 0
BITMAP
7C
FF
C3
C3
C3
C3
C3
C3
FF
7C
ENDCHAR
STARTCHAR C0049-1
ENCODING 49
SWIDTH 437 0
DWIDTH 7 0
BBX 5 10 1 0
BITMAP
60
F8
D8
18
18
18
18
18
18
18
ENDCHAR
STARTCHAR C0050-2
ENCODING 50
SWIDTH 562 0
DWIDTH 9 0
BBX 8 10 1 0
BITMAP
7C
FF
C3
03
7F
7C
C0
C3
FF
7C
ENDCHAR
STARTCHAR C0051-3
ENCODING 51
SWIDTH 562 0
DWIDTH 9 0
BBX 8 10 1 0
BITMAP
7C
FF
C3
03
7F
7C
03
C3
FF
7C
ENDCHAR
STARTCHAR C0052-4
ENCODING 52
SWIDTH 562 0
DWIDTH 9 0
BBX 8 10 1 0
BITMAP
0F
1F
1B
63
E3
C3
FF
03
03
03
ENDCHAR
STARTCHAR C0053-5
ENCODING 53
SWIDTH 562 0
DWIDTH 9 0
BBX 8 10 1 0
BITMAP
7C
FF
C3
C3
E3
60
1C
C3
FF
7C
ENDCHAR
STARTCHAR C0054-6
ENCODING 54
SWIDTH 562 0
DWIDTH 9 0
BBX 8 10 1 0
BITMAP
7C
FF
C3
C0
FC
FC
C3
C3
FF
7C
ENDCHAR
STARTCHAR C0055-7
ENCODING 55
SWIDTH 562 0
DWIDTH 9 0
BBX 8 10 1 0
BITMAP
7C
FF
C3
03
03
03
03
03
03
03
ENDCHAR
STARTCHAR C0056-8
ENCODING 56
SWIDTH 562 0
DWIDTH 9 0
BBX 8 10 1 0
BITMAP
7C
FF
C3
C3
FF
7C
C3
C3
FF
7C
ENDCHAR
STARTCHAR C0057-9
ENCODING 57
SWIDTH 562 0
DWIDTH 9 0
BBX 8 10 1 0
BITMAP
7C
FF
C3
C3
FF
7F
03
C3
FF
7C
ENDCHAR
STARTCHAR C0058-:
ENCODING 58
SWIDTH 250 0
DWIDTH 4 0
BBX 2 5 1 1
BITMAP
C0
C0
00
C0
C0
ENDCHAR
STARTCHAR C0059-;
ENCODING 59
SWIDTH 250 0
DWIDTH 4 0
BBX 2 6 1 0
BITMAP
C0
C0
00
C0
C0
40
ENDCHAR
STARTCHAR C0060-<
ENCODING 60
SWIDTH 625 0
DWIDTH 10 0
BBX 8 14 1 -2
BITMAP
03
03
0C
1C
18
60
E0
C0
60
18
1C
0C
03
03
ENDCHAR
STARTCHAR C0061-=
ENCODING 61
SWIDTH 625 0
DWIDTH 10 0
BBX 6 4 2 2
BITMAP
FC
00
FC
FC
ENDCHAR
STARTCHAR C0062->
ENCODING 62
SWIDTH 625 0
DWIDTH 10 0
BBX 8 14 1 -2
BITMAP
C0
C0
60
78
18
0C
0F
03
0C
18
78
60
C0
C0
ENDCHAR
STARTCHAR C0063-?
ENCODING 63
SWIDTH 562 0
DWIDTH 9 0
BBX 8 10 1 0
BITMAP
7C
FF
C3
C3
DF
1C
18
00
18
18
ENDCHAR
STARTCHAR C0064-@
ENCODING 64
SWIDTH 625 0
DWIDTH 10 0
BBX 7 7 1 1
BITMAP
78
44
BA
AA
AA
D4
78
ENDCHAR
STARTCHAR C0065-A
ENCODING 65
SWIDTH 562 0
DWIDTH 9 0
BBX 8 10 1 0
BITMAP
18
7C
6C
C3
C3
C3
FF
C3
C3
C3
ENDCHAR
STARTCHAR C0066-B
ENCODING 66
SWIDTH 562 0
DWIDTH 9 0
BBX 8 10 1 0
BITMAP
7C
FF
C3
C3
DF
DC
C3
C3
FF
7C
ENDCHAR
STARTCHAR C0067-C
ENCODING 67
SWIDTH 562 0
DWIDTH 9 0
BBX 8 10 1 0
BITMAP
7C
FF
C3
C3
C3
C0
C3
C3
FF
7C
ENDCHAR
STARTCHAR C0068-D
ENCODING 68
SWIDTH 562 0
DWIDTH 9 0
BBX 8 10 1 0
BITMAP
F8
FC
CC
C3
C3
C3
C3
CC
FC
F8
ENDCHAR
STARTCHAR C0069-E
ENCODING 69
SWIDTH 562 0
DWIDTH 9 0
BBX 8 10 1 0
BITMAP
7C
FF
C3
C0
F8
F8
C0
C3
FF
7C
ENDCHAR
STARTCHAR C0070-F
ENCODING 70
SWIDTH 562 0
DWIDTH 9 0
BBX 8 10 1 0
BITMAP
FC
FF
C3
C0
F8
F8
C0
C0
C0
C0
ENDCHAR
STARTCHAR C0071-G
ENCODING 71
SWIDTH 562 0
DWIDTH 9 0
BBX 8 10 1 0
BITMAP
7C
FF
C3
C3
DB
D8
CF
C3
FF
7C
ENDCHAR
STARTCHAR C0072-H
ENCODING 72
SWIDTH 562 0
DWIDTH 9 0
BBX 8 10 1 0
BITMAP
C3
C3
C3
DB
FF
FF
C3
C3
C3
C3
ENDCHAR
STARTCHAR C0073-I
ENCODING 73
SWIDTH 437 0
DWIDTH 7 0
BBX 5 10 1 0
BITMAP
F8
F8
60
60
60
60
60
60
F8
F8
ENDCHAR
STARTCHAR C0074-J
ENCODING 74
SWIDTH 562 0
DWIDTH 9 0
BBX 8 10 1 0
BITMAP
7C
7F
03
03
03
03
C3
C3
FF
7C
ENDCHAR
STARTCHAR C0075-K
ENCODING 75
SWIDTH 562 0
DWIDTH 9 0
BBX 8 10 1 0
BITMAP
63
EF
CC
D8
F8
E0
D8
CC
CF
C3
ENDCHAR
STARTCHAR C0076-L
ENCODING 76
SWIDTH 562 0
DWIDTH 9 0
BBX 8 10 1 0
BITMAP
C0
C0
C0
C0
C0
C0
C0
C3
FF
7C
ENDCHAR
STARTCHAR C0077-M
ENCODING 77
SWIDTH 750 0
DWIDTH 12 0
BBX 10 10 1 0
BITMAP
6180
FBC0
DB40
DB40
DF40
CC40
CC40
CC40
CC40
C040
ENDCHAR
STARTCHAR C0078-N
ENCODING 78
SWIDTH 562 0
DWIDTH 9 0
BBX 8 10 1 0
BITMAP
C3
E3
E3
DB
DB
DB
DB
CF
CF
C3
ENDCHAR
STARTCHAR C0079-O
ENCODING 79
SWIDTH 562 0
DWIDTH 9 0
BBX 8 10 1 0
BITMAP
7C
FF
C3
C3
C3
C3
C3
C3
FF
7C
ENDCHAR
STARTCHAR C0080-P
ENCODING 80
SWIDTH 562 0
DWIDTH 9 0
BBX 8 10 1 0
BITMAP
7C
FF
C3
C3
C3
C3
FC
C0
C0
C0
ENDCHAR
STARTCHAR C0081-Q
ENCODING 81
SWIDTH 562 0
DWIDTH 9 0
BBX 8 13 1 -3
BITMAP
7C
FF
C3
C3
C3
C3
C3
C3
FF
7C
18
1C
0C
ENDCHAR
STARTCHAR C0082-R
ENCODING 82
SWIDTH 562 0
DWIDTH 9 0
BBX 8 10 1 0
BITMAP
7C
FF
C3
C3
C3
C3
FC
C8
CE
C6
ENDCHAR
STARTCHAR C0083-S
ENCODING 83
SWIDTH 562 0
DWIDTH 9 0
BBX 8 10 1 0
BITMAP
7C
FF
C3
C0
FC
7C
03
C3
FF
7C
ENDCHAR
STARTCHAR C0084-T
ENCODING 84
SWIDTH 562 0
DWIDTH 9 0
BBX 8 10 1 0
BITMAP
7C
FF
DB
18
18
18
18
18
18
18
ENDCHAR
STARTCHAR C0085-U
ENCODING 85
SWIDTH 562 0
DWIDTH 9 0
BBX 8 10 1 0
BITMAP
C3
C3
C3
C3
C3
C3
C3
C3
FF
7C
ENDCHAR
STARTCHAR C0086-V
ENCODING 86
SWIDTH 562 0
DWIDTH 9 0
BBX 8 10 1 0
BITMAP
C3
C3
C3
C3
C3
C3
6C
6C
7C
18
ENDCHAR
STARTCHAR C0087-W
ENCODING 87
SWIDTH 750 0
DWIDTH 12 0
BBX 10 10 1 0
BITMAP
C040
CC40
CC40
CC40
CC40
CC40
DB40
DB40
FBC0
6180
ENDCHAR
STARTCHAR C0088-X
ENCODING 88
SWIDTH 562 0
DWIDTH 9 0
BBX 8 10 1 0
BITMAP
C3
EF
6C
6C
7C
18
6C
6C
EF
C3
ENDCHAR
STARTCHAR C0089-Y
ENCODING 89
SWIDTH 562 0
DWIDTH 9 0
BBX 8 10 1 0
BITMAP
C3
C3
C3
6C
7C
18
18
18
18
18
ENDCHAR
STARTCHAR C0090-Z
ENCODING 90
SWIDTH 562 0
DWIDTH 9 0
BBX 8 10 1 0
BITMAP
FC
FF
C3
03
7F
7C
C0
C3
FF
7F
ENDCHAR
STARTCHAR C0091-[
ENCODING 91
SWIDTH 375 0
DWIDTH 6 0
BBX 5 12 1 -1
BITMAP
78
78
C0
C0
C0
C0
C0
C0
C0
C0
F8
78
ENDCHAR
STARTCHAR C0092-\
ENCODING 92
SWIDTH 562 0
DWIDTH 9 0
BBX 7 10 1 0
BITMAP
C0
40
60
20
30
10
18
08
0C
06
ENDCHAR
STARTCHAR C0093-]
ENCODING 93
SWIDTH 375 0
DWIDTH 6 0
BBX 5 12 0 -1
BITMAP
F0
F0
18
18
18
18
18
18
18
18
F8
F0
ENDCHAR
STARTCHAR C0094-^
ENCODING 94
SWIDTH 250 0
DWIDTH 4 0
BBX 2 2 1 8
BITMAP
40
C0
ENDCHAR
STARTCHAR C0095-_
ENCODING 95
SWIDTH 437 0
DWIDTH 7 0
BBX 5 2 1 0
BITMAP
F8
F8
ENDCHAR
STARTCHAR C0096-`
ENCODING 96
SWIDTH 250 0
DWIDTH 4 0
BBX 2 3 1 8
BITMAP
80
40
40
ENDCHAR
STARTCHAR C0097-a
ENCODING 97
SWIDTH 687 0
DWIDTH 11 0
BBX 9 7 1 0
BITMAP
7C00
FF00
C300
C300
C300
FF80
7D80
ENDCHAR
STARTCHAR C0098-b
ENCODING 98
SWIDTH 562 0
DWIDTH 9 0
BBX 8 10 1 0
BITMAP
C0
C0
C0
FC
FF
C3
C3
C3
FF
7C
ENDCHAR
STARTCHAR C0099-c
ENCODING 99
SWIDTH 562 0
DWIDTH 9 0
BBX 8 7 1 0
BITMAP
7C
FF
C3
C0
C3
FF
7C
ENDCHAR
STARTCHAR C0100-d
ENCODING 100
SWIDTH 562 0
DWIDTH 9 0
BBX 8 10 1 0
BITMAP
03
03
03
7F
FF
C3
C3
C3
FF
7C
ENDCHAR
STARTCHAR C0101-e
ENCODING 101
SWIDTH 562 0
DWIDTH 9 0
BBX 8 7 1 0
BITMAP
7C
FF
C3
F8
C3
FF
7C
ENDCHAR
STARTCHAR C0102-f
ENCODING 102
SWIDTH 562 0
DWIDTH 9 0
BBX 8 10 1 0
BITMAP
7C
FF
C3
C0
F8
F8
C0
C0
C0
C0
ENDCHAR
STARTCHAR C0103-g
ENCODING 103
SWIDTH 562 0
DWIDTH 9 0
BBX 8 10 1 -3
BITMAP
7C
FF
C3
C3
7F
7F
03
C3
FF
7C
ENDCHAR
STARTCHAR C0104-h
ENCODING 104
SWIDTH 562 0
DWIDTH 9 0
BBX 8 10 1 0
BITMAP
C0
C0
C0
DC
FF
E3
C3
C3
C3
C3
ENDCHAR
STARTCHAR C0105-i
ENCODING 105
SWIDTH 250 0
DWIDTH 4 0
BBX 2 10 1 0
BITMAP
C0
C0
00
C0
C0
C0
C0
C0
C0
C0
ENDCHAR
STARTCHAR C0106-j
ENCODING 106
SWIDTH 500 0
DWIDTH 8 0
BBX 6 7 1 0
BITMAP
0C
0C
0C
0C
CC
FC
78
ENDCHAR
STARTCHAR C0107-k
ENCODING 107
SWIDTH 562 0
DWIDTH 9 0
BBX 8 10 1 0
BITMAP
C0
C0
C0
C3
DF
DC
E0
DC
DF
C3
ENDCHAR
STARTCHAR C0108-l
ENCODING 108
SWIDTH 250 0
DWIDTH 4 0
BBX 2 10 1 0
BITMAP
C0
C0
C0
C0
C0
C0
C0
C0
C0
C0
ENDCHAR
STARTCHAR C0109-m
ENCODING 109
SWIDTH 750 0
DWIDTH 12 0
BBX 10 7 1 0
BITMAP
FB80
FFC0
CC40
CC40
CC40
CC40
CC40
ENDCHAR
STARTCHAR C0110-n
ENCODING 110
SWIDTH 562 0
DWIDTH 9 0
BBX 8 7 1 0
BITMAP
FC
FF
C3
C3
C3
C3
C3
ENDCHAR
STARTCHAR C0111-o
ENCODING 111
SWIDTH 562 0
DWIDTH 9 0
BBX 8 7 1 0
BITMAP
7C
FF
C3
C3
C3
FF
7C
ENDCHAR
STARTCHAR C0112-p
ENCODING 112
SWIDTH 562 0
DWIDTH 9 0
BBX 8 10 1 -3
BITMAP
7C
FF
C3
C3
C3
FF
FC
C0
C0
C0
ENDCHAR
STARTCHAR C0113-q
ENCODING 113
SWIDTH 562 0
DWIDTH 9 0
BBX 8 10 1 -3
BITMAP
7C
FF
C3
C3
C3
FF
7F
03
03
03
ENDCHAR
STARTCHAR C0114-r
ENCODING 114
SWIDTH 562 0
DWIDTH 9 0
BBX 8 7 1 0
BITMAP
7C
FF
C3
C0
C0
C0
C0
ENDCHAR
STARTCHAR C0115-s
ENCODING 115
SWIDTH 562 0
DWIDTH 9 0
BBX 8 7 1 0
BITMAP
7F
FF
C0
7C
03
FF
FC
ENDCHAR
STARTCHAR C0116-t
ENCODING 116
SWIDTH 687 0
DWIDTH 11 0
BBX 9 10 1 0
BITMAP
6000
6000
6000
FF00
FF00
6000
6000
6180
7F80
1F00
ENDCHAR
STARTCHAR C0117-u
ENCODING 117
SWIDTH 562 0
DWIDTH 9 0
BBX 8 7 1 0
BITMAP
C3
C3
C3
C3
C3
FF
7C
ENDCHAR
STARTCHAR C0118-v
ENCODING 118
SWIDTH 562 0
DWIDTH 9 0
BBX 7 7 1 0
BITMAP
C2
C2
C2
6C
6C
7C
10
ENDCHAR
STARTCHAR C0119-w
ENCODING 119
SWIDTH 750 0
DWIDTH 12 0
BBX 10 7 1 0
BITMAP
CC40
CC40
CC40
CC40
CC40
FFC0
FB80
ENDCHAR
STARTCHAR C0120-x
ENCODING 120
SWIDTH 562 0
DWIDTH 9 0
BBX 8 7 1 0
BITMAP
C3
EF
6C
18
6C
EF
C3
ENDCHAR
STARTCHAR C0121-y
ENCODING 121
SWIDTH 562 0
DWIDTH 9 0
BBX 8 10 1 -3
BITMAP
C3
C3
C3
C3
7F
7F
03
C3
FF
7C
ENDCHAR
STARTCHAR C0122-z
ENCODING 122
SWIDTH 562 0
DWIDTH 9 0
BBX 8 7 1 0
BITMAP
FF
FF
0C
18
60
FF
FF
ENDCHAR
STARTCHAR C0123-{
ENCODING 123
SWIDTH 500 0
DWIDTH 8 0
BBX 7 14 0 -2
BITMAP
18
18
36
36
30
30
F0
C0
30
30
36
36
18
18
ENDCHAR
STARTCHAR C0124-|
ENCODING 124
SWIDTH 250 0
DWIDTH 4 0
BBX 2 10 1 0
BITMAP
C0
C0
C0
C0
C0
C0
C0
C0
C0
C0
ENDCHAR
STARTCHAR C0125-}
ENCODING 125
SWIDTH 500 0
DWIDTH 8 0
BBX 7 14 0 -2
BITMAP
30
30
D8
D8
18
18
1E
06
18
18
D8
D8
30
30
ENDCHAR
STARTCHAR C0126-~
ENCODING 126
SWIDTH 625 0
DWIDTH 10 0
BBX 4 2 3 3
BITMAP
D0
F0
ENDCHAR
STARTCHAR C0127
ENCODING 127
SWIDTH 687 0
DWIDTH 11 0
BBX 8 13 2 -2
BITMAP
FF
FF
83
83
83
83
83
83
83
83
83
83
FF
ENDCHAR
STARTCHAR C0128
ENCODING 128
SWIDTH 562 0
DWIDTH 9 0
BBX 8 10 1 0
BITMAP
7C
FF
C3
FB
FB
F8
FB
C3
FF
7C
ENDCHAR
STARTCHAR C0129
ENCODING 129
SWIDTH 687 0
DWIDTH 11 0
BBX 8 13 2 -2
BITMAP
FF
FF
83
83
83
83
83
83
83
83
83
83
FF
ENDCHAR
STARTCHAR C0130
ENCODING 130
SWIDTH 250 0
DWIDTH 4 0
BBX 2 3 1 -1
BITMAP
C0
C0
40
ENDCHAR
STARTCHAR C0131
ENCODING 131
SWIDTH 562 0
DWIDTH 9 0
BBX 9 12 -1 -2
BITMAP
1F00
3F80
3080
3000
3E00
3E00
3000
3000
3000
3000
F000
F000
ENDCHAR
STARTCHAR C0132
ENCODING 132
SWIDTH 500 0
DWIDTH 8 0
BBX 6 3 1 -1
BITMAP
D8
D8
4C
ENDCHAR
STARTCHAR C0133
ENCODING 133
SWIDTH 625 0
DWIDTH 10 0
BBX 8 2 1 0
BITMAP
D9
D9
ENDCHAR
STARTCHAR C0134
ENCODING 134
SWIDTH 437 0
DWIDTH 7 0
BBX 5 10 1 0
BITMAP
60
60
F8
F8
60
60
60
60
60
60
ENDCHAR
STARTCHAR C0135
ENCODING 135
SWIDTH 687 0
DWIDTH 11 0
BBX 8 13 2 -2
BITMAP
FF
FF
83
83
83
83
83
83
83
83
83
83
FF
ENDCHAR
STARTCHAR C0136
ENCODING 136
SWIDTH 312 0
DWIDTH 5 0
BBX 3 2 1 8
BITMAP
40
A0
ENDCHAR
STARTCHAR C0137
ENCODING 137
SWIDTH 625 0
DWIDTH 10 0
BBX 9 12 0 -1
BITMAP
3000
4800
4800
4800
7800
3000
FF80
0000
3380
4C80
4C80
3380
ENDCHAR
STARTCHAR C0138
ENCODING 138
SWIDTH 562 0
DWIDTH 9 0
BBX 8 13 1 0
BITMAP
28
10
00
7C
FF
C3
C0
FC
7C
03
C3
FF
7C
ENDCHAR
STARTCHAR C0139
ENCODING 139
SWIDTH 562 0
DWIDTH 9 0
BBX 8 14 1 -2
BITMAP
03
03
0C
1C
18
60
E0
C0
60
18
1C
0C
03
03
ENDCHAR
STARTCHAR C0140
ENCODING 140
SWIDTH 937 0
DWIDTH 15 0
BBX 13 10 1 0
BITMAP
7DF0
FFF8
C318
C300
C3C0
C3C0
C300
C318
FFF8
7DF0
ENDCHAR
STARTCHAR C0141
ENCODING 141
SWIDTH 687 0
DWIDTH 11 0
BBX 8 13 2 -2
BITMAP
FF
FF
83
83
83
83
83
83
83
83
83
83
FF
ENDCHAR
STARTCHAR C0142
ENCODING 142
SWIDTH 562 0
DWIDTH 9 0
BBX 8 13 1 0
BITMAP
28
10
00
FC
FF
C3
03
7F
7C
C0
C3
FF
7F
ENDCHAR
STARTCHAR C0143
ENCODING 143
SWIDTH 687 0
DWIDTH 11 0
BBX 8 13 2 -2
BITMAP
FF
FF
83
83
83
83
83
83
83
83
83
83
FF
ENDCHAR
STARTCHAR C0144
ENCODING 144
SWIDTH 687 0
DWIDTH 11 0
BBX 8 13 2 -2
BITMAP
FF
FF
83
83
83
83
83
83
83
83
83
83
FF
ENDCHAR
STARTCHAR C0145
ENCODING 145
SWIDTH 250 0
DWIDTH 4 0
BBX 2 3 1 7
BITMAP
40
C0
40
ENDCHAR
STARTCHAR C0146
ENCODING 146
SWIDTH 250 0
DWIDTH 4 0
BBX 2 3 1 7
BITMAP
C0
C0
40
ENDCHAR
STARTCHAR C0147
ENCODING 147
SWIDTH 500 0
DWIDTH 8 0
BBX 6 3 1 7
BITMAP
48
DC
4C
ENDCHAR
STARTCHAR C0148
ENCODING 148
SWIDTH 500 0
DWIDTH 8 0
BBX 6 3 1 7
BITMAP
D8
DC
48
ENDCHAR
STARTCHAR C0149
ENCODING 149
SWIDTH 250 0
DWIDTH 4 0
BBX 2 2 1 4
BITMAP
C0
C0
ENDCHAR
STARTCHAR C0150
ENCODING 150
SWIDTH 437 0
DWIDTH 7 0
BBX 5 2 1 4
BITMAP
F8
F8
ENDCHAR
STARTCHAR C0151
ENCODING 151
SWIDTH 500 0
DWIDTH 8 0
BBX 6 2 1 4
BITMAP
FC
FC
ENDCHAR
STARTCHAR C0152
ENCODING 152
SWIDTH 312 0
DWIDTH 5 0
BBX 4 2 0 8
BITMAP
F0
B0
ENDCHAR
STARTCHAR C0153
ENCODING 153
SWIDTH 812 0
DWIDTH 13 0
BBX 11 5 1 5
BITMAP
6240
D5A0
45A0
45A0
45A0
ENDCHAR
STARTCHAR C0154
ENCODING 154
SWIDTH 562 0
DWIDTH 9 0
BBX 8 10 1 0
BITMAP
14
08
00
7F
FF
C0
7C
03
FF
FC
ENDCHAR
STARTCHAR C0155
ENCODING 155
SWIDTH 562 0
DWIDTH 9 0
BBX 8 14 0 -2
BITMAP
C0
C0
30
38
18
06
07
03
06
18
38
30
C0
C0
ENDCHAR
STARTCHAR C0156
ENCODING 156
SWIDTH 937 0
DWIDTH 15 0
BBX 13 7 1 0
BITMAP
7DF0
FFF8
C318
C3C0
C318
FFF8
7DF0
ENDCHAR
STARTCHAR C0157
ENCODING 157
SWIDTH 687 0
DWIDTH 11 0
BBX 8 13 2 -2
BITMAP
FF
FF
83
83
83
83
83
83
83
83
83
83
FF
ENDCHAR
STARTCHAR C0158
ENCODING 158
SWIDTH 562 0
DWIDTH 9 0
BBX 8 10 1 0
BITMAP
28
10
00
FF
FF
0C
18
60
FF
FF
ENDCHAR
STARTCHAR C0159
ENCODING 159
SWIDTH 562 0
DWIDTH 9 0
BBX 8 13 1 0
BITMAP
6C
6C
00
C3
C3
C3
6C
7C
18
18
18
18
18
ENDCHAR
STARTCHAR C0160
ENCODING 160
SWIDTH 187 0
DWIDTH 3 0
BBX 1 1 0 -1
BITMAP
00
ENDCHAR
STARTCHAR C0161
ENCODING 161
SWIDTH 250 0
DWIDTH 4 0
BBX 2 10 1 0
BITMAP
C0
C0
00
C0
C0
C0
C0
C0
C0
C0
ENDCHAR
STARTCHAR C0162
ENCODING 162
SWIDTH 562 0
DWIDTH 9 0
BBX 8 11 1 0
BITMAP
18
18
7C
FF
C3
C0
C3
C3
7C
18
18
ENDCHAR
STARTCHAR C0163
ENCODING 163
SWIDTH 687 0
DWIDTH 11 0
BBX 9 10 1 0
BITMAP
1F00
7F80
6180
6000
7C00
7C00
6000
6180
FF80
FF00
ENDCHAR
STARTCHAR C0164
ENCODING 164
SWIDTH 500 0
DWIDTH 8 0
BBX 6 6 1 2
BITMAP
84
30
48
48
30
84
ENDCHAR
STARTCHAR C0165
ENCODING 165
SWIDTH 625 0
DWIDTH 10 0
BBX 8 10 1 0
BITMAP
C3
C3
C3
6C
18
7C
7C
7C
7C
18
ENDCHAR
STARTCHAR C0166
ENCODING 166
SWIDTH 687 0
DWIDTH 11 0
BBX 8 13 2 -2
BITMAP
FF
FF
83
83
83
83
83
83
83
83
83
83
FF
ENDCHAR
STARTCHAR C0167
ENCODING 167
SWIDTH 562 0
DWIDTH 9 0
BBX 8 10 1 0
BITMAP
7C
FF
C3
C0
FC
7C
FF
C0
FF
7F
ENDCHAR
STARTCHAR C0168
ENCODING 168
SWIDTH 312 0
DWIDTH 5 0
BBX 5 2 0 8
BITMAP
D8
D8
ENDCHAR
STARTCHAR C0169
ENCODING 169
SWIDTH 437 0
DWIDTH 7 0
BBX 5 4 1 6
BITMAP
70
A8
E8
F8
ENDCHAR
STARTCHAR C0170
ENCODING 170
SWIDTH 375 0
DWIDTH 6 0
BBX 4 5 1 5
BITMAP
60
90
90
70
60
ENDCHAR
STARTCHAR C0171
ENCODING 171
SWIDTH 875 0
DWIDTH 14 0
BBX 13 14 0 -2
BITMAP
0318
0318
0630
1EF0
18C0
3180
F380
C200
3180
18C0
1EF0
0630
0318
0318
ENDCHAR
STARTCHAR C0172
ENCODING 172
SWIDTH 625 0
DWIDTH 10 0
BBX 6 3 2 3
BITMAP
FC
0C
0C
ENDCHAR
STARTCHAR C0173
ENCODING 173
SWIDTH 687 0
DWIDTH 11 0
BBX 8 13 2 -2
BITMAP
FF
FF
83
83
83
83
83
83
83
83
83
83
FF
ENDCHAR
STARTCHAR C0174
ENCODING 174
SWIDTH 437 0
DWIDTH 7 0
BBX 5 4 1 6
BITMAP
70
88
A8
F8
ENDCHAR
STARTCHAR C0175
ENCODING 175
SWIDTH 312 0
DWIDTH 5 0
BBX 5 2 0 9
BITMAP
F8
F8
ENDCHAR
STARTCHAR C0176
ENCODING 176
SWIDTH 312 0
DWIDTH 5 0
BBX 3 3 1 6
BITMAP
E0
A0
60
ENDCHAR
STARTCHAR C0177
ENCODING 177
SWIDTH 625 0
DWIDTH 10 0
BBX 6 8 2 0
BITMAP
30
30
FC
FC
30
30
FC
FC
ENDCHAR
STARTCHAR C0178
ENCODING 178
SWIDTH 375 0
DWIDTH 6 0
BBX 4 6 1 4
BITMAP
60
90
70
80
90
60
ENDCHAR
STARTCHAR C0179
ENCODING 179
SWIDTH 375 0
DWIDTH 6 0
BBX 4 6 1 4
BITMAP
60
90
70
10
90
60
ENDCHAR
STARTCHAR C0180
ENCODING 180
SWIDTH 312 0
DWIDTH 5 0
BBX 2 3 1 8
BITMAP
40
C0
80
ENDCHAR
STARTCHAR C0181
ENCODING 181
SWIDTH 562 0
DWIDTH 9 0
BBX 8 10 1 -3
BITMAP
C3
C3
C3
C3
C3
FF
FC
C0
C0
C0
ENDCHAR
STARTCHAR C0182
ENCODING 182
SWIDTH 750 0
DWIDTH 12 0
BBX 10 13 1 -3
BITMAP
7FC0
FFC0
FE40
FE40
FE40
FE40
7E40
0240
0240
0240
0240
0240
0240
ENDCHAR
STARTCHAR C0183
ENCODING 183
SWIDTH 250 0
DWIDTH 4 0
BBX 2 2 1 4
BITMAP
C0
C0
ENDCHAR
STARTCHAR C0184
ENCODING 184
SWIDTH 312 0
DWIDTH 5 0
BBX 4 4 1 -3
BITMAP
40
40
A0
F0
ENDCHAR
STARTCHAR C0185
ENCODING 185
SWIDTH 250 0
DWIDTH 4 0
BBX 3 5 1 5
BITMAP
40
E0
60
60
60
ENDCHAR
STARTCHAR C0186
ENCODING 186
SWIDTH 375 0
DWIDTH 6 0
BBX 4 5 1 5
BITMAP
60
90
90
60
60
ENDCHAR
STARTCHAR C0187
ENCODING 187
SWIDTH 875 0
DWIDTH 14 0
BBX 13 14 0 -2
BITMAP
C600
C600
2100
39C0
18C0
0C20
0F38
0318
0C20
18C0
39C0
2100
C600
C600
ENDCHAR
STARTCHAR C0188
ENCODING 188
SWIDTH 875 0
DWIDTH 14 0
BBX 12 10 1 0
BITMAP
4080
E380
6380
6300
6600
0E30
0870
3890
30F0
3010
ENDCHAR
STARTCHAR C0189
ENCODING 189
SWIDTH 812 0
DWIDTH 13 0
BBX 11 10 1 0
BITMAP
4100
E700
6700
6600
6CC0
1D20
18C0
3900
2120
20C0
ENDCHAR
STARTCHAR C0190
ENCODING 190
SWIDTH 937 0
DWIDTH 15 0
BBX 13 10 1 0
BITMAP
6040
90C0
70C0
1080
9300
6708
0638
0E48
0878
0808
ENDCHAR
STARTCHAR C0191
ENCODING 191
SWIDTH 562 0
DWIDTH 9 0
BBX 8 10 1 0
BITMAP
18
18
00
18
78
78
C3
C3
FF
7C
ENDCHAR
STARTCHAR C0192
ENCODING 192
SWIDTH 562 0
DWIDTH 9 0
BBX 8 14 1 0
BITMAP
20
10
10
00
18
7C
6C
C3
C3
C3
FF
C3
C3
C3
ENDCHAR
STARTCHAR C0193
ENCODING 193
SWIDTH 562 0
DWIDTH 9 0
BBX 8 14 1 0
BITMAP
08
10
20
00
18
7C
6C
C3
C3
C3
FF
C3
C3
C3
ENDCHAR
STARTCHAR C0194
ENCODING 194
SWIDTH 562 0
DWIDTH 9 0
BBX 8 13 1 0
BITMAP
10
28
00
18
7C
6C
C3
C3
C3
FF
C3
C3
C3
ENDCHAR
STARTCHAR C0195
ENCODING 195
SWIDTH 562 0
DWIDTH 9 0
BBX 8 13 1 0
BITMAP
78
58
00
18
7C
6C
C3
C3
C3
FF
C3
C3
C3
ENDCHAR
STARTCHAR C0196
ENCODING 196
SWIDTH 562 0
DWIDTH 9 0
BBX 8 13 1 0
BITMAP
6C
6C
00
18
7C
6C
C3
C3
C3
FF
C3
C3
C3
ENDCHAR
STARTCHAR C0197
ENCODING 197
SWIDTH 562 0
DWIDTH 9 0
BBX 8 13 1 0
BITMAP
38
10
00
18
7C
6C
C3
C3
C3
FF
C3
C3
C3
ENDCHAR
STARTCHAR C0198
ENCODING 198
SWIDTH 937 0
DWIDTH 15 0
BBX 13 10 1 0
BITMAP
19F0
7FF8
6F18
C300
C3C0
C3C0
FF00
C318
C3F8
C3F0
ENDCHAR
STARTCHAR C0199
ENCODING 199
SWIDTH 562 0
DWIDTH 9 0
BBX 8 13 1 -3
BITMAP
7C
FF
C3
C3
C3
C0
C3
C3
FF
7C
10
48
38
ENDCHAR
STARTCHAR C0200
ENCODING 200
SWIDTH 562 0
DWIDTH 9 0
BBX 8 14 1 0
BITMAP
20
10
10
00
7C
FF
C3
C0
F8
F8
C0
C3
FF
7C
ENDCHAR
STARTCHAR C0201
ENCODING 201
SWIDTH 562 0
DWIDTH 9 0
BBX 8 14 1 0
BITMAP
08
10
20
00
7C
FF
C3
C0
F8
F8
C0
C3
FF
7C
ENDCHAR
STARTCHAR C0202
ENCODING 202
SWIDTH 562 0
DWIDTH 9 0
BBX 8 13 1 0
BITMAP
10
28
00
7C
FF
C3
C0
F8
F8
C0
C3
FF
7C
ENDCHAR
STARTCHAR C0203
ENCODING 203
SWIDTH 562 0
DWIDTH 9 0
BBX 8 13 1 0
BITMAP
6C
6C
00
7C
FF
C3
C0
F8
F8
C0
C3
FF
7C
ENDCHAR
STARTCHAR C0204
ENCODING 204
SWIDTH 437 0
DWIDTH 7 0
BBX 5 14 1 0
BITMAP
80
40
40
00
F8
F8
60
60
60
60
60
60
F8
F8
ENDCHAR
STARTCHAR C0205
ENCODING 205
SWIDTH 437 0
DWIDTH 7 0
BBX 5 14 1 0
BITMAP
10
20
40
00
F8
F8
60
60
60
60
60
60
F8
F8
ENDCHAR
STARTCHAR C0206
ENCODING 206
SWIDTH 437 0
DWIDTH 7 0
BBX 5 13 1 0
BITMAP
20
50
00
F8
F8
60
60
60
60
60
60
F8
F8
ENDCHAR
STARTCHAR C0207
ENCODING 207
SWIDTH 437 0
DWIDTH 7 0
BBX 5 13 1 0
BITMAP
D8
D8
00
F8
F8
60
60
60
60
60
60
F8
F8
ENDCHAR
STARTCHAR C0208
ENCODING 208
SWIDTH 562 0
DWIDTH 9 0
BBX 8 10 0 0
BITMAP
7C
7E
66
61
F1
F1
61
66
7E
7C
ENDCHAR
STARTCHAR C0209
ENCODING 209
SWIDTH 562 0
DWIDTH 9 0
BBX 8 13 1 0
BITMAP
78
58
00
C3
E3
E3
DB
DB
DB
DB
CF
CF
C3
ENDCHAR
STARTCHAR C0210
ENCODING 210
SWIDTH 562 0
DWIDTH 9 0
BBX 8 14 1 0
BITMAP
20
10
10
00
7C
FF
C3
C3
C3
C3
C3
C3
FF
7C
ENDCHAR
STARTCHAR C0211
ENCODING 211
SWIDTH 562 0
DWIDTH 9 0
BBX 8 14 1 0
BITMAP
08
10
20
00
7C
FF
C3
C3
C3
C3
C3
C3
FF
7C
ENDCHAR
STARTCHAR C0212
ENCODING 212
SWIDTH 562 0
DWIDTH 9 0
BBX 8 13 1 0
BITMAP
10
28
00
7C
FF
C3
C3
C3
C3
C3
C3
FF
7C
ENDCHAR
STARTCHAR C0213
ENCODING 213
SWIDTH 562 0
DWIDTH 9 0
BBX 8 13 1 0
BITMAP
78
58
00
7C
FF
C3
C3
C3
C3
C3
C3
FF
7C
ENDCHAR
STARTCHAR C0214
ENCODING 214
SWIDTH 562 0
DWIDTH 9 0
BBX 8 13 1 0
BITMAP
6C
6C
00
7C
FF
C3
C3
C3
C3
C3
C3
FF
7C
ENDCHAR
STARTCHAR C0215
ENCODING 215
SWIDTH 625 0
DWIDTH 10 0
BBX 7 6 1 2
BITMAP
E6
7E
3C
3C
7E
64
ENDCHAR
STARTCHAR C0216
ENCODING 216
SWIDTH 625 0
DWIDTH 10 0
BBX 8 12 1 -1
BITMAP
03
3E
FF
CF
CF
DB
DB
F3
E3
FF
7C
C0
ENDCHAR
STARTCHAR C0217
ENCODING 217
SWIDTH 562 0
DWIDTH 9 0
BBX 8 14 1 0
BITMAP
20
10
10
00
C3
C3
C3
C3
C3
C3
C3
C3
FF
7C
ENDCHAR
STARTCHAR C0218
ENCODING 218
SWIDTH 562 0
DWIDTH 9 0
BBX 8 14 1 0
BITMAP
08
10
20
00
C3
C3
C3
C3
C3
C3
C3
C3
FF
7C
ENDCHAR
STARTCHAR C0219
ENCODING 219
SWIDTH 562 0
DWIDTH 9 0
BBX 8 13 1 0
BITMAP
10
28
00
C3
C3
C3
C3
C3
C3
C3
C3
FF
7C
ENDCHAR
STARTCHAR C0220
ENCODING 220
SWIDTH 562 0
DWIDTH 9 0
BBX 8 13 1 0
BITMAP
6C
6C
00
C3
C3
C3
C3
C3
C3
C3
C3
FF
7C
ENDCHAR
STARTCHAR C0221
ENCODING 221
SWIDTH 562 0
DWIDTH 9 0
BBX 8 14 1 0
BITMAP
08
10
20
00
C3
C3
C3
6C
7C
18
18
18
18
18
ENDCHAR
STARTCHAR C0222
ENCODING 222
SWIDTH 562 0
DWIDTH 9 0
BBX 8 10 1 0
BITMAP
C0
FC
FC
C3
C3
C3
C3
FF
FC
C0
ENDCHAR
STARTCHAR C0223
ENCODING 223
SWIDTH 562 0
DWIDTH 9 0
BBX 8 10 1 0
BITMAP
FC
FF
C3
C3
DF
DC
C3
C3
DF
DC
ENDCHAR
STARTCHAR C0224
ENCODING 224
SWIDTH 687 0
DWIDTH 11 0
BBX 9 11 1 0
BITMAP
2000
1000
1000
0000
7C00
FF00
C300
C300
C300
FF80
7D80
ENDCHAR
STARTCHAR C0225
ENCODING 225
SWIDTH 687 0
DWIDTH 11 0
BBX 9 11 1 0
BITMAP
0800
1000
2000
0000
7C00
FF00
C300
C300
C300
FF80
7D80
ENDCHAR
STARTCHAR C0226
ENCODING 226
SWIDTH 687 0
DWIDTH 11 0
BBX 9 10 1 0
BITMAP
1000
2800
0000
7C00
FF00
C300
C300
C300
FF80
7D80
ENDCHAR
STARTCHAR C0227
ENCODING 227
SWIDTH 687 0
DWIDTH 11 0
BBX 9 10 1 0
BITMAP
7800
5800
0000
7C00
FF00
C300
C300
C300
FF80
7D80
ENDCHAR
STARTCHAR C0228
ENCODING 228
SWIDTH 687 0
DWIDTH 11 0
BBX 9 10 1 0
BITMAP
3600
3600
0000
7C00
FF00
C300
C300
C300
FF80
7D80
ENDCHAR
STARTCHAR C0229
ENCODING 229
SWIDTH 687 0
DWIDTH 11 0
BBX 9 10 1 0
BITMAP
3800
1000
0000
7C00
FF00
C300
C300
C300
FF80
7D80
ENDCHAR
STARTCHAR C0230
ENCODING 230
SWIDTH 1125 0
DWIDTH 18 0
BBX 16 7 1 0
BITMAP
7C3E
FF7F
C343
C378
C343
FFFF
7DBE
ENDCHAR
STARTCHAR C0231
ENCODING 231
SWIDTH 562 0
DWIDTH 9 0
BBX 8 10 1 -3
BITMAP
7C
FF
C3
C0
C3
FF
7C
10
48
38
ENDCHAR
STARTCHAR C0232
ENCODING 232
SWIDTH 562 0
DWIDTH 9 0
BBX 8 11 1 0
BITMAP
20
10
10
00
7C
FF
C3
F8
C3
FF
7C
ENDCHAR
STARTCHAR C0233
ENCODING 233
SWIDTH 562 0
DWIDTH 9 0
BBX 8 11 1 0
BITMAP
08
10
20
00
7C
FF
C3
F8
C3
FF
7C
ENDCHAR
STARTCHAR C0234
ENCODING 234
SWIDTH 562 0
DWIDTH 9 0
BBX 8 10 1 0
BITMAP
10
28
00
7C
FF
C3
F8
C3
FF
7C
ENDCHAR
STARTCHAR C0235
ENCODING 235
SWIDTH 562 0
DWIDTH 9 0
BBX 8 10 1 0
BITMAP
6C
6C
00
7C
FF
C3
F8
C3
FF
7C
ENDCHAR
STARTCHAR C0236
ENCODING 236
SWIDTH 250 0
DWIDTH 4 0
BBX 3 11 0 0
BITMAP
80
40
40
00
60
60
60
60
60
60
60
ENDCHAR
STARTCHAR C0237
ENCODING 237
SWIDTH 250 0
DWIDTH 4 0
BBX 3 11 0 0
BITMAP
20
40
80
00
60
60
60
60
60
60
60
ENDCHAR
STARTCHAR C0238
ENCODING 238
SWIDTH 250 0
DWIDTH 4 0
BBX 3 10 0 0
BITMAP
40
A0
00
60
60
60
60
60
60
60
ENDCHAR
STARTCHAR C0239
ENCODING 239
SWIDTH 250 0
DWIDTH 4 0
BBX 4 10 0 0
BITMAP
D0
D0
00
60
60
60
60
60
60
60
ENDCHAR
STARTCHAR C0240
ENCODING 240
SWIDTH 625 0
DWIDTH 10 0
BBX 8 11 1 0
BITMAP
03
7E
FF
DB
03
7F
7F
C3
C3
FF
7C
ENDCHAR
STARTCHAR C0241
ENCODING 241
SWIDTH 562 0
DWIDTH 9 0
BBX 8 10 1 0
BITMAP
78
58
00
FC
FF
C3
C3
C3
C3
C3
ENDCHAR
STARTCHAR C0242
ENCODING 242
SWIDTH 562 0
DWIDTH 9 0
BBX 8 11 1 0
BITMAP
20
10
10
00
7C
FF
C3
C3
C3
FF
7C
ENDCHAR
STARTCHAR C0243
ENCODING 243
SWIDTH 562 0
DWIDTH 9 0
BBX 8 11 1 0
BITMAP
08
10
20
00
7C
FF
C3
C3
C3
FF
7C
ENDCHAR
STARTCHAR C0244
ENCODING 244
SWIDTH 562 0
DWIDTH 9 0
BBX 8 10 1 0
BITMAP
10
28
00
7C
FF
C3
C3
C3
FF
7C
ENDCHAR
STARTCHAR C0245
ENCODING 245
SWIDTH 562 0
DWIDTH 9 0
BBX 8 10 1 0
BITMAP
78
58
00
7C
FF
C3
C3
C3
FF
7C
ENDCHAR
STARTCHAR C0246
ENCODING 246
SWIDTH 562 0
DWIDTH 9 0
BBX 8 10 1 0
BITMAP
6C
6C
00
7C
FF
C3
C3
C3
FF
7C
ENDCHAR
STARTCHAR C0247
ENCODING 247
SWIDTH 625 0
DWIDTH 10 0
BBX 6 7 2 1
BITMAP
30
00
FC
FC
00
30
30
ENDCHAR
STARTCHAR C0248
ENCODING 248
SWIDTH 562 0
DWIDTH 9 0
BBX 9 9 0 -1
BITMAP
0180
3F00
7F80
6D80
6D80
7980
7F80
3E00
E000
ENDCHAR
STARTCHAR C0249
ENCODING 249
SWIDTH 562 0
DWIDTH 9 0
BBX 8 11 1 0
BITMAP
20
10
10
00
C3
C3
C3
C3
C3
FF
7C
ENDCHAR
STARTCHAR C0250
ENCODING 250
SWIDTH 562 0
DWIDTH 9 0
BBX 8 11 1 0
BITMAP
08
10
20
00
C3
C3
C3
C3
C3
FF
7C
ENDCHAR
STARTCHAR C0251
ENCODING 251
SWIDTH 562 0
DWIDTH 9 0
BBX 8 10 1 0
BITMAP
10
28
00
C3
C3
C3
C3
C3
FF
7C
ENDCHAR
STARTCHAR C0252
ENCODING 252
SWIDTH 562 0
DWIDTH 9 0
BBX 8 10 1 0
BITMAP
6C
6C
00
C3
C3
C3
C3
C3
FF
7C
ENDCHAR
STARTCHAR C0253
ENCODING 253
SWIDTH 562 0
DWIDTH 9 0
BBX 8 14 1 -3
BITMAP
08
10
20
00
C3
C3
C3
C3
7F
7F
03
C3
FF
7C
ENDCHAR
STARTCHAR C0254
ENCODING 254
SWIDTH 562 0
DWIDTH 9 0
BBX 8 10 1 0
BITMAP
C0
C0
FC
FF
C3
C3
C3
C3
FC
C0
ENDCHAR
STARTCHAR C0255
ENCODING 255
SWIDTH 562 0
DWIDTH 9 0
BBX 8 13 1 -3
BITMAP
6C
6C
00
C3
C3
C3
C3
7F
7F
03
C3
FF
7C
ENDCHAR
ENDFONT

