STARTFONT 2.1
COMMENT 
COMMENT This file has been produced by ttf2bdf written by Subhabrata Biswas
COMMENT 
COMMENT For comments, questions, bug reports, send a mail to
COMMENT                                           subhabrata.biswas@usa.net
COMMENT 
FONT -*-Satoshi-Medium-R-Normal--13-100-96-96-c-7--fontspecific
SIZE 10 96 96
FONTBOUNDINGBOX 23 16 -3 -3
STARTPROPERTIES 15
FOUNDRY "Misc"
FAMILY_NAME "Satoshi"
WEIGHT_NAME "Medium"
SLANT "R"
SETWIDTH_NAME "Normal"
PIXEL_SIZE 10
POINT_SIZE 100
RESOLUTION_X 96
RESOLUTION_Y 96
SPACING "C"
CHARSET_ENCODING "fontspecific"
FONT_ASCENT 13
FONT_DESCENT 3
DEFAULT_CHAR 0
COPYRIGHT "You may wish to put your copyright here"
ENDPROPERTIES
CHARS 224
STARTCHAR C0032- 
ENCODING 32
SWIDTH 300 0
DWIDTH 4 0
BBX 1 1 0 -1
BITMAP
00
ENDCHAR
STARTCHAR C0033-!
ENCODING 33
SWIDTH 300 0
DWIDTH 4 0
BBX 2 9 1 0
BITMAP
80
80
80
80
80
80
00
00
C0
ENDCHAR
STARTCHAR C0034-"
ENCODING 34
SWIDTH 300 0
DWIDTH 4 0
BBX 3 3 1 6
BITMAP
60
C0
80
ENDCHAR
STARTCHAR C0035-#
ENCODING 35
SWIDTH 675 0
DWIDTH 9 0
BBX 7 9 1 0
BITMAP
24
24
FE
44
48
FE
48
48
88
ENDCHAR
STARTCHAR C0036-$
ENCODING 36
SWIDTH 525 0
DWIDTH 7 0
BBX 7 12 0 -1
BITMAP
10
10
7C
56
50
70
18
14
92
52
3C
10
ENDCHAR
STARTCHAR C0037-%
ENCODING 37
SWIDTH 900 0
DWIDTH 12 0
BBX 10 10 1 0
BITMAP
4080
B100
9100
9200
6400
0800
0BC0
1240
2240
4180
ENDCHAR
STARTCHAR C0038-&
ENCODING 38
SWIDTH 675 0
DWIDTH 9 0
BBX 8 9 1 0
BITMAP
78
48
48
30
50
8A
8A
84
7B
ENDCHAR
STARTCHAR C0039-'
ENCODING 39
SWIDTH 150 0
DWIDTH 2 0
BBX 1 3 1 6
BITMAP
80
80
80
ENDCHAR
STARTCHAR C0040-(
ENCODING 40
SWIDTH 225 0
DWIDTH 3 0
BBX 2 12 1 -2
BITMAP
40
40
80
80
80
80
80
80
80
80
40
40
ENDCHAR
STARTCHAR C0041-)
ENCODING 41
SWIDTH 225 0
DWIDTH 3 0
BBX 3 12 0 -2
BITMAP
80
40
40
40
40
20
20
40
40
40
40
80
ENDCHAR
STARTCHAR C0042-*
ENCODING 42
SWIDTH 375 0
DWIDTH 5 0
BBX 5 4 0 5
BITMAP
20
F8
30
50
ENDCHAR
STARTCHAR C0043-+
ENCODING 43
SWIDTH 675 0
DWIDTH 9 0
BBX 7 7 1 1
BITMAP
10
10
10
FE
10
10
10
ENDCHAR
STARTCHAR C0044-,
ENCODING 44
SWIDTH 225 0
DWIDTH 3 0
BBX 2 2 1 -1
BITMAP
C0
80
ENDCHAR
STARTCHAR C0045--
ENCODING 45
SWIDTH 375 0
DWIDTH 5 0
BBX 4 1 1 3
BITMAP
F0
ENDCHAR
STARTCHAR C0046-.
ENCODING 46
SWIDTH 225 0
DWIDTH 3 0
BBX 2 1 1 0
BITMAP
C0
ENDCHAR
STARTCHAR C0047-/
ENCODING 47
SWIDTH 375 0
DWIDTH 5 0
BBX 5 10 0 0
BITMAP
08
10
10
20
20
20
40
40
40
80
ENDCHAR
STARTCHAR C0048-0
ENCODING 48
SWIDTH 675 0
DWIDTH 9 0
BBX 7 10 1 0
BITMAP
10
6C
82
82
82
82
82
82
44
38
ENDCHAR
STARTCHAR C0049-1
ENCODING 49
SWIDTH 300 0
DWIDTH 4 0
BBX 3 9 0 0
BITMAP
E0
20
20
20
20
20
20
20
20
ENDCHAR
STARTCHAR C0050-2
ENCODING 50
SWIDTH 525 0
DWIDTH 7 0
BBX 6 10 1 0
BITMAP
20
58
88
84
08
08
10
20
40
FC
ENDCHAR
STARTCHAR C0051-3
ENCODING 51
SWIDTH 525 0
DWIDTH 7 0
BBX 6 9 1 0
BITMAP
FC
10
20
30
08
04
84
88
70
ENDCHAR
STARTCHAR C0052-4
ENCODING 52
SWIDTH 600 0
DWIDTH 8 0
BBX 6 9 1 0
BITMAP
08
18
28
48
48
88
FC
08
08
ENDCHAR
STARTCHAR C0053-5
ENCODING 53
SWIDTH 600 0
DWIDTH 8 0
BBX 6 10 1 0
BITMAP
04
7C
40
80
F8
84
04
84
84
78
ENDCHAR
STARTCHAR C0054-6
ENCODING 54
SWIDTH 600 0
DWIDTH 8 0
BBX 6 9 1 0
BITMAP
10
20
40
78
84
84
84
84
78
ENDCHAR
STARTCHAR C0055-7
ENCODING 55
SWIDTH 525 0
DWIDTH 7 0
BBX 6 9 0 0
BITMAP
FC
04
04
08
08
10
10
20
20
ENDCHAR
STARTCHAR C0056-8
ENCODING 56
SWIDTH 600 0
DWIDTH 8 0
BBX 6 9 1 0
BITMAP
78
84
84
48
78
84
84
84
78
ENDCHAR
STARTCHAR C0057-9
ENCODING 57
SWIDTH 600 0
DWIDTH 8 0
BBX 6 9 1 0
BITMAP
78
84
84
84
84
78
08
10
20
ENDCHAR
STARTCHAR C0058-:
ENCODING 58
SWIDTH 300 0
DWIDTH 4 0
BBX 2 6 1 0
BITMAP
C0
00
00
00
00
C0
ENDCHAR
STARTCHAR C0059-;
ENCODING 59
SWIDTH 300 0
DWIDTH 4 0
BBX 2 7 1 -1
BITMAP
C0
00
00
00
00
C0
80
ENDCHAR
STARTCHAR C0060-<
ENCODING 60
SWIDTH 675 0
DWIDTH 9 0
BBX 7 6 1 0
BITMAP
06
38
C0
60
1C
02
ENDCHAR
STARTCHAR C0061-=
ENCODING 61
SWIDTH 675 0
DWIDTH 9 0
BBX 7 4 1 2
BITMAP
FE
00
00
FE
ENDCHAR
STARTCHAR C0062->
ENCODING 62
SWIDTH 675 0
DWIDTH 9 0
BBX 7 6 1 0
BITMAP
80
70
0E
1A
60
80
ENDCHAR
STARTCHAR C0063-?
ENCODING 63
SWIDTH 525 0
DWIDTH 7 0
BBX 6 10 0 0
BITMAP
10
68
44
84
04
08
10
10
00
30
ENDCHAR
STARTCHAR C0064-@
ENCODING 64
SWIDTH 900 0
DWIDTH 12 0
BBX 11 11 0 -1
BITMAP
0600
1980
2040
4E20
5120
8720
4920
5120
4EC0
2000
1F80
ENDCHAR
STARTCHAR C0065-A
ENCODING 65
SWIDTH 600 0
DWIDTH 8 0
BBX 8 9 0 0
BITMAP
08
18
14
24
22
42
7E
41
81
ENDCHAR
STARTCHAR C0066-B
ENCODING 66
SWIDTH 600 0
DWIDTH 8 0
BBX 7 9 1 0
BITMAP
F8
84
84
84
F8
84
82
84
F8
ENDCHAR
STARTCHAR C0067-C
ENCODING 67
SWIDTH 675 0
DWIDTH 9 0
BBX 8 9 1 0
BITMAP
7C
82
81
80
80
80
81
42
3C
ENDCHAR
STARTCHAR C0068-D
ENCODING 68
SWIDTH 675 0
DWIDTH 9 0
BBX 8 9 1 0
BITMAP
FC
82
82
82
81
82
82
84
F8
ENDCHAR
STARTCHAR C0069-E
ENCODING 69
SWIDTH 525 0
DWIDTH 7 0
BBX 6 9 1 0
BITMAP
FC
80
80
80
F8
80
80
80
FC
ENDCHAR
STARTCHAR C0070-F
ENCODING 70
SWIDTH 525 0
DWIDTH 7 0
BBX 6 9 1 0
BITMAP
FC
80
80
80
F8
80
80
80
80
ENDCHAR
STARTCHAR C0071-G
ENCODING 71
SWIDTH 750 0
DWIDTH 10 0
BBX 8 9 1 0
BITMAP
7C
82
81
80
8F
81
81
43
3D
ENDCHAR
STARTCHAR C0072-H
ENCODING 72
SWIDTH 675 0
DWIDTH 9 0
BBX 7 9 1 0
BITMAP
82
82
82
82
FE
82
82
82
82
ENDCHAR
STARTCHAR C0073-I
ENCODING 73
SWIDTH 225 0
DWIDTH 3 0
BBX 1 9 1 0
BITMAP
80
80
80
80
80
80
80
80
80
ENDCHAR
STARTCHAR C0074-J
ENCODING 74
SWIDTH 525 0
DWIDTH 7 0
BBX 6 9 0 0
BITMAP
04
04
04
04
04
04
84
88
70
ENDCHAR
STARTCHAR C0075-K
ENCODING 75
SWIDTH 600 0
DWIDTH 8 0
BBX 7 10 1 0
BITMAP
02
84
88
90
90
B0
C8
88
84
86
ENDCHAR
STARTCHAR C0076-L
ENCODING 76
SWIDTH 525 0
DWIDTH 7 0
BBX 5 9 1 0
BITMAP
80
80
80
80
80
80
80
80
F8
ENDCHAR
STARTCHAR C0077-M
ENCODING 77
SWIDTH 825 0
DWIDTH 11 0
BBX 9 9 1 0
BITMAP
8080
C180
C180
A280
A280
9480
9480
9480
8880
ENDCHAR
STARTCHAR C0078-N
ENCODING 78
SWIDTH 675 0
DWIDTH 9 0
BBX 7 9 1 0
BITMAP
82
C2
A2
92
92
8A
86
82
82
ENDCHAR
STARTCHAR C0079-O
ENCODING 79
SWIDTH 750 0
DWIDTH 10 0
BBX 8 9 1 0
BITMAP
7E
81
81
81
81
81
81
42
3C
ENDCHAR
STARTCHAR C0080-P
ENCODING 80
SWIDTH 600 0
DWIDTH 8 0
BBX 7 9 1 0
BITMAP
FC
84
82
84
8C
F0
80
80
80
ENDCHAR
STARTCHAR C0081-Q
ENCODING 81
SWIDTH 750 0
DWIDTH 10 0
BBX 8 10 1 -1
BITMAP
7E
81
81
81
81
81
85
42
3D
01
ENDCHAR
STARTCHAR C0082-R
ENCODING 82
SWIDTH 600 0
DWIDTH 8 0
BBX 7 9 1 0
BITMAP
FC
84
82
84
F8
88
88
84
86
ENDCHAR
STARTCHAR C0083-S
ENCODING 83
SWIDTH 525 0
DWIDTH 7 0
BBX 7 10 0 0
BITMAP
10
2C
46
40
60
18
04
82
44
38
ENDCHAR
STARTCHAR C0084-T
ENCODING 84
SWIDTH 525 0
DWIDTH 7 0
BBX 7 9 0 0
BITMAP
FE
10
10
10
10
10
10
10
10
ENDCHAR
STARTCHAR C0085-U
ENCODING 85
SWIDTH 675 0
DWIDTH 9 0
BBX 7 9 1 0
BITMAP
82
82
82
82
82
82
82
44
38
ENDCHAR
STARTCHAR C0086-V
ENCODING 86
SWIDTH 600 0
DWIDTH 8 0
BBX 8 9 0 0
BITMAP
81
41
42
22
24
24
14
18
08
ENDCHAR
STARTCHAR C0087-W
ENCODING 87
SWIDTH 975 0
DWIDTH 13 0
BBX 13 10 0 0
BITMAP
0008
8210
4610
4510
4520
2920
28A0
28A0
30C0
1040
ENDCHAR
STARTCHAR C0088-X
ENCODING 88
SWIDTH 600 0
DWIDTH 8 0
BBX 8 10 0 0
BITMAP
81
42
24
24
18
08
18
24
42
C3
ENDCHAR
STARTCHAR C0089-Y
ENCODING 89
SWIDTH 525 0
DWIDTH 7 0
BBX 7 10 0 0
BITMAP
80
42
44
24
28
10
10
10
10
10
ENDCHAR
STARTCHAR C0090-Z
ENCODING 90
SWIDTH 600 0
DWIDTH 8 0
BBX 6 9 1 0
BITMAP
FC
08
08
10
20
40
40
80
FC
ENDCHAR
STARTCHAR C0091-[
ENCODING 91
SWIDTH 225 0
DWIDTH 3 0
BBX 2 11 1 -1
BITMAP
C0
80
80
80
80
80
80
80
80
80
C0
ENDCHAR
STARTCHAR C0092-\
ENCODING 92
SWIDTH 375 0
DWIDTH 5 0
BBX 5 9 0 0
BITMAP
80
40
40
40
20
20
10
10
18
ENDCHAR
STARTCHAR C0093-]
ENCODING 93
SWIDTH 225 0
DWIDTH 3 0
BBX 3 11 0 -1
BITMAP
E0
20
20
20
20
20
20
20
20
20
E0
ENDCHAR
STARTCHAR C0094-^
ENCODING 94
SWIDTH 450 0
DWIDTH 6 0
BBX 4 4 1 5
BITMAP
20
60
90
90
ENDCHAR
STARTCHAR C0095-_
ENCODING 95
SWIDTH 525 0
DWIDTH 7 0
BBX 5 1 1 -1
BITMAP
F8
ENDCHAR
STARTCHAR C0096-`
ENCODING 96
SWIDTH 225 0
DWIDTH 3 0
BBX 1 2 1 10
BITMAP
80
80
ENDCHAR
STARTCHAR C0097-a
ENCODING 97
SWIDTH 525 0
DWIDTH 7 0
BBX 5 7 1 0
BITMAP
20
D0
08
78
88
88
F8
ENDCHAR
STARTCHAR C0098-b
ENCODING 98
SWIDTH 600 0
DWIDTH 8 0
BBX 6 9 1 0
BITMAP
80
80
80
F8
84
84
84
C4
B8
ENDCHAR
STARTCHAR C0099-c
ENCODING 99
SWIDTH 525 0
DWIDTH 7 0
BBX 6 7 0 0
BITMAP
10
68
44
C0
40
44
38
ENDCHAR
STARTCHAR C0100-d
ENCODING 100
SWIDTH 600 0
DWIDTH 8 0
BBX 7 9 0 0
BITMAP
02
02
12
6A
46
C2
42
46
3A
ENDCHAR
STARTCHAR C0101-e
ENCODING 101
SWIDTH 525 0
DWIDTH 7 0
BBX 6 7 0 0
BITMAP
10
28
44
FC
40
44
38
ENDCHAR
STARTCHAR C0102-f
ENCODING 102
SWIDTH 300 0
DWIDTH 4 0
BBX 4 10 0 0
BITMAP
10
20
40
40
F0
40
40
40
40
40
ENDCHAR
STARTCHAR C0103-g
ENCODING 103
SWIDTH 600 0
DWIDTH 8 0
BBX 7 10 0 -3
BITMAP
10
6A
46
82
42
46
3A
02
44
38
ENDCHAR
STARTCHAR C0104-h
ENCODING 104
SWIDTH 525 0
DWIDTH 7 0
BBX 5 9 1 0
BITMAP
80
80
80
F8
88
88
88
88
88
ENDCHAR
STARTCHAR C0105-i
ENCODING 105
SWIDTH 225 0
DWIDTH 3 0
BBX 1 9 1 0
BITMAP
80
00
00
80
80
80
80
80
80
ENDCHAR
STARTCHAR C0106-j
ENCODING 106
SWIDTH 225 0
DWIDTH 3 0
BBX 3 12 -1 -3
BITMAP
20
00
00
20
20
20
20
20
20
20
20
C0
ENDCHAR
STARTCHAR C0107-k
ENCODING 107
SWIDTH 450 0
DWIDTH 6 0
BBX 5 9 1 0
BITMAP
80
80
88
90
A0
E0
90
90
88
ENDCHAR
STARTCHAR C0108-l
ENCODING 108
SWIDTH 225 0
DWIDTH 3 0
BBX 1 9 1 0
BITMAP
80
80
80
80
80
80
80
80
80
ENDCHAR
STARTCHAR C0109-m
ENCODING 109
SWIDTH 825 0
DWIDTH 11 0
BBX 9 7 1 0
BITMAP
2000
D700
8880
8880
8880
8880
8880
ENDCHAR
STARTCHAR C0110-n
ENCODING 110
SWIDTH 525 0
DWIDTH 7 0
BBX 5 6 1 0
BITMAP
F8
88
88
88
88
88
ENDCHAR
STARTCHAR C0111-o
ENCODING 111
SWIDTH 525 0
DWIDTH 7 0
BBX 7 7 0 0
BITMAP
10
2C
42
C2
42
44
38
ENDCHAR
STARTCHAR C0112-p
ENCODING 112
SWIDTH 600 0
DWIDTH 8 0
BBX 6 9 1 -3
BITMAP
F8
84
84
84
84
F8
80
80
80
ENDCHAR
STARTCHAR C0113-q
ENCODING 113
SWIDTH 600 0
DWIDTH 8 0
BBX 7 10 0 -3
BITMAP
10
6A
46
C2
42
46
3A
02
02
02
ENDCHAR
STARTCHAR C0114-r
ENCODING 114
SWIDTH 300 0
DWIDTH 4 0
BBX 3 6 1 0
BITMAP
E0
80
80
80
80
80
ENDCHAR
STARTCHAR C0115-s
ENCODING 115
SWIDTH 450 0
DWIDTH 6 0
BBX 5 7 0 0
BITMAP
20
58
40
70
08
88
70
ENDCHAR
STARTCHAR C0116-t
ENCODING 116
SWIDTH 300 0
DWIDTH 4 0
BBX 4 8 0 0
BITMAP
40
40
F0
40
40
40
40
40
ENDCHAR
STARTCHAR C0117-u
ENCODING 117
SWIDTH 525 0
DWIDTH 7 0
BBX 5 6 1 0
BITMAP
88
88
88
88
88
78
ENDCHAR
STARTCHAR C0118-v
ENCODING 118
SWIDTH 450 0
DWIDTH 6 0
BBX 6 6 0 0
BITMAP
84
44
48
28
30
10
ENDCHAR
STARTCHAR C0119-w
ENCODING 119
SWIDTH 750 0
DWIDTH 10 0
BBX 9 6 0 0
BITMAP
8880
4C80
5480
5280
3300
2200
ENDCHAR
STARTCHAR C0120-x
ENCODING 120
SWIDTH 450 0
DWIDTH 6 0
BBX 6 7 0 0
BITMAP
84
48
48
30
30
48
CC
ENDCHAR
STARTCHAR C0121-y
ENCODING 121
SWIDTH 450 0
DWIDTH 6 0
BBX 6 9 0 -3
BITMAP
84
48
48
28
30
10
10
20
C0
ENDCHAR
STARTCHAR C0122-z
ENCODING 122
SWIDTH 450 0
DWIDTH 6 0
BBX 4 6 1 0
BITMAP
F0
20
20
40
80
F0
ENDCHAR
STARTCHAR C0123-{
ENCODING 123
SWIDTH 300 0
DWIDTH 4 0
BBX 3 11 1 -1
BITMAP
60
40
40
40
80
80
40
40
40
40
20
ENDCHAR
STARTCHAR C0124-|
ENCODING 124
SWIDTH 300 0
DWIDTH 4 0
BBX 1 11 2 -1
BITMAP
80
80
80
80
80
80
80
80
80
80
80
ENDCHAR
STARTCHAR C0125-}
ENCODING 125
SWIDTH 300 0
DWIDTH 4 0
BBX 3 11 0 -1
BITMAP
C0
40
40
40
40
20
40
40
40
40
80
ENDCHAR
STARTCHAR C0126-~
ENCODING 126
SWIDTH 675 0
DWIDTH 9 0
BBX 7 2 1 3
BITMAP
62
9C
ENDCHAR
STARTCHAR C0127
ENCODING 127
SWIDTH 525 0
DWIDTH 7 0
BBX 6 14 0 -3
BITMAP
FC
84
84
84
84
84
84
84
84
84
84
84
84
7C
ENDCHAR
STARTCHAR C0128
ENCODING 128
SWIDTH 675 0
DWIDTH 9 0
BBX 8 9 0 0
BITMAP
1F
20
20
FC
40
FC
20
30
0F
ENDCHAR
STARTCHAR C0129
ENCODING 129
SWIDTH 525 0
DWIDTH 7 0
BBX 6 14 0 -3
BITMAP
FC
84
84
84
84
84
84
84
84
84
84
84
84
7C
ENDCHAR
STARTCHAR C0130
ENCODING 130
SWIDTH 225 0
DWIDTH 3 0
BBX 1 2 1 -1
BITMAP
80
80
ENDCHAR
STARTCHAR C0131
ENCODING 131
SWIDTH 525 0
DWIDTH 7 0
BBX 5 11 1 -2
BITMAP
18
10
20
20
F8
20
20
20
20
40
80
ENDCHAR
STARTCHAR C0132
ENCODING 132
SWIDTH 375 0
DWIDTH 5 0
BBX 3 2 1 -1
BITMAP
A0
A0
ENDCHAR
STARTCHAR C0133
ENCODING 133
SWIDTH 675 0
DWIDTH 9 0
BBX 7 1 1 0
BITMAP
D6
ENDCHAR
STARTCHAR C0134
ENCODING 134
SWIDTH 300 0
DWIDTH 4 0
BBX 4 5 0 4
BITMAP
40
F0
40
40
40
ENDCHAR
STARTCHAR C0135
ENCODING 135
SWIDTH 300 0
DWIDTH 4 0
BBX 4 5 0 4
BITMAP
40
F0
40
F0
40
ENDCHAR
STARTCHAR C0136
ENCODING 136
SWIDTH 300 0
DWIDTH 4 0
BBX 3 2 1 10
BITMAP
40
E0
ENDCHAR
STARTCHAR C0137
ENCODING 137
SWIDTH 1275 0
DWIDTH 17 0
BBX 15 10 1 0
BITMAP
4080
B100
9100
9200
6400
0800
0BDE
1252
2252
418C
ENDCHAR
STARTCHAR C0138
ENCODING 138
SWIDTH 525 0
DWIDTH 7 0
BBX 7 12 0 0
BITMAP
38
08
00
3C
46
40
60
18
04
82
44
38
ENDCHAR
STARTCHAR C0139
ENCODING 139
SWIDTH 375 0
DWIDTH 5 0
BBX 3 6 1 0
BITMAP
20
40
80
80
40
20
ENDCHAR
STARTCHAR C0140
ENCODING 140
SWIDTH 1125 0
DWIDTH 15 0
BBX 13 9 1 0
BITMAP
7EF8
8180
8080
8080
80F8
8080
8180
4280
3CF8
ENDCHAR
STARTCHAR C0141
ENCODING 141
SWIDTH 525 0
DWIDTH 7 0
BBX 6 14 0 -3
BITMAP
FC
84
84
84
84
84
84
84
84
84
84
84
84
7C
ENDCHAR
STARTCHAR C0142
ENCODING 142
SWIDTH 600 0
DWIDTH 8 0
BBX 6 12 1 0
BITMAP
50
30
00
FC
08
08
10
20
40
40
80
FC
ENDCHAR
STARTCHAR C0143
ENCODING 143
SWIDTH 525 0
DWIDTH 7 0
BBX 6 14 0 -3
BITMAP
FC
84
84
84
84
84
84
84
84
84
84
84
84
7C
ENDCHAR
STARTCHAR C0144
ENCODING 144
SWIDTH 525 0
DWIDTH 7 0
BBX 6 14 0 -3
BITMAP
FC
84
84
84
84
84
84
84
84
84
84
84
84
7C
ENDCHAR
STARTCHAR C0145
ENCODING 145
SWIDTH 225 0
DWIDTH 3 0
BBX 1 2 1 7
BITMAP
80
80
ENDCHAR
STARTCHAR C0146
ENCODING 146
SWIDTH 225 0
DWIDTH 3 0
BBX 1 2 1 7
BITMAP
80
80
ENDCHAR
STARTCHAR C0147
ENCODING 147
SWIDTH 375 0
DWIDTH 5 0
BBX 3 2 1 7
BITMAP
A0
A0
ENDCHAR
STARTCHAR C0148
ENCODING 148
SWIDTH 375 0
DWIDTH 5 0
BBX 3 2 1 7
BITMAP
A0
A0
ENDCHAR
STARTCHAR C0149
ENCODING 149
SWIDTH 375 0
DWIDTH 5 0
BBX 3 3 1 2
BITMAP
C0
E0
E0
ENDCHAR
STARTCHAR C0150
ENCODING 150
SWIDTH 900 0
DWIDTH 12 0
BBX 10 1 1 3
BITMAP
FFC0
ENDCHAR
STARTCHAR C0151
ENCODING 151
SWIDTH 1125 0
DWIDTH 15 0
BBX 13 1 1 3
BITMAP
FFF8
ENDCHAR
STARTCHAR C0152
ENCODING 152
SWIDTH 375 0
DWIDTH 5 0
BBX 5 2 0 10
BITMAP
48
B0
ENDCHAR
STARTCHAR C0153
ENCODING 153
SWIDTH 600 0
DWIDTH 8 0
BBX 8 4 0 6
BITMAP
A0
49
4B
45
ENDCHAR
STARTCHAR C0154
ENCODING 154
SWIDTH 450 0
DWIDTH 6 0
BBX 5 9 0 0
BITMAP
70
00
20
58
40
70
08
88
70
ENDCHAR
STARTCHAR C0155
ENCODING 155
SWIDTH 375 0
DWIDTH 5 0
BBX 3 6 1 0
BITMAP
80
40
20
20
40
80
ENDCHAR
STARTCHAR C0156
ENCODING 156
SWIDTH 900 0
DWIDTH 12 0
BBX 12 7 0 0
BITMAP
1000
2DE0
4210
C3F0
4200
4610
39E0
ENDCHAR
STARTCHAR C0157
ENCODING 157
SWIDTH 525 0
DWIDTH 7 0
BBX 6 14 0 -3
BITMAP
FC
84
84
84
84
84
84
84
84
84
84
84
84
7C
ENDCHAR
STARTCHAR C0158
ENCODING 158
SWIDTH 450 0
DWIDTH 6 0
BBX 4 9 1 0
BITMAP
A0
60
00
F0
20
20
40
80
F0
ENDCHAR
STARTCHAR C0159
ENCODING 159
SWIDTH 525 0
DWIDTH 7 0
BBX 7 12 0 0
BITMAP
28
28
80
42
44
24
28
10
10
10
10
10
ENDCHAR
STARTCHAR C0160
ENCODING 160
SWIDTH 525 0
DWIDTH 7 0
BBX 6 14 0 -3
BITMAP
FC
84
84
84
84
84
84
84
84
84
84
84
84
7C
ENDCHAR
STARTCHAR C0161
ENCODING 161
SWIDTH 300 0
DWIDTH 4 0
BBX 2 9 1 0
BITMAP
C0
00
80
80
80
80
80
80
80
ENDCHAR
STARTCHAR C0162
ENCODING 162
SWIDTH 525 0
DWIDTH 7 0
BBX 6 9 1 0
BITMAP
20
70
88
84
80
84
D8
20
20
ENDCHAR
STARTCHAR C0163
ENCODING 163
SWIDTH 600 0
DWIDTH 8 0
BBX 7 9 0 0
BITMAP
3C
42
40
40
FC
20
22
42
FC
ENDCHAR
STARTCHAR C0164
ENCODING 164
SWIDTH 600 0
DWIDTH 8 0
BBX 6 7 1 1
BITMAP
94
68
84
84
84
7C
84
ENDCHAR
STARTCHAR C0165
ENCODING 165
SWIDTH 600 0
DWIDTH 8 0
BBX 7 10 0 0
BITMAP
80
42
44
24
28
7E
10
7E
10
10
ENDCHAR
STARTCHAR C0166
ENCODING 166
SWIDTH 300 0
DWIDTH 4 0
BBX 1 11 2 -1
BITMAP
80
80
80
80
00
00
80
80
80
80
80
ENDCHAR
STARTCHAR C0167
ENCODING 167
SWIDTH 450 0
DWIDTH 6 0
BBX 6 9 0 0
BITMAP
78
40
30
48
84
78
08
48
30
ENDCHAR
STARTCHAR C0168
ENCODING 168
SWIDTH 375 0
DWIDTH 5 0
BBX 3 2 1 10
BITMAP
A0
A0
ENDCHAR
STARTCHAR C0169
ENCODING 169
SWIDTH 825 0
DWIDTH 11 0
BBX 10 10 0 0
BITMAP
0400
3B00
4080
4E40
5140
9040
5140
4E40
2080
1F00
ENDCHAR
STARTCHAR C0170
ENCODING 170
SWIDTH 525 0
DWIDTH 7 0
BBX 6 14 0 -3
BITMAP
FC
84
84
84
84
84
84
84
84
84
84
84
84
7C
ENDCHAR
STARTCHAR C0171
ENCODING 171
SWIDTH 600 0
DWIDTH 8 0
BBX 6 7 1 0
BITMAP
04
28
48
90
90
48
24
ENDCHAR
STARTCHAR C0172
ENCODING 172
SWIDTH 675 0
DWIDTH 9 0
BBX 6 3 1 1
BITMAP
FC
04
04
ENDCHAR
STARTCHAR C0173
ENCODING 173
SWIDTH 525 0
DWIDTH 7 0
BBX 6 14 0 -3
BITMAP
FC
84
84
84
84
84
84
84
84
84
84
84
84
7C
ENDCHAR
STARTCHAR C0174
ENCODING 174
SWIDTH 450 0
DWIDTH 6 0
BBX 6 6 0 4
BITMAP
30
58
AC
B4
4C
30
ENDCHAR
STARTCHAR C0175
ENCODING 175
SWIDTH 375 0
DWIDTH 5 0
BBX 1 1 0 -1
BITMAP
00
ENDCHAR
STARTCHAR C0176
ENCODING 176
SWIDTH 225 0
DWIDTH 3 0
BBX 3 4 0 6
BITMAP
40
A0
A0
40
ENDCHAR
STARTCHAR C0177
ENCODING 177
SWIDTH 675 0
DWIDTH 9 0
BBX 7 8 1 0
BITMAP
10
10
12
FE
10
10
00
FE
ENDCHAR
STARTCHAR C0178
ENCODING 178
SWIDTH 300 0
DWIDTH 4 0
BBX 4 6 0 4
BITMAP
60
90
10
20
40
F0
ENDCHAR
STARTCHAR C0179
ENCODING 179
SWIDTH 300 0
DWIDTH 4 0
BBX 4 6 0 4
BITMAP
70
20
60
10
90
60
ENDCHAR
STARTCHAR C0180
ENCODING 180
SWIDTH 225 0
DWIDTH 3 0
BBX 1 2 1 10
BITMAP
80
80
ENDCHAR
STARTCHAR C0181
ENCODING 181
SWIDTH 525 0
DWIDTH 7 0
BBX 5 9 1 -3
BITMAP
88
88
88
88
88
F8
80
80
80
ENDCHAR
STARTCHAR C0182
ENCODING 182
SWIDTH 525 0
DWIDTH 7 0
BBX 6 10 0 -1
BITMAP
74
74
F4
74
34
14
14
14
14
14
ENDCHAR
STARTCHAR C0183
ENCODING 183
SWIDTH 300 0
DWIDTH 4 0
BBX 2 2 1 2
BITMAP
C0
80
ENDCHAR
STARTCHAR C0184
ENCODING 184
SWIDTH 225 0
DWIDTH 3 0
BBX 3 3 0 -3
BITMAP
C0
20
C0
ENDCHAR
STARTCHAR C0185
ENCODING 185
SWIDTH 225 0
DWIDTH 3 0
BBX 2 6 0 4
BITMAP
C0
40
40
40
40
40
ENDCHAR
STARTCHAR C0186
ENCODING 186
SWIDTH 525 0
DWIDTH 7 0
BBX 6 14 0 -3
BITMAP
FC
84
84
84
84
84
84
84
84
84
84
84
84
7C
ENDCHAR
STARTCHAR C0187
ENCODING 187
SWIDTH 600 0
DWIDTH 8 0
BBX 6 7 1 0
BITMAP
20
90
48
24
24
48
90
ENDCHAR
STARTCHAR C0188
ENCODING 188
SWIDTH 600 0
DWIDTH 8 0
BBX 8 10 0 0
BITMAP
80
42
44
44
48
10
16
26
4F
C2
ENDCHAR
STARTCHAR C0189
ENCODING 189
SWIDTH 600 0
DWIDTH 8 0
BBX 8 10 0 0
BITMAP
80
42
44
44
48
12
15
21
42
C7
ENDCHAR
STARTCHAR C0190
ENCODING 190
SWIDTH 600 0
DWIDTH 8 0
BBX 8 10 0 0
BITMAP
C1
22
42
24
E8
08
13
25
27
41
ENDCHAR
STARTCHAR C0191
ENCODING 191
SWIDTH 525 0
DWIDTH 7 0
BBX 6 9 0 0
BITMAP
10
00
10
10
60
40
84
44
38
ENDCHAR
STARTCHAR C0192
ENCODING 192
SWIDTH 600 0
DWIDTH 8 0
BBX 8 12 0 0
BITMAP
10
18
00
08
18
14
24
22
42
7E
41
81
ENDCHAR
STARTCHAR C0193
ENCODING 193
SWIDTH 600 0
DWIDTH 8 0
BBX 8 12 0 0
BITMAP
04
08
00
08
18
14
24
22
42
7E
41
81
ENDCHAR
STARTCHAR C0194
ENCODING 194
SWIDTH 600 0
DWIDTH 8 0
BBX 8 12 0 0
BITMAP
08
14
00
08
18
14
24
22
42
7E
41
81
ENDCHAR
STARTCHAR C0195
ENCODING 195
SWIDTH 600 0
DWIDTH 8 0
BBX 8 12 0 0
BITMAP
14
28
00
08
18
14
24
22
42
7E
41
81
ENDCHAR
STARTCHAR C0196
ENCODING 196
SWIDTH 600 0
DWIDTH 8 0
BBX 8 12 0 0
BITMAP
14
14
00
08
18
14
24
22
42
7E
41
81
ENDCHAR
STARTCHAR C0197
ENCODING 197
SWIDTH 600 0
DWIDTH 8 0
BBX 8 13 0 0
BITMAP
08
14
18
00
08
18
14
24
22
42
7E
41
81
ENDCHAR
STARTCHAR C0198
ENCODING 198
SWIDTH 900 0
DWIDTH 12 0
BBX 11 9 0 0
BITMAP
0FE0
1400
1400
2400
27C0
3C00
4400
4400
87E0
ENDCHAR
STARTCHAR C0199
ENCODING 199
SWIDTH 675 0
DWIDTH 9 0
BBX 8 11 1 -2
BITMAP
7C
82
81
80
80
80
81
42
3C
10
18
ENDCHAR
STARTCHAR C0200
ENCODING 200
SWIDTH 525 0
DWIDTH 7 0
BBX 6 12 1 0
BITMAP
40
20
00
FC
80
80
80
F8
80
80
80
FC
ENDCHAR
STARTCHAR C0201
ENCODING 201
SWIDTH 525 0
DWIDTH 7 0
BBX 6 12 1 0
BITMAP
10
10
00
FC
80
80
80
F8
80
80
80
FC
ENDCHAR
STARTCHAR C0202
ENCODING 202
SWIDTH 525 0
DWIDTH 7 0
BBX 6 12 1 0
BITMAP
20
70
00
FC
80
80
80
F8
80
80
80
FC
ENDCHAR
STARTCHAR C0203
ENCODING 203
SWIDTH 525 0
DWIDTH 7 0
BBX 6 12 1 0
BITMAP
50
50
00
FC
80
80
80
F8
80
80
80
FC
ENDCHAR
STARTCHAR C0204
ENCODING 204
SWIDTH 225 0
DWIDTH 3 0
BBX 2 12 0 0
BITMAP
80
40
00
40
40
40
40
40
40
40
40
40
ENDCHAR
STARTCHAR C0205
ENCODING 205
SWIDTH 225 0
DWIDTH 3 0
BBX 2 12 1 0
BITMAP
40
80
00
80
80
80
80
80
80
80
80
80
ENDCHAR
STARTCHAR C0206
ENCODING 206
SWIDTH 225 0
DWIDTH 3 0
BBX 3 12 0 0
BITMAP
40
A0
00
40
40
40
40
40
40
40
40
40
ENDCHAR
STARTCHAR C0207
ENCODING 207
SWIDTH 225 0
DWIDTH 3 0
BBX 3 12 0 0
BITMAP
A0
A0
00
40
40
40
40
40
40
40
40
40
ENDCHAR
STARTCHAR C0208
ENCODING 208
SWIDTH 675 0
DWIDTH 9 0
BBX 9 9 0 0
BITMAP
7E00
4100
4100
4100
F080
4100
4100
4200
7C00
ENDCHAR
STARTCHAR C0209
ENCODING 209
SWIDTH 675 0
DWIDTH 9 0
BBX 7 12 1 0
BITMAP
24
38
00
82
C2
A2
92
92
8A
86
82
82
ENDCHAR
STARTCHAR C0210
ENCODING 210
SWIDTH 750 0
DWIDTH 10 0
BBX 8 12 1 0
BITMAP
10
10
00
7E
81
81
81
81
81
81
42
3C
ENDCHAR
STARTCHAR C0211
ENCODING 211
SWIDTH 750 0
DWIDTH 10 0
BBX 8 12 1 0
BITMAP
08
08
00
7E
81
81
81
81
81
81
42
3C
ENDCHAR
STARTCHAR C0212
ENCODING 212
SWIDTH 750 0
DWIDTH 10 0
BBX 8 12 1 0
BITMAP
10
3C
00
7E
81
81
81
81
81
81
42
3C
ENDCHAR
STARTCHAR C0213
ENCODING 213
SWIDTH 750 0
DWIDTH 10 0
BBX 8 12 1 0
BITMAP
14
28
00
7E
81
81
81
81
81
81
42
3C
ENDCHAR
STARTCHAR C0214
ENCODING 214
SWIDTH 750 0
DWIDTH 10 0
BBX 8 12 1 0
BITMAP
10
34
00
7E
81
81
81
81
81
81
42
3C
ENDCHAR
STARTCHAR C0215
ENCODING 215
SWIDTH 675 0
DWIDTH 9 0
BBX 6 6 1 1
BITMAP
C4
28
10
28
44
84
ENDCHAR
STARTCHAR C0216
ENCODING 216
SWIDTH 750 0
DWIDTH 10 0
BBX 8 10 1 0
BITMAP
01
7E
82
85
89
91
91
A1
42
BC
ENDCHAR
STARTCHAR C0217
ENCODING 217
SWIDTH 675 0
DWIDTH 9 0
BBX 7 12 1 0
BITMAP
20
10
00
82
82
82
82
82
82
82
44
38
ENDCHAR
STARTCHAR C0218
ENCODING 218
SWIDTH 675 0
DWIDTH 9 0
BBX 7 12 1 0
BITMAP
08
10
00
82
82
82
82
82
82
82
44
38
ENDCHAR
STARTCHAR C0219
ENCODING 219
SWIDTH 675 0
DWIDTH 9 0
BBX 7 12 1 0
BITMAP
10
28
00
82
82
82
82
82
82
82
44
38
ENDCHAR
STARTCHAR C0220
ENCODING 220
SWIDTH 675 0
DWIDTH 9 0
BBX 7 12 1 0
BITMAP
28
28
00
82
82
82
82
82
82
82
44
38
ENDCHAR
STARTCHAR C0221
ENCODING 221
SWIDTH 525 0
DWIDTH 7 0
BBX 7 12 0 0
BITMAP
08
18
80
42
44
24
28
10
10
10
10
10
ENDCHAR
STARTCHAR C0222
ENCODING 222
SWIDTH 600 0
DWIDTH 8 0
BBX 7 9 1 0
BITMAP
80
F0
8C
84
82
84
F8
80
80
ENDCHAR
STARTCHAR C0223
ENCODING 223
SWIDTH 525 0
DWIDTH 7 0
BBX 6 10 1 0
BITMAP
20
58
88
88
B0
88
84
84
88
B0
ENDCHAR
STARTCHAR C0224
ENCODING 224
SWIDTH 525 0
DWIDTH 7 0
BBX 5 9 1 0
BITMAP
60
00
20
D0
08
78
88
88
F8
ENDCHAR
STARTCHAR C0225
ENCODING 225
SWIDTH 525 0
DWIDTH 7 0
BBX 5 9 1 0
BITMAP
30
00
20
D0
08
78
88
88
F8
ENDCHAR
STARTCHAR C0226
ENCODING 226
SWIDTH 525 0
DWIDTH 7 0
BBX 5 9 1 0
BITMAP
70
00
20
D0
08
78
88
88
F8
ENDCHAR
STARTCHAR C0227
ENCODING 227
SWIDTH 525 0
DWIDTH 7 0
BBX 5 9 1 0
BITMAP
48
B0
00
F0
08
78
88
88
F8
ENDCHAR
STARTCHAR C0228
ENCODING 228
SWIDTH 525 0
DWIDTH 7 0
BBX 5 9 1 0
BITMAP
50
50
00
F0
08
78
88
88
F8
ENDCHAR
STARTCHAR C0229
ENCODING 229
SWIDTH 525 0
DWIDTH 7 0
BBX 5 10 1 0
BITMAP
20
50
20
00
F0
08
78
88
88
F8
ENDCHAR
STARTCHAR C0230
ENCODING 230
SWIDTH 825 0
DWIDTH 11 0
BBX 10 7 1 0
BITMAP
2000
D780
0840
7FC0
8800
8840
F780
ENDCHAR
STARTCHAR C0231
ENCODING 231
SWIDTH 525 0
DWIDTH 7 0
BBX 6 10 0 -3
BITMAP
10
68
44
C0
40
44
38
10
08
10
ENDCHAR
STARTCHAR C0232
ENCODING 232
SWIDTH 525 0
DWIDTH 7 0
BBX 6 9 0 0
BITMAP
30
00
10
28
44
FC
40
44
38
ENDCHAR
STARTCHAR C0233
ENCODING 233
SWIDTH 525 0
DWIDTH 7 0
BBX 6 9 0 0
BITMAP
18
00
10
28
44
FC
40
44
38
ENDCHAR
STARTCHAR C0234
ENCODING 234
SWIDTH 525 0
DWIDTH 7 0
BBX 6 9 0 0
BITMAP
38
00
10
28
44
FC
40
44
38
ENDCHAR
STARTCHAR C0235
ENCODING 235
SWIDTH 525 0
DWIDTH 7 0
BBX 6 9 0 0
BITMAP
28
28
00
38
44
FC
40
44
38
ENDCHAR
STARTCHAR C0236
ENCODING 236
SWIDTH 225 0
DWIDTH 3 0
BBX 2 9 0 0
BITMAP
80
40
00
40
40
40
40
40
40
ENDCHAR
STARTCHAR C0237
ENCODING 237
SWIDTH 225 0
DWIDTH 3 0
BBX 2 9 1 0
BITMAP
40
80
00
80
80
80
80
80
80
ENDCHAR
STARTCHAR C0238
ENCODING 238
SWIDTH 225 0
DWIDTH 3 0
BBX 3 9 0 0
BITMAP
40
A0
00
40
40
40
40
40
40
ENDCHAR
STARTCHAR C0239
ENCODING 239
SWIDTH 225 0
DWIDTH 3 0
BBX 3 9 0 0
BITMAP
A0
A0
00
40
40
40
40
40
40
ENDCHAR
STARTCHAR C0240
ENCODING 240
SWIDTH 600 0
DWIDTH 8 0
BBX 7 10 0 0
BITMAP
14
08
14
04
3E
42
C2
42
42
3C
ENDCHAR
STARTCHAR C0241
ENCODING 241
SWIDTH 525 0
DWIDTH 7 0
BBX 5 9 1 0
BITMAP
48
70
00
F8
88
88
88
88
88
ENDCHAR
STARTCHAR C0242
ENCODING 242
SWIDTH 525 0
DWIDTH 7 0
BBX 7 9 0 0
BITMAP
30
00
10
2C
42
C2
42
44
38
ENDCHAR
STARTCHAR C0243
ENCODING 243
SWIDTH 525 0
DWIDTH 7 0
BBX 7 9 0 0
BITMAP
18
00
10
2C
42
C2
42
44
38
ENDCHAR
STARTCHAR C0244
ENCODING 244
SWIDTH 525 0
DWIDTH 7 0
BBX 7 9 0 0
BITMAP
38
00
10
2C
42
C2
42
44
38
ENDCHAR
STARTCHAR C0245
ENCODING 245
SWIDTH 525 0
DWIDTH 7 0
BBX 7 9 0 0
BITMAP
24
38
00
3C
42
C2
42
44
38
ENDCHAR
STARTCHAR C0246
ENCODING 246
SWIDTH 525 0
DWIDTH 7 0
BBX 7 9 0 0
BITMAP
28
28
00
3C
42
C2
42
44
38
ENDCHAR
STARTCHAR C0247
ENCODING 247
SWIDTH 675 0
DWIDTH 9 0
BBX 2 6 3 1
BITMAP
C0
00
00
00
00
C0
ENDCHAR
STARTCHAR C0248
ENCODING 248
SWIDTH 525 0
DWIDTH 7 0
BBX 7 8 0 -1
BITMAP
14
2C
4A
D2
52
64
38
40
ENDCHAR
STARTCHAR C0249
ENCODING 249
SWIDTH 525 0
DWIDTH 7 0
BBX 5 9 1 0
BITMAP
40
20
00
88
88
88
88
88
78
ENDCHAR
STARTCHAR C0250
ENCODING 250
SWIDTH 525 0
DWIDTH 7 0
BBX 5 9 1 0
BITMAP
10
20
00
88
88
88
88
88
78
ENDCHAR
STARTCHAR C0251
ENCODING 251
SWIDTH 525 0
DWIDTH 7 0
BBX 5 9 1 0
BITMAP
20
50
00
88
88
88
88
88
78
ENDCHAR
STARTCHAR C0252
ENCODING 252
SWIDTH 525 0
DWIDTH 7 0
BBX 5 9 1 0
BITMAP
50
50
00
88
88
88
88
88
78
ENDCHAR
STARTCHAR C0253
ENCODING 253
SWIDTH 450 0
DWIDTH 6 0
BBX 6 12 0 -3
BITMAP
10
10
00
84
48
48
28
30
10
10
20
C0
ENDCHAR
STARTCHAR C0254
ENCODING 254
SWIDTH 600 0
DWIDTH 8 0
BBX 6 12 1 -3
BITMAP
80
80
80
F8
84
84
84
84
F8
80
80
80
ENDCHAR
STARTCHAR C0255
ENCODING 255
SWIDTH 450 0
DWIDTH 6 0
BBX 6 12 0 -3
BITMAP
28
68
00
84
48
48
28
30
10
10
20
C0
ENDCHAR
ENDFONT

