STARTFONT 2.1
COMMENT 
COMMENT This file has been produced by ttf2bdf written by Subhabrata Biswas
COMMENT 
COMMENT For comments, questions, bug reports, send a mail to
COMMENT                                           subhabrata.biswas@usa.net
COMMENT 
FONT -*-Satoshi Medium-Medium-R-Normal--21-160-96-96-c-12--fontspecific
SIZE 16 96 96
FONTBOUNDINGBOX 37 26 -4 -5
STARTPROPERTIES 15
FOUNDRY "Misc"
FAMILY_NAME "Satoshi Medium"
WEIGHT_NAME "Medium"
SLANT "R"
SETWIDTH_NAME "Normal"
PIXEL_SIZE 16
POINT_SIZE 160
RESOLUTION_X 96
RESOLUTION_Y 96
SPACING "C"
CHARSET_ENCODING "fontspecific"
FONT_ASCENT 21
FONT_DESCENT 5
DEFAULT_CHAR 0
COPYRIGHT "You may wish to put your copyright here"
ENDPROPERTIES
CHARS 224
STARTCHAR C0032- 
ENCODING 32
SWIDTH 281 0
DWIDTH 6 0
BBX 1 1 0 -1
BITMAP
00
ENDCHAR
STARTCHAR C0033-!
ENCODING 33
SWIDTH 281 0
DWIDTH 6 0
BBX 3 15 2 0
BITMAP
C0
C0
C0
C0
C0
C0
C0
C0
C0
C0
00
00
40
E0
C0
ENDCHAR
STARTCHAR C0034-"
ENCODING 34
SWIDTH 375 0
DWIDTH 8 0
BBX 6 5 1 10
BITMAP
CC
CC
CC
C8
48
ENDCHAR
STARTCHAR C0035-#
ENCODING 35
SWIDTH 703 0
DWIDTH 15 0
BBX 13 15 1 0
BITMAP
0C60
0C60
0C60
1860
7FF8
7FF0
18C0
18C0
30C0
FFF0
FFF0
3180
3180
6180
6300
ENDCHAR
STARTCHAR C0036-$
ENCODING 36
SWIDTH 562 0
DWIDTH 12 0
BBX 10 19 1 -2
BITMAP
0C00
0C00
3F00
7F80
CDC0
CCC0
CC00
EC00
7C00
3F00
0FC0
0CC0
0CC0
CCC0
CCC0
7F80
3F00
0C00
0C00
ENDCHAR
STARTCHAR C0037-%
ENCODING 37
SWIDTH 937 0
DWIDTH 20 0
BBX 18 16 1 0
BITMAP
000100
7C0600
E60C00
C20C00
C31800
C23000
6E6000
7CC000
00C000
019F00
031980
0630C0
0630C0
0C30C0
181B80
300F00
ENDCHAR
STARTCHAR C0038-&
ENCODING 38
SWIDTH 703 0
DWIDTH 15 0
BBX 14 15 1 0
BITMAP
1F00
3B80
3180
3180
3100
1F00
0E00
3E00
6330
C3B0
C1F0
C0F0
E060
7BF0
3F9C
ENDCHAR
STARTCHAR C0039-'
ENCODING 39
SWIDTH 187 0
DWIDTH 4 0
BBX 2 5 1 10
BITMAP
C0
C0
C0
C0
40
ENDCHAR
STARTCHAR C0040-(
ENCODING 40
SWIDTH 281 0
DWIDTH 6 0
BBX 5 20 1 -4
BITMAP
18
30
20
60
60
60
C0
C0
C0
C0
C0
C0
C0
C0
60
60
60
30
30
18
ENDCHAR
STARTCHAR C0041-)
ENCODING 41
SWIDTH 281 0
DWIDTH 6 0
BBX 5 20 0 -4
BITMAP
C0
60
60
30
30
30
10
18
18
18
18
18
18
30
30
30
20
60
40
C0
ENDCHAR
STARTCHAR C0042-*
ENCODING 42
SWIDTH 421 0
DWIDTH 9 0
BBX 7 7 1 8
BITMAP
10
12
DE
30
28
4C
44
ENDCHAR
STARTCHAR C0043-+
ENCODING 43
SWIDTH 656 0
DWIDTH 14 0
BBX 10 10 2 2
BITMAP
0C00
0C00
0C00
0C00
FFC0
FFC0
0C00
0C00
0C00
0C00
ENDCHAR
STARTCHAR C0044-,
ENCODING 44
SWIDTH 281 0
DWIDTH 6 0
BBX 3 5 1 -2
BITMAP
40
E0
60
20
40
ENDCHAR
STARTCHAR C0045--
ENCODING 45
SWIDTH 421 0
DWIDTH 9 0
BBX 7 1 1 5
BITMAP
FE
ENDCHAR
STARTCHAR C0046-.
ENCODING 46
SWIDTH 281 0
DWIDTH 6 0
BBX 3 3 1 0
BITMAP
40
E0
60
ENDCHAR
STARTCHAR C0047-/
ENCODING 47
SWIDTH 375 0
DWIDTH 8 0
BBX 8 15 0 0
BITMAP
03
06
06
0C
0C
0C
18
18
18
30
30
60
60
60
C0
ENDCHAR
STARTCHAR C0048-0
ENCODING 48
SWIDTH 703 0
DWIDTH 15 0
BBX 13 15 1 0
BITMAP
1F80
3DE0
7060
6030
E030
C030
C030
C038
C030
C030
E030
6030
7060
3FC0
1F80
ENDCHAR
STARTCHAR C0049-1
ENCODING 49
SWIDTH 375 0
DWIDTH 8 0
BBX 5 15 1 0
BITMAP
F8
F8
18
18
18
18
18
18
18
18
18
18
18
18
18
ENDCHAR
STARTCHAR C0050-2
ENCODING 50
SWIDTH 562 0
DWIDTH 12 0
BBX 10 15 1 0
BITMAP
3F00
7B80
E1C0
C0C0
C0C0
00C0
01C0
0180
0300
0600
1C00
3800
7000
FFC0
FFC0
ENDCHAR
STARTCHAR C0051-3
ENCODING 51
SWIDTH 562 0
DWIDTH 12 0
BBX 10 15 1 0
BITMAP
FFC0
FFC0
0380
0700
0E00
1C00
1F00
0380
01C0
00C0
C0C0
C0C0
C1C0
7F80
3F00
ENDCHAR
STARTCHAR C0052-4
ENCODING 52
SWIDTH 609 0
DWIDTH 13 0
BBX 11 15 1 0
BITMAP
03C0
03C0
06C0
0EC0
0CC0
18C0
30C0
30C0
60C0
C0C0
FFE0
FFE0
00C0
00C0
00C0
ENDCHAR
STARTCHAR C0053-5
ENCODING 53
SWIDTH 562 0
DWIDTH 12 0
BBX 11 15 1 0
BITMAP
3FC0
3FC0
2000
6000
6000
7F00
7F80
E0C0
00C0
00E0
C0E0
C0C0
E0C0
7F80
3F00
ENDCHAR
STARTCHAR C0054-6
ENCODING 54
SWIDTH 609 0
DWIDTH 13 0
BBX 11 15 1 0
BITMAP
0700
0E00
0C00
1800
3000
7F80
71C0
E0C0
C060
C060
C060
C0E0
60C0
7FC0
1F00
ENDCHAR
STARTCHAR C0055-7
ENCODING 55
SWIDTH 515 0
DWIDTH 11 0
BBX 11 15 0 0
BITMAP
FFE0
FFE0
00C0
00C0
01C0
0180
0180
0300
0300
0600
0600
0E00
0C00
0C00
1800
ENDCHAR
STARTCHAR C0056-8
ENCODING 56
SWIDTH 609 0
DWIDTH 13 0
BBX 11 15 1 0
BITMAP
3F80
7BC0
60C0
4060
60C0
60C0
3F80
3F80
60C0
C060
C060
C060
E0E0
7FC0
3F80
ENDCHAR
STARTCHAR C0057-9
ENCODING 57
SWIDTH 609 0
DWIDTH 13 0
BBX 11 15 1 0
BITMAP
3F00
7BC0
E0C0
C060
C060
C060
C060
E0C0
7BC0
3F80
0380
0300
0600
0C00
1C00
ENDCHAR
STARTCHAR C0058-:
ENCODING 58
SWIDTH 281 0
DWIDTH 6 0
BBX 3 11 2 0
BITMAP
40
E0
C0
00
00
00
00
00
40
E0
C0
ENDCHAR
STARTCHAR C0059-;
ENCODING 59
SWIDTH 281 0
DWIDTH 6 0
BBX 3 13 2 -2
BITMAP
40
E0
C0
00
00
00
00
00
80
C0
E0
40
80
ENDCHAR
STARTCHAR C0060-<
ENCODING 60
SWIDTH 656 0
DWIDTH 14 0
BBX 11 10 2 0
BITMAP
0040
03C0
1F80
FC00
E000
F000
3E00
0FC0
01C0
0020
ENDCHAR
STARTCHAR C0061-=
ENCODING 61
SWIDTH 656 0
DWIDTH 14 0
BBX 10 6 2 3
BITMAP
FFC0
0000
0000
0000
FFC0
FFC0
ENDCHAR
STARTCHAR C0062->
ENCODING 62
SWIDTH 656 0
DWIDTH 14 0
BBX 11 10 1 0
BITMAP
4000
7800
3F00
07C0
00E0
01E0
0F80
7C00
7000
8000
ENDCHAR
STARTCHAR C0063-?
ENCODING 63
SWIDTH 515 0
DWIDTH 11 0
BBX 9 15 1 0
BITMAP
3F00
7780
C180
C180
0180
0180
0380
0700
0E00
1800
1800
0000
0800
1C00
1800
ENDCHAR
STARTCHAR C0064-@
ENCODING 64
SWIDTH 890 0
DWIDTH 19 0
BBX 17 17 1 -2
BITMAP
07F800
1C0C00
300600
21C300
43F180
C63080
C41880
81F880
87D880
C61880
CC1880
467980
67CF00
200000
380400
0E1C00
07F000
ENDCHAR
STARTCHAR C0065-A
ENCODING 65
SWIDTH 656 0
DWIDTH 14 0
BBX 14 15 0 0
BITMAP
0300
0780
0780
0F80
0CC0
0CC0
18E0
1860
1860
3FF0
3FF0
3030
6018
6018
E01C
ENDCHAR
STARTCHAR C0066-B
ENCODING 66
SWIDTH 609 0
DWIDTH 13 0
BBX 11 15 2 0
BITMAP
FF00
FFC0
C0C0
C0C0
C0C0
C0C0
C380
FF00
C3C0
C0C0
C0C0
C0E0
C0C0
FFC0
FF00
ENDCHAR
STARTCHAR C0067-C
ENCODING 67
SWIDTH 750 0
DWIDTH 16 0
BBX 14 15 1 0
BITMAP
0FE0
3FF0
7038
6018
E01C
C000
C000
C000
C000
C000
E00C
6018
7838
3FF0
0FC0
ENDCHAR
STARTCHAR C0068-D
ENCODING 68
SWIDTH 703 0
DWIDTH 15 0
BBX 12 15 2 0
BITMAP
FF00
FFC0
C1E0
C060
C070
C030
C030
C030
C030
C030
C070
C060
C1C0
FF80
FF00
ENDCHAR
STARTCHAR C0069-E
ENCODING 69
SWIDTH 562 0
DWIDTH 12 0
BBX 9 15 2 0
BITMAP
FF80
FF80
C000
C000
C000
C000
FF00
FF00
C000
C000
C000
C000
C000
FF80
FF80
ENDCHAR
STARTCHAR C0070-F
ENCODING 70
SWIDTH 562 0
DWIDTH 12 0
BBX 9 15 2 0
BITMAP
FF80
FF80
C000
C000
C000
C000
C000
FF00
FF00
C000
C000
C000
C000
C000
C000
ENDCHAR
STARTCHAR C0071-G
ENCODING 71
SWIDTH 750 0
DWIDTH 16 0
BBX 14 15 1 0
BITMAP
0FE0
3FF0
7038
6018
E004
C000
C000
C1FC
C00C
C00C
E00C
601C
383C
3FEC
0FCC
ENDCHAR
STARTCHAR C0072-H
ENCODING 72
SWIDTH 703 0
DWIDTH 15 0
BBX 11 15 2 0
BITMAP
C060
C060
C060
C060
C060
C060
FFE0
FFE0
C060
C060
C060
C060
C060
C060
C060
ENDCHAR
STARTCHAR C0073-I
ENCODING 73
SWIDTH 281 0
DWIDTH 6 0
BBX 2 15 2 0
BITMAP
C0
C0
C0
C0
C0
C0
C0
C0
C0
C0
C0
C0
C0
C0
C0
ENDCHAR
STARTCHAR C0074-J
ENCODING 74
SWIDTH 515 0
DWIDTH 11 0
BBX 9 15 0 0
BITMAP
0180
0180
0180
0180
0180
0180
0180
0180
0180
0180
C180
6180
6180
7F80
3E00
ENDCHAR
STARTCHAR C0075-K
ENCODING 75
SWIDTH 656 0
DWIDTH 14 0
BBX 11 15 2 0
BITMAP
C0E0
C1C0
C380
C300
C600
CE00
DC00
DE00
F600
E700
E300
C180
C1C0
C0C0
C0E0
ENDCHAR
STARTCHAR C0076-L
ENCODING 76
SWIDTH 515 0
DWIDTH 11 0
BBX 8 15 2 0
BITMAP
C0
C0
C0
C0
C0
C0
C0
C0
C0
C0
C0
C0
C0
FF
FF
ENDCHAR
STARTCHAR C0077-M
ENCODING 77
SWIDTH 843 0
DWIDTH 18 0
BBX 14 15 2 0
BITMAP
C00C
C00C
E01C
E01C
F03C
F03C
D86C
D86C
D86C
CCCC
CCCC
C78C
C78C
C78C
C30C
ENDCHAR
STARTCHAR C0078-N
ENCODING 78
SWIDTH 703 0
DWIDTH 15 0
BBX 12 15 2 0
BITMAP
C030
E030
F030
F030
D830
DC30
CC30
C630
C730
C330
C1B0
C1F0
C0F0
C070
C070
ENDCHAR
STARTCHAR C0079-O
ENCODING 79
SWIDTH 750 0
DWIDTH 16 0
BBX 14 15 1 0
BITMAP
0FE0
3FF0
7038
6018
E00C
C00C
C00C
C00C
C00C
C00C
E00C
6018
3838
1FF0
0FC0
ENDCHAR
STARTCHAR C0080-P
ENCODING 80
SWIDTH 609 0
DWIDTH 13 0
BBX 11 15 2 0
BITMAP
FF00
FF80
C0C0
C0C0
C0E0
C0C0
C0C0
C1C0
FF80
FC00
C000
C000
C000
C000
C000
ENDCHAR
STARTCHAR C0081-Q
ENCODING 81
SWIDTH 750 0
DWIDTH 16 0
BBX 14 16 1 -1
BITMAP
0FE0
3FF0
7038
6018
E00C
C00C
C00C
C00C
C00C
C04C
E0CC
6078
3838
1FF8
0FDC
0008
ENDCHAR
STARTCHAR C0082-R
ENCODING 82
SWIDTH 656 0
DWIDTH 14 0
BBX 11 15 2 0
BITMAP
FF00
FFC0
C0C0
C0E0
C060
C0E0
C0C0
FF80
FF00
C300
C380
C180
C1C0
C0C0
C0E0
ENDCHAR
STARTCHAR C0083-S
ENCODING 83
SWIDTH 562 0
DWIDTH 12 0
BBX 10 15 1 0
BITMAP
3F00
7F80
C1C0
C0C0
C000
E000
7C00
3F00
07C0
00C0
00C0
C0C0
C0C0
7F80
3F00
ENDCHAR
STARTCHAR C0084-T
ENCODING 84
SWIDTH 562 0
DWIDTH 12 0
BBX 11 15 0 0
BITMAP
FFE0
FFE0
0600
0600
0600
0600
0600
0600
0600
0600
0600
0600
0600
0600
0600
ENDCHAR
STARTCHAR C0085-U
ENCODING 85
SWIDTH 703 0
DWIDTH 15 0
BBX 11 15 2 0
BITMAP
C060
C060
C060
C060
C060
C060
C060
C060
C060
C060
C060
C060
E0E0
7FC0
3F00
ENDCHAR
STARTCHAR C0086-V
ENCODING 86
SWIDTH 656 0
DWIDTH 14 0
BBX 14 15 0 0
BITMAP
E01C
6018
6018
3030
3030
3830
1860
1860
0CE0
0CC0
0CC0
0780
0780
0780
0300
ENDCHAR
STARTCHAR C0087-W
ENCODING 87
SWIDTH 984 0
DWIDTH 21 0
BBX 21 15 0 0
BITMAP
E07038
607030
607030
70D830
30D860
30D860
318C60
198CC0
198CC0
1B86C0
1F06C0
0F0780
0F0780
0E0380
060300
ENDCHAR
STARTCHAR C0088-X
ENCODING 88
SWIDTH 656 0
DWIDTH 14 0
BBX 13 16 0 0
BITMAP
8000
6038
3030
3860
18E0
0CC0
0F80
0780
0700
0780
0DC0
1CC0
18E0
3070
7030
E038
ENDCHAR
STARTCHAR C0089-Y
ENCODING 89
SWIDTH 609 0
DWIDTH 13 0
BBX 13 16 0 0
BITMAP
0008
E030
6070
3060
38C0
18C0
1D80
0D80
0700
0700
0600
0600
0600
0600
0600
0600
ENDCHAR
STARTCHAR C0090-Z
ENCODING 90
SWIDTH 562 0
DWIDTH 12 0
BBX 10 15 1 0
BITMAP
FFC0
FFC0
01C0
0180
0300
0700
0E00
0C00
1C00
3800
3000
6000
E000
FFC0
FFC0
ENDCHAR
STARTCHAR C0091-[
ENCODING 91
SWIDTH 281 0
DWIDTH 6 0
BBX 5 19 1 -2
BITMAP
F8
F8
C0
C0
C0
C0
C0
C0
C0
C0
C0
C0
C0
C0
C0
C0
C0
F8
F8
ENDCHAR
STARTCHAR C0092-\
ENCODING 92
SWIDTH 375 0
DWIDTH 8 0
BBX 8 15 0 0
BITMAP
C0
60
60
60
30
30
18
18
18
0C
0C
06
06
06
03
ENDCHAR
STARTCHAR C0093-]
ENCODING 93
SWIDTH 281 0
DWIDTH 6 0
BBX 5 19 0 -2
BITMAP
F8
F8
18
18
18
18
18
18
18
18
18
18
18
18
18
18
18
F8
F8
ENDCHAR
STARTCHAR C0094-^
ENCODING 94
SWIDTH 515 0
DWIDTH 11 0
BBX 8 7 1 8
BITMAP
18
1C
34
26
66
63
C3
ENDCHAR
STARTCHAR C0095-_
ENCODING 95
SWIDTH 515 0
DWIDTH 11 0
BBX 9 2 1 -2
BITMAP
FF80
FF80
ENDCHAR
STARTCHAR C0096-`
ENCODING 96
SWIDTH 234 0
DWIDTH 5 0
BBX 3 3 1 16
BITMAP
C0
60
60
ENDCHAR
STARTCHAR C0097-a
ENCODING 97
SWIDTH 515 0
DWIDTH 11 0
BBX 9 11 1 0
BITMAP
0800
7F00
6300
C180
0180
3F80
E180
C180
C380
E780
7D80
ENDCHAR
STARTCHAR C0098-b
ENCODING 98
SWIDTH 609 0
DWIDTH 13 0
BBX 11 15 1 0
BITMAP
C000
C000
C000
C000
C200
DF80
F1C0
E0C0
E060
C060
E060
E060
E0C0
DFC0
CF80
ENDCHAR
STARTCHAR C0099-c
ENCODING 99
SWIDTH 515 0
DWIDTH 11 0
BBX 10 11 1 0
BITMAP
0800
3F00
7380
C180
C040
C000
C000
C040
E180
7F80
3E00
ENDCHAR
STARTCHAR C0100-d
ENCODING 100
SWIDTH 609 0
DWIDTH 13 0
BBX 10 15 1 0
BITMAP
00C0
00C0
00C0
00C0
08C0
3EC0
73C0
C1C0
C0C0
C0C0
C0C0
C0C0
E1C0
7FC0
3EC0
ENDCHAR
STARTCHAR C0101-e
ENCODING 101
SWIDTH 515 0
DWIDTH 11 0
BBX 10 11 1 0
BITMAP
0800
3F00
6380
C180
C080
FFC0
C000
C040
C180
7780
3F00
ENDCHAR
STARTCHAR C0102-f
ENCODING 102
SWIDTH 328 0
DWIDTH 7 0
BBX 6 15 0 0
BITMAP
1C
38
30
30
30
FC
30
30
30
30
30
30
30
30
30
ENDCHAR
STARTCHAR C0103-g
ENCODING 103
SWIDTH 609 0
DWIDTH 13 0
BBX 10 16 1 -5
BITMAP
0800
3EC0
63C0
C1C0
C0C0
C0C0
C0C0
C0C0
61C0
7EC0
1CC0
00C0
C0C0
E180
7F80
1E00
ENDCHAR
STARTCHAR C0104-h
ENCODING 104
SWIDTH 562 0
DWIDTH 12 0
BBX 10 15 1 0
BITMAP
C000
C000
C000
C000
C400
DF80
F380
E1C0
E0C0
C0C0
C0C0
C0C0
C0C0
C0C0
C0C0
ENDCHAR
STARTCHAR C0105-i
ENCODING 105
SWIDTH 234 0
DWIDTH 5 0
BBX 3 15 1 0
BITMAP
E0
C0
00
00
00
C0
C0
C0
C0
C0
C0
C0
C0
C0
C0
ENDCHAR
STARTCHAR C0106-j
ENCODING 106
SWIDTH 234 0
DWIDTH 5 0
BBX 5 20 -1 -5
BITMAP
38
38
00
00
00
30
30
30
30
30
30
30
30
30
30
30
30
30
F0
E0
ENDCHAR
STARTCHAR C0107-k
ENCODING 107
SWIDTH 515 0
DWIDTH 11 0
BBX 9 15 1 0
BITMAP
C000
C000
C000
C000
C000
C380
C700
CE00
DC00
DC00
FE00
E600
C300
C380
C180
ENDCHAR
STARTCHAR C0108-l
ENCODING 108
SWIDTH 234 0
DWIDTH 5 0
BBX 2 15 1 0
BITMAP
C0
C0
C0
C0
C0
C0
C0
C0
C0
C0
C0
C0
C0
C0
C0
ENDCHAR
STARTCHAR C0109-m
ENCODING 109
SWIDTH 843 0
DWIDTH 18 0
BBX 16 11 1 0
BITMAP
0408
DF3E
F3CE
E1C7
E183
C183
C183
C183
C183
C183
C183
ENDCHAR
STARTCHAR C0110-n
ENCODING 110
SWIDTH 562 0
DWIDTH 12 0
BBX 10 11 1 0
BITMAP
0400
DF80
F380
E1C0
E0C0
C0C0
C0C0
C0C0
C0C0
C0C0
C0C0
ENDCHAR
STARTCHAR C0111-o
ENCODING 111
SWIDTH 562 0
DWIDTH 12 0
BBX 10 11 1 0
BITMAP
0400
3F00
7380
E0C0
C0C0
C0C0
C0C0
C0C0
E1C0
7F80
3F00
ENDCHAR
STARTCHAR C0112-p
ENCODING 112
SWIDTH 609 0
DWIDTH 13 0
BBX 11 16 1 -5
BITMAP
0200
DF80
F1C0
E0C0
E060
C060
E060
E060
E0C0
DFC0
CF80
C000
C000
C000
C000
C000
ENDCHAR
STARTCHAR C0113-q
ENCODING 113
SWIDTH 609 0
DWIDTH 13 0
BBX 10 16 1 -5
BITMAP
0800
3EC0
73C0
C1C0
C0C0
C0C0
C0C0
C0C0
E1C0
7FC0
3EC0
00C0
00C0
00C0
00C0
00C0
ENDCHAR
STARTCHAR C0114-r
ENCODING 114
SWIDTH 375 0
DWIDTH 8 0
BBX 6 10 1 0
BITMAP
DC
F8
E0
E0
C0
C0
C0
C0
C0
C0
ENDCHAR
STARTCHAR C0115-s
ENCODING 115
SWIDTH 421 0
DWIDTH 9 0
BBX 8 11 1 0
BITMAP
10
7E
C6
C2
C0
78
1E
02
C3
EE
7C
ENDCHAR
STARTCHAR C0116-t
ENCODING 116
SWIDTH 328 0
DWIDTH 7 0
BBX 6 13 0 0
BITMAP
30
30
30
FC
30
30
30
30
30
30
30
30
30
ENDCHAR
STARTCHAR C0117-u
ENCODING 117
SWIDTH 562 0
DWIDTH 12 0
BBX 9 10 1 0
BITMAP
C080
C080
C080
C080
C080
C180
C180
6180
7E80
3C80
ENDCHAR
STARTCHAR C0118-v
ENCODING 118
SWIDTH 515 0
DWIDTH 11 0
BBX 11 11 0 0
BITMAP
0020
E0C0
60C0
6180
3180
3180
3B00
1B00
1E00
0E00
0C00
ENDCHAR
STARTCHAR C0119-w
ENCODING 119
SWIDTH 750 0
DWIDTH 16 0
BBX 16 10 0 0
BITMAP
E183
63C6
63C6
33C6
366C
366C
366C
1C38
1C38
1C38
ENDCHAR
STARTCHAR C0120-x
ENCODING 120
SWIDTH 468 0
DWIDTH 10 0
BBX 10 11 0 0
BITMAP
8000
61C0
7380
3300
1E00
0E00
1E00
1E00
3300
6180
E1C0
ENDCHAR
STARTCHAR C0121-y
ENCODING 121
SWIDTH 468 0
DWIDTH 10 0
BBX 10 15 0 -5
BITMAP
E0C0
60C0
6180
3180
3100
3300
1B00
1E00
0E00
0E00
0C00
0C00
1800
F800
E000
ENDCHAR
STARTCHAR C0122-z
ENCODING 122
SWIDTH 468 0
DWIDTH 10 0
BBX 8 10 1 0
BITMAP
FF
07
0E
0C
18
30
70
60
FF
FF
ENDCHAR
STARTCHAR C0123-{
ENCODING 123
SWIDTH 328 0
DWIDTH 7 0
BBX 6 19 1 -2
BITMAP
1C
3C
30
30
30
30
30
30
E0
C0
60
30
30
30
30
30
30
3C
0C
ENDCHAR
STARTCHAR C0124-|
ENCODING 124
SWIDTH 328 0
DWIDTH 7 0
BBX 1 19 3 -2
BITMAP
80
80
80
80
80
80
80
80
80
80
80
80
80
80
80
80
80
80
80
ENDCHAR
STARTCHAR C0125-}
ENCODING 125
SWIDTH 328 0
DWIDTH 7 0
BBX 6 19 0 -2
BITMAP
E0
E0
30
30
30
30
30
30
3C
1C
38
30
30
30
30
30
30
E0
C0
ENDCHAR
STARTCHAR C0126-~
ENCODING 126
SWIDTH 656 0
DWIDTH 14 0
BBX 10 3 2 5
BITMAP
70C0
FCC0
8780
ENDCHAR
STARTCHAR C0127
ENCODING 127
SWIDTH 515 0
DWIDTH 11 0
BBX 8 23 1 -5
BITMAP
FF
81
81
81
81
81
81
81
81
81
81
81
81
81
81
81
81
81
81
81
81
81
FF
ENDCHAR
STARTCHAR C0128
ENCODING 128
SWIDTH 609 0
DWIDTH 13 0
BBX 12 15 0 0
BITMAP
03F0
0FF0
1C00
1800
3800
FFC0
FFC0
3000
FFC0
FFC0
3800
1800
0C00
0FF0
03F0
ENDCHAR
STARTCHAR C0129
ENCODING 129
SWIDTH 515 0
DWIDTH 11 0
BBX 8 23 1 -5
BITMAP
FF
81
81
81
81
81
81
81
81
81
81
81
81
81
81
81
81
81
81
81
81
81
FF
ENDCHAR
STARTCHAR C0130
ENCODING 130
SWIDTH 281 0
DWIDTH 6 0
BBX 3 5 1 -2
BITMAP
40
E0
60
20
40
ENDCHAR
STARTCHAR C0131
ENCODING 131
SWIDTH 562 0
DWIDTH 12 0
BBX 10 18 1 -3
BITMAP
03C0
07C0
0600
0600
0600
0E00
0C00
7FC0
0C00
0C00
0C00
0C00
0C00
1800
1800
1800
F800
F000
ENDCHAR
STARTCHAR C0132
ENCODING 132
SWIDTH 421 0
DWIDTH 9 0
BBX 7 5 1 -2
BITMAP
44
EE
6E
22
4C
ENDCHAR
STARTCHAR C0133
ENCODING 133
SWIDTH 703 0
DWIDTH 15 0
BBX 13 3 1 0
BITMAP
4210
E738
6338
ENDCHAR
STARTCHAR C0134
ENCODING 134
SWIDTH 328 0
DWIDTH 7 0
BBX 6 9 0 6
BITMAP
10
10
FC
10
10
10
10
10
10
ENDCHAR
STARTCHAR C0135
ENCODING 135
SWIDTH 328 0
DWIDTH 7 0
BBX 6 9 0 6
BITMAP
10
10
FC
FC
10
7C
7C
10
10
ENDCHAR
STARTCHAR C0136
ENCODING 136
SWIDTH 328 0
DWIDTH 7 0
BBX 6 3 1 16
BITMAP
70
58
CC
ENDCHAR
STARTCHAR C0137
ENCODING 137
SWIDTH 1312 0
DWIDTH 28 0
BBX 26 16 1 0
BITMAP
00010000
7C060000
E60C0000
C20C0000
C3180000
C2300000
6E600000
7CC00000
00C00000
019F0F80
031999C0
0630D0C0
0630F0C0
0C30D0C0
181B9D80
300F0F80
ENDCHAR
STARTCHAR C0138
ENCODING 138
SWIDTH 562 0
DWIDTH 12 0
BBX 10 19 1 0
BITMAP
3300
1E00
0C00
0000
3F00
7F80
C1C0
C0C0
C000
E000
7C00
3F00
07C0
00C0
00C0
C0C0
C0C0
7F80
3F00
ENDCHAR
STARTCHAR C0139
ENCODING 139
SWIDTH 421 0
DWIDTH 9 0
BBX 7 11 1 0
BITMAP
02
0C
18
30
60
E0
E0
70
38
18
0E
ENDCHAR
STARTCHAR C0140
ENCODING 140
SWIDTH 1125 0
DWIDTH 24 0
BBX 22 15 1 0
BITMAP
0FE7FC
3FF7FC
703E00
601E00
E00E00
C00E00
C00FF8
C007F8
C00E00
C00E00
E00E00
601E00
383E00
1FF7FC
0FC7FC
ENDCHAR
STARTCHAR C0141
ENCODING 141
SWIDTH 515 0
DWIDTH 11 0
BBX 8 23 1 -5
BITMAP
FF
81
81
81
81
81
81
81
81
81
81
81
81
81
81
81
81
81
81
81
81
81
FF
ENDCHAR
STARTCHAR C0142
ENCODING 142
SWIDTH 562 0
DWIDTH 12 0
BBX 10 19 1 0
BITMAP
3300
1E00
0C00
0000
FFC0
FFC0
01C0
0180
0300
0700
0E00
0C00
1C00
3800
3000
6000
E000
FFC0
FFC0
ENDCHAR
STARTCHAR C0143
ENCODING 143
SWIDTH 515 0
DWIDTH 11 0
BBX 8 23 1 -5
BITMAP
FF
81
81
81
81
81
81
81
81
81
81
81
81
81
81
81
81
81
81
81
81
81
FF
ENDCHAR
STARTCHAR C0144
ENCODING 144
SWIDTH 515 0
DWIDTH 11 0
BBX 8 23 1 -5
BITMAP
FF
81
81
81
81
81
81
81
81
81
81
81
81
81
81
81
81
81
81
81
81
81
FF
ENDCHAR
STARTCHAR C0145
ENCODING 145
SWIDTH 281 0
DWIDTH 6 0
BBX 3 4 1 11
BITMAP
60
C0
E0
60
ENDCHAR
STARTCHAR C0146
ENCODING 146
SWIDTH 281 0
DWIDTH 6 0
BBX 3 4 1 11
BITMAP
E0
60
20
40
ENDCHAR
STARTCHAR C0147
ENCODING 147
SWIDTH 421 0
DWIDTH 9 0
BBX 7 4 1 11
BITMAP
66
C8
EE
6E
ENDCHAR
STARTCHAR C0148
ENCODING 148
SWIDTH 421 0
DWIDTH 9 0
BBX 7 4 1 11
BITMAP
EE
6E
22
4C
ENDCHAR
STARTCHAR C0149
ENCODING 149
SWIDTH 375 0
DWIDTH 8 0
BBX 6 6 1 3
BITMAP
30
7C
FC
FC
FC
78
ENDCHAR
STARTCHAR C0150
ENCODING 150
SWIDTH 937 0
DWIDTH 20 0
BBX 18 1 1 5
BITMAP
FFFFC0
ENDCHAR
STARTCHAR C0151
ENCODING 151
SWIDTH 1171 0
DWIDTH 25 0
BBX 22 1 1 5
BITMAP
FFFFFC
ENDCHAR
STARTCHAR C0152
ENCODING 152
SWIDTH 375 0
DWIDTH 8 0
BBX 6 3 1 16
BITMAP
64
FC
88
ENDCHAR
STARTCHAR C0153
ENCODING 153
SWIDTH 609 0
DWIDTH 13 0
BBX 11 6 1 9
BITMAP
F420
4620
4660
4560
45A0
44A0
ENDCHAR
STARTCHAR C0154
ENCODING 154
SWIDTH 421 0
DWIDTH 9 0
BBX 8 15 1 0
BITMAP
66
2C
38
00
10
7E
C6
C2
C0
78
1E
02
C3
EE
7C
ENDCHAR
STARTCHAR C0155
ENCODING 155
SWIDTH 421 0
DWIDTH 9 0
BBX 7 10 1 0
BITMAP
E0
70
38
1C
0E
0C
18
30
70
E0
ENDCHAR
STARTCHAR C0156
ENCODING 156
SWIDTH 937 0
DWIDTH 20 0
BBX 18 11 1 0
BITMAP
040400
3F1F80
73B180
E0E0C0
C0E0C0
C0FFC0
C0C000
C0E000
E1E0C0
7FBBC0
3F1F00
ENDCHAR
STARTCHAR C0157
ENCODING 157
SWIDTH 515 0
DWIDTH 11 0
BBX 8 23 1 -5
BITMAP
FF
81
81
81
81
81
81
81
81
81
81
81
81
81
81
81
81
81
81
81
81
81
FF
ENDCHAR
STARTCHAR C0158
ENCODING 158
SWIDTH 468 0
DWIDTH 10 0
BBX 8 15 1 0
BITMAP
02
6C
3C
18
00
FF
07
0E
0C
18
30
70
60
FF
FF
ENDCHAR
STARTCHAR C0159
ENCODING 159
SWIDTH 609 0
DWIDTH 13 0
BBX 13 19 0 0
BITMAP
0D80
1D80
0000
0008
E030
6070
3060
38C0
18C0
1D80
0D80
0700
0700
0600
0600
0600
0600
0600
0600
ENDCHAR
STARTCHAR C0160
ENCODING 160
SWIDTH 515 0
DWIDTH 11 0
BBX 8 23 1 -5
BITMAP
FF
81
81
81
81
81
81
81
81
81
81
81
81
81
81
81
81
81
81
81
81
81
FF
ENDCHAR
STARTCHAR C0161
ENCODING 161
SWIDTH 281 0
DWIDTH 6 0
BBX 3 15 2 0
BITMAP
C0
E0
00
00
C0
C0
C0
C0
C0
C0
C0
C0
C0
C0
C0
ENDCHAR
STARTCHAR C0162
ENCODING 162
SWIDTH 562 0
DWIDTH 12 0
BBX 10 15 1 0
BITMAP
0C00
0C00
1E00
3F80
6180
C0C0
C000
C000
C000
E0C0
6180
3F80
0E00
0C00
0C00
ENDCHAR
STARTCHAR C0163
ENCODING 163
SWIDTH 609 0
DWIDTH 13 0
BBX 11 15 1 0
BITMAP
1F80
3BC0
60C0
60E0
6000
6000
6000
FF00
3000
3000
3060
3060
60E0
FFC0
FF80
ENDCHAR
STARTCHAR C0164
ENCODING 164
SWIDTH 656 0
DWIDTH 14 0
BBX 12 11 1 2
BITMAP
C630
7FE0
39C0
6060
6060
6060
6060
7060
39C0
FFF0
4220
ENDCHAR
STARTCHAR C0165
ENCODING 165
SWIDTH 609 0
DWIDTH 13 0
BBX 13 16 0 0
BITMAP
8008
6030
7070
3060
18E0
18C0
0D80
0D80
3FE0
3FE0
0300
3FE0
3FE0
0300
0300
0300
ENDCHAR
STARTCHAR C0166
ENCODING 166
SWIDTH 328 0
DWIDTH 7 0
BBX 1 19 3 -2
BITMAP
80
80
80
80
80
80
80
80
00
00
00
80
80
80
80
80
80
80
80
ENDCHAR
STARTCHAR C0167
ENCODING 167
SWIDTH 468 0
DWIDTH 10 0
BBX 8 15 1 0
BITMAP
7E
E7
C3
E0
7C
7F
C3
C3
C3
7E
1E
03
C3
66
7E
ENDCHAR
STARTCHAR C0168
ENCODING 168
SWIDTH 375 0
DWIDTH 8 0
BBX 6 3 1 16
BITMAP
4C
EC
48
ENDCHAR
STARTCHAR C0169
ENCODING 169
SWIDTH 796 0
DWIDTH 17 0
BBX 15 15 1 0
BITMAP
0FE0
1838
200C
6384
C7E6
CC62
8C02
8802
8C02
CC62
C7C6
6104
3008
1830
0FE0
ENDCHAR
STARTCHAR C0170
ENCODING 170
SWIDTH 515 0
DWIDTH 11 0
BBX 8 23 1 -5
BITMAP
FF
81
81
81
81
81
81
81
81
81
81
81
81
81
81
81
81
81
81
81
81
81
FF
ENDCHAR
STARTCHAR C0171
ENCODING 171
SWIDTH 656 0
DWIDTH 14 0
BBX 12 11 1 0
BITMAP
0210
0C60
18C0
3180
6380
E700
E300
7380
39C0
18E0
0E70
ENDCHAR
STARTCHAR C0172
ENCODING 172
SWIDTH 656 0
DWIDTH 14 0
BBX 11 5 1 2
BITMAP
FFE0
0060
0060
0060
0060
ENDCHAR
STARTCHAR C0173
ENCODING 173
SWIDTH 515 0
DWIDTH 11 0
BBX 8 23 1 -5
BITMAP
FF
81
81
81
81
81
81
81
81
81
81
81
81
81
81
81
81
81
81
81
81
81
FF
ENDCHAR
STARTCHAR C0174
ENCODING 174
SWIDTH 468 0
DWIDTH 10 0
BBX 9 9 1 7
BITMAP
0800
3600
7900
A500
A480
B900
A500
4300
3C00
ENDCHAR
STARTCHAR C0175
ENCODING 175
SWIDTH 375 0
DWIDTH 8 0
BBX 5 2 1 17
BITMAP
F8
F8
ENDCHAR
STARTCHAR C0176
ENCODING 176
SWIDTH 281 0
DWIDTH 6 0
BBX 6 5 0 10
BITMAP
78
48
CC
78
30
ENDCHAR
STARTCHAR C0177
ENCODING 177
SWIDTH 656 0
DWIDTH 14 0
BBX 10 13 2 0
BITMAP
0C00
0C00
0C00
0C00
FFC0
FFC0
0C00
0C00
0C00
0000
0000
FFC0
FFC0
ENDCHAR
STARTCHAR C0178
ENCODING 178
SWIDTH 328 0
DWIDTH 7 0
BBX 6 9 1 7
BITMAP
78
CC
8C
0C
08
10
60
C0
FC
ENDCHAR
STARTCHAR C0179
ENCODING 179
SWIDTH 328 0
DWIDTH 7 0
BBX 7 9 0 7
BITMAP
7E
04
18
38
0C
06
C6
46
7C
ENDCHAR
STARTCHAR C0180
ENCODING 180
SWIDTH 234 0
DWIDTH 5 0
BBX 3 3 1 16
BITMAP
60
40
C0
ENDCHAR
STARTCHAR C0181
ENCODING 181
SWIDTH 562 0
DWIDTH 12 0
BBX 9 15 1 -5
BITMAP
C080
C080
C080
C080
C080
C180
C180
E180
FE80
FE80
C000
C000
C000
C000
C000
ENDCHAR
STARTCHAR C0182
ENCODING 182
SWIDTH 562 0
DWIDTH 12 0
BBX 9 17 1 -2
BITMAP
7C80
FC80
FC80
FC80
FC80
FC80
FC80
7C80
0480
0480
0480
0480
0480
0480
0480
0480
0480
ENDCHAR
STARTCHAR C0183
ENCODING 183
SWIDTH 281 0
DWIDTH 6 0
BBX 4 4 1 4
BITMAP
20
70
F0
70
ENDCHAR
STARTCHAR C0184
ENCODING 184
SWIDTH 234 0
DWIDTH 5 0
BBX 3 5 1 -4
BITMAP
40
80
E0
20
E0
ENDCHAR
STARTCHAR C0185
ENCODING 185
SWIDTH 234 0
DWIDTH 5 0
BBX 4 9 0 7
BITMAP
F0
10
10
10
10
10
10
10
10
ENDCHAR
STARTCHAR C0186
ENCODING 186
SWIDTH 515 0
DWIDTH 11 0
BBX 8 23 1 -5
BITMAP
FF
81
81
81
81
81
81
81
81
81
81
81
81
81
81
81
81
81
81
81
81
81
FF
ENDCHAR
STARTCHAR C0187
ENCODING 187
SWIDTH 656 0
DWIDTH 14 0
BBX 12 10 1 0
BITMAP
E700
7180
39C0
1CE0
0E70
0C60
18C0
31C0
7380
E700
ENDCHAR
STARTCHAR C0188
ENCODING 188
SWIDTH 656 0
DWIDTH 14 0
BBX 13 15 0 0
BITMAP
E030
2030
2060
20C0
20C0
2180
2100
0300
0630
0470
0C50
1890
11F8
31F8
6010
ENDCHAR
STARTCHAR C0189
ENCODING 189
SWIDTH 656 0
DWIDTH 14 0
BBX 14 15 0 0
BITMAP
E030
2030
2060
20C0
20C0
2180
2100
0300
0678
044C
0C0C
1808
1010
3020
607C
ENDCHAR
STARTCHAR C0190
ENCODING 190
SWIDTH 656 0
DWIDTH 14 0
BBX 14 15 0 0
BITMAP
7818
1810
3030
1860
8C40
48C0
7980
0100
0318
0638
0428
0C48
18FC
10FC
3008
ENDCHAR
STARTCHAR C0191
ENCODING 191
SWIDTH 515 0
DWIDTH 11 0
BBX 9 15 1 0
BITMAP
0C00
0E00
0400
0C00
0C00
0C00
3800
7000
E000
C000
C180
C180
C180
7F00
3E00
ENDCHAR
STARTCHAR C0192
ENCODING 192
SWIDTH 656 0
DWIDTH 14 0
BBX 14 19 0 0
BITMAP
0E00
0600
0300
0000
0300
0780
0780
0F80
0CC0
0CC0
18E0
1860
1860
3FF0
3FF0
3030
6018
6018
E01C
ENDCHAR
STARTCHAR C0193
ENCODING 193
SWIDTH 656 0
DWIDTH 14 0
BBX 14 20 0 0
BITMAP
0040
0180
0180
0300
0000
0300
0780
0780
0F80
0CC0
0CC0
18E0
1860
1860
3FF0
3FF0
3030
6018
6018
E01C
ENDCHAR
STARTCHAR C0194
ENCODING 194
SWIDTH 656 0
DWIDTH 14 0
BBX 14 19 0 0
BITMAP
0700
0580
0CC0
0000
0300
0780
0780
0F80
0CC0
0CC0
18E0
1860
1860
3FF0
3FF0
3030
6018
6018
E01C
ENDCHAR
STARTCHAR C0195
ENCODING 195
SWIDTH 656 0
DWIDTH 14 0
BBX 14 19 0 0
BITMAP
0E40
0BC0
0000
0000
0300
0780
0780
0F80
0CC0
0CC0
18E0
1860
1860
3FF0
3FF0
3030
6018
6018
E01C
ENDCHAR
STARTCHAR C0196
ENCODING 196
SWIDTH 656 0
DWIDTH 14 0
BBX 14 19 0 0
BITMAP
0CC0
0DC0
0000
0000
0300
0780
0780
0F80
0CC0
0CC0
18E0
1860
1860
3FF0
3FF0
3030
6018
6018
E01C
ENDCHAR
STARTCHAR C0197
ENCODING 197
SWIDTH 656 0
DWIDTH 14 0
BBX 14 21 0 0
BITMAP
0700
0480
0C80
0780
0300
0000
0300
0780
0780
0F80
0CC0
0CC0
18E0
1860
1860
3FF0
3FF0
3030
6018
6018
E01C
ENDCHAR
STARTCHAR C0198
ENCODING 198
SWIDTH 890 0
DWIDTH 19 0
BBX 18 15 0 0
BITMAP
03FFC0
03FFC0
066000
066000
0E6000
0C6000
0C7F80
187F80
186000
3FE000
3FE000
306000
606000
607FC0
E07FC0
ENDCHAR
STARTCHAR C0199
ENCODING 199
SWIDTH 750 0
DWIDTH 16 0
BBX 14 19 1 -4
BITMAP
0FE0
3FF0
7038
6018
E01C
C000
C000
C000
C000
C000
E00C
6018
7838
3FF0
0FC0
0200
0380
0080
0380
ENDCHAR
STARTCHAR C0200
ENCODING 200
SWIDTH 562 0
DWIDTH 12 0
BBX 9 19 2 0
BITMAP
3000
1000
1800
0000
FF80
FF80
C000
C000
C000
C000
FF00
FF00
C000
C000
C000
C000
C000
FF80
FF80
ENDCHAR
STARTCHAR C0201
ENCODING 201
SWIDTH 562 0
DWIDTH 12 0
BBX 9 19 2 0
BITMAP
0600
0C00
0800
0000
FF80
FF80
C000
C000
C000
C000
FF00
FF00
C000
C000
C000
C000
C000
FF80
FF80
ENDCHAR
STARTCHAR C0202
ENCODING 202
SWIDTH 562 0
DWIDTH 12 0
BBX 9 19 2 0
BITMAP
1C00
3400
6600
0000
FF80
FF80
C000
C000
C000
C000
FF00
FF00
C000
C000
C000
C000
C000
FF80
FF80
ENDCHAR
STARTCHAR C0203
ENCODING 203
SWIDTH 562 0
DWIDTH 12 0
BBX 9 19 2 0
BITMAP
3600
7600
0000
0000
FF80
FF80
C000
C000
C000
C000
FF00
FF00
C000
C000
C000
C000
C000
FF80
FF80
ENDCHAR
STARTCHAR C0204
ENCODING 204
SWIDTH 281 0
DWIDTH 6 0
BBX 4 19 0 0
BITMAP
C0
60
30
00
30
30
30
30
30
30
30
30
30
30
30
30
30
30
30
ENDCHAR
STARTCHAR C0205
ENCODING 205
SWIDTH 281 0
DWIDTH 6 0
BBX 3 19 2 0
BITMAP
60
40
C0
00
C0
C0
C0
C0
C0
C0
C0
C0
C0
C0
C0
C0
C0
C0
C0
ENDCHAR
STARTCHAR C0206
ENCODING 206
SWIDTH 281 0
DWIDTH 6 0
BBX 6 19 0 0
BITMAP
70
58
CC
00
30
30
30
30
30
30
30
30
30
30
30
30
30
30
30
ENDCHAR
STARTCHAR C0207
ENCODING 207
SWIDTH 281 0
DWIDTH 6 0
BBX 6 19 0 0
BITMAP
C8
DC
00
00
30
30
30
30
30
30
30
30
30
30
30
30
30
30
30
ENDCHAR
STARTCHAR C0208
ENCODING 208
SWIDTH 703 0
DWIDTH 15 0
BBX 14 15 0 0
BITMAP
3FC0
3FF0
3078
3018
301C
300C
300C
FE0C
300C
300C
301C
3018
3070
3FE0
3FC0
ENDCHAR
STARTCHAR C0209
ENCODING 209
SWIDTH 703 0
DWIDTH 15 0
BBX 12 19 2 0
BITMAP
1C80
1780
2000
0000
C030
E030
F030
F030
D830
DC30
CC30
C630
C730
C330
C1B0
C1F0
C0F0
C070
C070
ENDCHAR
STARTCHAR C0210
ENCODING 210
SWIDTH 750 0
DWIDTH 16 0
BBX 14 19 1 0
BITMAP
0600
0200
0300
0000
0FE0
3FF0
7038
6018
E00C
C00C
C00C
C00C
C00C
C00C
E00C
6018
3838
1FF0
0FC0
ENDCHAR
STARTCHAR C0211
ENCODING 211
SWIDTH 750 0
DWIDTH 16 0
BBX 14 19 1 0
BITMAP
00C0
0180
0300
0000
0FE0
3FF0
7038
6018
E00C
C00C
C00C
C00C
C00C
C00C
E00C
6018
3838
1FF0
0FC0
ENDCHAR
STARTCHAR C0212
ENCODING 212
SWIDTH 750 0
DWIDTH 16 0
BBX 14 19 1 0
BITMAP
0380
0680
0CC0
0000
0FE0
3FF0
7038
6018
E00C
C00C
C00C
C00C
C00C
C00C
E00C
6018
3838
1FF0
0FC0
ENDCHAR
STARTCHAR C0213
ENCODING 213
SWIDTH 750 0
DWIDTH 16 0
BBX 14 19 1 0
BITMAP
0E40
0BC0
0000
0000
0FE0
3FF0
7038
6018
E00C
C00C
C00C
C00C
C00C
C00C
E00C
6018
3838
1FF0
0FC0
ENDCHAR
STARTCHAR C0214
ENCODING 214
SWIDTH 750 0
DWIDTH 16 0
BBX 14 19 1 0
BITMAP
04C0
0EC0
0000
0000
0FE0
3FF0
7038
6018
E00C
C00C
C00C
C00C
C00C
C00C
E00C
6018
3838
1FF0
0FC0
ENDCHAR
STARTCHAR C0215
ENCODING 215
SWIDTH 656 0
DWIDTH 14 0
BBX 10 10 2 2
BITMAP
4080
E1C0
7380
3F00
1E00
1E00
3F00
7380
E1C0
4080
ENDCHAR
STARTCHAR C0216
ENCODING 216
SWIDTH 750 0
DWIDTH 16 0
BBX 14 15 1 0
BITMAP
0FFC
3FF8
7038
6078
E0CC
C0CC
C18C
C30C
C60C
C60C
EC0C
7818
3038
3FF0
EFC0
ENDCHAR
STARTCHAR C0217
ENCODING 217
SWIDTH 703 0
DWIDTH 15 0
BBX 11 19 2 0
BITMAP
1800
0C00
0400
0000
C060
C060
C060
C060
C060
C060
C060
C060
C060
C060
C060
C060
E0E0
7FC0
3F00
ENDCHAR
STARTCHAR C0218
ENCODING 218
SWIDTH 703 0
DWIDTH 15 0
BBX 11 19 2 0
BITMAP
0300
0600
0400
0000
C060
C060
C060
C060
C060
C060
C060
C060
C060
C060
C060
C060
E0E0
7FC0
3F00
ENDCHAR
STARTCHAR C0219
ENCODING 219
SWIDTH 703 0
DWIDTH 15 0
BBX 11 19 2 0
BITMAP
0E00
1B00
1100
0000
C060
C060
C060
C060
C060
C060
C060
C060
C060
C060
C060
C060
E0E0
7FC0
3F00
ENDCHAR
STARTCHAR C0220
ENCODING 220
SWIDTH 703 0
DWIDTH 15 0
BBX 11 19 2 0
BITMAP
1B00
1B00
0000
0000
C060
C060
C060
C060
C060
C060
C060
C060
C060
C060
C060
C060
E0E0
7FC0
3F00
ENDCHAR
STARTCHAR C0221
ENCODING 221
SWIDTH 609 0
DWIDTH 13 0
BBX 13 19 0 0
BITMAP
0180
0300
0200
0008
E030
6070
3060
38C0
18C0
1D80
0D80
0700
0700
0600
0600
0600
0600
0600
0600
ENDCHAR
STARTCHAR C0222
ENCODING 222
SWIDTH 609 0
DWIDTH 13 0
BBX 11 15 2 0
BITMAP
C000
C000
C000
FF00
FFC0
C0C0
C0C0
C0E0
C0C0
C1C0
FF80
FF00
C000
C000
C000
ENDCHAR
STARTCHAR C0223
ENCODING 223
SWIDTH 562 0
DWIDTH 12 0
BBX 11 15 1 0
BITMAP
3F00
7380
6180
4180
C180
C380
CF00
C380
C0C0
C0C0
C0E0
C0C0
C1C0
CF80
CF00
ENDCHAR
STARTCHAR C0224
ENCODING 224
SWIDTH 515 0
DWIDTH 11 0
BBX 9 14 1 0
BITMAP
3000
1800
0800
0800
7F00
6300
C180
0180
3F80
E180
C180
C380
E780
7D80
ENDCHAR
STARTCHAR C0225
ENCODING 225
SWIDTH 515 0
DWIDTH 11 0
BBX 9 14 1 0
BITMAP
0600
0400
0C00
0800
7F00
6300
C180
0180
3F80
E180
C180
C380
E780
7D80
ENDCHAR
STARTCHAR C0226
ENCODING 226
SWIDTH 515 0
DWIDTH 11 0
BBX 9 14 1 0
BITMAP
1C00
1600
3300
0800
7F00
6300
C180
0180
3F80
E180
C180
C380
E780
7D80
ENDCHAR
STARTCHAR C0227
ENCODING 227
SWIDTH 515 0
DWIDTH 11 0
BBX 9 14 1 0
BITMAP
3900
6F00
0000
0800
7F00
6300
C180
0180
3F80
E180
C180
C380
E780
7D80
ENDCHAR
STARTCHAR C0228
ENCODING 228
SWIDTH 515 0
DWIDTH 11 0
BBX 9 14 1 0
BITMAP
3700
3600
0000
0800
7F00
6300
C180
0180
3F80
E180
C180
C380
E780
7D80
ENDCHAR
STARTCHAR C0229
ENCODING 229
SWIDTH 515 0
DWIDTH 11 0
BBX 9 16 1 0
BITMAP
1E00
3200
3200
1E00
0C00
0800
7F00
6300
C180
0180
3F80
E180
C180
C380
E780
7D80
ENDCHAR
STARTCHAR C0230
ENCODING 230
SWIDTH 890 0
DWIDTH 19 0
BBX 17 11 1 0
BITMAP
081000
7E7E00
63C700
C18300
018180
3FFF80
F18000
C18000
C1C380
E6E700
7C7E00
ENDCHAR
STARTCHAR C0231
ENCODING 231
SWIDTH 515 0
DWIDTH 11 0
BBX 10 15 1 -4
BITMAP
0800
3F00
7380
C180
C040
C000
C000
C040
E180
7F80
3E00
0800
0E00
0200
0C00
ENDCHAR
STARTCHAR C0232
ENCODING 232
SWIDTH 515 0
DWIDTH 11 0
BBX 10 15 1 0
BITMAP
2000
1000
1800
0C00
0800
3F00
6380
C180
C080
FFC0
C000
C040
C180
7780
3F00
ENDCHAR
STARTCHAR C0233
ENCODING 233
SWIDTH 515 0
DWIDTH 11 0
BBX 10 14 1 0
BITMAP
0600
0400
0C00
0800
3F00
6380
C180
C080
FFC0
C000
C040
C180
7780
3F00
ENDCHAR
STARTCHAR C0234
ENCODING 234
SWIDTH 515 0
DWIDTH 11 0
BBX 10 14 1 0
BITMAP
1C00
1600
3300
0800
3F00
6380
C180
C080
FFC0
C000
C040
C180
7780
3F00
ENDCHAR
STARTCHAR C0235
ENCODING 235
SWIDTH 515 0
DWIDTH 11 0
BBX 10 14 1 0
BITMAP
3700
3600
0000
0800
3F00
6380
C180
C080
FFC0
C000
C040
C180
7780
3F00
ENDCHAR
STARTCHAR C0236
ENCODING 236
SWIDTH 234 0
DWIDTH 5 0
BBX 3 14 0 0
BITMAP
C0
60
20
00
60
60
60
60
60
60
60
60
60
60
ENDCHAR
STARTCHAR C0237
ENCODING 237
SWIDTH 234 0
DWIDTH 5 0
BBX 4 14 1 0
BITMAP
30
60
40
00
C0
C0
C0
C0
C0
C0
C0
C0
C0
C0
ENDCHAR
STARTCHAR C0238
ENCODING 238
SWIDTH 234 0
DWIDTH 5 0
BBX 5 14 0 0
BITMAP
70
D8
88
00
60
60
60
60
60
60
60
60
60
60
ENDCHAR
STARTCHAR C0239
ENCODING 239
SWIDTH 234 0
DWIDTH 5 0
BBX 5 14 0 0
BITMAP
D8
D8
00
00
60
60
60
60
60
60
60
60
60
60
ENDCHAR
STARTCHAR C0240
ENCODING 240
SWIDTH 562 0
DWIDTH 12 0
BBX 11 16 1 0
BITMAP
1000
0F80
0F00
1B00
0180
0180
3EC0
7FC0
E0C0
C0C0
C0E0
C0C0
C0C0
E0C0
7F80
3F00
ENDCHAR
STARTCHAR C0241
ENCODING 241
SWIDTH 562 0
DWIDTH 12 0
BBX 10 14 1 0
BITMAP
3D00
2700
0000
0400
DF80
F380
E1C0
E0C0
C0C0
C0C0
C0C0
C0C0
C0C0
C0C0
ENDCHAR
STARTCHAR C0242
ENCODING 242
SWIDTH 562 0
DWIDTH 12 0
BBX 10 14 1 0
BITMAP
1800
0800
0C00
0400
3F00
7380
E0C0
C0C0
C0C0
C0C0
C0C0
E1C0
7F80
3F00
ENDCHAR
STARTCHAR C0243
ENCODING 243
SWIDTH 562 0
DWIDTH 12 0
BBX 10 15 1 0
BITMAP
0100
0600
0600
0C00
0400
3F00
7380
E0C0
C0C0
C0C0
C0C0
C0C0
E1C0
7F80
3F00
ENDCHAR
STARTCHAR C0244
ENCODING 244
SWIDTH 562 0
DWIDTH 12 0
BBX 10 14 1 0
BITMAP
1E00
1A00
3300
0400
3F00
7380
E0C0
C0C0
C0C0
C0C0
C0C0
E1C0
7F80
3F00
ENDCHAR
STARTCHAR C0245
ENCODING 245
SWIDTH 562 0
DWIDTH 12 0
BBX 10 14 1 0
BITMAP
3D00
2700
0000
0400
3F00
7380
E0C0
C0C0
C0C0
C0C0
C0C0
E1C0
7F80
3F00
ENDCHAR
STARTCHAR C0246
ENCODING 246
SWIDTH 562 0
DWIDTH 12 0
BBX 10 14 1 0
BITMAP
3B00
3300
0000
0400
3F00
7380
E0C0
C0C0
C0C0
C0C0
C0C0
E1C0
7F80
3F00
ENDCHAR
STARTCHAR C0247
ENCODING 247
SWIDTH 656 0
DWIDTH 14 0
BBX 10 11 2 1
BITMAP
0C00
0C00
0C00
0000
0000
FFC0
0000
0000
0800
0C00
0C00
ENDCHAR
STARTCHAR C0248
ENCODING 248
SWIDTH 562 0
DWIDTH 12 0
BBX 10 12 1 -1
BITMAP
04C0
3F80
7380
E2C0
C6C0
CCC0
CCC0
D8C0
F1C0
7F80
7F00
E000
ENDCHAR
STARTCHAR C0249
ENCODING 249
SWIDTH 562 0
DWIDTH 12 0
BBX 9 15 1 0
BITMAP
2000
1800
1800
0C00
0000
C080
C080
C080
C080
C080
C180
C180
6180
7E80
3C80
ENDCHAR
STARTCHAR C0250
ENCODING 250
SWIDTH 562 0
DWIDTH 12 0
BBX 9 14 1 0
BITMAP
0600
0400
0C00
0000
C080
C080
C080
C080
C080
C180
C180
6180
7E80
3C80
ENDCHAR
STARTCHAR C0251
ENCODING 251
SWIDTH 562 0
DWIDTH 12 0
BBX 9 14 1 0
BITMAP
1C00
1600
3300
0000
C080
C080
C080
C080
C080
C180
C180
6180
7E80
3C80
ENDCHAR
STARTCHAR C0252
ENCODING 252
SWIDTH 562 0
DWIDTH 12 0
BBX 9 14 1 0
BITMAP
3700
3300
0000
0000
C080
C080
C080
C080
C080
C180
C180
6180
7E80
3C80
ENDCHAR
STARTCHAR C0253
ENCODING 253
SWIDTH 468 0
DWIDTH 10 0
BBX 10 19 0 -5
BITMAP
0300
0600
0400
0000
E0C0
60C0
6180
3180
3100
3300
1B00
1E00
0E00
0E00
0C00
0C00
1800
F800
E000
ENDCHAR
STARTCHAR C0254
ENCODING 254
SWIDTH 609 0
DWIDTH 13 0
BBX 11 20 1 -5
BITMAP
C000
C000
C000
C000
C200
DF80
F1C0
E0C0
E060
C060
E060
E060
E0C0
DFC0
CF80
C000
C000
C000
C000
C000
ENDCHAR
STARTCHAR C0255
ENCODING 255
SWIDTH 468 0
DWIDTH 10 0
BBX 10 19 0 -5
BITMAP
3B00
1B00
0000
0000
E0C0
60C0
6180
3180
3100
3300
1B00
1E00
0E00
0E00
0C00
0C00
1800
F800
E000
ENDCHAR
ENDFONT

