STARTFONT 2.1
COMMENT 
COMMENT This file has been produced by ttf2bdf written by Subhabrata Biswas
COMMENT 
COMMENT For comments, questions, bug reports, send a mail to
COMMENT                                           subhabrata.biswas@usa.net
COMMENT 
FONT -*-Satoshi-Bold-R-Normal--21-160-96-96-c-12--fontspecific
SIZE 16 96 96
FONTBOUNDINGBOX 37 26 -4 -5
STARTPROPERTIES 15
FOUNDRY "Misc"
FAMILY_NAME "Satoshi"
WEIGHT_NAME "Bold"
SLANT "R"
SETWIDTH_NAME "Normal"
PIXEL_SIZE 16
POINT_SIZE 160
RESOLUTION_X 96
RESOLUTION_Y 96
SPACING "C"
CHARSET_ENCODING "fontspecific"
FONT_ASCENT 21
FONT_DESCENT 5
DEFAULT_CHAR 0
COPYRIGHT "You may wish to put your copyright here"
ENDPROPERTIES
CHARS 224
STARTCHAR C0032- 
ENCODING 32
SWIDTH 281 0
DWIDTH 6 0
BBX 1 1 0 -1
BITMAP
00
ENDCHAR
STARTCHAR C0033-!
ENCODING 33
SWIDTH 328 0
DWIDTH 7 0
BBX 3 15 2 0
BITMAP
E0
E0
E0
E0
E0
E0
E0
E0
E0
C0
00
00
E0
E0
E0
ENDCHAR
STARTCHAR C0034-"
ENCODING 34
SWIDTH 421 0
DWIDTH 9 0
BBX 7 6 1 9
BITMAP
EE
EE
EE
66
44
44
ENDCHAR
STARTCHAR C0035-#
ENCODING 35
SWIDTH 703 0
DWIDTH 15 0
BBX 13 15 1 0
BITMAP
0E70
0C60
0C60
1C60
7FF8
7FF8
18E0
18C0
38C8
FFF0
FFF0
31C0
3180
7180
7380
ENDCHAR
STARTCHAR C0036-$
ENCODING 36
SWIDTH 562 0
DWIDTH 12 0
BBX 11 19 1 -2
BITMAP
0C00
0C00
3F80
7FC0
EDC0
ECC0
EC00
FC00
7E00
3F80
0FC0
0CE0
0CE0
ECE0
FDC0
7FC0
3F00
0C00
0C00
ENDCHAR
STARTCHAR C0037-%
ENCODING 37
SWIDTH 937 0
DWIDTH 20 0
BBX 18 16 1 0
BITMAP
100000
7E0700
EE0E00
C71C00
C31800
C73000
FE7000
7CE000
00C700
019F80
039DC0
0718C0
0638C0
0C18C0
1C1FC0
380F80
ENDCHAR
STARTCHAR C0038-&
ENCODING 38
SWIDTH 703 0
DWIDTH 15 0
BBX 14 16 1 0
BITMAP
0400
1F80
3F80
31C0
3180
3980
1F00
1E00
3E00
7738
E3B8
E1F0
E0F0
F0F0
7FF8
3F9C
ENDCHAR
STARTCHAR C0039-'
ENCODING 39
SWIDTH 234 0
DWIDTH 5 0
BBX 3 6 1 9
BITMAP
E0
E0
E0
60
40
40
ENDCHAR
STARTCHAR C0040-(
ENCODING 40
SWIDTH 281 0
DWIDTH 6 0
BBX 5 20 1 -4
BITMAP
18
30
30
70
60
60
E0
E0
E0
E0
E0
E0
E0
E0
60
60
70
30
38
18
ENDCHAR
STARTCHAR C0041-)
ENCODING 41
SWIDTH 281 0
DWIDTH 6 0
BBX 6 20 0 -4
BITMAP
E0
60
30
30
38
38
18
18
18
1C
18
18
18
18
38
38
30
70
60
C0
ENDCHAR
STARTCHAR C0042-*
ENCODING 42
SWIDTH 421 0
DWIDTH 9 0
BBX 7 8 1 8
BITMAP
10
10
92
FE
10
28
6C
44
ENDCHAR
STARTCHAR C0043-+
ENCODING 43
SWIDTH 656 0
DWIDTH 14 0
BBX 10 10 2 2
BITMAP
0C00
0C00
0C00
0C00
FFC0
FFC0
0C00
0C00
0C00
0C00
ENDCHAR
STARTCHAR C0044-,
ENCODING 44
SWIDTH 281 0
DWIDTH 6 0
BBX 4 5 1 -2
BITMAP
60
F0
70
20
60
ENDCHAR
STARTCHAR C0045--
ENCODING 45
SWIDTH 421 0
DWIDTH 9 0
BBX 7 3 1 4
BITMAP
FE
FE
FE
ENDCHAR
STARTCHAR C0046-.
ENCODING 46
SWIDTH 281 0
DWIDTH 6 0
BBX 4 3 1 0
BITMAP
60
F0
60
ENDCHAR
STARTCHAR C0047-/
ENCODING 47
SWIDTH 421 0
DWIDTH 9 0
BBX 9 16 0 0
BITMAP
0080
0300
0700
0600
0E00
0E00
0C00
1C00
1800
1800
3800
3000
7000
7000
6000
E000
ENDCHAR
STARTCHAR C0048-0
ENCODING 48
SWIDTH 703 0
DWIDTH 15 0
BBX 13 16 1 0
BITMAP
0200
1FC0
3FE0
70F0
6070
E030
E038
E038
E038
E038
E038
E030
7070
78E0
3FE0
1F80
ENDCHAR
STARTCHAR C0049-1
ENCODING 49
SWIDTH 375 0
DWIDTH 8 0
BBX 6 15 1 0
BITMAP
FC
FC
1C
1C
1C
1C
1C
1C
1C
1C
1C
1C
1C
1C
1C
ENDCHAR
STARTCHAR C0050-2
ENCODING 50
SWIDTH 562 0
DWIDTH 12 0
BBX 11 16 1 0
BITMAP
0400
3F80
7FC0
E1C0
E1C0
E0E0
01C0
01C0
0380
0780
0F00
1E00
3800
7FE0
FFE0
FFE0
ENDCHAR
STARTCHAR C0051-3
ENCODING 51
SWIDTH 562 0
DWIDTH 12 0
BBX 11 15 0 0
BITMAP
7FE0
7FE0
01C0
0380
0700
0F00
0FC0
03E0
00E0
00E0
E060
60E0
71E0
3FC0
1F80
ENDCHAR
STARTCHAR C0052-4
ENCODING 52
SWIDTH 656 0
DWIDTH 14 0
BBX 12 15 1 0
BITMAP
03C0
07C0
07C0
0FC0
1DC0
19C0
39C0
71C0
E1C0
E1C0
FFF0
FFF0
01C0
01C0
01C0
ENDCHAR
STARTCHAR C0053-5
ENCODING 53
SWIDTH 609 0
DWIDTH 13 0
BBX 11 15 1 0
BITMAP
3FC0
3FC0
7000
7000
6000
7F80
FFC0
E1E0
00E0
00E0
E0E0
E0E0
F1C0
7F80
3F00
ENDCHAR
STARTCHAR C0054-6
ENCODING 54
SWIDTH 609 0
DWIDTH 13 0
BBX 11 15 1 0
BITMAP
0700
0E00
1C00
1C00
3E00
7F80
7FC0
E0E0
E0E0
E060
E0E0
E0E0
71C0
7FC0
1F00
ENDCHAR
STARTCHAR C0055-7
ENCODING 55
SWIDTH 515 0
DWIDTH 11 0
BBX 11 15 0 0
BITMAP
FFE0
FFE0
00E0
00E0
01C0
01C0
0180
0380
0300
0700
0700
0E00
0E00
1C00
1C00
ENDCHAR
STARTCHAR C0056-8
ENCODING 56
SWIDTH 609 0
DWIDTH 13 0
BBX 12 16 1 0
BITMAP
0600
3FC0
7FC0
60E0
E0E0
60E0
79C0
3F80
3FC0
F1E0
E060
E070
E060
F1E0
7FC0
3F80
ENDCHAR
STARTCHAR C0057-9
ENCODING 57
SWIDTH 609 0
DWIDTH 13 0
BBX 11 16 1 0
BITMAP
0400
3F80
7FC0
F1E0
E0E0
E0E0
E0E0
E0E0
F1E0
7FC0
3FC0
0380
0700
0E00
0E00
1C00
ENDCHAR
STARTCHAR C0058-:
ENCODING 58
SWIDTH 328 0
DWIDTH 7 0
BBX 3 11 2 0
BITMAP
40
E0
E0
40
00
00
00
00
C0
E0
E0
ENDCHAR
STARTCHAR C0059-;
ENCODING 59
SWIDTH 328 0
DWIDTH 7 0
BBX 3 13 2 -2
BITMAP
40
E0
E0
40
00
00
00
00
C0
E0
E0
60
C0
ENDCHAR
STARTCHAR C0060-<
ENCODING 60
SWIDTH 656 0
DWIDTH 14 0
BBX 10 10 2 0
BITMAP
00C0
07C0
3F80
FC00
E000
F000
7F00
0FC0
03C0
0040
ENDCHAR
STARTCHAR C0061-=
ENCODING 61
SWIDTH 656 0
DWIDTH 14 0
BBX 10 7 2 3
BITMAP
FFC0
FFC0
FFC0
0000
0000
FFC0
FFC0
ENDCHAR
STARTCHAR C0062->
ENCODING 62
SWIDTH 656 0
DWIDTH 14 0
BBX 10 10 2 0
BITMAP
C000
F800
7F00
0FC0
01C0
07C0
3F80
FC00
E000
8000
ENDCHAR
STARTCHAR C0063-?
ENCODING 63
SWIDTH 562 0
DWIDTH 12 0
BBX 10 16 1 0
BITMAP
0C00
3F00
7F80
E1C0
E1C0
C1C0
01C0
0380
0700
0E00
1C00
1800
0000
1C00
1C00
1C00
ENDCHAR
STARTCHAR C0064-@
ENCODING 64
SWIDTH 937 0
DWIDTH 20 0
BBX 18 18 1 -2
BITMAP
00C000
07F800
1C0E00
380700
21E180
63F180
463880
C618C0
C1F8C0
C7F8C0
C618C0
C63880
47FD80
63CF00
300000
380400
0E1C00
07F800
ENDCHAR
STARTCHAR C0065-A
ENCODING 65
SWIDTH 656 0
DWIDTH 14 0
BBX 14 15 0 0
BITMAP
0780
0780
07C0
0FC0
0EC0
0CE0
1CE0
1C60
1870
3FF0
3FF0
7038
7038
701C
E01C
ENDCHAR
STARTCHAR C0066-B
ENCODING 66
SWIDTH 656 0
DWIDTH 14 0
BBX 11 15 2 0
BITMAP
FF80
FFC0
C1C0
C0E0
C0C0
C1C0
FF80
FF80
C3C0
C0E0
C0E0
C0E0
C3E0
FFC0
FF00
ENDCHAR
STARTCHAR C0067-C
ENCODING 67
SWIDTH 750 0
DWIDTH 16 0
BBX 14 16 1 0
BITMAP
0100
1FE0
3FF0
7878
703C
E01C
E000
E000
E000
E000
E000
E01C
703C
7C78
3FF0
0FC0
ENDCHAR
STARTCHAR C0068-D
ENCODING 68
SWIDTH 750 0
DWIDTH 16 0
BBX 13 15 2 0
BITMAP
FF80
FFC0
C1E0
C070
C070
C030
C038
C038
C038
C030
C070
C0F0
C7E0
FFC0
FF00
ENDCHAR
STARTCHAR C0069-E
ENCODING 69
SWIDTH 562 0
DWIDTH 12 0
BBX 9 15 2 0
BITMAP
FF80
FF80
C000
C000
C000
C000
FF80
FF80
C000
C000
C000
C000
C000
FF80
FF80
ENDCHAR
STARTCHAR C0070-F
ENCODING 70
SWIDTH 562 0
DWIDTH 12 0
BBX 9 15 2 0
BITMAP
FF80
FF80
C000
C000
C000
C000
FF00
FF00
FF00
C000
C000
C000
C000
C000
C000
ENDCHAR
STARTCHAR C0071-G
ENCODING 71
SWIDTH 750 0
DWIDTH 16 0
BBX 14 16 1 0
BITMAP
0100
0FE0
3FF8
7838
701C
E01C
E000
E1FC
E1FC
E1FC
E00C
E01C
701C
3C7C
3FEC
0FCC
ENDCHAR
STARTCHAR C0072-H
ENCODING 72
SWIDTH 750 0
DWIDTH 16 0
BBX 12 15 2 0
BITMAP
C070
C070
C070
C070
C070
C070
FFF0
FFF0
C070
C070
C070
C070
C070
C070
C070
ENDCHAR
STARTCHAR C0073-I
ENCODING 73
SWIDTH 281 0
DWIDTH 6 0
BBX 2 15 2 0
BITMAP
C0
C0
C0
C0
C0
C0
C0
C0
C0
C0
C0
C0
C0
C0
C0
ENDCHAR
STARTCHAR C0074-J
ENCODING 74
SWIDTH 562 0
DWIDTH 12 0
BBX 10 15 0 0
BITMAP
01C0
01C0
01C0
01C0
01C0
01C0
01C0
01C0
01C0
01C0
E1C0
61C0
73C0
7F80
3F00
ENDCHAR
STARTCHAR C0075-K
ENCODING 75
SWIDTH 656 0
DWIDTH 14 0
BBX 12 16 2 0
BITMAP
0010
C0E0
C1C0
C3C0
C380
C700
CE00
DE00
DE00
FF00
F380
E380
E1C0
C1C0
C0E0
C0F0
ENDCHAR
STARTCHAR C0076-L
ENCODING 76
SWIDTH 515 0
DWIDTH 11 0
BBX 9 15 2 0
BITMAP
C000
C000
C000
C000
C000
C000
C000
C000
C000
C000
C000
C000
C000
FF80
FF80
ENDCHAR
STARTCHAR C0077-M
ENCODING 77
SWIDTH 890 0
DWIDTH 19 0
BBX 15 15 2 0
BITMAP
E00E
E01E
E01E
F01E
F03E
F83E
D87E
D86E
DC6E
CCEE
CECE
C7CE
C78E
C78E
C38E
ENDCHAR
STARTCHAR C0078-N
ENCODING 78
SWIDTH 750 0
DWIDTH 16 0
BBX 12 15 2 0
BITMAP
E030
F030
F030
F830
DC30
DC30
CE30
C730
C730
C3B0
C1F0
C1F0
C0F0
C070
C070
ENDCHAR
STARTCHAR C0079-O
ENCODING 79
SWIDTH 796 0
DWIDTH 17 0
BBX 15 16 1 0
BITMAP
0100
1FE0
3FF0
7878
701C
E01C
E00C
E00E
E00E
E00C
E00C
E01C
703C
3CF8
1FF0
0FC0
ENDCHAR
STARTCHAR C0080-P
ENCODING 80
SWIDTH 609 0
DWIDTH 13 0
BBX 11 15 2 0
BITMAP
FF80
FFC0
C1C0
C0E0
C0E0
C0E0
C1E0
FFC0
FF80
FE00
C000
C000
C000
C000
C000
ENDCHAR
STARTCHAR C0081-Q
ENCODING 81
SWIDTH 796 0
DWIDTH 17 0
BBX 15 17 1 -1
BITMAP
0100
1FE0
3FF0
7878
701C
E01C
E00C
E00E
E00E
E08E
E1CC
E0FC
707C
3CF8
1FF8
0FDC
0008
ENDCHAR
STARTCHAR C0082-R
ENCODING 82
SWIDTH 656 0
DWIDTH 14 0
BBX 11 15 2 0
BITMAP
FF80
FFC0
C1E0
C0E0
C0E0
C0E0
C1E0
FFC0
FF80
C380
C380
C1C0
C1C0
C0E0
C0E0
ENDCHAR
STARTCHAR C0083-S
ENCODING 83
SWIDTH 562 0
DWIDTH 12 0
BBX 11 16 1 0
BITMAP
0C00
3F80
7FC0
E1C0
E0C0
E000
F000
7E00
3F80
0FC0
01E0
00E0
C0E0
F3C0
7FC0
3F00
ENDCHAR
STARTCHAR C0084-T
ENCODING 84
SWIDTH 562 0
DWIDTH 12 0
BBX 12 15 0 0
BITMAP
FFF0
FFF0
0700
0700
0700
0700
0700
0700
0700
0700
0700
0700
0700
0700
0700
ENDCHAR
STARTCHAR C0085-U
ENCODING 85
SWIDTH 703 0
DWIDTH 15 0
BBX 12 15 2 0
BITMAP
C070
C070
C070
C070
C070
C070
C070
C070
C070
C070
C070
E0E0
F9E0
7FC0
1F80
ENDCHAR
STARTCHAR C0086-V
ENCODING 86
SWIDTH 703 0
DWIDTH 15 0
BBX 14 15 0 0
BITMAP
E01C
701C
7018
3838
3838
3830
1C70
1C70
0CE0
0EE0
0EC0
07C0
07C0
0780
0380
ENDCHAR
STARTCHAR C0087-W
ENCODING 87
SWIDTH 1031 0
DWIDTH 22 0
BBX 21 16 0 0
BITMAP
800000
607838
707838
707838
70F830
38FC70
38DC70
39CC60
19CEE0
1D8EE0
1D86C0
0F86C0
0F87C0
0F07C0
0F0380
070380
ENDCHAR
STARTCHAR C0088-X
ENCODING 88
SWIDTH 656 0
DWIDTH 14 0
BBX 14 16 0 0
BITMAP
8004
7038
3838
3C70
1CE0
0EE0
0FC0
0780
0780
07C0
0FC0
1EE0
1CF0
3870
7838
F03C
ENDCHAR
STARTCHAR C0089-Y
ENCODING 89
SWIDTH 609 0
DWIDTH 13 0
BBX 13 16 0 0
BITMAP
8000
7038
7070
3870
38E0
1CE0
1DC0
0F80
0780
0700
0700
0700
0700
0700
0700
0700
ENDCHAR
STARTCHAR C0090-Z
ENCODING 90
SWIDTH 562 0
DWIDTH 12 0
BBX 11 15 1 0
BITMAP
FFE0
FFE0
01C0
03C0
0780
0700
0E00
1E00
1C00
3800
7000
F000
E000
FFE0
FFE0
ENDCHAR
STARTCHAR C0091-[
ENCODING 91
SWIDTH 281 0
DWIDTH 6 0
BBX 5 20 1 -2
BITMAP
F8
F8
E0
E0
E0
E0
E0
E0
E0
E0
E0
E0
E0
E0
E0
E0
E0
E0
F8
F8
ENDCHAR
STARTCHAR C0092-\
ENCODING 92
SWIDTH 421 0
DWIDTH 9 0
BBX 9 15 0 0
BITMAP
E000
6000
7000
7000
3000
3800
1800
1C00
1C00
0C00
0E00
0600
0700
0700
0380
ENDCHAR
STARTCHAR C0093-]
ENCODING 93
SWIDTH 281 0
DWIDTH 6 0
BBX 5 20 0 -2
BITMAP
F8
F8
18
18
18
18
18
18
18
18
18
18
18
18
18
18
18
18
F8
F8
ENDCHAR
STARTCHAR C0094-^
ENCODING 94
SWIDTH 515 0
DWIDTH 11 0
BBX 8 7 1 8
BITMAP
1C
3C
36
36
67
63
E3
ENDCHAR
STARTCHAR C0095-_
ENCODING 95
SWIDTH 515 0
DWIDTH 11 0
BBX 9 2 1 -2
BITMAP
FF80
FF80
ENDCHAR
STARTCHAR C0096-`
ENCODING 96
SWIDTH 281 0
DWIDTH 6 0
BBX 4 3 1 16
BITMAP
E0
60
30
ENDCHAR
STARTCHAR C0097-a
ENCODING 97
SWIDTH 562 0
DWIDTH 12 0
BBX 9 11 1 0
BITMAP
1C00
7F00
F780
E180
0180
7F80
F180
E180
E380
FF80
7D80
ENDCHAR
STARTCHAR C0098-b
ENCODING 98
SWIDTH 609 0
DWIDTH 13 0
BBX 11 16 1 0
BITMAP
E000
E000
E000
E000
E000
E300
EFC0
FFC0
F0E0
E0E0
E060
E060
E0E0
F1E0
FFC0
EF80
ENDCHAR
STARTCHAR C0099-c
ENCODING 99
SWIDTH 562 0
DWIDTH 12 0
BBX 10 11 1 0
BITMAP
0C00
3F00
7F80
E1C0
C000
C000
C000
E1C0
E1C0
7F80
3F00
ENDCHAR
STARTCHAR C0100-d
ENCODING 100
SWIDTH 609 0
DWIDTH 13 0
BBX 11 16 1 0
BITMAP
00E0
00E0
00E0
00E0
00E0
0CE0
3FE0
7FE0
E1E0
C0E0
C0E0
C0E0
E0E0
F1E0
7FE0
3EE0
ENDCHAR
STARTCHAR C0101-e
ENCODING 101
SWIDTH 562 0
DWIDTH 12 0
BBX 10 11 1 0
BITMAP
0C00
3F00
7F80
E1C0
C1C0
FFC0
C000
E000
E1C0
7F80
3F00
ENDCHAR
STARTCHAR C0102-f
ENCODING 102
SWIDTH 328 0
DWIDTH 7 0
BBX 7 16 0 0
BITMAP
06
1E
3E
38
30
30
FE
FE
30
30
30
30
30
30
30
30
ENDCHAR
STARTCHAR C0103-g
ENCODING 103
SWIDTH 609 0
DWIDTH 13 0
BBX 11 16 1 -5
BITMAP
0C00
3EE0
7FE0
E1E0
C0E0
C0E0
C0E0
E1E0
7FE0
7FE0
1CE0
00C0
E0C0
F3C0
7F80
1F00
ENDCHAR
STARTCHAR C0104-h
ENCODING 104
SWIDTH 562 0
DWIDTH 12 0
BBX 10 16 1 0
BITMAP
E000
E000
E000
E000
E000
E600
FF80
FFC0
F1C0
E1C0
E0C0
E0C0
E0C0
E0C0
E0C0
E0C0
ENDCHAR
STARTCHAR C0105-i
ENCODING 105
SWIDTH 234 0
DWIDTH 5 0
BBX 3 16 1 0
BITMAP
40
E0
E0
40
00
00
E0
E0
E0
E0
E0
E0
E0
E0
E0
E0
ENDCHAR
STARTCHAR C0106-j
ENCODING 106
SWIDTH 234 0
DWIDTH 5 0
BBX 5 21 -1 -5
BITMAP
10
38
38
10
00
00
38
38
38
38
38
38
38
38
38
38
38
38
38
F0
E0
ENDCHAR
STARTCHAR C0107-k
ENCODING 107
SWIDTH 515 0
DWIDTH 11 0
BBX 10 16 1 0
BITMAP
E000
E000
E000
E000
E000
E040
E380
E700
EE00
FC00
FE00
FE00
F700
E380
E380
E1C0
ENDCHAR
STARTCHAR C0108-l
ENCODING 108
SWIDTH 234 0
DWIDTH 5 0
BBX 3 16 1 0
BITMAP
E0
E0
E0
E0
E0
E0
E0
E0
E0
E0
E0
E0
E0
E0
E0
E0
ENDCHAR
STARTCHAR C0109-m
ENCODING 109
SWIDTH 890 0
DWIDTH 19 0
BBX 16 11 1 0
BITMAP
060C
FF3E
FFFF
E1C7
E1C3
E1C3
E1C3
E1C3
E1C3
E1C3
E1C3
ENDCHAR
STARTCHAR C0110-n
ENCODING 110
SWIDTH 562 0
DWIDTH 12 0
BBX 10 11 1 0
BITMAP
0600
FF80
FFC0
F1C0
E1C0
E0C0
E0C0
E0C0
E0C0
E0C0
E0C0
ENDCHAR
STARTCHAR C0111-o
ENCODING 111
SWIDTH 609 0
DWIDTH 13 0
BBX 11 11 1 0
BITMAP
0C00
3F80
7FC0
E1C0
C0E0
C0E0
C0E0
E0C0
F1C0
7F80
3F00
ENDCHAR
STARTCHAR C0112-p
ENCODING 112
SWIDTH 609 0
DWIDTH 13 0
BBX 11 16 1 -5
BITMAP
0200
EFC0
FFC0
F0E0
E0E0
E060
E060
E0E0
F1E0
FFC0
EF80
E000
E000
E000
E000
E000
ENDCHAR
STARTCHAR C0113-q
ENCODING 113
SWIDTH 609 0
DWIDTH 13 0
BBX 11 16 1 -5
BITMAP
0800
7EE0
7FE0
E1E0
C0E0
C0E0
C0E0
E0E0
F1E0
7FE0
3EE0
00E0
00E0
00E0
00E0
00E0
ENDCHAR
STARTCHAR C0114-r
ENCODING 114
SWIDTH 375 0
DWIDTH 8 0
BBX 7 11 1 0
BITMAP
04
FE
FE
F0
E0
E0
E0
E0
E0
E0
E0
ENDCHAR
STARTCHAR C0115-s
ENCODING 115
SWIDTH 468 0
DWIDTH 10 0
BBX 8 11 1 0
BITMAP
18
7E
E7
C7
E0
7C
1F
07
C7
FF
7E
ENDCHAR
STARTCHAR C0116-t
ENCODING 116
SWIDTH 328 0
DWIDTH 7 0
BBX 7 14 0 0
BITMAP
38
38
38
38
FE
FE
38
38
38
38
38
38
38
38
ENDCHAR
STARTCHAR C0117-u
ENCODING 117
SWIDTH 562 0
DWIDTH 12 0
BBX 10 10 1 0
BITMAP
E1C0
E1C0
E1C0
E1C0
E1C0
E1C0
E1C0
F3C0
7FC0
3DC0
ENDCHAR
STARTCHAR C0118-v
ENCODING 118
SWIDTH 515 0
DWIDTH 11 0
BBX 11 10 0 0
BITMAP
E0E0
70C0
71C0
3180
3980
3B80
1B00
1F00
0E00
0E00
ENDCHAR
STARTCHAR C0119-w
ENCODING 119
SWIDTH 796 0
DWIDTH 17 0
BBX 17 11 0 0
BITMAP
000080
E1C300
63C700
73E700
336600
336E00
3F6C00
3E7C00
1E3C00
1E3800
1C3800
ENDCHAR
STARTCHAR C0120-x
ENCODING 120
SWIDTH 515 0
DWIDTH 11 0
BBX 11 11 0 0
BITMAP
8020
71C0
7180
3B80
1F00
1E00
1E00
1F00
3B80
7180
E1C0
ENDCHAR
STARTCHAR C0121-y
ENCODING 121
SWIDTH 515 0
DWIDTH 11 0
BBX 11 15 0 -5
BITMAP
E0E0
70C0
71C0
3180
3980
3B80
1B00
1F00
0E00
0E00
0E00
0C00
1C00
F800
F000
ENDCHAR
STARTCHAR C0122-z
ENCODING 122
SWIDTH 468 0
DWIDTH 10 0
BBX 8 10 1 0
BITMAP
FF
FF
0F
1E
1C
38
70
E0
FF
FF
ENDCHAR
STARTCHAR C0123-{
ENCODING 123
SWIDTH 328 0
DWIDTH 7 0
BBX 6 20 1 -2
BITMAP
0C
1C
38
30
30
30
30
30
30
F0
E0
70
30
30
30
30
30
38
3C
1C
ENDCHAR
STARTCHAR C0124-|
ENCODING 124
SWIDTH 328 0
DWIDTH 7 0
BBX 2 19 3 -2
BITMAP
C0
C0
C0
C0
C0
C0
C0
C0
C0
C0
C0
C0
C0
C0
C0
C0
C0
C0
C0
ENDCHAR
STARTCHAR C0125-}
ENCODING 125
SWIDTH 328 0
DWIDTH 7 0
BBX 6 20 0 -2
BITMAP
C0
F0
70
30
30
30
30
30
38
1C
1C
38
30
30
30
30
30
30
F0
E0
ENDCHAR
STARTCHAR C0126-~
ENCODING 126
SWIDTH 656 0
DWIDTH 14 0
BBX 10 3 2 5
BITMAP
78C0
FFC0
C780
ENDCHAR
STARTCHAR C0127
ENCODING 127
SWIDTH 515 0
DWIDTH 11 0
BBX 8 23 1 -5
BITMAP
FF
81
81
81
81
81
81
81
81
81
81
81
81
81
81
81
81
81
81
81
81
81
FF
ENDCHAR
STARTCHAR C0128
ENCODING 128
SWIDTH 609 0
DWIDTH 13 0
BBX 12 16 0 0
BITMAP
0040
07F0
0FF0
1E00
1800
3800
FFC0
FFC0
3000
FFC0
FFC0
3800
1C00
1F10
0FF0
03F0
ENDCHAR
STARTCHAR C0129
ENCODING 129
SWIDTH 515 0
DWIDTH 11 0
BBX 8 23 1 -5
BITMAP
FF
81
81
81
81
81
81
81
81
81
81
81
81
81
81
81
81
81
81
81
81
81
FF
ENDCHAR
STARTCHAR C0130
ENCODING 130
SWIDTH 281 0
DWIDTH 6 0
BBX 4 6 1 -3
BITMAP
60
E0
70
20
60
80
ENDCHAR
STARTCHAR C0131
ENCODING 131
SWIDTH 609 0
DWIDTH 13 0
BBX 11 20 1 -4
BITMAP
0060
03E0
07E0
0700
0600
0600
0E00
7FE0
7FE0
7FE0
0E00
0E00
0C00
0C00
1C00
1C00
1C00
FC00
F800
F000
ENDCHAR
STARTCHAR C0132
ENCODING 132
SWIDTH 468 0
DWIDTH 10 0
BBX 8 6 1 -3
BITMAP
66
EE
77
22
66
88
ENDCHAR
STARTCHAR C0133
ENCODING 133
SWIDTH 796 0
DWIDTH 17 0
BBX 14 3 1 0
BITMAP
639C
F39C
639C
ENDCHAR
STARTCHAR C0134
ENCODING 134
SWIDTH 328 0
DWIDTH 7 0
BBX 7 9 0 6
BITMAP
10
10
FE
10
10
10
10
10
10
ENDCHAR
STARTCHAR C0135
ENCODING 135
SWIDTH 328 0
DWIDTH 7 0
BBX 7 9 0 6
BITMAP
10
10
FE
10
10
7E
7E
10
10
ENDCHAR
STARTCHAR C0136
ENCODING 136
SWIDTH 375 0
DWIDTH 8 0
BBX 6 3 1 16
BITMAP
78
78
CC
ENDCHAR
STARTCHAR C0137
ENCODING 137
SWIDTH 1359 0
DWIDTH 29 0
BBX 27 16 1 0
BITMAP
10000000
7E070000
EE0E0000
C71C0000
C3180000
C7300000
FE700000
7CE00000
00C70380
019F8FC0
039DCCE0
0718DC60
0638D860
0C18DC60
1C1FCFC0
380F87C0
ENDCHAR
STARTCHAR C0138
ENCODING 138
SWIDTH 562 0
DWIDTH 12 0
BBX 11 20 1 0
BITMAP
3300
1B00
1E00
0E00
0C00
3F80
7FC0
E1C0
E0C0
E000
F000
7E00
3F80
0FC0
01E0
00E0
C0E0
F3C0
7FC0
3F00
ENDCHAR
STARTCHAR C0139
ENCODING 139
SWIDTH 421 0
DWIDTH 9 0
BBX 8 11 1 0
BITMAP
01
0E
1C
38
70
E0
F0
78
38
1C
0F
ENDCHAR
STARTCHAR C0140
ENCODING 140
SWIDTH 1125 0
DWIDTH 24 0
BBX 22 16 1 0
BITMAP
010000
1FEFFC
3FFFFC
787E00
701E00
E01E00
E00E00
E00FF8
E00FF8
E00E00
E00E00
F01E00
703E00
3CFE00
1FFFFC
0FCFFC
ENDCHAR
STARTCHAR C0141
ENCODING 141
SWIDTH 515 0
DWIDTH 11 0
BBX 8 23 1 -5
BITMAP
FF
81
81
81
81
81
81
81
81
81
81
81
81
81
81
81
81
81
81
81
81
81
FF
ENDCHAR
STARTCHAR C0142
ENCODING 142
SWIDTH 562 0
DWIDTH 12 0
BBX 11 20 1 0
BITMAP
3300
3200
1E00
0C00
0000
FFE0
FFE0
01C0
03C0
0780
0700
0E00
1E00
1C00
3800
7000
F000
E000
FFE0
FFE0
ENDCHAR
STARTCHAR C0143
ENCODING 143
SWIDTH 515 0
DWIDTH 11 0
BBX 8 23 1 -5
BITMAP
FF
81
81
81
81
81
81
81
81
81
81
81
81
81
81
81
81
81
81
81
81
81
FF
ENDCHAR
STARTCHAR C0144
ENCODING 144
SWIDTH 515 0
DWIDTH 11 0
BBX 8 23 1 -5
BITMAP
FF
81
81
81
81
81
81
81
81
81
81
81
81
81
81
81
81
81
81
81
81
81
FF
ENDCHAR
STARTCHAR C0145
ENCODING 145
SWIDTH 281 0
DWIDTH 6 0
BBX 4 6 1 10
BITMAP
20
60
40
E0
70
60
ENDCHAR
STARTCHAR C0146
ENCODING 146
SWIDTH 281 0
DWIDTH 6 0
BBX 4 6 1 10
BITMAP
40
E0
70
20
60
40
ENDCHAR
STARTCHAR C0147
ENCODING 147
SWIDTH 468 0
DWIDTH 10 0
BBX 8 6 1 10
BITMAP
21
66
44
EE
77
62
ENDCHAR
STARTCHAR C0148
ENCODING 148
SWIDTH 468 0
DWIDTH 10 0
BBX 8 6 1 10
BITMAP
42
EE
77
23
66
44
ENDCHAR
STARTCHAR C0149
ENCODING 149
SWIDTH 421 0
DWIDTH 9 0
BBX 7 7 1 2
BITMAP
38
7C
FE
FE
FE
7C
10
ENDCHAR
STARTCHAR C0150
ENCODING 150
SWIDTH 984 0
DWIDTH 21 0
BBX 18 3 1 4
BITMAP
FFFFC0
FFFFC0
FFFFC0
ENDCHAR
STARTCHAR C0151
ENCODING 151
SWIDTH 1171 0
DWIDTH 25 0
BBX 23 3 1 4
BITMAP
FFFFFE
FFFFFE
FFFFFE
ENDCHAR
STARTCHAR C0152
ENCODING 152
SWIDTH 421 0
DWIDTH 9 0
BBX 7 3 1 16
BITMAP
F6
FE
84
ENDCHAR
STARTCHAR C0153
ENCODING 153
SWIDTH 656 0
DWIDTH 14 0
BBX 11 6 1 9
BITMAP
FE20
2620
2660
2560
25A0
24A0
ENDCHAR
STARTCHAR C0154
ENCODING 154
SWIDTH 468 0
DWIDTH 10 0
BBX 8 15 1 0
BITMAP
66
3C
3C
00
18
7E
E7
C7
E0
7C
1F
07
C7
FF
7E
ENDCHAR
STARTCHAR C0155
ENCODING 155
SWIDTH 421 0
DWIDTH 9 0
BBX 8 10 1 0
BITMAP
F0
78
3C
1C
0F
0E
1C
38
70
F0
ENDCHAR
STARTCHAR C0156
ENCODING 156
SWIDTH 937 0
DWIDTH 20 0
BBX 19 11 1 0
BITMAP
0C0600
3FBF80
7FFBC0
E1E0C0
C0E0C0
C0FFE0
C0E000
E0E020
F1F0C0
7FBFC0
3F1F80
ENDCHAR
STARTCHAR C0157
ENCODING 157
SWIDTH 515 0
DWIDTH 11 0
BBX 8 23 1 -5
BITMAP
FF
81
81
81
81
81
81
81
81
81
81
81
81
81
81
81
81
81
81
81
81
81
FF
ENDCHAR
STARTCHAR C0158
ENCODING 158
SWIDTH 468 0
DWIDTH 10 0
BBX 8 15 1 0
BITMAP
66
3C
3C
00
00
FF
FF
0F
1E
1C
38
70
E0
FF
FF
ENDCHAR
STARTCHAR C0159
ENCODING 159
SWIDTH 609 0
DWIDTH 13 0
BBX 13 20 0 0
BITMAP
0880
0DC0
0DC0
0000
8000
7038
7070
3870
38E0
1CE0
1DC0
0F80
0780
0700
0700
0700
0700
0700
0700
0700
ENDCHAR
STARTCHAR C0160
ENCODING 160
SWIDTH 515 0
DWIDTH 11 0
BBX 8 23 1 -5
BITMAP
FF
81
81
81
81
81
81
81
81
81
81
81
81
81
81
81
81
81
81
81
81
81
FF
ENDCHAR
STARTCHAR C0161
ENCODING 161
SWIDTH 328 0
DWIDTH 7 0
BBX 3 16 2 0
BITMAP
40
E0
E0
40
00
C0
E0
E0
E0
E0
E0
E0
E0
E0
E0
E0
ENDCHAR
STARTCHAR C0162
ENCODING 162
SWIDTH 562 0
DWIDTH 12 0
BBX 10 15 1 0
BITMAP
0C00
0C00
1F00
7F80
73C0
E1C0
E000
E000
E000
E1C0
7FC0
3F80
0E00
0C00
0C00
ENDCHAR
STARTCHAR C0163
ENCODING 163
SWIDTH 656 0
DWIDTH 14 0
BBX 12 16 1 0
BITMAP
0600
1F80
3FC0
70E0
60E0
6000
6000
FF00
FF00
3000
3800
3070
7070
E1E0
FFE0
FF80
ENDCHAR
STARTCHAR C0164
ENCODING 164
SWIDTH 703 0
DWIDTH 15 0
BBX 13 13 1 1
BITMAP
4010
EFB8
7FF0
38E0
7070
7070
6030
7070
3060
3FE0
FFF8
6730
4010
ENDCHAR
STARTCHAR C0165
ENCODING 165
SWIDTH 656 0
DWIDTH 14 0
BBX 13 16 0 0
BITMAP
8000
7038
3070
3870
1CE0
1CE0
0FC0
0F80
3FF0
3FF0
0300
3FF0
3FF0
0300
0300
0300
ENDCHAR
STARTCHAR C0166
ENCODING 166
SWIDTH 328 0
DWIDTH 7 0
BBX 2 19 3 -2
BITMAP
C0
C0
C0
C0
C0
C0
C0
C0
00
00
00
C0
C0
C0
C0
C0
C0
C0
C0
ENDCHAR
STARTCHAR C0167
ENCODING 167
SWIDTH 468 0
DWIDTH 10 0
BBX 8 16 1 0
BITMAP
18
7E
E7
C3
E0
7E
7F
C3
C3
E3
FE
1E
07
E7
FF
7E
ENDCHAR
STARTCHAR C0168
ENCODING 168
SWIDTH 421 0
DWIDTH 9 0
BBX 7 3 1 16
BITMAP
EC
EE
44
ENDCHAR
STARTCHAR C0169
ENCODING 169
SWIDTH 796 0
DWIDTH 17 0
BBX 15 16 1 0
BITMAP
0100
0FE0
3838
300C
638C
C7E6
CC66
CC02
CC02
CC62
CEE6
C7C6
600C
3018
1E70
0FE0
ENDCHAR
STARTCHAR C0170
ENCODING 170
SWIDTH 515 0
DWIDTH 11 0
BBX 8 23 1 -5
BITMAP
FF
81
81
81
81
81
81
81
81
81
81
81
81
81
81
81
81
81
81
81
81
81
FF
ENDCHAR
STARTCHAR C0171
ENCODING 171
SWIDTH 703 0
DWIDTH 15 0
BBX 13 11 1 0
BITMAP
0100
0E78
1CF0
38E0
71C0
E380
F380
79C0
38E0
1C70
0F38
ENDCHAR
STARTCHAR C0172
ENCODING 172
SWIDTH 656 0
DWIDTH 14 0
BBX 11 6 1 2
BITMAP
FFE0
FFE0
00E0
00E0
00E0
00E0
ENDCHAR
STARTCHAR C0173
ENCODING 173
SWIDTH 515 0
DWIDTH 11 0
BBX 8 23 1 -5
BITMAP
FF
81
81
81
81
81
81
81
81
81
81
81
81
81
81
81
81
81
81
81
81
81
FF
ENDCHAR
STARTCHAR C0174
ENCODING 174
SWIDTH 515 0
DWIDTH 11 0
BBX 9 9 1 7
BITMAP
1800
6600
5900
A480
A480
BC80
A500
4100
3E00
ENDCHAR
STARTCHAR C0175
ENCODING 175
SWIDTH 375 0
DWIDTH 8 0
BBX 6 2 1 17
BITMAP
FC
FC
ENDCHAR
STARTCHAR C0176
ENCODING 176
SWIDTH 328 0
DWIDTH 7 0
BBX 5 6 1 10
BITMAP
20
F0
98
98
F8
70
ENDCHAR
STARTCHAR C0177
ENCODING 177
SWIDTH 656 0
DWIDTH 14 0
BBX 10 13 2 0
BITMAP
0C00
0C00
0C00
0C00
FFC0
FFC0
0C00
0C00
0C00
0000
0000
FFC0
FFC0
ENDCHAR
STARTCHAR C0178
ENCODING 178
SWIDTH 375 0
DWIDTH 8 0
BBX 6 9 1 7
BITMAP
78
DC
8C
0C
18
38
60
FC
FC
ENDCHAR
STARTCHAR C0179
ENCODING 179
SWIDTH 328 0
DWIDTH 7 0
BBX 7 9 0 7
BITMAP
7E
06
18
38
3C
06
C6
6E
7C
ENDCHAR
STARTCHAR C0180
ENCODING 180
SWIDTH 281 0
DWIDTH 6 0
BBX 4 4 1 16
BITMAP
10
60
60
C0
ENDCHAR
STARTCHAR C0181
ENCODING 181
SWIDTH 562 0
DWIDTH 12 0
BBX 10 15 1 -5
BITMAP
E1C0
E1C0
E1C0
E1C0
E1C0
E1C0
E1C0
F3C0
FFC0
DFC0
E000
E000
E000
E000
E000
ENDCHAR
STARTCHAR C0182
ENCODING 182
SWIDTH 609 0
DWIDTH 13 0
BBX 10 17 1 -2
BITMAP
7E40
FE40
FE40
FE40
FE40
FE40
FE40
7E40
0E40
0E40
0E40
0E40
0E40
0E40
0E40
0E40
0E40
ENDCHAR
STARTCHAR C0183
ENCODING 183
SWIDTH 328 0
DWIDTH 7 0
BBX 5 4 1 4
BITMAP
70
70
F8
70
ENDCHAR
STARTCHAR C0184
ENCODING 184
SWIDTH 234 0
DWIDTH 5 0
BBX 4 5 1 -4
BITMAP
40
80
E0
30
E0
ENDCHAR
STARTCHAR C0185
ENCODING 185
SWIDTH 234 0
DWIDTH 5 0
BBX 4 9 0 7
BITMAP
F0
10
10
10
10
10
10
10
10
ENDCHAR
STARTCHAR C0186
ENCODING 186
SWIDTH 515 0
DWIDTH 11 0
BBX 8 23 1 -5
BITMAP
FF
81
81
81
81
81
81
81
81
81
81
81
81
81
81
81
81
81
81
81
81
81
FF
ENDCHAR
STARTCHAR C0187
ENCODING 187
SWIDTH 703 0
DWIDTH 15 0
BBX 13 10 1 0
BITMAP
F3C0
79C0
3CE0
1C70
0F38
0E78
1C70
38E0
71C0
F380
ENDCHAR
STARTCHAR C0188
ENCODING 188
SWIDTH 703 0
DWIDTH 15 0
BBX 14 15 0 0
BITMAP
F018
3030
3030
3060
30C0
30C0
3180
0308
0318
0638
0C28
0C48
18FC
30FC
7008
ENDCHAR
STARTCHAR C0189
ENCODING 189
SWIDTH 750 0
DWIDTH 16 0
BBX 15 15 0 0
BITMAP
F018
3030
3030
3060
30C0
30C0
3180
0318
033C
0666
0C06
0C04
1818
3030
703E
ENDCHAR
STARTCHAR C0190
ENCODING 190
SWIDTH 703 0
DWIDTH 15 0
BBX 15 15 0 0
BITMAP
7C0C
1818
3030
3830
8C60
4CC0
78C0
018C
030C
0314
0634
0C64
0C7E
187E
3004
ENDCHAR
STARTCHAR C0191
ENCODING 191
SWIDTH 562 0
DWIDTH 12 0
BBX 10 16 1 0
BITMAP
0400
0E00
0E00
0400
0000
0C00
0C00
3C00
7800
E000
E000
C1C0
E1C0
F380
7F80
3E00
ENDCHAR
STARTCHAR C0192
ENCODING 192
SWIDTH 656 0
DWIDTH 14 0
BBX 14 20 0 0
BITMAP
0E00
0600
0300
0300
0000
0780
0780
07C0
0FC0
0EC0
0CE0
1CE0
1C60
1870
3FF0
3FF0
7038
7038
701C
E01C
ENDCHAR
STARTCHAR C0193
ENCODING 193
SWIDTH 656 0
DWIDTH 14 0
BBX 14 20 0 0
BITMAP
00C0
0180
0180
0300
0000
0780
0780
07C0
0FC0
0EC0
0CE0
1CE0
1C60
1870
3FF0
3FF0
7038
7038
701C
E01C
ENDCHAR
STARTCHAR C0194
ENCODING 194
SWIDTH 656 0
DWIDTH 14 0
BBX 14 20 0 0
BITMAP
0380
0780
06C0
0CC0
0000
0780
0780
07C0
0FC0
0EC0
0CE0
1CE0
1C60
1870
3FF0
3FF0
7038
7038
701C
E01C
ENDCHAR
STARTCHAR C0195
ENCODING 195
SWIDTH 656 0
DWIDTH 14 0
BBX 14 20 0 0
BITMAP
0460
0F60
0BC0
0000
0000
0780
0780
07C0
0FC0
0EC0
0CE0
1CE0
1C60
1870
3FF0
3FF0
7038
7038
701C
E01C
ENDCHAR
STARTCHAR C0196
ENCODING 196
SWIDTH 656 0
DWIDTH 14 0
BBX 14 20 0 0
BITMAP
0440
0EC0
0CC0
0000
0000
0780
0780
07C0
0FC0
0EC0
0CE0
1CE0
1C60
1870
3FF0
3FF0
7038
7038
701C
E01C
ENDCHAR
STARTCHAR C0197
ENCODING 197
SWIDTH 656 0
DWIDTH 14 0
BBX 14 21 0 0
BITMAP
0780
04C0
0CC0
0780
0300
0000
0780
0780
07C0
0FC0
0EC0
0CE0
1CE0
1C60
1870
3FF0
3FF0
7038
7038
701C
E01C
ENDCHAR
STARTCHAR C0198
ENCODING 198
SWIDTH 937 0
DWIDTH 20 0
BBX 19 15 0 0
BITMAP
03FFE0
03FFE0
077000
077000
0E7000
0E7000
0C7FC0
1C7FC0
1C7000
3FF000
3FF000
307000
707000
707FE0
E07FE0
ENDCHAR
STARTCHAR C0199
ENCODING 199
SWIDTH 750 0
DWIDTH 16 0
BBX 14 20 1 -4
BITMAP
0100
1FE0
3FF0
7878
703C
E01C
E000
E000
E000
E000
E000
E01C
703C
7C78
3FF0
0FE0
0200
0380
00C0
0380
ENDCHAR
STARTCHAR C0200
ENCODING 200
SWIDTH 562 0
DWIDTH 12 0
BBX 9 20 2 0
BITMAP
7000
3000
1800
1800
0000
FF80
FF80
C000
C000
C000
C000
FF80
FF80
C000
C000
C000
C000
C000
FF80
FF80
ENDCHAR
STARTCHAR C0201
ENCODING 201
SWIDTH 562 0
DWIDTH 12 0
BBX 9 20 2 0
BITMAP
0600
0600
0C00
1800
0000
FF80
FF80
C000
C000
C000
C000
FF80
FF80
C000
C000
C000
C000
C000
FF80
FF80
ENDCHAR
STARTCHAR C0202
ENCODING 202
SWIDTH 562 0
DWIDTH 12 0
BBX 9 20 2 0
BITMAP
1C00
3C00
3600
6300
0000
FF80
FF80
C000
C000
C000
C000
FF80
FF80
C000
C000
C000
C000
C000
FF80
FF80
ENDCHAR
STARTCHAR C0203
ENCODING 203
SWIDTH 562 0
DWIDTH 12 0
BBX 9 20 2 0
BITMAP
2200
7700
7600
0000
0000
FF80
FF80
C000
C000
C000
C000
FF80
FF80
C000
C000
C000
C000
C000
FF80
FF80
ENDCHAR
STARTCHAR C0204
ENCODING 204
SWIDTH 281 0
DWIDTH 6 0
BBX 4 20 0 0
BITMAP
C0
60
60
30
00
30
30
30
30
30
30
30
30
30
30
30
30
30
30
30
ENDCHAR
STARTCHAR C0205
ENCODING 205
SWIDTH 281 0
DWIDTH 6 0
BBX 4 20 2 0
BITMAP
30
60
60
C0
00
C0
C0
C0
C0
C0
C0
C0
C0
C0
C0
C0
C0
C0
C0
C0
ENDCHAR
STARTCHAR C0206
ENCODING 206
SWIDTH 281 0
DWIDTH 6 0
BBX 6 20 0 0
BITMAP
30
78
CC
CC
00
30
30
30
30
30
30
30
30
30
30
30
30
30
30
30
ENDCHAR
STARTCHAR C0207
ENCODING 207
SWIDTH 281 0
DWIDTH 6 0
BBX 6 20 0 0
BITMAP
48
EC
CC
00
00
30
30
30
30
30
30
30
30
30
30
30
30
30
30
30
ENDCHAR
STARTCHAR C0208
ENCODING 208
SWIDTH 750 0
DWIDTH 16 0
BBX 15 15 0 0
BITMAP
3FE0
3FF0
3078
301C
301C
300C
FE0E
FE0E
300E
300C
301C
303C
31F8
3FF0
3FC0
ENDCHAR
STARTCHAR C0209
ENCODING 209
SWIDTH 750 0
DWIDTH 16 0
BBX 12 20 2 0
BITMAP
08C0
1EC0
3780
0000
0000
E030
F030
F030
F830
DC30
DC30
CE30
C730
C730
C3B0
C1F0
C1F0
C0F0
C070
C070
ENDCHAR
STARTCHAR C0210
ENCODING 210
SWIDTH 796 0
DWIDTH 17 0
BBX 15 20 1 0
BITMAP
0E00
0600
0300
0300
0100
1FE0
3FF0
7878
701C
E01C
E00C
E00E
E00E
E00C
E00C
E01C
703C
3CF8
1FF0
0FC0
ENDCHAR
STARTCHAR C0211
ENCODING 211
SWIDTH 796 0
DWIDTH 17 0
BBX 15 20 1 0
BITMAP
00C0
01C0
0180
0300
0100
1FE0
3FF0
7878
701C
E01C
E00C
E00E
E00E
E00C
E00C
E01C
703C
3CF8
1FF0
0FC0
ENDCHAR
STARTCHAR C0212
ENCODING 212
SWIDTH 796 0
DWIDTH 17 0
BBX 15 20 1 0
BITMAP
0380
0780
06C0
0CC0
0100
1FE0
3FF0
7878
701C
E01C
E00C
E00E
E00E
E00C
E00C
E01C
703C
3CF8
1FF0
0FC0
ENDCHAR
STARTCHAR C0213
ENCODING 213
SWIDTH 796 0
DWIDTH 17 0
BBX 15 20 1 0
BITMAP
0460
0F60
09C0
0000
0100
1FE0
3FF0
7878
701C
E01C
E00C
E00E
E00E
E00C
E00C
E01C
703C
3CF8
1FF0
0FC0
ENDCHAR
STARTCHAR C0214
ENCODING 214
SWIDTH 796 0
DWIDTH 17 0
BBX 15 20 1 0
BITMAP
0440
0EE0
0EC0
0000
0100
1FE0
3FF0
7878
701C
E01C
E00C
E00E
E00E
E00C
E00C
E01C
703C
3CF8
1FF0
0FC0
ENDCHAR
STARTCHAR C0215
ENCODING 215
SWIDTH 656 0
DWIDTH 14 0
BBX 10 10 2 2
BITMAP
4080
E1C0
7380
3F00
1E00
1E00
3F00
7380
E1C0
4080
ENDCHAR
STARTCHAR C0216
ENCODING 216
SWIDTH 796 0
DWIDTH 17 0
BBX 15 16 1 0
BITMAP
0100
1FFC
3FF8
7878
707C
E0FC
E1CC
E18E
E30E
E70C
EE0C
EC1C
783C
3EF8
7FF0
EFC0
ENDCHAR
STARTCHAR C0217
ENCODING 217
SWIDTH 703 0
DWIDTH 15 0
BBX 12 20 2 0
BITMAP
1800
1C00
0C00
0600
0000
C070
C070
C070
C070
C070
C070
C070
C070
C070
C070
C070
E0E0
F9E0
7FC0
1F80
ENDCHAR
STARTCHAR C0218
ENCODING 218
SWIDTH 703 0
DWIDTH 15 0
BBX 12 20 2 0
BITMAP
0380
0300
0600
0600
0000
C070
C070
C070
C070
C070
C070
C070
C070
C070
C070
C070
E0E0
F9E0
7FC0
1F80
ENDCHAR
STARTCHAR C0219
ENCODING 219
SWIDTH 703 0
DWIDTH 15 0
BBX 12 20 2 0
BITMAP
0E00
0F00
1B00
3980
0000
C070
C070
C070
C070
C070
C070
C070
C070
C070
C070
C070
E0E0
F9E0
7FC0
1F80
ENDCHAR
STARTCHAR C0220
ENCODING 220
SWIDTH 703 0
DWIDTH 15 0
BBX 12 20 2 0
BITMAP
1100
3B80
1B80
0000
0000
C070
C070
C070
C070
C070
C070
C070
C070
C070
C070
C070
E0E0
F9E0
7FC0
1F80
ENDCHAR
STARTCHAR C0221
ENCODING 221
SWIDTH 609 0
DWIDTH 13 0
BBX 13 20 0 0
BITMAP
01C0
0180
0300
0300
8000
7038
7070
3870
38E0
1CE0
1DC0
0F80
0780
0700
0700
0700
0700
0700
0700
0700
ENDCHAR
STARTCHAR C0222
ENCODING 222
SWIDTH 609 0
DWIDTH 13 0
BBX 11 15 2 0
BITMAP
C000
C000
FC00
FF80
FFC0
C1E0
C0E0
C0E0
C0E0
C3C0
FFC0
FF00
C000
C000
C000
ENDCHAR
STARTCHAR C0223
ENCODING 223
SWIDTH 562 0
DWIDTH 12 0
BBX 11 16 1 0
BITMAP
0C00
3F80
7F80
61C0
E1C0
E1C0
EF80
EF80
EFC0
E0E0
E0E0
E0E0
E0E0
E1C0
EFC0
EF00
ENDCHAR
STARTCHAR C0224
ENCODING 224
SWIDTH 562 0
DWIDTH 12 0
BBX 9 15 1 0
BITMAP
3000
1800
1800
0400
1C00
7F00
F780
E180
0180
7F80
F180
E180
E380
FF80
7D80
ENDCHAR
STARTCHAR C0225
ENCODING 225
SWIDTH 562 0
DWIDTH 12 0
BBX 9 15 1 0
BITMAP
0700
0600
0C00
0000
1C00
7F00
F780
E180
0180
7F80
F180
E180
E380
FF80
7D80
ENDCHAR
STARTCHAR C0226
ENCODING 226
SWIDTH 562 0
DWIDTH 12 0
BBX 9 15 1 0
BITMAP
1C00
1E00
3300
0000
1C00
7F00
F780
E180
0180
7F80
F180
E180
E380
FF80
7D80
ENDCHAR
STARTCHAR C0227
ENCODING 227
SWIDTH 562 0
DWIDTH 12 0
BBX 9 15 1 0
BITMAP
3100
3F00
6700
0000
1C00
7F00
F780
E180
0180
7F80
F180
E180
E380
FF80
7D80
ENDCHAR
STARTCHAR C0228
ENCODING 228
SWIDTH 562 0
DWIDTH 12 0
BBX 9 15 1 0
BITMAP
1200
3700
3300
0000
1C00
7F00
F780
E180
0180
7F80
F180
E180
E380
FF80
7D80
ENDCHAR
STARTCHAR C0229
ENCODING 229
SWIDTH 562 0
DWIDTH 12 0
BBX 9 17 1 0
BITMAP
0C00
1E00
3300
3300
1E00
0C00
1C00
7F00
F780
E180
0180
7F80
F180
E180
E380
FF80
7D80
ENDCHAR
STARTCHAR C0230
ENCODING 230
SWIDTH 890 0
DWIDTH 19 0
BBX 17 11 1 0
BITMAP
1C1800
7F7E00
F7FF00
E1C380
018380
7FFF80
F18000
E1C000
E3C380
FEFF00
7C7E00
ENDCHAR
STARTCHAR C0231
ENCODING 231
SWIDTH 562 0
DWIDTH 12 0
BBX 10 15 1 -4
BITMAP
0C00
3F00
7F80
E1C0
C000
C000
C000
E1C0
E1C0
7F80
3F00
0800
0E00
0200
1E00
ENDCHAR
STARTCHAR C0232
ENCODING 232
SWIDTH 562 0
DWIDTH 12 0
BBX 10 15 1 0
BITMAP
3000
1800
1800
0400
0C00
3F00
7F80
E1C0
C1C0
FFC0
C000
E000
E1C0
7F80
3F00
ENDCHAR
STARTCHAR C0233
ENCODING 233
SWIDTH 562 0
DWIDTH 12 0
BBX 10 15 1 0
BITMAP
0700
0600
0C00
0000
0C00
3F00
7F80
E1C0
C1C0
FFC0
C000
E000
E1C0
7F80
3F00
ENDCHAR
STARTCHAR C0234
ENCODING 234
SWIDTH 562 0
DWIDTH 12 0
BBX 10 15 1 0
BITMAP
1C00
1E00
3300
0000
0C00
3F00
7F80
E1C0
C1C0
FFC0
C000
E000
E1C0
7F80
3F00
ENDCHAR
STARTCHAR C0235
ENCODING 235
SWIDTH 562 0
DWIDTH 12 0
BBX 10 15 1 0
BITMAP
1200
3700
3300
0000
0C00
3F00
7F80
E1C0
C1C0
FFC0
C000
E000
E1C0
7F80
3F00
ENDCHAR
STARTCHAR C0236
ENCODING 236
SWIDTH 234 0
DWIDTH 5 0
BBX 4 15 0 0
BITMAP
C0
E0
60
10
00
70
70
70
70
70
70
70
70
70
70
ENDCHAR
STARTCHAR C0237
ENCODING 237
SWIDTH 234 0
DWIDTH 5 0
BBX 5 15 1 0
BITMAP
38
30
60
00
00
E0
E0
E0
E0
E0
E0
E0
E0
E0
E0
ENDCHAR
STARTCHAR C0238
ENCODING 238
SWIDTH 234 0
DWIDTH 5 0
BBX 7 15 -1 0
BITMAP
38
3C
6C
82
00
38
38
38
38
38
38
38
38
38
38
ENDCHAR
STARTCHAR C0239
ENCODING 239
SWIDTH 234 0
DWIDTH 5 0
BBX 7 15 -1 0
BITMAP
44
EE
6E
00
00
38
38
38
38
38
38
38
38
38
38
ENDCHAR
STARTCHAR C0240
ENCODING 240
SWIDTH 609 0
DWIDTH 13 0
BBX 11 16 1 0
BITMAP
1C00
0F80
0F00
1F80
1180
01C0
3FC0
7FC0
F1C0
E0E0
C0E0
C0E0
E0C0
F1C0
7F80
3F00
ENDCHAR
STARTCHAR C0241
ENCODING 241
SWIDTH 562 0
DWIDTH 12 0
BBX 10 15 1 0
BITMAP
1180
3F80
2780
0000
0600
FF80
FFC0
F1C0
E1C0
E0C0
E0C0
E0C0
E0C0
E0C0
E0C0
ENDCHAR
STARTCHAR C0242
ENCODING 242
SWIDTH 609 0
DWIDTH 13 0
BBX 11 15 1 0
BITMAP
3800
1800
0C00
0000
0C00
3F80
7FC0
E1C0
C0E0
C0E0
C0E0
E0C0
F1C0
7F80
3F00
ENDCHAR
STARTCHAR C0243
ENCODING 243
SWIDTH 609 0
DWIDTH 13 0
BBX 11 15 1 0
BITMAP
0300
0600
0600
0800
0C00
3F80
7FC0
E1C0
C0E0
C0E0
C0E0
E0C0
F1C0
7F80
3F00
ENDCHAR
STARTCHAR C0244
ENCODING 244
SWIDTH 609 0
DWIDTH 13 0
BBX 11 15 1 0
BITMAP
0E00
1E00
3B00
0000
0C00
3F80
7FC0
E1C0
C0E0
C0E0
C0E0
E0C0
F1C0
7F80
3F00
ENDCHAR
STARTCHAR C0245
ENCODING 245
SWIDTH 609 0
DWIDTH 13 0
BBX 11 15 1 0
BITMAP
1180
3F80
2700
0000
0C00
3F80
7FC0
E1C0
C0E0
C0E0
C0E0
E0C0
F1C0
7F80
3F00
ENDCHAR
STARTCHAR C0246
ENCODING 246
SWIDTH 609 0
DWIDTH 13 0
BBX 11 15 1 0
BITMAP
1100
3B80
3300
0000
0C00
3F80
7FC0
E1C0
C0E0
C0E0
C0E0
E0C0
F1C0
7F80
3F00
ENDCHAR
STARTCHAR C0247
ENCODING 247
SWIDTH 656 0
DWIDTH 14 0
BBX 10 11 2 1
BITMAP
0C00
1E00
0C00
0000
0000
FFC0
FFC0
0000
0C00
1E00
0C00
ENDCHAR
STARTCHAR C0248
ENCODING 248
SWIDTH 609 0
DWIDTH 13 0
BBX 11 12 1 -1
BITMAP
0DC0
3F80
7FC0
E3C0
C6E0
CEE0
CCE0
F8C0
F9C0
7F80
7F00
E000
ENDCHAR
STARTCHAR C0249
ENCODING 249
SWIDTH 562 0
DWIDTH 12 0
BBX 10 15 1 0
BITMAP
3800
1800
1C00
0000
0000
E1C0
E1C0
E1C0
E1C0
E1C0
E1C0
E1C0
F3C0
7FC0
3DC0
ENDCHAR
STARTCHAR C0250
ENCODING 250
SWIDTH 562 0
DWIDTH 12 0
BBX 10 15 1 0
BITMAP
0300
0600
0E00
0000
0000
E1C0
E1C0
E1C0
E1C0
E1C0
E1C0
E1C0
F3C0
7FC0
3DC0
ENDCHAR
STARTCHAR C0251
ENCODING 251
SWIDTH 562 0
DWIDTH 12 0
BBX 10 15 1 0
BITMAP
0E00
1E00
3300
0000
0000
E1C0
E1C0
E1C0
E1C0
E1C0
E1C0
E1C0
F3C0
7FC0
3DC0
ENDCHAR
STARTCHAR C0252
ENCODING 252
SWIDTH 562 0
DWIDTH 12 0
BBX 10 15 1 0
BITMAP
1200
3B00
3300
0000
0000
E1C0
E1C0
E1C0
E1C0
E1C0
E1C0
E1C0
F3C0
7FC0
3DC0
ENDCHAR
STARTCHAR C0253
ENCODING 253
SWIDTH 515 0
DWIDTH 11 0
BBX 11 20 0 -5
BITMAP
0380
0300
0600
0000
0000
E0E0
70C0
71C0
3180
3980
3B80
1B00
1F00
0E00
0E00
0E00
0C00
1C00
F800
F000
ENDCHAR
STARTCHAR C0254
ENCODING 254
SWIDTH 609 0
DWIDTH 13 0
BBX 11 21 1 -5
BITMAP
E000
E000
E000
E000
E000
E300
EFC0
FFC0
F0E0
E0E0
E060
E060
E0E0
F1E0
FFC0
EF80
E000
E000
E000
E000
E000
ENDCHAR
STARTCHAR C0255
ENCODING 255
SWIDTH 515 0
DWIDTH 11 0
BBX 11 20 0 -5
BITMAP
1100
3B80
1B80
0000
0000
E0E0
70C0
71C0
3180
3980
3B80
1B00
1F00
0E00
0E00
0E00
0C00
1C00
F800
F000
ENDCHAR
ENDFONT

